<svg width="24" height="25" viewBox="0 0 24 25" fill="none" xmlns="http://www.w3.org/2000/svg">
<g clip-path="url(#clip0_3006_7867)">
<path d="M22.6688 10.7555C22.2603 10.4479 21.847 10.1404 21.7461 9.93372C21.6452 9.72707 21.9527 9.11193 22.0537 8.70344C22.3612 7.98739 22.6688 7.1656 22.3612 6.55046C21.9527 5.93532 21.131 5.8344 20.3092 5.72867C19.9007 5.72867 19.2855 5.62775 19.0789 5.42111C18.8722 5.21446 18.8722 4.70505 18.7713 4.19083C18.6704 3.36904 18.5647 2.55206 17.9495 2.13877C17.3344 1.72547 16.5126 2.13877 15.7966 2.44634C15.3881 2.65298 14.8738 2.85483 14.5663 2.7539C14.3596 2.65298 14.0521 2.23969 13.7445 1.8312C13.2303 1.21606 12.7209 0.5 12 0.5C11.2791 0.5 10.7697 1.21606 10.2555 1.8312C9.94794 2.23969 9.64037 2.65298 9.43372 2.7539C9.22707 2.85483 8.61193 2.54726 8.20344 2.44634C7.48739 2.13877 6.6656 1.8312 6.05046 2.13877C5.43532 2.54726 5.3344 3.36904 5.22867 4.19083C5.22867 4.59932 5.12775 5.21446 4.92111 5.42111C4.71446 5.62775 4.20505 5.62775 3.69083 5.72867C2.86904 5.8296 2.05206 5.93532 1.63877 6.55046C1.23028 7.1656 1.63877 7.98739 1.94634 8.70344C2.15298 9.11193 2.35483 9.62615 2.2539 9.93372C2.15298 10.1404 1.73969 10.4479 1.3312 10.7555C0.716059 11.2697 0 11.7791 0 12.5C0 13.2209 0.716059 13.8312 1.3312 14.2445C1.73969 14.5521 2.15298 14.8596 2.2539 15.0663C2.35483 15.2729 2.04726 15.8881 1.94634 16.2966C1.63877 17.0126 1.3312 17.8344 1.63877 18.4495C2.04726 19.0647 2.86904 19.1656 3.69083 19.2713C4.09932 19.2713 4.71446 19.3722 4.92111 19.5789C5.12775 19.7855 5.12775 20.295 5.22867 20.8092C5.3296 21.631 5.43532 22.4479 6.05046 22.8612C6.6656 23.2745 7.48739 22.8612 8.20344 22.5537C8.61193 22.347 9.12615 22.1452 9.43372 22.2461C9.64037 22.347 9.94794 22.7603 10.2555 23.1688C10.7697 23.7839 11.2791 24.5 12 24.5C12.7209 24.5 13.2303 23.7839 13.7445 23.1688C14.0521 22.7603 14.3596 22.347 14.5663 22.2461C14.7729 22.1452 15.3881 22.4527 15.7966 22.5537C16.5126 22.8612 17.3344 23.1688 17.9495 22.8612C18.5647 22.4527 18.6656 21.631 18.7713 20.8092C18.7713 20.4007 18.8722 19.7855 19.0789 19.5789C19.2855 19.3722 19.795 19.3722 20.3092 19.2713C21.131 19.1704 21.9479 19.0647 22.3612 18.4495C22.7697 17.8344 22.3612 17.0126 22.0537 16.2966C21.847 15.8881 21.6452 15.3738 21.7461 15.0663C21.847 14.8596 22.2603 14.5521 22.6688 14.2445C23.2839 13.7303 24 13.2209 24 12.5C24 11.7791 23.2839 11.2697 22.6688 10.7555ZM22.0537 13.4227C21.5394 13.8312 20.9243 14.2445 20.8234 14.7539C20.6167 15.369 20.9243 15.9842 21.2319 16.5993C21.4385 17.0078 21.6404 17.6229 21.5394 17.8296C21.4385 18.0362 20.7177 18.1372 20.3092 18.1372C19.5931 18.2381 18.8722 18.3438 18.4638 18.7523C18.0553 19.1608 17.9495 19.8817 17.8486 20.5977C17.8486 21.0062 17.7477 21.7271 17.541 21.828C17.3344 21.9289 16.7193 21.6213 16.3108 21.5204C15.6956 21.2129 14.9796 21.0062 14.4654 21.1119C13.8502 21.2129 13.4417 21.828 13.0284 22.3422C12.7209 22.7507 12.3124 23.2649 12.1057 23.2649C11.8991 23.2649 11.4906 22.7507 11.183 22.3422C10.7745 21.828 10.3612 21.2129 9.85182 21.1119C9.7509 21.1119 9.64517 21.1119 9.54425 21.1119C9.03004 21.1119 8.52063 21.3186 8.00641 21.5204C7.59792 21.7271 6.98278 21.9289 6.77613 21.828C6.56948 21.7271 6.46856 21.0062 6.46856 20.5977C6.36764 19.8817 6.26191 19.1608 5.85342 18.7523C5.44493 18.3438 4.72407 18.2381 4.00801 18.1372C3.59952 18.1372 2.87865 18.0362 2.77773 17.8296C2.67681 17.6229 2.98438 17.0078 3.0853 16.5993C3.39287 15.9842 3.59952 15.2681 3.49379 14.7539C3.39287 14.1388 2.77773 13.7303 2.26352 13.4227C1.85503 13.1151 1.34081 12.7066 1.34081 12.5C1.34081 12.2934 1.85503 11.8849 2.26352 11.5773C2.77773 11.1688 3.39287 10.7555 3.49379 10.2461C3.70044 9.63096 3.39287 9.01582 3.0853 8.40068C2.87865 7.99219 2.67681 7.37705 2.77773 7.1704C2.87865 6.96376 3.59952 6.86284 4.00801 6.86284C4.72407 6.76191 5.44493 6.65619 5.85342 6.2477C6.26191 5.83921 6.36764 5.11834 6.46856 4.40228C6.46856 3.99379 6.56948 3.27293 6.77613 3.17201C6.98278 3.07109 7.59792 3.37865 8.00641 3.47958C8.62155 3.78714 9.33761 3.99379 9.85182 3.88807C10.467 3.78714 10.8755 3.17201 11.2887 2.65779C11.5963 2.2493 12.0048 1.73508 12.2115 1.73508C12.4181 1.73508 12.8266 2.2493 13.1342 2.65779C13.5427 3.17201 13.9559 3.78714 14.4654 3.88807C15.0805 4.09471 15.6956 3.78714 16.3108 3.47958C16.7193 3.27293 17.3344 3.07109 17.541 3.17201C17.7477 3.27293 17.8486 3.99379 17.8486 4.40228C17.9495 5.11834 18.0553 5.83921 18.4638 6.2477C18.8722 6.65619 19.5931 6.76191 20.3092 6.86284C20.7177 6.86284 21.4385 6.96376 21.5394 7.1704C21.6404 7.37705 21.3328 7.99219 21.2319 8.40068C20.9243 9.01582 20.7177 9.73188 20.8234 10.2461C20.9243 10.8612 21.5394 11.2697 22.0537 11.5773C22.4622 11.8849 22.9764 12.2934 22.9764 12.5C22.9764 12.7066 22.4622 13.1151 22.0537 13.4227Z" fill="#6CC25E"/>
<path d="M6.26183 11.9907C5.64669 11.8898 5.54577 11.6831 5.54577 11.4765C5.54577 11.1689 5.75242 10.9623 6.05999 10.9623C6.36755 10.9623 6.5742 11.1689 6.5742 11.4765C6.5742 11.784 6.78085 11.9907 7.08842 11.9907C7.39599 11.9907 7.60264 11.6831 7.60264 11.4765C7.50172 10.6547 6.88658 10.0396 6.06479 10.0396C5.243 10.0396 4.52695 10.7556 4.52695 11.5774C4.52695 12.0916 4.73359 12.8077 5.85814 13.1152H5.95906C6.47328 13.2162 6.5742 13.4228 6.5742 13.6295C6.5742 13.937 6.36755 14.1437 6.05999 14.1437C5.75242 14.1437 5.54577 13.937 5.54577 13.6295C5.54577 13.3219 5.2382 13.1152 5.03155 13.1152C4.72398 13.1152 4.51733 13.4228 4.51733 13.6295C4.61826 14.4512 5.23339 15.0664 6.05518 15.0664C6.87697 15.0664 7.59302 14.3503 7.59302 13.5285C7.59302 13.0143 7.38638 12.2983 6.26183 11.9907Z" fill="#6CC25E"/>
<path d="M10.6687 10.3469C10.5678 9.9384 9.7508 9.9384 9.64507 10.3469L8.62144 14.4462C8.52052 14.7538 8.72236 14.9604 9.02993 15.0614C9.3375 15.1623 9.54415 14.9604 9.64507 14.6529L9.85172 14.0377H10.5678L10.7744 14.6529C10.8753 14.8595 11.082 15.0614 11.2886 15.0614H11.3896C11.6971 14.9604 11.7981 14.7538 11.7981 14.4462L10.6687 10.3469ZM10.0584 13.0141L10.1593 12.6056L10.2602 13.0141H10.0584Z" fill="#6CC25E"/>
<path d="M15.2872 14.038H13.7494V10.4481C13.7494 10.1405 13.5427 9.93384 13.2352 9.93384C12.9276 9.93384 12.7209 10.1405 12.7209 10.4481V14.5474C12.7209 14.8549 12.9276 15.0616 13.2352 15.0616H15.2872C15.5948 15.0616 15.8014 14.8549 15.8014 14.5474C15.7966 14.2446 15.5948 14.038 15.2872 14.038Z" fill="#6CC25E"/>
<path d="M19.3863 13.0095C19.6939 13.0095 19.9006 12.8029 19.9006 12.4953C19.9006 12.1877 19.6939 11.9811 19.3863 11.9811H17.8485V10.9623H19.3863C19.6939 10.9623 19.9006 10.7556 19.9006 10.4481C19.9006 10.1405 19.6939 9.93384 19.3863 9.93384H17.3343C17.0267 9.93384 16.8201 10.1405 16.8201 10.4481V14.5474C16.8201 14.8549 17.0267 15.0616 17.3343 15.0616H19.3863C19.6939 15.0616 19.9006 14.8549 19.9006 14.5474C19.9006 14.2398 19.6939 14.0332 19.3863 14.0332H17.8485V13.0095H19.3863Z" fill="#6CC25E"/>
</g>
<defs>
<clipPath id="clip0_3006_7867">
<rect width="24" height="24" fill="white" transform="translate(0 0.5)"/>
</clipPath>
</defs>
</svg>
