<svg width="24" height="25" viewBox="0 0 24 25" fill="none" xmlns="http://www.w3.org/2000/svg">
<g clip-path="url(#clip0_3006_5588)">
<path d="M23.0329 8.30756C22.5797 7.73935 21.9999 7.31281 21.3579 7.06756C21.5541 6.65975 21.657 6.21376 21.657 5.74971C21.657 4.29047 20.4968 3.09718 19.0504 3.04365C18.4957 1.42987 16.6812 0.804508 15.2991 1.41724C15.2684 1.38235 14.5403 0.5 13.2358 0.5C12.4926 0.5 11.794 0.789349 11.2686 1.31485C10.598 1.98545 10.1659 2.95694 10.2375 4.07982C10.0234 4.04526 9.81295 4.16992 9.72514 4.36159L7.49997 9.45404C7.15628 10.2411 6.937 11.0733 6.84929 11.928L6.59264 14.4272C6.25519 13.973 5.78694 13.7887 5.32661 13.8134C4.85645 13.8384 4.41876 14.0828 4.17379 14.4785C3.91047 14.9039 3.85941 15.5101 4.19581 16.0379L3.20864 16.6205C2.58961 16.9857 2.01992 17.4305 1.51549 17.9425L0.505823 18.9672C0.0898187 19.3894 -0.0560476 20.0005 0.125094 20.562C0.737779 22.4608 2.03075 23.7515 3.96247 24.4144C4.59947 24.633 5.22994 24.4055 5.58564 24.0376L6.61295 23.0179C7.11643 22.5183 7.5544 21.955 7.91478 21.3438L8.48566 20.3757C9.01555 20.6979 9.60588 20.631 10.058 20.3141C10.4582 20.0336 10.6727 19.6159 10.6873 19.173C10.7013 18.748 10.5367 18.332 10.074 17.9533C10.074 17.9533 12.8229 17.6616 12.9266 17.6544C13.5141 17.6137 13.4483 16.6647 12.8608 16.7054C12.8384 16.7069 9.75946 17.0272 9.75946 17.0272C9.47393 17.0522 9.05416 17.0107 8.67929 16.6434L7.89848 15.8626C7.55722 15.5068 7.48414 15.1331 7.51474 14.7824L7.7979 12.0252C7.8756 11.2687 8.06913 10.5323 8.37373 9.83582L9.04586 8.2975C9.70035 9.52121 10.564 10.6068 11.5737 11.5652C13.2721 13.1772 15.697 14.3581 18.0524 14.7057C17.9341 14.7574 16.6914 15.3005 16.6914 15.3005C16.118 15.5511 16.4999 16.4249 17.0733 16.1743L20.0907 14.8554C22.2209 14.8083 23.9436 13.0649 23.9515 10.9219C23.9551 9.98331 23.6288 9.05486 23.0329 8.30756ZM9.54638 18.7594C9.8038 18.9851 9.80818 19.3259 9.48651 19.5511C9.16484 19.7762 8.76352 19.5064 8.73564 19.1899L8.58429 17.8974C8.8845 18.1795 9.20903 18.4636 9.54638 18.7594ZM4.97572 14.9941C5.14561 14.7185 5.56819 14.6827 5.78099 14.9425C6.05174 15.2731 6.33151 15.6035 6.62682 15.9245L5.32532 15.744C4.98082 15.6929 4.81322 15.2578 4.97572 14.9941ZM7.64483 18.0476L7.83174 19.6077L7.09359 20.8596C6.77464 21.4005 6.387 21.8991 5.94144 22.3413L4.91413 23.361C4.74538 23.5285 4.49226 23.5877 4.26946 23.5118C2.61369 22.9488 1.55487 21.8881 1.03252 20.2693C0.960821 20.0471 1.01926 19.8046 1.18505 19.6364L2.19468 18.6117C2.64119 18.1585 3.14533 17.7648 3.69324 17.4416L5.00918 16.665L6.53015 16.8745L3.2983 18.7815C3.07159 18.9153 2.99623 19.2075 3.13003 19.4342C3.26384 19.661 3.55614 19.7364 3.78281 19.6025L6.60208 17.939L4.9392 20.7592C4.80549 20.986 4.88052 21.279 5.10771 21.4119C5.32522 21.5392 5.62659 21.4747 5.76044 21.2434L7.64483 18.0476ZM15.6765 5.65561C16.0405 4.95326 16.0925 4.11424 15.794 3.36122C15.8757 2.99765 15.8646 2.6173 15.7608 2.25831C16.6221 1.92753 17.6837 2.29983 18.0943 3.21898C17.3327 3.55018 16.7988 4.30987 16.7988 5.19194C16.7988 6.14683 17.5757 6.92369 18.5306 6.92369C19.3125 6.92369 19.9487 6.28755 19.9487 5.50569C19.9487 5.24246 19.7352 5.029 19.472 5.029C19.2087 5.029 18.9953 5.24246 18.9953 5.50569C18.9953 5.76191 18.7868 5.97032 18.5306 5.97032C18.1014 5.97032 17.7522 5.62114 17.7522 5.19194C17.7522 4.53201 18.2891 3.99516 18.949 3.99516C19.9165 3.99516 20.7036 4.78227 20.7036 5.74975C20.7036 7.13343 19.4198 8.01092 18.1756 8.07851C17.7643 7.78807 17.2836 7.61603 16.7762 7.58004C15.9033 7.46163 15.3197 6.51188 15.6765 5.65561ZM11.9427 1.98898C12.5299 1.38197 13.7119 1.18624 14.5288 1.98898C15.0214 2.47296 15.0171 3.27174 14.5288 3.76002C14.2091 4.07963 13.6887 4.07978 13.369 3.76002C13.1756 3.56667 13.1756 3.25206 13.369 3.05871C13.5552 2.87257 13.5552 2.57073 13.369 2.38453C13.1829 2.19844 12.881 2.19844 12.6949 2.38453C12.1298 2.9496 12.1298 3.86908 12.6949 4.43415C13.3289 5.06809 14.3275 5.12081 15.022 4.59212C14.9753 4.9881 14.7987 5.36736 14.5043 5.66176C13.7981 6.36802 12.6405 6.37641 11.9426 5.66176C10.8487 4.5415 11.0086 2.9546 11.9427 1.98898ZM9.545 7.15493L10.353 5.30586C11.0547 5.99925 11.5938 6.83746 11.7797 7.8171C11.9113 8.51397 12.1091 9.20135 12.3679 9.86013C12.6292 10.5261 12.9562 11.1705 13.339 11.775C11.6887 10.5957 10.3768 8.99828 9.545 7.15493ZM12.7164 7.6402C12.6801 7.44666 12.6335 7.25647 12.577 7.07018C13.289 7.23554 14.0571 7.12481 14.6804 6.73202C14.7656 7.13758 15.0411 7.6086 15.3206 7.87025C15.0605 8.00191 14.8201 8.17561 14.6079 8.38774C14.0752 8.92053 13.7326 9.59276 13.6143 10.3221C13.1964 9.47897 12.8936 8.57841 12.7164 7.6402ZM17.8437 12.7347C17.1375 13.441 15.9883 13.441 15.282 12.7347C14.7915 12.2442 14.5213 11.592 14.5213 10.8984C14.5213 10.2047 14.7915 9.55243 15.282 9.06192C16.0082 8.33569 17.1963 8.37964 17.8681 9.06192C18.3526 9.55396 18.3505 10.3389 17.8681 10.833C17.5722 11.1359 17.0486 11.1752 16.7083 10.833C16.5369 10.6605 16.4973 10.3471 16.7083 10.1317C16.8925 9.94365 16.8945 9.64371 16.7083 9.45752C16.5222 9.27142 16.2203 9.27142 16.0341 9.45752C15.4691 10.0226 15.4693 10.9418 16.0341 11.5071C16.8241 12.2977 17.9097 12.0455 18.3613 11.6653C18.3146 12.0612 18.1381 12.4404 17.8437 12.7347ZM22.1616 12.975C21.612 13.5466 20.8391 13.903 19.9887 13.903C19.3522 13.903 18.7236 13.8516 18.1057 13.7496C18.4577 13.5274 18.8317 13.0944 18.9807 12.7954C19.5496 13.281 20.4081 13.255 20.9458 12.7173C21.132 12.5312 21.132 12.2294 20.9458 12.0432C20.7597 11.8571 20.455 11.8543 20.2717 12.0432C20.091 12.2292 19.771 12.2425 19.5704 12.0432C19.2538 11.7287 19.2514 11.1959 19.5704 10.8834C19.8179 10.6409 20.3369 10.4337 20.868 10.3741C21.3929 10.3152 21.8607 10.4056 22.0594 10.6044C22.7416 11.2866 22.7755 12.2619 22.1616 12.975ZM20.7618 9.42677C20.1587 9.49437 19.597 9.691 19.1882 9.96986C19.1883 9.96238 19.1883 9.9549 19.1883 9.94741C19.1883 9.58618 19.1021 9.23825 18.9393 8.92706C19.6074 8.77943 20.3148 8.39194 20.7913 7.88302C21.7997 8.17042 22.6095 9.04719 22.8911 10.0996C22.4151 9.49656 21.5945 9.33325 20.7618 9.42677ZM15.3936 16.5964C15.3936 16.8598 15.1801 17.0733 14.9167 17.0733C14.6533 17.0733 14.4398 16.8598 14.4398 16.5964C14.4398 16.3331 14.6533 16.1196 14.9167 16.1196C15.1801 16.1196 15.3936 16.3331 15.3936 16.5964Z" fill="#6CC25E"/>
</g>
<defs>
<clipPath id="clip0_3006_5588">
<rect width="24" height="24" fill="white" transform="translate(0 0.5)"/>
</clipPath>
</defs>
</svg>
