<svg width="24" height="25" viewBox="0 0 24 25" fill="none" xmlns="http://www.w3.org/2000/svg">
<g clip-path="url(#clip0_3006_5186)">
<path d="M11.9772 0.5L0.017334 6.44174V24.5H5.37424V12.8352C6.6879 13.4532 8.31292 13.3455 9.55638 12.413C10.9961 13.4926 13.0022 13.4937 14.4434 12.413C15.6677 13.331 17.2872 13.4637 18.6255 12.8345V24.5H23.9824C23.9824 24.0414 23.9824 7.2216 23.9824 6.44146L11.9772 0.5ZM11.9784 2.07347L21.0239 6.5501C18.4366 6.5501 5.32433 6.5501 2.96762 6.5501L11.9784 2.07347ZM3.96452 23.0903H1.42704V13.1446C2.25713 13.3087 3.15695 13.2171 3.96452 12.8371V23.0903ZM22.5727 23.0903H20.0352V12.8371C20.8406 13.2161 21.7412 13.309 22.5727 13.1446V23.0903ZM22.5727 11.6911C21.6432 11.982 20.576 11.7554 19.8394 10.9863L19.3298 10.4541L18.8208 10.9868C18.3221 11.5088 17.6265 11.8126 16.8869 11.8126C15.6069 11.8126 15.0162 11.0529 14.4434 10.4547C13.8722 11.0511 13.2849 11.8126 11.9999 11.8126C10.7198 11.8126 10.1293 11.053 9.55638 10.4547C8.98521 11.0512 8.39802 11.8126 7.11288 11.8126C5.79593 11.8126 5.17669 10.9844 4.67253 10.4514L4.16033 10.9863C3.42461 11.7546 2.35764 11.9824 1.42704 11.6911V7.95986H22.5727V11.6911Z" fill="#6CC25E"/>
</g>
<defs>
<clipPath id="clip0_3006_5186">
<rect width="24" height="24" fill="white" transform="translate(0 0.5)"/>
</clipPath>
</defs>
</svg>
