<svg width="24" height="25" viewBox="0 0 24 25" fill="none" xmlns="http://www.w3.org/2000/svg">
<g clip-path="url(#clip0_3006_5138)">
<path d="M18.1842 15.2764H14.7061C13.8358 15.2764 13.0464 15.6281 12.4719 16.1967V14.6066C12.6313 14.6229 12.7919 14.6313 12.9531 14.6313C13.8955 14.6313 14.8524 14.3552 15.661 13.83C16.656 13.1837 17.2981 12.233 17.4693 11.1532C17.5102 10.8958 17.3346 10.6539 17.0771 10.6131C16.8195 10.5719 16.5778 10.748 16.537 11.0055C16.4082 11.8175 15.9146 12.5395 15.1468 13.0383C14.2271 13.6358 13.0243 13.8379 12.0077 13.5656C11.0713 13.3152 10.2922 12.6827 9.8139 11.7848C9.32995 10.876 9.21459 9.8118 9.48925 8.78806C9.92174 7.17344 11.0462 5.80326 12.2774 4.80058C12.2898 4.79161 12.3017 4.7819 12.3133 4.77147C12.8685 4.32341 13.444 3.94969 13.9869 3.66203C14.1421 3.57982 14.2888 3.50786 14.4265 3.44487C14.4285 3.44414 14.4303 3.44304 14.4324 3.44231C14.9985 3.18395 15.4131 3.07884 15.6504 3.05357C15.6385 3.07298 15.6247 3.09404 15.6092 3.11675C15.0273 3.96892 15.3786 4.99211 15.7855 6.17698C15.8811 6.45549 15.98 6.74333 16.0757 7.05039C16.1534 7.29942 16.4181 7.43803 16.667 7.36039C16.9158 7.28275 17.0544 7.01798 16.9768 6.76914C16.877 6.44908 16.7759 6.15483 16.6781 5.87028C16.2922 4.7462 16.0884 4.08885 16.3887 3.6494C16.7056 3.18523 16.7669 2.79173 16.5712 2.47954C16.4352 2.26274 16.1266 2.02636 15.4283 2.13127C15.1402 2.17467 14.8152 2.26696 14.4692 2.40026C14.3225 2.07231 14.2974 1.87603 14.3683 1.71654C14.7024 0.964711 14.2919 0.664785 14.1581 0.590628C13.7545 0.367239 13.1277 0.557303 12.2955 1.15551C12.1501 1.25988 11.9593 1.40691 11.7433 1.59533C11.1473 1.08007 9.93383 0.167289 9.27465 0.626516C9.12853 0.728323 8.8211 1.03814 9.12194 1.71709C9.18127 1.85021 9.1723 2.01189 9.08441 2.24883C8.36132 2.03313 7.84607 2.06115 7.54998 2.33397C7.35827 2.51085 7.11108 2.9168 7.61151 3.6494C7.91162 4.08849 7.708 4.7451 7.3222 5.86772C6.90619 7.07877 6.33618 8.73716 6.49438 10.844C6.57898 11.9653 7.15851 12.9733 8.12603 13.6823C8.96429 14.2964 10.0252 14.6289 11.0625 14.6289C11.2185 14.6289 11.374 14.6211 11.5281 14.6059V16.1967C10.9535 15.6281 10.1642 15.2764 9.29388 15.2764H5.8158C5.55505 15.2764 5.34375 15.4877 5.34375 15.7484V18.4542C5.34375 20.2072 6.76941 21.6334 8.52191 21.6334H11.5281V24.0279C11.5281 24.2886 11.7394 24.4999 12 24.4999C12.2607 24.4999 12.472 24.2886 12.472 24.0279V21.6334H15.4781C17.2306 21.6334 18.6562 20.2072 18.6562 18.4542V15.7484C18.6562 15.4877 18.4449 15.2764 18.1842 15.2764ZM13.4256 1.56566C13.3218 1.98516 13.4319 2.39586 13.6097 2.79228C13.0765 3.0706 12.5246 3.42088 11.9996 3.81932C11.7909 3.66093 11.5777 3.51006 11.3624 3.36778C11.5873 3.07701 11.8215 2.81883 12.0524 2.59325C12.063 2.58409 12.0734 2.57475 12.0833 2.5645C12.0862 2.56157 12.0886 2.55828 12.0914 2.55535C12.6037 2.06188 13.0953 1.73046 13.4256 1.56566ZM11.0671 2.25579C10.8957 2.44292 10.721 2.65001 10.5487 2.87853C10.3531 2.77233 10.1583 2.67455 9.96569 2.58666C10.0895 2.25707 10.1515 1.91503 10.0648 1.56603C10.3171 1.69091 10.6699 1.91594 11.0671 2.25579ZM7.43554 10.7731C7.29181 8.8602 7.80358 7.37119 8.21484 6.17479C8.62152 4.99101 8.97289 3.96855 8.3908 3.11675C8.37432 3.09258 8.35986 3.07024 8.34722 3.04973C8.53417 3.06877 8.81616 3.14055 9.16387 3.2733C9.16918 3.27532 9.17431 3.27751 9.17962 3.27934C9.53484 3.41631 9.95763 3.61644 10.4176 3.8889C10.4187 3.88963 10.42 3.89073 10.4211 3.89146C10.4271 3.89549 10.4335 3.89824 10.4396 3.90208C10.6999 4.05717 10.972 4.23534 11.2504 4.43822C10.218 5.36638 9.05877 6.74699 8.57757 8.54343C8.24047 9.79898 8.38366 11.1078 8.98077 12.2288C9.25506 12.7437 9.60955 13.1894 10.0263 13.5526C9.544 13.4265 9.08276 13.213 8.68359 12.9206C7.94238 12.3773 7.49908 11.6147 7.43554 10.7731ZM6.28766 18.4542V16.2205H9.29369C10.5258 16.2205 11.5279 17.2226 11.5279 18.4542V20.6892H8.52191C7.28997 20.6892 6.28766 19.6867 6.28766 18.4542ZM17.7123 18.4542C17.7123 19.6867 16.71 20.6892 15.4781 20.6892H12.4719V18.4542C12.4719 17.2226 13.4742 16.2205 14.7061 16.2205H17.7123V18.4542Z" fill="#6CC25E"/>
<path d="M16.5247 9.01666V9.02582C16.5247 9.28656 16.736 9.49786 16.9965 9.49786C17.2573 9.49786 17.4686 9.28656 17.4686 9.02582V9.01666C17.4686 8.75592 17.2573 8.54443 16.9965 8.54443C16.7358 8.54443 16.5247 8.75592 16.5247 9.01666Z" fill="#6CC25E"/>
</g>
<defs>
<clipPath id="clip0_3006_5138">
<rect width="24" height="24" fill="white" transform="translate(0 0.5)"/>
</clipPath>
</defs>
</svg>
