<svg width="24" height="25" viewBox="0 0 24 25" fill="none" xmlns="http://www.w3.org/2000/svg">
<g clip-path="url(#clip0_3006_4870)">
<path d="M22.8392 12.5471C22.5786 9.22475 20.5131 0.5 17.0938 0.5H7.10599C3.68551 0.5 1.43168 9.2864 1.16189 12.5471H0.208008L2.78716 24.5H21.213L23.7922 12.5471H22.8392ZM7.10599 1.91176H17.0938C18.9419 1.91176 21.0914 8.71101 21.424 12.5471H16.7424L19.4043 9.88579L16.4762 9.15327L15.7438 6.22532L14.5883 7.3808V4.4768L12.0001 6.02974L9.41187 4.4768V7.3808L8.25638 6.22532L7.52396 9.15327L4.59587 9.88579L7.2578 12.5471H2.57968C2.95549 8.58282 5.3042 1.91176 7.10599 1.91176ZM16.6429 10.6502L15.5278 11.7651C15.1425 12.1504 14.5156 12.1504 14.1303 11.7651L13.8644 11.4992C13.5912 11.226 13.506 10.8158 13.6357 10.46C13.9212 10.2434 14.1566 9.96438 14.3221 9.64353L14.9793 8.98645L15.3122 10.3173L16.6429 10.6502ZM12.1883 9.53529H11.8119C11.2669 9.53529 10.8236 9.09195 10.8236 8.54706V6.97026L12.0001 7.67614L13.1766 6.97026V8.54706C13.1766 9.09195 12.7333 9.53529 12.1883 9.53529ZM12.9157 12.5471H11.0845C11.5476 12.0839 11.7912 11.5544 11.8294 10.9471H12.1708C12.209 11.5543 12.4526 12.0839 12.9157 12.5471ZM10.1358 11.4992L9.86994 11.7651C9.48462 12.1503 8.85775 12.1504 8.47238 11.765L7.35728 10.6502L8.68801 10.3173L9.02095 8.98645L9.67808 9.64353C9.84363 9.96433 10.079 10.2434 10.3645 10.46C10.4942 10.8158 10.409 11.226 10.1358 11.4992ZM20.8045 19.7H18.4001V21.1118H20.4999L20.0734 23.0882H3.92678L3.50029 21.1118H5.6001V19.7H3.19568L1.9569 13.9588H22.0434L20.8045 19.7Z" fill="#6CC25E"/>
<path d="M10.8706 19.7H13.1294V21.1117H10.8706V19.7Z" fill="#6CC25E"/>
<path d="M8.98828 15.9353H11.2471V17.3471H8.98828V15.9353Z" fill="#6CC25E"/>
<path d="M12.7529 15.9353H15.0118V17.3471H12.7529V15.9353Z" fill="#6CC25E"/>
<path d="M16.5178 15.9353H18.7766V17.3471H16.5178V15.9353Z" fill="#6CC25E"/>
<path d="M5.22363 15.9353H7.48246V17.3471H5.22363V15.9353Z" fill="#6CC25E"/>
<path d="M7.10596 19.7H9.36478V21.1117H7.10596V19.7Z" fill="#6CC25E"/>
<path d="M14.6355 19.7H16.8943V21.1117H14.6355V19.7Z" fill="#6CC25E"/>
</g>
<defs>
<clipPath id="clip0_3006_4870">
<rect width="24" height="24" fill="white" transform="translate(0 0.5)"/>
</clipPath>
</defs>
</svg>
