<svg width="24" height="25" viewBox="0 0 24 25" fill="none" xmlns="http://www.w3.org/2000/svg">
<g clip-path="url(#clip0_3006_5157)">
<path d="M12.5003 7.5C12.2243 7.5 12.0002 7.72402 12.0002 8.00002V17C12.0002 17.276 12.2243 17.5 12.5003 17.5C12.7763 17.5 13.0003 17.276 13.0003 17V8.00002C13.0003 7.72402 12.7763 7.5 12.5003 7.5Z" fill="#6CC25E"/>
<path d="M10.2542 10.155C9.20324 9.103 7.47022 8.5 5.5002 8.5C5.29822 8.5 5.11522 8.62202 5.0382 8.809C4.9602 8.99598 5.00319 9.21002 5.1462 9.35402C5.60122 9.808 5.74719 10.7 5.88922 11.564C6.0342 12.442 6.17024 13.27 6.6552 13.755C7.15119 14.251 7.80322 14.499 8.4552 14.499C9.1062 14.499 9.75819 14.25 10.2542 13.755C11.2472 12.762 11.2472 11.147 10.2542 10.155ZM9.54819 13.047C8.94519 13.65 7.96517 13.65 7.36217 13.047C7.10516 12.79 6.98816 12.084 6.87617 11.401C6.77619 10.791 6.66716 10.129 6.43119 9.553C7.7292 9.70502 8.85519 10.17 9.54819 10.861C10.1512 11.464 10.1512 12.444 9.54819 13.047Z" fill="#6CC25E"/>
<path d="M10.7521 13.4541C10.5502 13.2991 10.3741 13.1671 10.2551 13.0481C10.0601 12.8531 9.74311 12.8531 9.54811 13.0481C9.35311 13.2431 9.35311 13.5601 9.54811 13.7551C9.69112 13.8981 9.90009 14.0611 10.1431 14.2471C10.9261 14.8481 12.0001 15.6711 12.0001 17.0001C12.0001 17.2761 12.2241 17.5002 12.5001 17.5002C12.7761 17.5002 13.0001 17.2761 13.0001 17.0001C13.0001 15.1771 11.5921 14.0981 10.7521 13.4541Z" fill="#6CC25E"/>
<path d="M18.8992 16.699C18.8052 16.574 18.6572 16.5 18.5002 16.5H6.50021C6.34323 16.5 6.19519 16.574 6.10121 16.699C6.00619 16.824 5.97619 16.986 6.01923 17.137L8.01924 24.137C8.08126 24.352 8.27724 24.5 8.50023 24.5H16.5002C16.7232 24.5 16.9193 24.352 16.9812 24.137L18.9812 17.137C19.0242 16.987 18.9932 16.824 18.8992 16.699ZM16.1232 23.5H8.87724L7.16326 17.5H17.8373L16.1232 23.5Z" fill="#6CC25E"/>
<path d="M16.7793 3.60898C16.4633 2.636 15.4663 2.06497 14.4863 2.26597C14.3703 1.27302 13.5232 0.5 12.5002 0.5C11.4772 0.5 10.6303 1.27302 10.5133 2.26602C9.52926 2.06802 8.53626 2.63502 8.22027 3.60903C7.90429 4.58305 8.37726 5.62602 9.28626 6.04405C8.79627 6.91606 9.02727 8.03905 9.85527 8.64003C10.2883 8.95503 10.8173 9.08005 11.3443 8.99802C11.7933 8.927 12.1963 8.71002 12.5002 8.38002C12.8042 8.71002 13.2073 8.927 13.6573 8.99802C13.7632 9.01503 13.8693 9.023 13.9743 9.023C14.3933 9.023 14.7993 8.89198 15.1453 8.63999C15.9723 8.039 16.2033 6.91597 15.7143 6.044C16.6213 5.62602 17.0953 4.58202 16.7793 3.60898ZM15.1852 5.18C15.0493 5.22402 14.9012 5.23602 14.7502 5.216C14.5153 5.19102 14.2862 5.32798 14.2112 5.55702C14.1372 5.78502 14.2362 6.03402 14.4462 6.15003C14.5832 6.22503 14.6942 6.32005 14.7772 6.43503C15.1012 6.88105 15.0022 7.50805 14.5562 7.83205C14.3402 7.98903 14.0762 8.05203 13.8122 8.01106C13.5482 7.96906 13.3172 7.82708 13.1602 7.61108C13.0772 7.49609 13.0202 7.36109 12.9912 7.20809C12.9472 6.97208 12.7402 6.80108 12.5002 6.80108C12.2602 6.80108 12.0532 6.97208 12.0072 7.20809C11.9782 7.36109 11.9212 7.49609 11.8382 7.61108C11.6812 7.82708 11.4492 7.96906 11.1852 8.01106C10.9222 8.05208 10.6572 7.98908 10.4412 7.83205C9.99421 7.50805 9.89521 6.88203 10.2192 6.43606C10.3022 6.32005 10.4142 6.22508 10.5502 6.15008C10.7612 6.03509 10.8592 5.78609 10.7852 5.55706C10.7102 5.32808 10.4812 5.19106 10.2462 5.21605C10.0902 5.23503 9.94518 5.22303 9.81117 5.18005C9.28715 5.00905 8.99817 4.44406 9.16917 3.91906C9.34017 3.39406 9.90618 3.10606 10.4292 3.27706C10.5651 3.32108 10.6902 3.39805 10.8021 3.50305C10.9771 3.66805 11.2441 3.68506 11.4391 3.54406C11.6341 3.40306 11.7011 3.14305 11.5981 2.92606C11.5321 2.78605 11.4981 2.64308 11.4981 2.50105C11.4981 1.95003 11.9472 1.50106 12.4981 1.50106C13.0491 1.50106 13.4981 1.95008 13.4981 2.50105C13.4981 2.64303 13.4641 2.78605 13.3981 2.92606C13.2961 3.14305 13.3621 3.40306 13.5571 3.54406C13.7511 3.68506 14.0181 3.66805 14.1941 3.50305C14.3061 3.39706 14.4321 3.32103 14.5671 3.27706C15.0911 3.10808 15.6561 3.39406 15.8271 3.91906C15.9982 4.44402 15.7093 5.00998 15.1852 5.18Z" fill="#6CC25E"/>
<path d="M12.8502 4.65006C12.6702 4.46007 12.3302 4.46007 12.1502 4.65006C12.0503 4.74006 12.0002 4.87004 12.0002 5.00007C12.0002 5.1301 12.0503 5.26009 12.1502 5.35009C12.2402 5.45007 12.3702 5.50009 12.5003 5.50009C12.6302 5.50009 12.7603 5.45007 12.8503 5.35009C12.9503 5.26009 13.0003 5.1301 13.0003 5.00007C13.0003 4.87004 12.9502 4.74006 12.8502 4.65006Z" fill="#6CC25E"/>
<path d="M12.0023 12H11.9923C11.7163 12 11.4973 12.224 11.4973 12.5C11.4973 12.776 11.7263 13 12.0023 13C12.2783 13 12.5023 12.776 12.5023 12.5C12.5023 12.224 12.2783 12 12.0023 12Z" fill="#6CC25E"/>
</g>
<defs>
<clipPath id="clip0_3006_5157">
<rect width="24" height="24" fill="white" transform="translate(0 0.5)"/>
</clipPath>
</defs>
</svg>
