<svg width="24" height="25" viewBox="0 0 24 25" fill="none" xmlns="http://www.w3.org/2000/svg">
<g clip-path="url(#clip0_3006_5148)">
<path d="M14.1762 9.16109C13.1251 7.06349 11.1169 5.5256 8.72786 5.12358L10.595 3.31139L9.62376 1.25464H5.34094L4.36969 3.31139L6.23685 5.12358C2.70188 5.71845 0 8.80024 0 12.5017C0 17.5789 4.98569 21.2034 9.81977 19.6097C11.0787 22.1257 13.6537 23.7452 16.5176 23.7452C20.6377 23.7452 24 20.4188 24 16.2664C24 11.1794 19.0272 7.57125 14.1762 9.16109ZM6.07736 3.00137L6.23553 2.6664H8.72918L8.88734 3.00137L7.48235 4.36509L6.07736 3.00137ZM9.31106 18.2906C5.40758 19.5265 1.41176 16.5962 1.41176 12.5017C1.41176 9.15436 4.13501 6.43111 7.48235 6.43111C9.8304 6.43111 11.8712 7.7712 12.8806 9.72669C9.83148 11.4209 8.38386 14.9702 9.31106 18.2906ZM13.3816 11.0683C14.0085 13.6483 12.8869 16.3245 10.6165 17.6989C9.99835 15.1319 11.0937 12.4484 13.3816 11.0683ZM20.8102 20.559C17.901 23.4682 12.9944 22.6901 11.1152 19.0409C14.1633 17.3407 15.6184 13.7943 14.6869 10.4796C16.7817 9.82071 19.1586 10.3223 20.8102 11.9738C23.1826 14.3463 23.1828 18.1863 20.8102 20.559Z" fill="#6CC25E"/>
</g>
<defs>
<clipPath id="clip0_3006_5148">
<rect width="24" height="24" fill="white" transform="translate(0 0.5)"/>
</clipPath>
</defs>
</svg>
