<svg xmlns="http://www.w3.org/2000/svg" width="156" height="348" viewBox="0 0 156 348" fill="none">
<path d="M149.471 152.051C142.209 142.718 132.615 135.462 121.657 131.014C128.214 121.154 132.059 109.744 132.81 97.9282C133.147 88.8312 129.406 80.0584 122.606 74.0052L113.818 65.8279C108.487 60.8566 101.617 57.8601 94.3457 57.338C92.9465 57.2646 91.5433 57.3027 90.1486 57.4533C90.193 56.0704 90.1222 54.6862 89.9405 53.3145C89.7413 51.731 89.4095 50.167 88.9456 48.6398C87.2254 43.2404 84.1179 38.3877 79.9348 34.565L71.1504 26.4629C64.5909 20.1272 55.527 17.0776 46.4702 18.1582C46.38 18.1681 46.2873 18.185 46.1984 18.2069C34.5174 19.7987 23.4649 24.4514 14.1649 31.6941C8.86388 21.1008 0.859508 12.095 -9.03761 5.58455C-16.755 0.740655 -26.2323 -0.410013 -34.8875 2.44514L-46.3885 5.99225C-53.388 8.06332 -59.4554 12.49 -63.5627 18.522C-64.3343 19.7397 -65.0027 21.0208 -65.5603 22.3512C-66.7682 21.5653 -68.0422 20.8832 -69.3678 20.3124C-76.1591 17.6417 -83.6659 17.4016 -90.6159 19.6329L-102.115 23.1793C-110.878 25.7004 -118.062 31.994 -121.711 40.347C-126.225 51.2993 -127.763 63.2497 -126.168 74.9871C-138.015 74.3199 -149.83 76.7315 -160.467 81.9872C-168.559 86.1956 -174.329 93.8201 -176.176 102.749L-178.869 114.343C-180.223 119.893 -180.061 125.705 -178.397 131.17C-177.945 132.687 -177.364 134.162 -176.659 135.58C-176.02 136.8 -175.289 137.969 -174.471 139.079C-175.703 139.74 -176.882 140.498 -177.995 141.345C-183.71 145.884 -187.698 152.242 -189.297 159.362L-191.982 171.013C-194.18 179.863 -192.304 189.231 -186.87 196.553C-179.602 205.884 -170.003 213.138 -159.045 217.588C-165.597 227.448 -169.436 238.859 -170.178 250.673C-170.55 259.765 -166.823 268.543 -160.024 274.593L-151.217 282.73C-145.916 287.741 -139.037 290.758 -131.757 291.263C-130.35 291.339 -128.941 291.298 -127.542 291.144C-127.596 292.544 -127.541 293.945 -127.375 295.337C-127.158 296.883 -126.81 298.408 -126.334 299.896C-124.647 305.334 -121.528 310.218 -117.303 314.037L-108.517 322.144C-101.961 328.477 -92.9033 331.529 -83.85 330.453C-80.0774 329.899 -76.3526 329.058 -72.7075 327.936C-65.0398 325.591 -57.867 321.866 -51.5403 316.939C-46.2438 327.525 -38.246 336.525 -28.3533 343.029C-20.6334 347.866 -11.1571 349.013 -2.50493 346.156L8.99609 342.609C15.9958 340.538 22.0633 336.112 26.1705 330.08C26.9421 328.862 27.6104 327.58 28.1685 326.252C29.3759 327.036 30.6499 327.719 31.9756 328.29C38.767 330.96 46.2737 331.2 53.2235 328.968L64.7224 325.422C73.4854 322.901 80.6672 316.608 84.319 308.255C88.8245 297.315 90.3656 285.38 88.7826 273.653C96.7578 274.195 104.764 273.251 112.394 270.869C115.973 269.763 119.458 268.377 122.821 266.728C122.915 266.692 123.008 266.654 123.097 266.607C131.189 262.4 136.956 254.776 138.806 245.848L141.507 234.172C142.807 228.663 142.639 222.91 141.019 217.487C140.547 215.981 139.95 214.516 139.234 213.11C138.605 211.853 137.874 210.652 137.045 209.516C138.29 208.855 139.475 208.095 140.596 207.243C146.327 202.725 150.312 196.357 151.87 189.228L154.564 177.544C156.773 168.713 154.905 159.357 149.471 152.051ZM18.2525 42.9249C26.5678 35.4726 36.9574 30.732 48.0367 29.3356L48.356 29.2785C53.9578 28.8205 59.4858 30.8121 63.5075 34.7391L72.2902 42.8362C75.0172 45.3159 77.0494 48.4643 78.1836 51.9714C78.465 52.907 78.6627 53.8658 78.7801 54.8353C79.207 57.6839 78.6321 60.5934 77.155 63.0649C76.6446 63.4869 76.1582 63.9402 75.7018 64.4208L73.438 66.8288C72.4139 67.9175 71.8647 69.3684 71.9097 70.8625C71.9569 72.3561 72.594 73.7706 73.684 74.7941C73.6989 74.8425 73.788 74.8447 73.829 74.8846C73.8724 74.9245 73.9231 75.0504 73.9976 75.1213C75.0876 76.1448 76.5381 76.6943 78.032 76.6487C79.5258 76.6024 80.9399 75.9645 81.9638 74.8751L84.3202 72.3798C84.824 71.8126 85.2936 71.2197 85.7289 70.601C88.1142 69.0826 90.9246 68.3769 93.7411 68.5899C98.396 68.9904 102.783 70.9396 106.199 74.127L114.942 82.2653C119.223 86.019 121.646 91.458 121.574 97.1505C120.962 107.156 117.683 116.816 112.075 125.128C111.494 125.996 110.718 126.867 110.033 127.738C102.249 126.265 94.2542 126.309 86.4871 127.868C61.5614 132.994 37.866 142.892 16.7008 157.019C15.3898 154.318 13.7741 151.776 11.8815 149.445L41.11 118.029C43.229 115.748 43.0967 112.18 40.8155 110.061C38.5344 107.942 34.9663 108.074 32.8474 110.355L3.54466 141.794C1.17644 140.167 -1.36182 138.803 -4.02621 137.727C8.48928 115.71 16.6086 91.4735 19.8796 66.3641C20.8654 58.5183 20.3125 50.5573 18.2525 42.9249ZM8.22549 165.998C12.81 180.863 4.47341 196.63 -10.3949 201.216C-25.2633 205.802 -41.0351 197.47 -45.6196 182.605C-50.1822 167.742 -41.8532 151.988 -26.997 147.386C-12.1287 142.801 3.64101 151.134 8.22549 165.998ZM-113.49 80.479C-116.831 68.5931 -116.041 55.9247 -111.254 44.5432C-108.849 39.3604 -104.298 35.4884 -98.7967 33.9455L-87.2956 30.3984C-82.8349 28.9528 -78.0139 29.0708 -73.6291 30.7345C-70.8236 31.803 -68.4992 33.8534 -67.093 36.5063C-66.9667 37.0863 -66.948 37.6816 -66.7719 38.2525L-65.7975 41.4122C-64.8805 44.3852 -61.7258 46.0512 -58.7534 45.1344C-58.6836 45.1129 -58.6298 45.055 -58.5615 45.0284C-58.4934 45.0012 -58.4152 45.0301 -58.3432 45.0079C-55.3708 44.0912 -53.7025 40.9377 -54.6194 37.9646L-55.5939 34.805C-55.7698 34.2348 -56.0899 33.7317 -56.3144 33.182C-56.6427 30.1959 -55.8769 27.1924 -54.156 24.7287C-51.4754 20.8899 -47.5627 18.0785 -43.0704 16.7585L-31.5694 13.2113C-26.1559 11.3524 -20.1968 11.9912 -15.3009 14.9557C1.70863 25.5728 11.0734 45.0415 8.7479 64.956C5.61775 88.9257 -2.1878 112.049 -14.2271 133.014C-14.5821 133.645 -14.812 134.341 -14.8986 135.06C-18.2014 134.75 -21.5296 134.862 -24.803 135.391L-38.2174 91.8971C-39.1343 88.9241 -42.2869 87.2574 -45.2614 88.1748C-48.236 89.0922 -49.9021 92.2451 -48.9852 95.2181L-35.5708 138.712C-38.5806 140.119 -41.3978 141.903 -43.9566 144.022C-44.4352 143.477 -45.015 143.031 -45.666 142.71C-67.4226 132.168 -86.8963 117.459 -102.982 99.4156C-107.831 93.9683 -111.415 87.5169 -113.478 80.5233L-113.492 80.4796L-113.49 80.479ZM-178.02 189.555C-181.318 184.913 -182.407 179.057 -181.002 173.539L-178.302 161.877C-177.308 157.313 -174.788 153.224 -171.156 150.282C-168.838 148.432 -165.951 147.44 -162.984 147.473C-162.329 147.683 -161.759 147.944 -161.07 148.115L-157.852 148.826C-156.388 149.154 -154.855 148.885 -153.591 148.081C-152.326 147.276 -151.436 146.001 -151.113 144.537C-151.094 144.442 -151.123 144.351 -151.106 144.251C-151.091 144.152 -151.055 144.153 -151.037 144.095C-150.713 142.635 -150.983 141.107 -151.785 139.847C-152.59 138.587 -153.861 137.697 -155.32 137.375L-158.428 136.688C-159.108 136.545 -159.796 136.446 -160.489 136.393C-163.134 135.177 -165.282 133.087 -166.57 130.475C-166.98 129.626 -167.321 128.746 -167.588 127.841C-168.653 124.296 -168.755 120.532 -167.886 116.933L-165.183 105.265C-164.07 99.6835 -160.55 94.8766 -155.566 92.1298C-145.587 87.1038 -134.335 85.1735 -123.253 86.585C-120.656 94.0582 -116.627 100.953 -111.39 106.883C-94.5442 125.789 -74.184 141.241 -51.4415 152.384C-53.0371 154.774 -54.3659 157.331 -55.4066 160.009L-97.3269 150.537C-100.363 149.845 -103.385 151.746 -104.076 154.782C-104.768 157.818 -102.868 160.84 -99.8319 161.531L-57.9857 171.026C-58.2364 174.018 -58.1418 177.029 -57.7014 179.999C-83.145 180.254 -108.301 185.423 -131.784 195.22C-139.078 198.306 -145.71 202.769 -151.316 208.365C-152.355 207.972 -153.485 207.696 -154.503 207.284C-163.782 203.576 -171.901 197.455 -178.02 189.555ZM-55.6632 305.694C-64.0396 313.096 -74.4332 317.831 -85.5158 319.294C-91.1835 319.833 -96.8035 317.845 -100.872 313.861L-109.707 305.709C-112.435 303.233 -114.457 300.079 -115.57 296.564C-115.853 295.686 -116.066 294.786 -116.204 293.873C-116.603 290.975 -116.004 288.028 -114.506 285.515C-114.007 285.072 -113.509 284.617 -113.048 284.145L-110.782 281.719C-108.661 279.444 -108.788 275.879 -111.063 273.758C-111.119 273.706 -111.188 273.692 -111.244 273.644C-111.301 273.597 -111.31 273.529 -111.36 273.484C-112.446 272.459 -113.897 271.905 -115.392 271.95C-116.888 271.996 -118.303 272.631 -119.329 273.722L-121.685 276.217C-122.169 276.763 -122.625 277.339 -123.049 277.933C-125.437 279.513 -128.288 280.249 -131.142 280.023C-135.801 279.639 -140.19 277.677 -143.583 274.462L-152.368 266.319C-156.638 262.572 -159.04 257.13 -158.929 251.448C-158.127 231.365 -145.868 213.522 -127.406 205.566C-105.023 196.222 -81.0307 191.34 -56.7778 191.192C-56.0018 191.182 -55.2389 191.014 -54.5318 190.695C-53.2061 193.591 -51.5339 196.316 -49.5531 198.809L-78.8375 230.307C-80.2216 231.779 -80.7112 233.88 -80.1192 235.815C-79.5279 237.748 -77.9472 239.215 -75.9743 239.66C-74.0014 240.106 -71.9419 239.461 -70.5761 237.969L-41.3213 206.546C-38.8526 208.289 -36.191 209.743 -33.3892 210.877C-45.9026 232.893 -54.0215 257.131 -57.2948 282.241C-58.2841 290.091 -57.7294 298.058 -55.6632 305.694ZM73.862 304.059C71.4571 309.242 66.906 313.114 61.4042 314.656L49.9032 318.203C45.4431 319.65 40.6217 319.531 36.2369 317.867C33.4315 316.799 31.1069 314.748 29.6989 312.097C29.5828 311.543 29.5558 310.92 29.3801 310.351L28.4055 307.19C27.4881 304.216 24.3335 302.55 21.3611 303.467C21.2891 303.489 21.2379 303.548 21.1694 303.574C21.1009 303.6 21.0207 303.572 20.9508 303.594C17.9785 304.51 16.3101 307.663 17.2275 310.638L18.2021 313.798C18.3777 314.368 18.698 314.871 18.9203 315.422C19.2502 318.405 18.4846 321.409 16.7638 323.873C14.0778 327.718 10.1632 330.531 5.66047 331.848L-5.82303 335.39C-11.2381 337.251 -17.1978 336.611 -22.0936 333.647C-32.4519 326.935 -40.2301 316.911 -44.1607 305.213L-44.1742 305.169C-46.4056 298.229 -47.0782 290.879 -46.1419 283.648C-43.0121 259.677 -35.206 236.556 -23.167 215.59C-22.8118 214.959 -22.5823 214.262 -22.4953 213.545C-19.1879 213.853 -15.853 213.74 -12.5737 213.207L0.840807 256.701C1.75754 259.673 4.90996 261.34 7.8845 260.422C10.8569 259.505 12.5253 256.352 11.6086 253.38L-1.80591 209.886C1.20205 208.48 4.02137 206.695 6.58022 204.577C7.05845 205.12 7.63849 205.568 8.28716 205.889C30.044 216.431 49.5173 231.139 65.6052 249.183C78.7352 264.339 81.9511 285.707 73.862 304.059ZM143.59 175.059L140.902 186.741C139.907 191.3 137.39 195.383 133.764 198.32C131.473 200.165 128.61 201.158 125.669 201.13C125.022 200.878 124.365 200.66 123.699 200.476L120.478 199.765C119.018 199.441 117.49 199.712 116.228 200.515C114.968 201.319 114.079 202.59 113.754 204.05C113.769 204.098 113.785 204.148 113.751 204.211C113.718 204.274 113.664 204.36 113.645 204.454C112.96 207.488 114.863 210.505 117.897 211.189L121.136 211.918C121.821 212.073 122.519 212.158 123.212 212.244C125.826 213.457 127.931 215.549 129.163 218.154C129.601 219.011 129.969 219.901 130.261 220.817C131.295 224.346 131.391 228.083 130.539 231.661L127.833 243.329C126.726 248.828 123.294 253.579 118.42 256.356L118.097 256.496C108.159 261.559 96.9132 263.479 85.8582 261.994C83.2638 254.527 79.2339 247.637 74.0005 241.711C57.1548 222.806 36.7946 207.354 14.0522 196.212C15.728 193.695 17.1102 190.993 18.1681 188.162L60.0223 197.683C61.9912 198.146 64.0562 197.519 65.4333 196.04C66.8132 194.563 67.2941 192.458 66.6941 190.528C66.094 188.598 64.506 187.137 62.5315 186.702L20.5925 177.169C20.8246 173.993 20.6714 170.8 20.1356 167.66C20.8995 167.525 21.6271 167.235 22.2719 166.807C42.3969 153.267 64.9717 143.788 88.7283 138.9C108.472 135.075 128.657 142.915 140.638 159.063L140.642 159.078C143.929 163.712 145.007 169.558 143.59 175.059Z" fill="#EDF7EB"/>
</svg>