<svg xmlns="http://www.w3.org/2000/svg" width="349" height="348" viewBox="0 0 349 348" fill="none">
<path d="M342.471 152.051C335.209 142.718 325.615 135.462 314.657 131.014C321.214 121.154 325.059 109.744 325.81 97.9282C326.147 88.8312 322.406 80.0584 315.606 74.0052L306.818 65.8279C301.487 60.8566 294.617 57.8601 287.346 57.338C285.946 57.2646 284.543 57.3027 283.149 57.4533C283.193 56.0704 283.122 54.6862 282.941 53.3145C282.741 51.731 282.409 50.167 281.946 48.6398C280.225 43.2404 277.118 38.3876 272.935 34.565L264.15 26.4629C257.591 20.1271 248.527 17.0776 239.47 18.1582C239.38 18.1681 239.287 18.185 239.198 18.2069C227.517 19.7987 216.465 24.4514 207.165 31.694C201.864 21.1008 193.86 12.095 183.962 5.58454C176.245 0.740647 166.768 -0.410021 158.112 2.44513L146.612 5.99225C139.612 8.06331 133.545 12.49 129.437 18.522C128.666 19.7397 127.997 21.0208 127.44 22.3512C126.232 21.5653 124.958 20.8832 123.632 20.3124C116.841 17.6417 109.334 17.4016 102.384 19.6328L90.8852 23.1793C82.1221 25.7004 74.9384 31.9939 71.2888 40.347C66.7752 51.2993 65.2365 63.2496 66.8323 74.9871C54.9851 74.3199 43.1698 76.7315 32.5327 81.9872C24.4406 86.1956 18.6712 93.8201 16.8243 102.749L14.1315 114.343C12.7767 119.893 12.9393 125.705 14.6034 131.17C15.0546 132.687 15.6363 134.162 16.3411 135.58C16.9804 136.8 17.7114 137.969 18.5292 139.079C17.2967 139.74 16.1181 140.498 15.0051 141.345C9.29014 145.884 5.3024 152.242 3.70321 159.362L1.01833 171.013C-1.18008 179.863 0.695799 189.231 6.13022 196.553C13.3984 205.884 22.9966 213.138 33.955 217.588C27.4029 227.448 23.5636 238.859 22.8218 250.673C22.4496 259.765 26.1774 268.543 32.9763 274.593L41.7832 282.729C47.0836 287.741 53.9626 290.758 61.2429 291.263C62.6498 291.339 64.0594 291.298 65.4577 291.144C65.4044 292.544 65.4588 293.945 65.6252 295.337C65.8417 296.883 66.1901 298.408 66.6658 299.896C68.3525 305.334 71.472 310.218 75.6969 314.037L84.4827 322.144C91.039 328.477 100.097 331.529 109.15 330.453C112.923 329.899 116.647 329.058 120.293 327.936C127.96 325.591 135.133 321.866 141.46 316.939C146.756 327.525 154.754 336.525 164.647 343.029C172.367 347.866 181.843 349.013 190.495 346.156L201.996 342.609C208.996 340.538 215.063 336.112 219.171 330.08C219.942 328.862 220.61 327.58 221.168 326.252C222.376 327.036 223.65 327.719 224.976 328.29C231.767 330.96 239.274 331.2 246.224 328.968L257.722 325.422C266.485 322.901 273.667 316.608 277.319 308.255C281.825 297.315 283.366 285.38 281.783 273.653C289.758 274.195 297.764 273.251 305.394 270.869C308.973 269.763 312.458 268.377 315.821 266.728C315.915 266.692 316.008 266.654 316.097 266.607C324.189 262.4 329.956 254.776 331.806 245.848L334.507 234.172C335.807 228.663 335.639 222.91 334.019 217.487C333.547 215.981 332.95 214.516 332.234 213.11C331.605 211.853 330.874 210.652 330.045 209.516C331.29 208.855 332.475 208.095 333.596 207.243C339.327 202.725 343.312 196.357 344.87 189.228L347.564 177.544C349.773 168.713 347.905 159.357 342.471 152.051ZM211.252 42.9249C219.568 35.4726 229.957 30.732 241.037 29.3356L241.356 29.2785C246.958 28.8205 252.486 30.8121 256.507 34.7391L265.29 42.8362C268.017 45.3159 270.049 48.4643 271.184 51.9714C271.465 52.907 271.663 53.8658 271.78 54.8353C272.207 57.6839 271.632 60.5934 270.155 63.0649C269.645 63.4869 269.158 63.9402 268.702 64.4208L266.438 66.8288C265.414 67.9175 264.865 69.3684 264.91 70.8625C264.957 72.356 265.594 73.7706 266.684 74.7941C266.699 74.8425 266.788 74.8447 266.829 74.8846C266.872 74.9245 266.923 75.0504 266.998 75.1213C268.088 76.1448 269.538 76.6943 271.032 76.6486C272.526 76.6024 273.94 75.9645 274.964 74.8751L277.32 72.3798C277.824 71.8126 278.294 71.2197 278.729 70.601C281.114 69.0826 283.925 68.3769 286.741 68.5899C291.396 68.9904 295.783 70.9396 299.199 74.127L307.942 82.2653C312.223 86.0189 314.646 91.458 314.574 97.1505C313.962 107.156 310.683 116.816 305.075 125.128C304.494 125.996 303.718 126.867 303.033 127.738C295.249 126.265 287.254 126.309 279.487 127.868C254.561 132.994 230.866 142.892 209.701 157.019C208.39 154.318 206.774 151.776 204.882 149.445L234.11 118.029C236.229 115.748 236.097 112.18 233.816 110.061C231.534 107.942 227.966 108.074 225.847 110.355L196.545 141.794C194.176 140.167 191.638 138.803 188.974 137.727C201.489 115.71 209.609 91.4735 212.88 66.364C213.865 58.5183 213.313 50.5573 211.252 42.9249ZM201.225 165.998C205.81 180.863 197.473 196.63 182.605 201.216C167.737 205.802 151.965 197.469 147.38 182.605C142.818 167.742 151.147 151.988 166.003 147.386C180.871 142.801 196.641 151.134 201.225 165.998ZM79.5103 80.4789C76.1695 68.5931 76.9585 55.9247 81.7461 44.5432C84.1508 39.3604 88.7019 35.4883 94.2033 33.9455L105.704 30.3984C110.165 28.9528 114.986 29.0708 119.371 30.7345C122.176 31.803 124.501 33.8534 125.907 36.5063C126.033 37.0863 126.052 37.6816 126.228 38.2525L127.203 41.4121C128.119 44.3852 131.274 46.0512 134.247 45.1344C134.316 45.1129 134.37 45.0549 134.439 45.0284C134.507 45.0012 134.585 45.0301 134.657 45.0079C137.629 44.0912 139.298 40.9376 138.381 37.9646L137.406 34.805C137.23 34.2348 136.91 33.7317 136.686 33.182C136.357 30.1959 137.123 27.1924 138.844 24.7286C141.525 20.8899 145.437 18.0785 149.93 16.7585L161.431 13.2113C166.844 11.3524 172.803 11.9912 177.699 14.9557C194.709 25.5728 204.073 45.0415 201.748 64.9559C198.618 88.9257 190.812 112.049 178.773 133.014C178.418 133.645 178.188 134.341 178.101 135.06C174.799 134.75 171.47 134.862 168.197 135.391L154.783 91.8971C153.866 88.9241 150.713 87.2574 147.739 88.1748C144.764 89.0922 143.098 92.2451 144.015 95.2181L157.429 138.712C154.419 140.119 151.602 141.903 149.043 144.022C148.565 143.477 147.985 143.031 147.334 142.71C125.577 132.168 106.104 117.459 90.0182 99.4155C85.1691 93.9683 81.5853 87.5169 79.5215 80.5233L79.5081 80.4796L79.5103 80.4789ZM14.98 189.555C11.6818 184.913 10.5925 179.057 11.9976 173.539L14.6982 161.877C15.6924 157.313 18.2123 153.224 21.8435 150.282C24.1625 148.432 27.0493 147.44 30.0157 147.473C30.671 147.683 31.2413 147.944 31.9298 148.115L35.1484 148.826C36.6118 149.154 38.1446 148.885 39.4093 148.081C40.6738 147.276 41.5641 146.001 41.8869 144.537C41.9056 144.442 41.8774 144.351 41.8944 144.251C41.9092 144.152 41.9454 144.153 41.9632 144.095C42.2874 142.635 42.017 141.107 41.2148 139.847C40.4103 138.587 39.1394 137.697 37.6799 137.375L34.5717 136.688C33.8918 136.545 33.2039 136.446 32.5111 136.393C29.8657 135.177 27.7179 133.087 26.4296 130.475C26.0196 129.626 25.6787 128.746 25.4117 127.841C24.3471 124.296 24.2448 120.532 25.1138 116.933L27.8172 105.265C28.9304 99.6835 32.45 94.8766 37.4343 92.1298C47.4132 87.1038 58.6648 85.1735 69.7473 86.585C72.3437 94.0582 76.3727 100.953 81.6097 106.883C98.4558 125.789 118.816 141.241 141.558 152.384C139.963 154.774 138.634 157.331 137.593 160.009L95.6731 150.537C92.6373 149.845 89.6148 151.746 88.9236 154.782C88.2324 157.818 90.1324 160.84 93.1681 161.531L135.014 171.026C134.764 174.018 134.858 177.029 135.299 179.999C109.855 180.254 84.6985 185.423 61.2157 195.22C53.9223 198.306 47.2902 202.769 41.6837 208.365C40.6447 207.972 39.5151 207.696 38.4968 207.284C29.2179 203.576 21.0993 197.455 14.98 189.555ZM137.337 305.694C128.96 313.096 118.567 317.831 107.484 319.294C101.816 319.833 96.1965 317.845 92.1285 313.861L83.293 305.709C80.5649 303.233 78.5427 300.079 77.4301 296.564C77.1473 295.686 76.9343 294.786 76.796 293.873C76.397 290.975 76.9959 288.028 78.4939 285.515C78.9929 285.072 79.4908 284.617 79.9522 284.145L82.2175 281.719C84.3385 279.444 84.2118 275.879 81.9372 273.758C81.8806 273.706 81.8116 273.692 81.7563 273.644C81.6989 273.597 81.6895 273.529 81.64 273.484C80.5543 272.459 79.1026 271.905 77.6084 271.95C76.112 271.996 74.697 272.631 73.6711 273.722L71.3147 276.217C70.8307 276.763 70.3748 277.339 69.9511 277.933C67.5633 279.513 64.7121 280.249 61.858 280.023C57.1987 279.638 52.8104 277.677 49.4171 274.462L40.632 266.319C36.3621 262.572 33.9596 257.13 34.0713 251.448C34.8726 231.365 47.1317 213.522 65.5944 205.566C87.9768 196.222 111.969 191.34 136.222 191.192C136.998 191.182 137.761 191.014 138.468 190.695C139.794 193.591 141.466 196.316 143.447 198.809L114.163 230.307C112.778 231.779 112.289 233.88 112.881 235.815C113.472 237.748 115.053 239.215 117.026 239.66C118.999 240.106 121.058 239.461 122.424 237.969L151.679 206.546C154.147 208.289 156.809 209.743 159.611 210.877C147.097 232.893 138.979 257.131 135.705 282.241C134.716 290.091 135.271 298.058 137.337 305.694ZM266.862 304.059C264.457 309.242 259.906 313.114 254.404 314.656L242.903 318.203C238.443 319.65 233.622 319.531 229.237 317.867C226.431 316.799 224.107 314.748 222.699 312.097C222.583 311.543 222.556 310.92 222.38 310.35L221.405 307.19C220.488 304.216 217.333 302.55 214.361 303.467C214.289 303.489 214.238 303.548 214.169 303.574C214.101 303.6 214.021 303.572 213.951 303.594C210.978 304.51 209.31 307.663 210.227 310.638L211.202 313.798C211.378 314.368 211.698 314.871 211.92 315.422C212.25 318.405 211.485 321.409 209.764 323.873C207.078 327.718 203.163 330.531 198.66 331.848L187.177 335.39C181.762 337.251 175.802 336.611 170.906 333.647C160.548 326.935 152.77 316.911 148.839 305.213L148.826 305.169C146.594 298.229 145.922 290.879 146.858 283.648C149.988 259.677 157.794 236.556 169.833 215.59C170.188 214.959 170.418 214.262 170.505 213.545C173.812 213.853 177.147 213.74 180.426 213.207L193.841 256.701C194.758 259.673 197.91 261.34 200.884 260.422C203.857 259.505 205.525 256.352 204.609 253.38L191.194 209.886C194.202 208.48 197.021 206.695 199.58 204.577C200.058 205.12 200.638 205.568 201.287 205.889C223.044 216.431 242.517 231.139 258.605 249.183C271.735 264.339 274.951 285.707 266.862 304.059ZM336.59 175.059L333.902 186.741C332.907 191.3 330.39 195.383 326.764 198.32C324.473 200.165 321.61 201.158 318.669 201.13C318.022 200.878 317.365 200.66 316.699 200.476L313.478 199.765C312.018 199.441 310.49 199.712 309.228 200.515C307.968 201.319 307.079 202.59 306.754 204.05C306.769 204.098 306.785 204.148 306.751 204.211C306.718 204.274 306.664 204.36 306.645 204.454C305.96 207.488 307.863 210.505 310.897 211.189L314.136 211.918C314.821 212.073 315.519 212.158 316.212 212.243C318.826 213.457 320.931 215.549 322.163 218.154C322.601 219.011 322.969 219.901 323.261 220.817C324.295 224.346 324.391 228.083 323.539 231.661L320.833 243.329C319.726 248.828 316.294 253.579 311.42 256.356L311.097 256.496C301.159 261.559 289.913 263.479 278.858 261.994C276.264 254.527 272.234 247.637 267.001 241.711C250.155 222.806 229.795 207.354 207.052 196.212C208.728 193.695 210.11 190.993 211.168 188.162L253.022 197.683C254.991 198.146 257.056 197.519 258.433 196.04C259.813 194.563 260.294 192.458 259.694 190.528C259.094 188.598 257.506 187.137 255.531 186.702L213.592 177.169C213.825 173.993 213.671 170.8 213.136 167.66C213.899 167.525 214.627 167.235 215.272 166.807C235.397 153.267 257.972 143.788 281.728 138.9C301.472 135.075 321.657 142.915 333.638 159.063L333.642 159.078C336.929 163.712 338.007 169.558 336.59 175.059Z" fill="#EDF7EB"/>
</svg>