<svg xmlns="http://www.w3.org/2000/svg" width="371" height="459" viewBox="0 0 371 459" fill="none">
  <path d="M487.156 304.576C485.248 287.203 478.796 270.638 468.452 256.549C484.344 249.222 498.023 237.841 508.123 223.553C515.596 212.365 517.685 198.427 513.818 185.54L509.094 168.44C506.237 158.053 499.912 148.959 491.166 142.668C489.462 141.491 487.667 140.452 485.795 139.561C486.922 137.855 487.906 136.058 488.74 134.191C489.716 132.044 490.51 129.818 491.11 127.537C493.128 119.409 492.978 110.894 490.675 102.842L485.898 85.8394C482.552 72.7835 473.508 61.9227 461.273 56.2654C461.151 56.2079 461.022 56.1573 460.893 56.1161C444.959 49.0686 427.445 46.3604 410.129 48.2693C411.665 30.8305 408.57 13.2947 401.159 -2.56704C395.2 -14.6426 384.164 -23.4339 371.059 -26.547L353.837 -30.9941C343.424 -33.8111 332.358 -32.9413 322.515 -28.5324C320.601 -27.5979 318.767 -26.5035 317.034 -25.2613C316.123 -27.1862 315.048 -29.0317 313.822 -30.7771C307.345 -39.4003 298.084 -45.5188 287.608 -48.0958L270.389 -52.5422C257.407 -56.1592 243.49 -53.8049 232.425 -46.1205C218.259 -35.8343 207.063 -21.9871 199.977 -5.97924C185.584 -15.9982 168.846 -22.118 151.387 -23.7455C137.943 -24.7192 124.774 -19.5941 115.532 -9.78877L103.159 2.71677C97.1548 8.65079 92.8561 16.0913 90.7158 24.2586C90.108 26.5177 89.6971 28.8249 89.4859 31.1544C89.3448 33.1858 89.3589 35.2238 89.5285 37.2535C87.4652 37.1306 85.3945 37.1714 83.3376 37.3748C72.6285 38.659 62.6838 43.5704 55.1543 51.2922L42.7479 63.8748C33.1237 73.3096 28.226 86.5525 29.3921 99.9776C31.3093 117.352 37.7682 133.918 48.1115 148.009C32.2258 155.341 18.5527 166.727 8.46525 181.02C0.952551 192.173 -1.15742 206.109 2.71096 218.991L7.4901 236.055C10.2773 246.468 16.5971 255.595 25.3676 261.872C27.08 263.057 28.8852 264.098 30.7645 264.988C29.6125 266.709 28.5957 268.513 27.7265 270.394C26.8007 272.508 26.0577 274.697 25.5034 276.938C23.4127 285.089 23.5546 293.652 25.9128 301.731L30.6882 318.741C34.0322 331.791 43.0663 342.651 55.2937 348.311C60.4707 350.537 65.8096 352.365 71.2663 353.777C82.7334 356.766 94.6467 357.636 106.426 356.338C104.889 373.764 107.981 391.288 115.391 407.138C121.359 419.207 132.396 427.993 145.499 431.101L162.721 435.548C173.134 438.366 184.2 437.497 194.043 433.088C195.957 432.153 197.791 431.058 199.523 429.818C200.435 431.741 201.509 433.587 202.735 435.332C209.213 443.956 218.474 450.074 228.95 452.65L246.169 457.096C259.151 460.713 273.064 458.359 284.132 450.676C298.279 440.399 309.466 426.573 316.56 410.588C326.176 417.45 336.985 422.465 348.433 425.379C353.793 426.76 359.252 427.716 364.762 428.247C364.909 428.274 365.056 428.298 365.203 428.308C378.647 429.284 391.813 424.157 401.058 414.354L413.504 401.753C419.409 395.828 423.655 388.457 425.818 380.378C426.391 378.117 426.774 375.811 426.963 373.485C427.145 371.417 427.155 369.338 426.993 367.267C429.071 367.4 431.152 367.362 433.223 367.157C443.936 365.912 453.884 360.986 461.369 353.221L473.812 340.604C483.435 331.202 488.334 317.98 487.156 304.576ZM406.571 65.5703C422.81 62.6346 439.558 64.7186 454.583 71.5457L455.03 71.7213C462.434 75.4853 467.848 82.2749 469.867 90.333L474.646 107.328C476.156 112.562 476.274 118.099 474.985 123.391C474.614 124.787 474.12 126.147 473.516 127.458C471.846 131.373 468.868 134.589 465.095 136.555C464.125 136.691 463.162 136.884 462.215 137.136L457.5 138.412C455.368 138.989 453.553 140.389 452.452 142.304C451.354 144.22 451.06 146.494 451.638 148.627C451.62 148.699 451.73 148.771 451.751 148.853C451.774 148.937 451.741 149.135 451.779 149.282C452.358 151.414 453.758 153.23 455.673 154.33C457.589 155.429 459.863 155.722 461.996 155.144L466.895 153.83C467.968 153.506 469.018 153.124 470.046 152.683C474.224 152.62 478.308 153.909 481.687 156.36C487.235 160.47 491.246 166.322 493.075 172.981L497.772 189.997C500.252 198.038 499.087 206.76 494.585 213.868C486.063 225.987 474.451 235.602 460.953 241.718C459.55 242.361 457.899 242.855 456.362 243.421C447.706 235.536 437.611 229.397 426.628 225.34C391.288 212.478 353.798 206.575 316.216 207.955C316.659 203.54 316.595 199.089 316.02 194.688L377.145 177.798C381.579 176.569 384.177 171.978 382.948 167.543C381.719 163.109 377.127 160.51 372.692 161.739L311.456 178.6C309.736 174.718 307.599 171.035 305.079 167.616C337.889 149.605 366.886 125.395 390.458 96.3291C397.777 87.2191 403.25 76.7718 406.571 65.5703ZM298.593 212.688C292.845 234.947 270.136 248.331 247.871 242.582C225.607 236.833 212.214 214.126 217.962 191.867C223.736 169.627 246.424 156.255 268.686 161.974C290.951 167.723 304.34 190.429 298.593 212.688ZM211.677 10.7554C216.682 -6.79132 227.491 -22.1231 242.334 -32.737C249.376 -37.3965 258.104 -38.743 266.223 -36.422L283.445 -31.9749C290.179 -30.3379 296.155 -26.454 300.384 -20.9627C303.087 -17.4444 304.424 -13.0629 304.138 -8.63472C303.847 -7.80688 303.41 -7.04321 303.189 -6.18831L301.967 -1.45692C300.817 2.99506 303.497 7.53605 307.948 8.68539C308.052 8.7124 308.165 8.68117 308.271 8.70065C308.378 8.71916 308.454 8.81618 308.562 8.84402C313.013 9.99337 317.556 7.31733 318.706 2.86535L319.927 -1.86604C320.148 -2.71996 320.135 -3.60108 320.278 -4.46689C322.179 -8.4792 325.47 -11.6657 329.544 -13.433C335.892 -16.1871 342.995 -16.6935 349.671 -14.874L366.893 -10.4269C375.146 -8.5718 382.151 -3.15066 386.016 4.37354C399.195 30.9145 395.896 62.6717 377.54 85.932C355.028 113.672 327.289 136.725 295.893 153.78C294.957 154.3 294.129 154.998 293.463 155.835C289.546 152.886 285.271 150.448 280.741 148.578L297.56 83.4476C298.709 78.9956 296.033 74.4554 291.579 73.3052C287.125 72.1551 282.585 74.8319 281.435 79.2839L264.617 144.415C259.739 143.853 254.811 143.916 249.95 144.599C249.769 143.543 249.385 142.532 248.815 141.624C229.602 111.5 216.492 77.8994 210.229 42.7288C208.347 32.1163 208.835 21.2204 211.657 10.8199L211.674 10.7546L211.677 10.7554ZM45.9516 98.0279C45.3976 89.6302 48.5645 81.416 54.6082 75.5604L67.0429 62.9761C71.8305 58.0025 78.1699 54.8091 85.019 53.9207C89.3705 53.3897 93.7725 54.3775 97.4804 56.7171C98.142 57.4896 98.6578 58.2597 99.3917 59.0083L102.891 62.3968C104.479 63.9435 106.616 64.7933 108.831 64.7608C111.046 64.7273 113.154 63.8125 114.695 62.2202C114.792 62.1162 114.827 61.9793 114.926 61.8668C115.021 61.7534 115.066 61.783 115.134 61.7231C116.672 60.1374 117.516 58.0053 117.483 55.7972C117.447 53.5883 116.537 51.4841 114.95 49.9471L111.57 46.6753C110.825 45.9681 110.037 45.3099 109.206 44.7064C106.819 41.1266 105.735 36.8324 106.137 32.5472C106.279 31.1613 106.532 29.7887 106.897 28.4439C108.304 23.1576 111.092 18.3409 114.974 14.4854L127.417 1.89524C133.142 -4.26607 141.296 -7.58844 149.697 -7.18334C166.15 -5.77662 181.806 0.511955 194.659 10.8753C192.136 22.292 191.864 34.0912 193.86 45.6119C200.413 82.4573 214.063 117.679 234.051 149.324C230.191 151.095 226.537 153.283 223.153 155.847L177.736 111.446C174.451 108.223 169.174 108.273 165.952 111.559C162.73 114.844 162.78 120.119 166.064 123.341L211.371 167.714C208.737 171.285 206.523 175.148 204.776 179.227C172.558 159.833 136.894 146.846 99.75 140.981C88.18 139.214 76.3753 139.692 64.9839 142.39C63.981 141.09 62.7734 139.868 61.8106 138.561C53.006 126.705 47.532 112.711 45.9516 98.0279ZM109.95 338.992C93.6735 341.817 76.9242 339.723 61.8432 332.977C54.2931 329.264 48.7605 322.407 46.7279 314.242L41.9246 297.137C40.4096 291.907 40.309 286.37 41.6318 281.086C41.9564 279.761 42.3856 278.464 42.9192 277.207C44.6623 273.251 47.6999 270.006 51.5318 268.004C52.5032 267.833 53.482 267.647 54.4285 267.41L59.1596 266.112C63.5913 264.892 66.1939 260.308 64.9748 255.876C64.9437 255.767 64.8681 255.695 64.8353 255.593C64.7993 255.489 64.8409 255.395 64.813 255.301C64.2409 253.17 62.8429 251.348 60.9276 250.247C59.0091 249.145 56.7364 248.848 54.6002 249.425L49.7013 250.74C48.669 251.052 47.6494 251.423 46.6556 251.843C42.4263 251.981 38.2679 250.698 34.8514 248.202C29.2853 244.109 25.2825 238.24 23.5027 231.565L18.7563 214.51C16.2862 206.486 17.479 197.776 22.0221 190.712C38.5914 166.058 67.8442 153.102 97.2443 157.394C132.652 162.978 166.629 175.423 197.265 194.029C198.25 194.618 199.341 194.996 200.478 195.143C199.902 199.814 199.895 204.539 200.456 209.212L139.196 226.163C136.315 226.942 134.07 229.207 133.316 232.101C132.563 234.991 133.415 238.063 135.553 240.152C137.69 242.241 140.782 243.025 143.657 242.206L204.821 225.327C206.578 229.433 208.8 233.326 211.448 236.924C178.642 254.935 149.644 279.148 126.069 308.212C118.741 317.325 113.267 327.781 109.95 338.992ZM274.223 437.293C267.181 441.952 258.453 443.299 250.335 440.976L233.113 436.529C226.378 434.894 220.403 431.009 216.174 425.518C213.471 422 212.134 417.618 212.416 413.19C212.7 412.403 213.148 411.598 213.368 410.745L214.59 406.013C215.741 401.559 213.061 397.019 208.61 395.869C208.502 395.841 208.392 395.876 208.286 395.855C208.18 395.835 208.1 395.738 207.996 395.711C203.545 394.561 199.002 397.237 197.852 401.691L196.63 406.423C196.41 407.276 196.422 408.158 196.276 409.023C194.379 413.033 191.088 416.22 187.013 417.988C180.654 420.745 173.548 421.253 166.861 419.421L149.665 414.981C141.408 413.128 134.404 407.704 130.539 400.181C122.703 383.708 120.681 365.066 124.799 347.299L124.816 347.234C127.385 336.77 132.233 327 139.015 318.624C161.526 290.882 189.265 267.833 220.661 250.775C221.597 250.257 222.425 249.557 223.091 248.722C227.014 251.673 231.299 254.114 235.839 255.984L219.021 321.115C217.871 325.566 220.548 330.105 225.002 331.256C229.453 332.405 233.996 329.73 235.145 325.279L251.963 260.148C256.838 260.709 261.769 260.647 266.63 259.965C266.811 261.019 267.195 262.031 267.762 262.938C286.974 293.063 300.086 326.661 306.352 361.834C311.132 391.081 298.623 420.465 274.223 437.293ZM461.927 328.974L449.494 341.593C444.708 346.559 438.377 349.748 431.539 350.635C427.225 351.181 422.853 350.212 419.173 347.899C418.555 347.08 417.896 346.297 417.2 345.549L413.697 342.159C412.111 340.62 409.98 339.777 407.768 339.809C405.559 339.845 403.456 340.755 401.917 342.341C401.898 342.413 401.879 342.488 401.788 342.542C401.698 342.595 401.562 342.661 401.466 342.765C398.254 346.053 398.311 351.324 401.598 354.536L405.109 357.963C405.853 358.689 406.665 359.338 407.471 359.981C409.82 363.534 410.849 367.798 410.38 372.03C410.268 373.448 410.041 374.854 409.699 376.233C408.265 381.475 405.491 386.252 401.647 390.095L389.201 402.682C383.547 408.745 375.547 412.065 367.26 411.783L366.746 411.709C350.315 410.381 334.676 404.084 321.913 393.649C324.434 382.242 324.701 370.449 322.706 358.936C316.154 322.092 302.503 286.87 282.515 255.226C286.575 253.357 290.407 251.028 293.932 248.285L339.228 292.696C341.347 294.805 344.432 295.616 347.311 294.822C350.192 294.032 352.429 291.755 353.169 288.861C353.909 285.967 353.042 282.898 350.895 280.821L305.501 236.329C308.254 232.512 310.535 228.374 312.294 224.008C313.359 224.43 314.5 224.628 315.644 224.589C351.461 223.143 387.216 228.705 420.901 240.961C448.713 251.444 468.04 276.951 470.606 306.556L470.6 306.579C471.145 314.957 467.973 323.149 461.927 328.974Z" fill="#EDF7EB"/>
</svg>