<svg xmlns="http://www.w3.org/2000/svg" width="243" height="243" viewBox="0 0 243 243" fill="none">
  <g clip-path="url(#clip0_5920_37140)">
    <path d="M167.78 104.836H161.677V88.1124C161.677 65.959 143.653 47.9361 121.5 47.9361C99.3475 47.9361 81.3242 65.9594 81.3242 88.1124V104.836H75.2207C71.289 104.836 68.1016 108.023 68.1016 111.955V141.665C68.1016 171.109 92.0566 195.064 121.5 195.064C150.944 195.064 174.899 171.11 174.899 141.665V111.955C174.899 108.023 171.712 104.836 167.78 104.836ZM95.562 88.1124C95.562 73.81 107.198 62.1744 121.5 62.1744C135.802 62.1744 147.438 73.8105 147.438 88.1124V104.836H95.562V88.1124ZM160.661 141.665C160.661 163.259 143.093 180.826 121.5 180.826C99.9076 180.826 82.3399 163.258 82.3399 141.665V119.074H160.661V141.665Z" fill="#EDF7EB"/>
    <path d="M121.5 131.757C111.469 131.757 103.307 139.918 103.307 149.95C103.307 159.982 111.468 168.143 121.5 168.143C131.533 168.143 139.694 159.982 139.694 149.95C139.694 139.918 131.532 131.757 121.5 131.757ZM121.5 153.905C119.32 153.905 117.545 152.131 117.545 149.95C117.545 147.769 119.319 145.995 121.5 145.995C123.681 145.995 125.455 147.769 125.455 149.95C125.455 152.131 123.682 153.905 121.5 153.905Z" fill="#EDF7EB"/>
    <path d="M239.568 98.6112C236.652 96.8457 232.977 97.4218 230.723 99.7963C220.775 49.182 176.07 10.1733 121.5 10.1733C60.6676 10.1733 11.274 58.8479 10.1981 119.472L1.03048 134.612C-1.00607 137.975 0.0693976 142.353 3.43296 144.39C6.35087 146.156 10.022 145.581 12.2773 143.206C22.2261 193.818 66.9316 232.827 121.5 232.827C182.333 232.827 231.727 184.153 232.803 123.528L241.97 108.388C244.006 105.025 242.931 100.648 239.568 98.6112ZM121.5 218.589C74.568 218.589 35.3092 185.115 26.3386 140.788C29.1165 143.276 33.3828 143.211 36.0752 140.558C38.8754 137.798 38.9082 133.291 36.1483 130.49L24.4573 118.628C25.9822 66.417 68.9263 24.4116 121.5 24.4116C168.433 24.4116 207.691 57.8859 216.662 102.212C213.884 99.7242 209.617 99.7892 206.925 102.443C204.125 105.203 204.093 109.71 206.852 112.51L218.543 124.372C217.019 176.584 174.074 218.589 121.5 218.589Z" fill="#EDF7EB"/>
  </g>
  <defs>
    <clipPath id="clip0_5920_37140">
      <rect width="243" height="243" fill="white"/>
    </clipPath>
  </defs>
</svg>