<svg xmlns="http://www.w3.org/2000/svg" width="24" height="24" viewBox="0 0 24 24" fill="none">
  <path d="M8.65442 5.49644C8.62349 5.33536 8.60739 5.16995 8.60739 5.00129C8.60739 3.34373 10.1616 2 12.0787 2C13.9959 2 15.5501 3.34373 15.5501 5.00129C15.5501 5.17048 15.5339 5.3364 15.5029 5.49796L18.3164 4.59049C19.7692 4.12195 21.381 4.79262 21.8638 6.06651C22.3022 7.22323 21.651 8.47845 20.3602 8.96453L16.7072 10.3403V13.4529L18.8862 18.9211C19.3312 20.038 18.733 21.2658 17.4975 21.7706C16.0722 22.3529 14.3762 21.751 13.8352 20.4707L12.0822 16.3217L10.3319 20.4733C9.80809 21.7158 8.19108 22.3292 6.77885 21.8212C5.46985 21.3502 4.8102 20.0803 5.27267 18.9216L7.45027 13.4653V10.3444L3.62397 8.88788C2.25206 8.36565 1.62784 6.98192 2.22852 5.7945C2.80684 4.65129 4.31749 4.09793 5.66971 4.53398L8.65442 5.49644ZM10.343 5.00129C10.343 5.61501 10.7692 6.14269 11.3796 6.37522C11.8224 6.51659 12.3082 6.5197 12.7528 6.38455C13.3766 6.15704 13.8144 5.62336 13.8144 5.00129C13.8144 4.17251 13.0374 3.50064 12.0787 3.50064C11.1201 3.50064 10.343 4.17251 10.343 5.00129ZM10.7243 7.76554L5.06315 5.94001C4.57417 5.78232 4.02789 5.98243 3.81875 6.39583C3.60154 6.82523 3.82727 7.32561 4.32338 7.51447L8.66782 9.16823C8.9827 9.2881 9.18595 9.55748 9.18595 9.85495V13.5912C9.18595 13.6744 9.16991 13.7571 9.13849 13.8359L6.91341 19.4111C6.74999 19.8205 6.98309 20.2692 7.44567 20.4357C7.94471 20.6152 8.51612 20.3985 8.70123 19.9594L10.6103 15.4311C11.1108 14.2441 13.052 14.2435 13.5533 15.4302L15.4655 19.9559C15.6561 20.4069 16.2537 20.619 16.7558 20.4138C17.1911 20.2359 17.4019 19.8034 17.2451 19.4099L15.0188 13.823C14.9876 13.7443 14.9715 13.6617 14.9715 13.5786V9.84865C14.9715 9.55012 15.1763 9.27998 15.4928 9.16076L19.6671 7.58875C20.1369 7.4118 20.374 6.95487 20.2144 6.53379C20.0387 6.07006 19.4519 5.82593 18.9231 5.99649L13.3909 7.78075C12.9861 7.92376 12.5431 8.00257 12.0787 8.00257C11.5983 8.00257 11.1405 7.91816 10.7243 7.76554Z" fill="#6CC25E"/>
</svg>