<svg xmlns="http://www.w3.org/2000/svg" width="32" height="33" viewBox="0 0 32 33" fill="none">
  <g clip-path="url(#clip0_558_9831)">
    <path d="M23.5953 15.0823L21.6677 14.0107C22.1802 12.4618 21.5545 10.7096 20.0873 9.86252C18.4548 8.91995 16.3728 9.44022 15.368 11.0134C14.9354 9.56181 13.589 8.5 11.9987 8.5C10.4095 8.5 9.06386 9.56022 8.63027 11.0103C8.15688 10.2699 7.43486 9.74027 6.58047 9.51133C4.70373 9.00845 2.77764 10.1202 2.27472 11.9973C2.09449 12.67 2.11699 13.3649 2.332 14.0109L0.404829 15.0823C-0.00781162 15.3049 -0.0881553 15.7454 0.0936728 16.0663C0.437501 16.6731 1.07458 16.3168 1.07927 16.3163C1.42384 16.1352 1.92578 16.2648 2.11122 16.5859L2.31419 16.9375H2.15495C1.71222 16.9375 1.37838 17.3429 1.46552 17.7785C2.3538 22.2203 5.6058 25.6466 9.57541 27.7566L7.19097 31.4128C6.88684 31.8791 7.22139 32.5 7.77991 32.5H16.2174C16.7742 32.5 17.1114 31.8805 16.8063 31.4128L14.422 27.7567C18.3693 25.6598 21.6373 22.251 22.5319 17.7785C22.6187 17.3443 22.2865 16.9375 21.8424 16.9375H21.6858L21.8888 16.5859C22.0744 16.2644 22.5766 16.1354 22.9208 16.3163C22.9255 16.3168 23.5627 16.6728 23.9064 16.0663C24.0862 15.749 24.0119 15.3069 23.5953 15.0823ZM17.6237 11.3125H16.9493C17.61 10.7417 18.5864 10.6198 19.3841 11.0804C20.1994 11.5511 20.5816 12.4877 20.3892 13.3617C19.2706 12.9421 18.035 12.9453 16.9236 13.3609C16.9547 13.0017 17.2565 12.7188 17.6237 12.7188C18.012 12.7188 18.3268 12.4039 18.3268 12.0156C18.3268 11.6273 18.012 11.3125 17.6237 11.3125ZM14.8112 12.7188H15.6348C15.5568 12.9387 15.5143 13.1755 15.5143 13.4219V14.8281C15.5143 15.7448 14.9264 16.5263 14.108 16.8166V16.2344C14.108 15.0865 13.713 14.0292 13.0518 13.1912C13.5828 12.884 14.1879 12.7188 14.8112 12.7188ZM11.9987 9.90625C12.94 9.90625 13.7391 10.5262 14.0097 11.3792C13.2867 11.4982 12.5999 11.7769 11.9977 12.197C11.4086 11.7855 10.7257 11.4996 9.98795 11.3782C10.2588 10.5257 11.0577 9.90625 11.9987 9.90625ZM9.18616 12.7188C11.1247 12.7188 12.7018 14.2959 12.7018 16.2344V16.9375H10.5924C9.4293 16.9375 8.48303 15.9912 8.48303 14.8281V13.4219C8.48303 13.1754 8.44014 12.9388 8.36209 12.7188H9.18616ZM3.63306 12.3612C3.9348 11.2351 5.09031 10.5679 6.21653 10.8696C6.53027 10.9537 6.81405 11.1056 7.05236 11.3125H6.3737C5.98539 11.3125 5.67058 11.6273 5.67058 12.0156C5.67058 12.4039 5.98539 12.7187 6.3737 12.7187C6.7405 12.7187 7.04219 13.0012 7.07369 13.36C5.9628 12.9453 4.72792 12.9426 3.61024 13.362C3.53767 13.0353 3.54395 12.6938 3.63306 12.3612ZM2.85508 15.329C3.28 15.1903 4.90938 13.6823 7.07884 14.9088C7.09609 15.6685 7.35456 16.3696 7.78183 16.9375H3.93799C3.39784 16.0579 3.31778 15.7071 2.85508 15.329ZM14.9194 31.0938H12.7018V30.3906C12.7018 30.0023 12.387 29.6875 11.9987 29.6875C11.6103 29.6875 11.2955 30.0023 11.2955 30.3906V31.0938H9.07792L10.9733 28.1875H13.024L14.9194 31.0938ZM13.2417 26.7812H10.7555C8.79981 25.8183 4.42164 23.1737 3.04759 18.3391H20.9497C19.5754 23.1745 15.1949 25.8194 13.2417 26.7812ZM20.0621 16.9375H16.2155C16.6425 16.37 16.9009 15.6695 16.9185 14.9104C19.0886 13.6808 20.7261 15.1924 21.145 15.329C20.686 15.704 20.6128 16.0407 20.0621 16.9375Z" fill="#6CC25E"/>
  </g>
  <defs>
    <clipPath id="clip0_558_9831">
      <rect width="32" height="32" fill="white" transform="translate(0 0.5)"/>
    </clipPath>
  </defs>
</svg>
