<svg width="846" height="825" viewBox="0 0 846 825" fill="none" xmlns="http://www.w3.org/2000/svg">
<path d="M464.8 521.741C455.475 507.314 442.511 495.597 427.218 487.771C437.957 474.334 444.967 458.31 447.551 441.306C449.192 428.185 444.892 415.015 435.819 405.393L424.138 392.445C417.054 384.575 407.492 379.368 397.036 377.69C395.02 377.407 392.985 377.284 390.948 377.325C391.187 375.33 391.26 373.318 391.171 371.309C391.084 368.993 390.802 366.687 390.324 364.418C388.519 356.387 384.638 348.97 379.069 342.908L367.384 330.07C358.695 320.069 345.965 314.507 332.722 314.922C332.59 314.925 332.454 314.938 332.323 314.958C315.217 315.781 298.633 321.112 284.256 330.414C277.928 314.412 267.487 300.365 253.99 289.689C243.436 281.701 229.867 278.834 216.98 281.868L199.887 285.543C189.495 287.652 180.154 293.289 173.445 301.497C172.174 303.162 171.045 304.931 170.069 306.785C168.421 305.495 166.664 304.346 164.818 303.352C155.328 298.626 144.496 297.327 134.155 299.675L117.065 303.349C104.064 305.886 92.8708 314.083 86.5303 325.708C78.6098 340.985 74.868 358.083 75.689 375.271C58.6294 372.804 41.2254 374.795 25.1659 381.052C12.9221 386.116 3.6063 396.418 -0.198496 409.105L-5.56542 425.542C-8.22957 433.401 -8.73116 441.832 -7.01601 449.952C-6.5554 452.205 -5.90068 454.414 -5.06052 456.554C-4.29009 458.401 -3.38043 460.186 -2.33772 461.895C-4.20503 462.695 -6.00679 463.643 -7.72485 464.727C-16.5706 470.571 -23.1474 479.266 -26.3644 489.367L-31.7271 505.887C-36.0306 518.416 -34.5038 532.211 -27.5679 543.495C-18.2331 557.92 -5.26309 569.633 10.0309 577.462C-0.700992 590.901 -7.70374 606.927 -10.2752 623.929C-11.9666 637.039 -7.68497 650.214 1.38668 659.832L13.0997 672.723C20.1344 680.648 29.7067 685.885 40.178 687.54C42.2045 687.827 44.2494 687.947 46.2926 687.902C46.0379 689.921 45.9389 691.955 46.0033 693.991C46.1205 696.256 46.4314 698.507 46.9311 700.72C48.6824 708.804 52.5774 716.266 58.2072 722.328L69.8935 735.174C78.5782 745.17 91.2987 750.736 104.536 750.326C110.066 750.002 115.563 749.258 120.98 748.097C132.373 745.675 143.226 741.194 153.006 734.866C159.328 750.857 169.761 764.896 183.252 775.562C193.81 783.54 207.378 786.402 220.261 783.364L237.354 779.689C247.746 777.581 257.088 771.945 263.796 763.736C265.067 762.072 266.197 760.302 267.173 758.45C268.821 759.738 270.578 760.887 272.424 761.881C281.913 766.608 292.746 767.906 303.086 765.558L320.176 761.883C333.177 759.346 344.368 751.151 350.711 739.526C358.619 724.266 362.362 707.19 361.558 690.019C373.03 691.815 384.737 691.463 396.08 688.983C401.399 687.837 406.618 686.273 411.694 684.313C411.834 684.273 411.974 684.229 412.108 684.173C424.352 679.111 433.665 668.809 437.473 656.124L442.862 639.569C445.443 631.763 445.929 623.416 444.272 615.363C443.78 613.124 443.101 610.929 442.244 608.802C441.493 606.904 440.587 605.073 439.532 603.324C441.417 602.526 443.228 601.576 444.959 600.485C453.825 594.673 460.398 585.964 463.557 575.844L468.937 559.278C473.254 546.779 471.738 533.002 464.8 521.741ZM288.747 347.185C301.726 337.455 317.362 331.912 333.572 331.296L334.041 331.254C342.206 331.301 349.953 334.884 355.275 341.077L366.958 353.908C370.59 357.842 373.131 362.656 374.328 367.875C374.616 369.265 374.781 370.677 374.828 372.095C375.085 376.272 373.884 380.409 371.433 383.798C370.641 384.344 369.879 384.939 369.158 385.576L365.577 388.774C363.957 390.219 362.978 392.249 362.854 394.417C362.732 396.585 363.475 398.712 364.923 400.332C364.938 400.404 365.067 400.418 365.121 400.481C365.179 400.544 365.236 400.733 365.335 400.845C366.783 402.464 368.812 403.443 370.98 403.567C373.147 403.689 375.274 402.945 376.894 401.499L380.621 398.187C381.422 397.43 382.176 396.631 382.885 395.791C386.529 393.896 390.686 393.231 394.734 393.897C401.42 395.066 407.521 398.443 412.06 403.489L423.68 416.375C429.4 422.35 432.217 430.528 431.39 438.756C429.237 453.158 423.266 466.722 414.097 478.038C413.146 479.222 411.913 480.382 410.812 481.557C399.734 478.439 388.158 477.489 376.721 478.759C340 483.017 304.455 494.336 272.036 512.096C270.481 508.021 268.465 504.138 266.022 500.524L312.302 458.767C315.658 455.735 315.919 450.556 312.886 447.2C309.854 443.844 304.674 443.582 301.318 446.615L254.928 488.395C251.707 485.741 248.207 483.445 244.487 481.55C265.39 451.276 280.213 417.232 288.13 381.31C290.552 370.082 290.761 358.491 288.747 347.185ZM258.632 524.015C263.382 546.107 249.319 567.868 227.221 572.619C205.123 577.369 183.356 563.312 178.606 541.22C173.888 519.133 187.939 497.392 210.021 492.616C232.119 487.865 253.883 501.923 258.632 524.015ZM93.3392 384.826C90.0117 367.202 92.7598 348.97 101.131 333.106C105.268 325.911 112.345 320.885 120.502 319.35L137.595 315.675C144.234 314.148 151.195 314.93 157.33 317.894C161.254 319.796 164.358 323.058 166.056 327.075C166.165 327.931 166.117 328.794 166.299 329.643L167.309 334.339C168.259 338.757 172.613 341.568 177.031 340.618C177.134 340.596 177.22 340.519 177.322 340.489C177.424 340.459 177.533 340.51 177.64 340.487C182.058 339.538 184.872 335.186 183.922 330.767L182.912 326.071C182.73 325.224 182.331 324.455 182.076 323.631C181.979 319.268 183.468 315.019 186.271 311.672C190.637 306.457 196.656 302.884 203.324 301.544L220.417 297.869C228.486 295.865 237.029 297.545 243.738 302.456C267.007 319.977 278.09 349.338 272.2 377.861C264.631 412.152 250.403 444.623 230.323 473.436C229.729 474.304 229.308 475.282 229.092 476.312C224.351 475.444 219.521 475.184 214.717 475.535L200.819 410.893C199.87 406.475 195.519 403.663 191.098 404.614C186.677 405.564 183.866 409.915 184.816 414.334L198.714 478.976C194.18 480.631 189.877 482.855 185.905 485.596C185.282 484.748 184.499 484.028 183.598 483.481C153.45 465.468 127.134 441.712 106.144 413.562C99.8179 405.064 95.4496 395.274 93.3499 384.892L93.3359 384.827L93.3392 384.826ZM-13.8739 534.49C-18.0583 527.355 -18.892 518.742 -16.159 510.935L-10.7723 494.4C-8.75478 487.922 -4.58982 482.324 1.03801 478.528C4.62833 476.145 8.93176 475.075 13.2204 475.498C14.1419 475.886 14.9343 476.335 15.9089 476.67L20.4764 478.107C22.5525 478.767 24.8047 478.573 26.7369 477.569C28.6689 476.565 30.1188 474.832 30.7716 472.755C30.8107 472.621 30.7815 472.485 30.8187 472.343C30.8527 472.201 30.905 472.207 30.9381 472.125C31.5923 470.054 31.3948 467.809 30.3936 465.883C29.3893 463.957 27.6628 462.509 25.5918 461.857L21.1808 460.47C20.215 460.176 19.2321 459.945 18.2364 459.78C14.5624 457.686 11.7192 454.389 10.186 450.446C9.70032 449.166 9.31862 447.848 9.04699 446.506C7.95577 441.241 8.28513 435.78 9.99893 430.683L15.3906 414.139C17.7091 406.204 23.4119 399.694 30.973 396.351C46.051 390.343 62.5781 388.976 78.4368 392.424C81.2466 403.568 86.2028 414.057 93.0294 423.303C115.011 452.797 142.515 477.74 174.013 496.749C171.401 500.004 169.154 503.536 167.309 507.279L107.846 488.257C103.54 486.872 98.9255 489.239 97.5403 493.545C96.1551 497.85 98.5214 502.465 102.827 503.85L162.179 522.896C161.437 527.194 161.192 531.564 161.453 535.917C124.601 533.06 87.5411 537.35 52.3165 548.55C41.3707 552.091 31.2074 557.709 22.3846 565.096C20.9309 564.395 19.3313 563.852 17.9098 563.128C4.95222 556.586 -6.02018 546.698 -13.8739 534.49ZM148.465 718.071C135.405 727.72 119.764 733.255 103.541 733.967C95.2705 734.028 87.3897 730.439 82.0079 724.157L70.2555 711.241C66.6215 707.312 64.0952 702.49 62.9308 697.264C62.6328 695.957 62.4387 694.628 62.3544 693.288C62.1444 689.044 63.3849 684.855 65.8711 681.409C66.6495 680.831 67.4276 680.236 68.1552 679.611L71.7411 676.387C75.0988 673.364 75.3674 668.189 72.3448 664.832C72.2694 664.749 72.1714 664.72 72.0974 664.644C72.0202 664.569 72.0155 664.468 71.9494 664.397C70.5082 662.776 68.4776 661.791 66.3096 661.667C64.1384 661.543 62.0102 662.282 60.3874 663.731L56.661 667.043C55.8913 667.772 55.1586 668.547 54.47 669.353C50.8143 671.337 46.595 672.04 42.4935 671.351C35.7996 670.205 29.698 666.81 25.195 661.727L13.5144 648.829C7.81053 642.865 5.02373 634.685 5.90587 626.477C9.61187 597.516 29.6145 573.25 57.3412 564.077C90.9158 553.394 126.255 549.371 161.37 552.232C162.495 552.316 163.62 552.168 164.684 551.797C166.235 556.155 168.309 560.311 170.86 564.171L124.488 606.039C122.298 607.993 121.323 610.971 121.935 613.847C122.545 616.718 124.647 619.042 127.445 619.937C130.244 620.832 133.306 620.16 135.472 618.174L181.791 576.41C185.143 579.246 188.81 581.688 192.721 583.684C171.821 613.957 156.999 648.003 149.078 683.924C146.651 695.159 146.444 706.758 148.465 718.071ZM336.111 732.128C331.974 739.323 324.897 744.35 316.739 745.883L299.646 749.558C293.009 751.086 286.047 750.303 279.912 747.339C275.988 745.438 272.884 742.176 271.182 738.16C271.085 737.343 271.125 736.439 270.943 735.592L269.933 730.896C268.982 726.475 264.629 723.665 260.211 724.614C260.104 724.637 260.022 724.716 259.92 724.745C259.818 724.774 259.705 724.723 259.601 724.746C255.184 725.695 252.369 730.047 253.32 734.468L254.33 739.164C254.512 740.011 254.911 740.78 255.163 741.605C255.262 745.964 253.773 750.214 250.971 753.561C246.596 758.784 240.575 762.359 233.892 763.694L216.825 767.364C208.752 769.371 200.209 767.688 193.5 762.778C179.362 751.752 169.377 736.26 165.172 718.833L165.158 718.768C162.809 708.442 162.767 697.721 165.039 687.375C172.608 653.083 186.836 620.613 206.916 591.8C207.51 590.932 207.93 589.953 208.147 588.925C212.894 589.791 217.734 590.05 222.548 589.694L236.445 654.337C237.395 658.754 241.746 661.565 246.167 660.615C250.584 659.665 253.398 655.314 252.449 650.896L238.551 586.254C243.082 584.601 247.388 582.375 251.36 579.635C251.983 580.482 252.766 581.202 253.664 581.749C283.812 599.764 310.127 623.517 331.12 651.668C348.199 675.266 350.144 706.596 336.111 732.128ZM453.372 554.291L448.002 570.855C445.982 577.326 441.823 582.916 436.204 586.707C432.653 589.085 428.385 590.159 424.132 589.746C423.229 589.299 422.305 588.901 421.364 588.55L416.793 587.113C414.722 586.459 412.477 586.657 410.548 587.658C408.622 588.663 407.175 590.389 406.521 592.461C406.536 592.532 406.552 592.607 406.496 592.693C406.44 592.78 406.35 592.898 406.311 593.032C404.935 597.335 407.307 601.942 411.61 603.318L416.204 604.784C417.177 605.094 418.176 605.306 419.168 605.517C422.797 607.605 425.578 610.899 427.03 614.825C427.556 616.12 427.975 617.455 428.282 618.818C429.33 624.056 428.995 629.476 427.309 634.545L421.914 651.087C419.614 658.904 414.046 665.344 406.64 668.745L406.155 668.907C391.131 674.974 374.614 676.326 358.804 672.775C355.997 661.641 351.039 651.16 344.217 641.92C322.236 612.427 294.732 587.484 263.233 568.477C265.978 565.046 268.32 561.312 270.21 557.35L329.571 576.434C332.361 577.355 335.429 576.709 337.61 574.744C339.794 572.781 340.757 569.795 340.133 566.926C339.51 564.056 337.397 561.742 334.594 560.861L275.112 541.749C275.851 537.182 276.034 532.542 275.657 527.93C276.779 527.832 277.869 527.504 278.857 526.966C309.697 509.924 343.567 499.069 378.565 495.009C407.622 491.976 435.838 505.881 451.128 530.768L451.133 530.791C455.301 537.914 456.12 546.509 453.372 554.291Z" fill="#E8F6E5"/>
<path d="M225.276 563.611C242.431 559.923 253.348 543.031 249.661 525.88C245.974 508.73 229.079 497.817 211.924 501.505C194.77 505.193 183.852 522.086 187.539 539.236C191.227 556.386 208.122 567.299 225.276 563.611Z" fill="#F4F7E6"/>
<path d="M802.471 448.051C795.209 438.718 785.615 431.462 774.657 427.014C781.214 417.154 785.059 405.744 785.81 393.928C786.147 384.831 782.406 376.058 775.606 370.005L766.818 361.828C761.487 356.857 754.617 353.86 747.346 353.338C745.946 353.265 744.543 353.303 743.149 353.453C743.193 352.07 743.122 350.686 742.941 349.314C742.741 347.731 742.409 346.167 741.946 344.64C740.225 339.24 737.118 334.388 732.935 330.565L724.15 322.463C717.591 316.127 708.527 313.078 699.47 314.158C699.38 314.168 699.287 314.185 699.198 314.207C687.517 315.799 676.465 320.451 667.165 327.694C661.864 317.101 653.86 308.095 643.962 301.585C636.245 296.741 626.768 295.59 618.112 298.445L606.612 301.992C599.612 304.063 593.545 308.49 589.437 314.522C588.666 315.74 587.997 317.021 587.44 318.351C586.232 317.565 584.958 316.883 583.632 316.312C576.841 313.642 569.334 313.402 562.384 315.633L550.885 319.179C542.122 321.7 534.938 327.994 531.289 336.347C526.775 347.299 525.237 359.25 526.832 370.987C514.985 370.32 503.17 372.731 492.533 377.987C484.441 382.196 478.671 389.82 476.824 398.749L474.131 410.343C472.777 415.893 472.939 421.705 474.603 427.17C475.055 428.687 475.636 430.162 476.341 431.58C476.98 432.8 477.711 433.969 478.529 435.079C477.297 435.74 476.118 436.498 475.005 437.345C469.29 441.884 465.302 448.242 463.703 455.362L461.018 467.013C458.82 475.863 460.696 485.231 466.13 492.553C473.398 501.884 482.997 509.138 493.955 513.588C487.403 523.448 483.564 534.859 482.822 546.673C482.45 555.764 486.177 564.543 492.976 570.593L501.783 578.729C507.084 583.741 513.963 586.758 521.243 587.263C522.65 587.339 524.059 587.298 525.458 587.144C525.404 588.544 525.459 589.945 525.625 591.337C525.842 592.883 526.19 594.408 526.666 595.896C528.353 601.334 531.472 606.218 535.697 610.036L544.483 618.144C551.039 624.477 560.097 627.529 569.15 626.453C572.923 625.899 576.647 625.058 580.293 623.936C587.96 621.591 595.133 617.866 601.46 612.939C606.756 623.525 614.754 632.525 624.647 639.029C632.367 643.866 641.843 645.013 650.495 642.156L661.996 638.609C668.996 636.538 675.063 632.112 679.171 626.08C679.942 624.862 680.61 623.58 681.168 622.252C682.376 623.036 683.65 623.718 684.976 624.289C691.767 626.96 699.274 627.2 706.224 624.968L717.722 621.422C726.485 618.901 733.667 612.608 737.319 604.255C741.825 593.315 743.366 581.38 741.783 569.653C749.758 570.195 757.764 569.251 765.394 566.869C768.973 565.763 772.458 564.377 775.821 562.728C775.915 562.692 776.008 562.654 776.097 562.607C784.189 558.4 789.956 550.776 791.806 541.848L794.507 530.171C795.807 524.663 795.639 518.91 794.019 513.487C793.547 511.981 792.95 510.516 792.234 509.11C791.605 507.853 790.874 506.652 790.045 505.516C791.29 504.855 792.475 504.095 793.596 503.243C799.327 498.725 803.312 492.357 804.87 485.228L807.564 473.544C809.773 464.713 807.905 455.357 802.471 448.051ZM671.252 338.925C679.568 331.473 689.957 326.732 701.037 325.336L701.356 325.278C706.958 324.821 712.486 326.812 716.507 330.739L725.29 338.836C728.017 341.316 730.049 344.464 731.184 347.971C731.465 348.907 731.663 349.866 731.78 350.835C732.207 353.684 731.632 356.593 730.155 359.065C729.645 359.487 729.158 359.94 728.702 360.421L726.438 362.829C725.414 363.917 724.865 365.368 724.91 366.863C724.957 368.356 725.594 369.771 726.684 370.794C726.699 370.843 726.788 370.845 726.829 370.885C726.872 370.925 726.923 371.05 726.998 371.121C728.088 372.145 729.538 372.694 731.032 372.649C732.526 372.602 733.94 371.964 734.964 370.875L737.32 368.38C737.824 367.813 738.294 367.22 738.729 366.601C741.114 365.083 743.925 364.377 746.741 364.59C751.396 364.99 755.783 366.94 759.199 370.127L767.942 378.265C772.223 382.019 774.646 387.458 774.574 393.15C773.962 403.156 770.683 412.816 765.075 421.128C764.494 421.996 763.718 422.867 763.033 423.738C755.249 422.265 747.254 422.309 739.487 423.868C714.561 428.994 690.866 438.892 669.701 453.019C668.39 450.318 666.774 447.776 664.882 445.445L694.11 414.029C696.229 411.748 696.097 408.18 693.816 406.061C691.534 403.942 687.966 404.074 685.847 406.355L656.545 437.794C654.176 436.167 651.638 434.803 648.974 433.727C661.489 411.71 669.609 387.473 672.88 362.364C673.865 354.518 673.313 346.557 671.252 338.925ZM661.225 461.998C665.81 476.863 657.473 492.63 642.605 497.216C627.737 501.802 611.965 493.469 607.38 478.605C602.818 463.742 611.147 447.988 626.003 443.386C640.871 438.801 656.641 447.134 661.225 461.998ZM539.51 376.479C536.169 364.593 536.959 351.925 541.746 340.543C544.151 335.36 548.702 331.488 554.203 329.945L565.704 326.398C570.165 324.953 574.986 325.071 579.371 326.734C582.176 327.803 584.501 329.853 585.907 332.506C586.033 333.086 586.052 333.682 586.228 334.253L587.203 337.412C588.119 340.385 591.274 342.051 594.247 341.134C594.316 341.113 594.37 341.055 594.439 341.028C594.507 341.001 594.585 341.03 594.657 341.008C597.629 340.091 599.298 336.938 598.381 333.965L597.406 330.805C597.23 330.235 596.91 329.732 596.686 329.182C596.357 326.196 597.123 323.192 598.844 320.729C601.525 316.89 605.437 314.078 609.93 312.758L621.431 309.211C626.844 307.352 632.803 307.991 637.699 310.956C654.709 321.573 664.073 341.041 661.748 360.956C658.618 384.926 650.812 408.049 638.773 429.014C638.418 429.645 638.188 430.341 638.101 431.06C634.799 430.75 631.47 430.862 628.197 431.391L614.783 387.897C613.866 384.924 610.713 383.257 607.739 384.175C604.764 385.092 603.098 388.245 604.015 391.218L617.429 434.712C614.419 436.119 611.602 437.903 609.043 440.022C608.565 439.477 607.985 439.031 607.334 438.71C585.577 428.168 566.104 413.459 550.018 395.416C545.169 389.968 541.585 383.517 539.522 376.523L539.508 376.48L539.51 376.479ZM474.98 485.555C471.682 480.913 470.593 475.057 471.998 469.539L474.698 457.877C475.692 453.312 478.212 449.224 481.844 446.282C484.162 444.432 487.049 443.44 490.016 443.473C490.671 443.683 491.241 443.944 491.93 444.115L495.148 444.826C496.612 445.154 498.145 444.885 499.409 444.081C500.674 443.276 501.564 442.001 501.887 440.537C501.906 440.442 501.877 440.351 501.894 440.251C501.909 440.152 501.945 440.153 501.963 440.095C502.287 438.635 502.017 437.107 501.215 435.847C500.41 434.587 499.139 433.697 497.68 433.374L494.572 432.688C493.892 432.545 493.204 432.446 492.511 432.393C489.866 431.177 487.718 429.087 486.43 426.475C486.02 425.626 485.679 424.745 485.412 423.841C484.347 420.296 484.245 416.532 485.114 412.933L487.817 401.265C488.93 395.683 492.45 390.877 497.434 388.13C507.413 383.104 518.665 381.173 529.747 382.585C532.344 390.058 536.373 396.953 541.61 402.883C558.456 421.789 578.816 437.241 601.558 448.384C599.963 450.774 598.634 453.331 597.593 456.009L555.673 446.537C552.637 445.845 549.615 447.746 548.924 450.782C548.232 453.818 550.132 456.84 553.168 457.531L595.014 467.026C594.764 470.018 594.858 473.029 595.299 475.999C569.855 476.254 544.699 481.423 521.216 491.22C513.922 494.306 507.29 498.769 501.684 504.365C500.645 503.972 499.515 503.696 498.497 503.284C489.218 499.576 481.099 493.455 474.98 485.555ZM597.337 601.694C588.96 609.096 578.567 613.831 567.484 615.294C561.816 615.833 556.196 613.845 552.128 609.861L543.293 601.709C540.565 599.233 538.543 596.079 537.43 592.564C537.147 591.686 536.934 590.786 536.796 589.873C536.397 586.975 536.996 584.028 538.494 581.515C538.993 581.072 539.491 580.617 539.952 580.145L542.218 577.719C544.339 575.444 544.212 571.879 541.937 569.758C541.881 569.706 541.812 569.692 541.756 569.644C541.699 569.597 541.69 569.529 541.64 569.484C540.554 568.459 539.103 567.905 537.608 567.95C536.112 567.996 534.697 568.631 533.671 569.722L531.315 572.217C530.831 572.763 530.375 573.338 529.951 573.933C527.563 575.513 524.712 576.249 521.858 576.023C517.199 575.638 512.81 573.677 509.417 570.462L500.632 562.319C496.362 558.572 493.96 553.13 494.071 547.448C494.873 527.365 507.132 509.522 525.594 501.566C547.977 492.222 571.969 487.34 596.222 487.192C596.998 487.182 597.761 487.013 598.468 486.695C599.794 489.59 601.466 492.315 603.447 494.809L574.163 526.307C572.778 527.779 572.289 529.88 572.881 531.815C573.472 533.747 575.053 535.215 577.026 535.66C578.999 536.106 581.058 535.461 582.424 533.969L611.679 502.546C614.147 504.289 616.809 505.743 619.611 506.877C607.097 528.893 598.979 553.131 595.705 578.241C594.716 586.091 595.271 594.057 597.337 601.694ZM726.862 600.059C724.457 605.242 719.906 609.114 714.404 610.655L702.903 614.203C698.443 615.65 693.622 615.531 689.237 613.867C686.431 612.799 684.107 610.748 682.699 608.097C682.583 607.543 682.556 606.92 682.38 606.35L681.405 603.19C680.488 600.216 677.333 598.55 674.361 599.467C674.289 599.489 674.238 599.548 674.169 599.574C674.101 599.6 674.021 599.572 673.951 599.594C670.978 600.51 669.31 603.663 670.227 606.638L671.202 609.798C671.378 610.368 671.698 610.871 671.92 611.421C672.25 614.405 671.485 617.409 669.764 619.873C667.078 623.718 663.163 626.531 658.66 627.848L647.177 631.39C641.762 633.251 635.802 632.611 630.906 629.647C620.548 622.935 612.77 612.911 608.839 601.213L608.826 601.169C606.594 594.229 605.922 586.879 606.858 579.648C609.988 555.677 617.794 532.556 629.833 511.59C630.188 510.959 630.418 510.262 630.505 509.545C633.812 509.853 637.147 509.74 640.426 509.207L653.841 552.701C654.758 555.673 657.91 557.34 660.884 556.422C663.857 555.505 665.525 552.352 664.609 549.38L651.194 505.886C654.202 504.48 657.021 502.695 659.58 500.577C660.058 501.12 660.638 501.568 661.287 501.889C683.044 512.431 702.517 527.139 718.605 545.183C731.735 560.339 734.951 581.707 726.862 600.059ZM796.59 471.059L793.902 482.741C792.907 487.3 790.39 491.383 786.764 494.32C784.473 496.165 781.61 497.158 778.669 497.13C778.022 496.878 777.365 496.66 776.699 496.476L773.478 495.765C772.018 495.441 770.49 495.712 769.228 496.515C767.968 497.319 767.079 498.59 766.754 500.05C766.769 500.098 766.785 500.148 766.751 500.211C766.718 500.273 766.664 500.36 766.645 500.454C765.96 503.488 767.863 506.505 770.897 507.189L774.136 507.918C774.821 508.073 775.519 508.158 776.212 508.243C778.826 509.457 780.931 511.549 782.163 514.154C782.601 515.011 782.969 515.901 783.261 516.817C784.295 520.346 784.391 524.083 783.539 527.66L780.833 539.329C779.726 544.828 776.294 549.579 771.42 552.356L771.097 552.496C761.159 557.559 749.913 559.479 738.858 557.994C736.264 550.527 732.234 543.637 727.001 537.711C710.155 518.806 689.795 503.354 667.052 492.212C668.728 489.694 670.11 486.993 671.168 484.162L713.022 493.683C714.991 494.146 717.056 493.519 718.433 492.04C719.813 490.563 720.294 488.458 719.694 486.528C719.094 484.598 717.506 483.137 715.531 482.702L673.592 473.169C673.825 469.993 673.671 466.8 673.136 463.66C673.899 463.525 674.627 463.235 675.272 462.807C695.397 449.267 717.972 439.788 741.728 434.9C761.472 431.075 781.657 438.915 793.638 455.063L793.642 455.078C796.929 459.712 798.007 465.558 796.59 471.059Z" fill="#E8F6E5"/>
<path d="M640.731 491.156C652.273 487.596 658.745 475.356 655.186 463.816C651.627 452.277 639.385 445.808 627.843 449.368C616.3 452.928 609.828 465.168 613.387 476.708C616.946 488.247 629.188 494.716 640.731 491.156Z" fill="#F4F7E6"/>
<path d="M137.471 189.051C130.209 179.718 120.615 172.462 109.657 168.014C116.214 158.154 120.059 146.744 120.81 134.928C121.147 125.831 117.406 117.058 110.606 111.005L101.818 102.828C96.4872 97.8566 89.6168 94.8601 82.3457 94.338C80.9465 94.2645 79.5433 94.3027 78.1486 94.4532C78.193 93.0704 78.1222 91.6862 77.9405 90.3145C77.7413 88.7309 77.4095 87.167 76.9456 85.6397C75.2254 80.2404 72.1179 75.3876 67.9348 71.565L59.1504 63.4629C52.5909 57.1271 43.527 54.0775 34.4702 55.1582C34.38 55.1681 34.2873 55.185 34.1984 55.2069C22.5174 56.7986 11.4649 61.4514 2.16487 68.694C-3.13612 58.1008 -11.1405 49.0949 -21.0376 42.5845C-28.755 37.7406 -38.2323 36.5899 -46.8875 39.4451L-58.3885 42.9922C-65.388 45.0633 -71.4554 49.4899 -75.5627 55.522C-76.3343 56.7396 -77.0027 58.0208 -77.5603 59.3511C-78.7682 58.5653 -80.0422 57.8832 -81.3678 57.3124C-88.1591 54.6417 -95.6659 54.4016 -102.616 56.6328L-114.115 60.1793C-122.878 62.7003 -130.062 68.9939 -133.711 77.3469C-138.225 88.2993 -139.763 100.25 -138.168 111.987C-150.015 111.32 -161.83 113.731 -172.467 118.987C-180.559 123.196 -186.329 130.82 -188.176 139.749L-190.869 151.343C-192.223 156.893 -192.061 162.705 -190.397 168.17C-189.945 169.687 -189.364 171.162 -188.659 172.58C-188.02 173.8 -187.289 174.969 -186.471 176.079C-187.703 176.74 -188.882 177.498 -189.995 178.345C-195.71 182.884 -199.698 189.242 -201.297 196.362L-203.982 208.013C-206.18 216.863 -204.304 226.231 -198.87 233.553C-191.602 242.884 -182.003 250.138 -171.045 254.588C-177.597 264.448 -181.436 275.859 -182.178 287.673C-182.55 296.764 -178.823 305.543 -172.024 311.593L-163.217 319.729C-157.916 324.741 -151.037 327.758 -143.757 328.263C-142.35 328.339 -140.941 328.298 -139.542 328.144C-139.596 329.544 -139.541 330.945 -139.375 332.337C-139.158 333.883 -138.81 335.408 -138.334 336.896C-136.647 342.334 -133.528 347.218 -129.303 351.036L-120.517 359.144C-113.961 365.477 -104.903 368.529 -95.85 367.453C-92.0774 366.899 -88.3526 366.058 -84.7075 364.936C-77.0398 362.591 -69.867 358.866 -63.5403 353.939C-58.2438 364.525 -50.246 373.525 -40.3533 380.029C-32.6334 384.866 -23.1571 386.013 -14.5049 383.156L-3.00391 379.609C3.99578 377.538 10.0633 373.112 14.1705 367.08C14.9421 365.862 15.6104 364.58 16.1685 363.252C17.3759 364.036 18.6499 364.718 19.9756 365.289C26.767 367.96 34.2737 368.2 41.2235 365.968L52.7224 362.422C61.4854 359.901 68.6672 353.608 72.319 345.255C76.8245 334.315 78.3656 322.38 76.7826 310.653C84.7578 311.195 92.7643 310.251 100.394 307.869C103.973 306.763 107.458 305.377 110.821 303.728C110.915 303.692 111.008 303.654 111.097 303.607C119.189 299.4 124.956 291.776 126.806 282.848L129.507 271.171C130.807 265.663 130.639 259.91 129.019 254.487C128.547 252.981 127.95 251.516 127.234 250.11C126.605 248.853 125.874 247.652 125.045 246.516C126.29 245.855 127.475 245.095 128.596 244.243C134.327 239.725 138.312 233.357 139.87 226.228L142.564 214.544C144.773 205.713 142.905 196.357 137.471 189.051ZM6.25247 79.9248C14.5678 72.4726 24.9574 67.732 36.0367 66.3356L36.356 66.2784C41.9578 65.8205 47.4858 67.8121 51.5075 71.739L60.2902 79.8361C63.0172 82.3159 65.0494 85.4643 66.1836 88.9714C66.465 89.907 66.6627 90.8658 66.7801 91.8353C67.207 94.6839 66.6321 97.5934 65.155 100.065C64.6446 100.487 64.1582 100.94 63.7018 101.421L61.438 103.829C60.4139 104.917 59.8647 106.368 59.9097 107.863C59.9569 109.356 60.594 110.771 61.684 111.794C61.6989 111.843 61.788 111.845 61.829 111.885C61.8724 111.925 61.9231 112.05 61.9976 112.121C63.0876 113.145 64.5381 113.694 66.032 113.649C67.5258 113.602 68.9399 112.964 69.9638 111.875L72.3202 109.38C72.824 108.813 73.2936 108.22 73.7289 107.601C76.1142 106.083 78.9246 105.377 81.7411 105.59C86.396 105.99 90.7829 107.94 94.1989 111.127L102.942 119.265C107.223 123.019 109.646 128.458 109.574 134.15C108.962 144.156 105.683 153.816 100.075 162.128C99.4943 162.996 98.7182 163.867 98.0334 164.738C90.2493 163.265 82.2542 163.309 74.4871 164.868C49.5614 169.994 25.866 179.892 4.70079 194.019C3.38979 191.318 1.77411 188.776 -0.118459 186.445L29.11 155.029C31.229 152.748 31.0967 149.18 28.8155 147.061C26.5344 144.942 22.9663 145.074 20.8474 147.355L-8.45534 178.794C-10.8236 177.167 -13.3618 175.803 -16.0262 174.727C-3.51072 152.71 4.60859 128.473 7.87957 103.364C8.86545 95.5182 8.3125 87.5572 6.25247 79.9248ZM-3.77451 202.998C0.809967 217.863 -7.52659 233.63 -22.3949 238.216C-37.2633 242.802 -53.0351 234.469 -57.6196 219.605C-62.1822 204.742 -53.8532 188.988 -38.997 184.386C-24.1287 179.801 -8.35899 188.134 -3.77451 202.998ZM-125.49 117.479C-128.831 105.593 -128.041 92.9247 -123.254 81.5432C-120.849 76.3603 -116.298 72.4883 -110.797 70.9455L-99.2956 67.3984C-94.8349 65.9528 -90.0139 66.0708 -85.6291 67.7345C-82.8236 68.8029 -80.4992 70.8533 -79.093 73.5063C-78.9667 74.0863 -78.948 74.6816 -78.7719 75.2525L-77.7975 78.4121C-76.8805 81.3851 -73.7258 83.0511 -70.7534 82.1344C-70.6836 82.1129 -70.6298 82.0549 -70.5615 82.0284C-70.4934 82.0011 -70.4152 82.0301 -70.3432 82.0079C-67.3708 81.0911 -65.7025 77.9376 -66.6194 74.9646L-67.5939 71.805C-67.7698 71.2347 -68.0899 70.7317 -68.3144 70.1819C-68.6427 67.1958 -67.8769 64.1923 -66.156 61.7286C-63.4754 57.8898 -59.5627 55.0784 -55.0704 53.7584L-43.5694 50.2113C-38.1559 48.3524 -32.1968 48.9912 -27.3009 51.9556C-10.2914 62.5728 -0.926557 82.0415 -3.2521 101.956C-6.38225 125.926 -14.1878 149.049 -26.2271 170.014C-26.5821 170.645 -26.812 171.341 -26.8986 172.06C-30.2014 171.75 -33.5296 171.862 -36.803 172.391L-50.2174 128.897C-51.1343 125.924 -54.2869 124.257 -57.2614 125.175C-60.236 126.092 -61.9021 129.245 -60.9852 132.218L-47.5708 175.712C-50.5806 177.119 -53.3978 178.903 -55.9566 181.022C-56.4352 180.477 -57.015 180.031 -57.666 179.71C-79.4226 169.168 -98.8963 154.459 -114.982 136.416C-119.831 130.968 -123.415 124.517 -125.478 117.523L-125.492 117.48L-125.49 117.479ZM-190.02 226.555C-193.318 221.913 -194.407 216.057 -193.002 210.539L-190.302 198.877C-189.308 194.312 -186.788 190.224 -183.156 187.282C-180.838 185.432 -177.951 184.44 -174.984 184.473C-174.329 184.683 -173.759 184.944 -173.07 185.115L-169.852 185.826C-168.388 186.154 -166.855 185.885 -165.591 185.081C-164.326 184.276 -163.436 183.001 -163.113 181.537C-163.094 181.442 -163.123 181.351 -163.106 181.251C-163.091 181.152 -163.055 181.153 -163.037 181.095C-162.713 179.635 -162.983 178.107 -163.785 176.847C-164.59 175.587 -165.861 174.697 -167.32 174.374L-170.428 173.688C-171.108 173.545 -171.796 173.446 -172.489 173.393C-175.134 172.177 -177.282 170.087 -178.57 167.475C-178.98 166.626 -179.321 165.745 -179.588 164.841C-180.653 161.296 -180.755 157.532 -179.886 153.933L-177.183 142.265C-176.07 136.683 -172.55 131.877 -167.566 129.13C-157.587 124.104 -146.335 122.173 -135.253 123.585C-132.656 131.058 -128.627 137.953 -123.39 143.883C-106.544 162.789 -86.184 178.241 -63.4415 189.384C-65.0371 191.774 -66.3659 194.331 -67.4066 197.009L-109.327 187.537C-112.363 186.845 -115.385 188.746 -116.076 191.782C-116.768 194.818 -114.868 197.84 -111.832 198.531L-69.9857 208.026C-70.2364 211.018 -70.1418 214.029 -69.7014 216.999C-95.145 217.254 -120.301 222.423 -143.784 232.22C-151.078 235.306 -157.71 239.769 -163.316 245.365C-164.355 244.972 -165.485 244.696 -166.503 244.284C-175.782 240.576 -183.901 234.455 -190.02 226.555ZM-67.6632 342.694C-76.0396 350.096 -86.4332 354.831 -97.5158 356.294C-103.184 356.833 -108.804 354.845 -112.872 350.861L-121.707 342.709C-124.435 340.233 -126.457 337.079 -127.57 333.564C-127.853 332.686 -128.066 331.786 -128.204 330.873C-128.603 327.975 -128.004 325.028 -126.506 322.515C-126.007 322.072 -125.509 321.617 -125.048 321.145L-122.782 318.719C-120.661 316.444 -120.788 312.879 -123.063 310.758C-123.119 310.706 -123.188 310.692 -123.244 310.644C-123.301 310.597 -123.31 310.529 -123.36 310.484C-124.446 309.459 -125.897 308.905 -127.392 308.95C-128.888 308.996 -130.303 309.631 -131.329 310.722L-133.685 313.217C-134.169 313.763 -134.625 314.338 -135.049 314.933C-137.437 316.513 -140.288 317.249 -143.142 317.023C-147.801 316.638 -152.19 314.677 -155.583 311.462L-164.368 303.319C-168.638 299.572 -171.04 294.13 -170.929 288.448C-170.127 268.365 -157.868 250.522 -139.406 242.566C-117.023 233.222 -93.0307 228.34 -68.7778 228.192C-68.0018 228.182 -67.2389 228.013 -66.5318 227.695C-65.2061 230.59 -63.5339 233.315 -61.5531 235.809L-90.8375 267.307C-92.2216 268.779 -92.7112 270.88 -92.1192 272.815C-91.5279 274.747 -89.9472 276.215 -87.9743 276.66C-86.0014 277.106 -83.9419 276.461 -82.5761 274.969L-53.3213 243.546C-50.8526 245.289 -48.191 246.743 -45.3892 247.877C-57.9026 269.893 -66.0215 294.131 -69.2948 319.241C-70.2841 327.091 -69.7294 335.057 -67.6632 342.694ZM61.862 341.059C59.4571 346.242 54.906 350.114 49.4042 351.655L37.9032 355.203C33.4431 356.65 28.6217 356.531 24.2369 354.867C21.4315 353.799 19.1069 351.748 17.6989 349.097C17.5828 348.543 17.5558 347.92 17.3801 347.35L16.4055 344.19C15.4881 341.216 12.3335 339.55 9.3611 340.467C9.28908 340.489 9.23793 340.548 9.16943 340.574C9.10095 340.6 9.02067 340.572 8.95084 340.594C5.97848 341.51 4.31006 344.663 5.22746 347.638L6.20208 350.798C6.37775 351.368 6.69795 351.871 6.92029 352.421C7.25019 355.405 6.48456 358.409 4.76381 360.873C2.07783 364.718 -1.83678 367.531 -6.33953 368.848L-17.823 372.39C-23.2381 374.251 -29.1978 373.611 -34.0936 370.647C-44.4519 363.935 -52.2301 353.911 -56.1607 342.213L-56.1742 342.169C-58.4056 335.229 -59.0782 327.879 -58.1419 320.648C-55.0121 296.677 -47.206 273.556 -35.167 252.59C-34.8118 251.959 -34.5823 251.262 -34.4953 250.545C-31.1879 250.853 -27.853 250.74 -24.5737 250.207L-11.1592 293.701C-10.2425 296.673 -7.09004 298.34 -4.1155 297.422C-1.14314 296.505 0.525294 293.352 -0.391439 290.38L-13.8059 246.886C-10.7979 245.48 -7.97863 243.695 -5.41978 241.577C-4.94155 242.12 -4.36151 242.568 -3.71284 242.889C18.044 253.431 37.5173 268.139 53.6052 286.183C66.7352 301.339 69.9511 322.707 61.862 341.059ZM131.59 212.059L128.902 223.741C127.907 228.3 125.39 232.383 121.764 235.32C119.473 237.165 116.61 238.158 113.669 238.13C113.022 237.878 112.365 237.66 111.699 237.476L108.478 236.765C107.018 236.441 105.49 236.712 104.228 237.515C102.968 238.319 102.079 239.59 101.754 241.05C101.769 241.098 101.785 241.148 101.751 241.211C101.718 241.273 101.664 241.36 101.645 241.454C100.96 244.488 102.863 247.505 105.897 248.189L109.136 248.918C109.821 249.073 110.519 249.158 111.212 249.243C113.826 250.457 115.931 252.549 117.163 255.154C117.601 256.011 117.969 256.901 118.261 257.817C119.295 261.346 119.391 265.083 118.539 268.66L115.833 280.329C114.726 285.828 111.294 290.579 106.42 293.356L106.097 293.496C96.1585 298.559 84.9132 300.479 73.8582 298.994C71.2638 291.527 67.2339 284.637 62.0005 278.711C45.1548 259.806 24.7946 244.354 2.05224 233.212C3.72796 230.694 5.1102 227.993 6.16814 225.162L48.0223 234.683C49.9912 235.146 52.0562 234.519 53.4333 233.04C54.8132 231.563 55.2941 229.458 54.6941 227.528C54.094 225.598 52.506 224.137 50.5315 223.702L8.59247 214.169C8.8246 210.993 8.67137 207.8 8.13564 204.66C8.8995 204.525 9.62715 204.235 10.2719 203.807C30.3969 190.267 52.9717 180.788 76.7283 175.9C96.4723 172.075 116.657 179.915 128.638 196.063L128.642 196.078C131.929 200.712 133.007 206.558 131.59 212.059Z" fill="#E8F6E5"/>
</svg>
