<svg width="1088" height="825" viewBox="0 0 1088 825" fill="none" xmlns="http://www.w3.org/2000/svg">
<path d="M706.999 521.741C697.674 507.314 684.71 495.597 669.417 487.771C680.156 474.334 687.166 458.31 689.75 441.306C691.392 428.185 687.091 415.015 678.018 405.393L666.337 392.445C659.253 384.575 649.691 379.368 639.235 377.69C637.22 377.407 635.184 377.284 633.147 377.325C633.386 375.33 633.459 373.318 633.37 371.309C633.283 368.993 633.001 366.687 632.523 364.418C630.719 356.387 626.837 348.97 621.268 342.908L609.584 330.07C600.894 320.069 588.165 314.507 574.921 314.922C574.79 314.925 574.653 314.938 574.522 314.958C557.416 315.781 540.832 321.112 526.455 330.414C520.127 314.412 509.686 300.365 496.189 289.689C485.635 281.701 472.067 278.834 459.179 281.868L442.086 285.543C431.695 287.652 422.353 293.289 415.645 301.497C414.373 303.162 413.244 304.931 412.268 306.785C410.62 305.495 408.863 304.346 407.017 303.352C397.528 298.626 386.695 297.327 376.354 299.675L359.265 303.349C346.264 305.886 335.07 314.083 328.73 325.708C320.809 340.985 317.067 358.083 317.888 375.271C300.829 372.804 283.425 374.795 267.365 381.052C255.121 386.116 245.806 396.418 242.001 409.105L236.634 425.542C233.97 433.401 233.468 441.832 235.183 449.952C235.644 452.205 236.299 454.414 237.139 456.554C237.909 458.401 238.819 460.186 239.861 461.895C237.994 462.695 236.192 463.643 234.474 464.727C225.629 470.571 219.052 479.266 215.835 489.367L210.472 505.887C206.169 518.416 207.695 532.211 214.631 543.495C223.966 557.92 236.936 569.633 252.23 577.462C241.498 590.901 234.495 606.927 231.924 623.929C230.233 637.039 234.514 650.214 243.586 659.832L255.299 672.723C262.334 680.648 271.906 685.885 282.377 687.54C284.404 687.827 286.449 687.947 288.492 687.902C288.237 689.921 288.138 691.955 288.203 693.991C288.32 696.256 288.631 698.507 289.13 700.72C290.882 708.804 294.777 716.266 300.406 722.328L312.093 735.174C320.777 745.17 333.498 750.736 346.736 750.326C352.265 750.002 357.762 749.258 363.179 748.097C374.573 745.675 385.425 741.194 395.205 734.866C401.527 750.857 411.96 764.896 425.451 775.562C436.01 783.54 449.577 786.402 462.461 783.364L479.554 779.689C489.946 777.581 499.287 771.945 505.996 763.736C507.267 762.072 508.396 760.302 509.372 758.45C511.02 759.738 512.777 760.887 514.623 761.881C524.113 766.608 534.945 767.906 545.286 765.558L562.375 761.883C575.376 759.346 586.567 751.151 592.911 739.526C600.818 724.266 604.561 707.19 603.757 690.019C615.23 691.815 626.936 691.463 638.279 688.983C643.598 687.837 648.817 686.273 653.893 684.313C654.033 684.273 654.173 684.229 654.307 684.173C666.552 679.111 675.864 668.809 679.672 656.124L685.062 639.569C687.642 631.763 688.128 623.416 686.471 615.363C685.98 613.124 685.301 610.929 684.443 608.802C683.692 606.904 682.786 605.073 681.732 603.324C683.616 602.526 685.428 601.576 687.158 600.485C696.024 594.673 702.598 585.964 705.756 575.844L711.136 559.278C715.453 546.779 713.937 533.002 706.999 521.741ZM530.947 347.185C543.925 337.455 559.561 331.912 575.771 331.296L576.24 331.254C584.405 331.301 592.152 334.884 597.474 341.077L609.157 353.908C612.789 357.842 615.33 362.656 616.527 367.875C616.816 369.265 616.98 370.677 617.027 372.095C617.284 376.272 616.083 380.409 613.632 383.798C612.84 384.344 612.079 384.939 611.357 385.576L607.776 388.774C606.156 390.219 605.177 392.249 605.053 394.417C604.932 396.585 605.674 398.712 607.122 400.332C607.137 400.404 607.266 400.418 607.32 400.481C607.378 400.544 607.435 400.733 607.534 400.845C608.982 402.464 611.011 403.443 613.179 403.567C615.346 403.689 617.474 402.945 619.093 401.499L622.82 398.187C623.621 397.43 624.376 396.631 625.084 395.791C628.728 393.896 632.885 393.231 636.934 393.897C643.619 395.066 649.72 398.443 654.259 403.489L665.88 416.375C671.599 422.35 674.416 430.528 673.589 438.756C671.436 453.158 665.465 466.722 656.296 478.038C655.346 479.222 654.112 480.382 653.011 481.557C641.933 478.439 630.358 477.489 618.92 478.759C582.2 483.017 546.655 494.336 514.235 512.096C512.68 508.021 510.664 504.138 508.221 500.524L554.502 458.767C557.857 455.735 558.118 450.556 555.086 447.2C552.053 443.844 546.873 443.582 543.517 446.615L497.127 488.395C493.906 485.741 490.406 483.445 486.686 481.55C507.589 451.276 522.412 417.232 530.329 381.31C532.751 370.082 532.96 358.491 530.947 347.185ZM500.832 524.015C505.581 546.107 491.518 567.868 469.42 572.619C447.322 577.369 425.555 563.312 420.806 541.22C416.088 519.133 430.138 497.392 452.22 492.616C474.318 487.865 496.082 501.923 500.832 524.015ZM335.538 384.826C332.211 367.202 334.959 348.97 343.33 333.106C347.467 325.911 354.544 320.885 362.701 319.35L379.794 315.675C386.433 314.148 393.394 314.93 399.529 317.894C403.453 319.796 406.557 323.058 408.255 327.075C408.365 327.931 408.316 328.794 408.499 329.643L409.508 334.339C410.458 338.757 414.812 341.568 419.23 340.618C419.334 340.596 419.419 340.519 419.521 340.489C419.623 340.459 419.733 340.51 419.84 340.487C424.257 339.538 427.071 335.186 426.121 330.767L425.112 326.071C424.929 325.224 424.53 324.455 424.275 323.631C424.178 319.268 425.667 315.019 428.47 311.672C432.836 306.457 438.855 302.884 445.523 301.544L462.616 297.869C470.686 295.865 479.228 297.545 485.937 302.456C509.206 319.977 520.289 349.338 514.399 377.861C506.83 412.152 492.603 444.623 472.522 473.436C471.928 474.304 471.508 475.282 471.291 476.312C466.551 475.444 461.72 475.184 456.916 475.535L443.019 410.893C442.069 406.475 437.718 403.663 433.297 404.614C428.876 405.564 426.065 409.915 427.015 414.334L440.913 478.976C436.379 480.631 432.076 482.855 428.104 485.596C427.481 484.748 426.698 484.028 425.797 483.481C395.649 465.468 369.333 441.712 348.344 413.562C342.017 405.064 337.649 395.274 335.549 384.892L335.535 384.827L335.538 384.826ZM228.325 534.49C224.141 527.355 223.307 518.742 226.04 510.935L231.427 494.4C233.444 487.922 237.609 482.324 243.237 478.528C246.828 476.145 251.131 475.075 255.42 475.498C256.341 475.886 257.133 476.335 258.108 476.67L262.676 478.107C264.752 478.767 267.004 478.573 268.936 477.569C270.868 476.565 272.318 474.832 272.971 472.755C273.01 472.621 272.981 472.485 273.018 472.343C273.052 472.201 273.104 472.207 273.137 472.125C273.792 470.054 273.594 467.809 272.593 465.883C271.588 463.957 269.862 462.509 267.791 461.857L263.38 460.47C262.414 460.176 261.431 459.945 260.436 459.78C256.762 457.686 253.918 454.389 252.385 450.446C251.9 449.166 251.518 447.848 251.246 446.506C250.155 441.241 250.484 435.78 252.198 430.683L257.59 414.139C259.908 406.204 265.611 399.694 273.172 396.351C288.25 390.343 304.777 388.976 320.636 392.424C323.446 403.568 328.402 414.057 335.229 423.303C357.21 452.797 384.714 477.74 416.212 496.749C413.601 500.004 411.353 503.536 409.508 507.279L350.045 488.257C345.74 486.872 341.125 489.239 339.739 493.545C338.354 497.85 340.721 502.465 345.026 503.85L404.379 522.896C403.636 527.194 403.392 531.564 403.652 535.917C366.8 533.06 329.74 537.35 294.516 548.55C283.57 552.091 273.407 557.709 264.584 565.096C263.13 564.395 261.53 563.852 260.109 563.128C247.151 556.586 236.179 546.698 228.325 534.49ZM390.664 718.071C377.604 727.72 361.963 733.255 345.74 733.967C337.47 734.028 329.589 730.439 324.207 724.157L312.455 711.241C308.821 707.312 306.294 702.49 305.13 697.264C304.832 695.957 304.638 694.628 304.554 693.288C304.344 689.044 305.584 684.855 308.07 681.409C308.849 680.831 309.627 680.236 310.354 679.611L313.94 676.387C317.298 673.364 317.567 668.189 314.544 664.832C314.469 664.749 314.371 664.72 314.297 664.644C314.219 664.569 314.215 664.468 314.149 664.397C312.707 662.776 310.677 661.791 308.509 661.667C306.338 661.543 304.209 662.282 302.587 663.731L298.86 667.043C298.09 667.772 297.358 668.547 296.669 669.353C293.014 671.337 288.794 672.04 284.693 671.351C277.999 670.205 271.897 666.81 267.394 661.727L255.714 648.829C250.01 642.865 247.223 634.685 248.105 626.477C251.811 597.516 271.814 573.25 299.54 564.077C333.115 553.394 368.454 549.371 403.57 552.232C404.694 552.316 405.819 552.168 406.883 551.797C408.434 556.155 410.509 560.311 413.059 564.171L366.687 606.039C364.498 607.993 363.523 610.971 364.134 613.847C364.745 616.718 366.846 619.042 369.645 619.937C372.443 620.832 375.505 620.16 377.671 618.174L423.99 576.41C427.342 579.246 431.009 581.688 434.92 583.684C414.02 613.957 399.198 648.003 391.277 683.924C388.85 695.159 388.643 706.758 390.664 718.071ZM578.31 732.128C574.173 739.323 567.096 744.35 558.939 745.883L541.846 749.558C535.208 751.086 528.246 750.303 522.111 747.339C518.187 745.438 515.083 742.176 513.382 738.16C513.284 737.343 513.324 736.439 513.142 735.592L512.132 730.896C511.182 726.475 506.828 723.665 502.41 724.614C502.303 724.637 502.222 724.716 502.119 724.745C502.017 724.774 501.904 724.723 501.8 724.746C497.383 725.695 494.569 730.047 495.519 734.468L496.529 739.164C496.711 740.011 497.11 740.78 497.362 741.605C497.461 745.964 495.973 750.214 493.17 753.561C488.796 758.784 482.774 762.359 476.091 763.694L459.024 767.364C450.952 769.371 442.408 767.688 435.7 762.778C421.561 751.752 411.576 736.26 407.371 718.833L407.357 718.768C405.008 708.442 404.966 697.721 407.238 687.375C414.807 653.083 429.035 620.613 449.115 591.8C449.709 590.932 450.13 589.953 450.346 588.925C455.093 589.791 459.934 590.05 464.747 589.694L478.645 654.337C479.594 658.754 483.945 661.565 488.366 660.615C492.783 659.665 495.598 655.314 494.648 650.896L480.75 586.254C485.281 584.601 489.588 582.375 493.559 579.635C494.182 580.482 494.965 581.202 495.863 581.749C526.011 599.764 552.326 623.517 573.32 651.668C590.399 675.266 592.343 706.596 578.31 732.128ZM695.571 554.291L690.201 570.855C688.182 577.326 684.022 582.916 678.403 586.707C674.853 589.085 670.584 590.159 666.332 589.746C665.428 589.299 664.504 588.901 663.563 588.55L658.992 587.113C656.921 586.459 654.676 586.657 652.747 587.658C650.822 588.663 649.374 590.389 648.72 592.461C648.735 592.532 648.751 592.607 648.695 592.693C648.639 592.78 648.549 592.898 648.51 593.032C647.134 597.335 649.506 601.942 653.809 603.318L658.404 604.784C659.376 605.094 660.375 605.306 661.368 605.517C664.996 607.605 667.778 610.899 669.229 614.825C669.755 616.12 670.175 617.455 670.481 618.818C671.529 624.056 671.195 629.476 669.509 634.545L664.113 651.087C661.814 658.904 656.245 665.344 648.839 668.745L648.355 668.907C633.33 674.974 616.813 676.326 601.004 672.775C598.196 661.641 593.238 651.16 586.416 641.92C564.435 612.427 536.931 587.484 505.433 568.477C508.177 565.046 510.52 561.312 512.409 557.35L571.77 576.434C574.561 577.355 577.629 576.709 579.809 574.744C581.993 572.781 582.956 569.795 582.332 566.926C581.709 564.056 579.596 561.742 576.794 560.861L517.312 541.749C518.05 537.182 518.233 532.542 517.856 527.93C518.979 527.832 520.069 527.504 521.056 526.966C551.896 509.924 585.766 499.069 620.764 495.009C649.821 491.976 678.037 505.881 693.327 530.768L693.332 530.791C697.5 537.914 698.32 546.509 695.571 554.291Z" fill="#E8F6E5"/>
<path d="M467.476 563.611C484.63 559.923 495.548 543.031 491.86 525.88C488.173 508.73 471.278 497.817 454.123 501.505C436.969 505.193 426.052 522.086 429.739 539.236C433.426 556.386 450.321 567.299 467.476 563.611Z" fill="#F4F7E6"/>
<path d="M1044.67 448.051C1037.41 438.718 1027.81 431.462 1016.86 427.014C1023.41 417.154 1027.26 405.744 1028.01 393.928C1028.35 384.831 1024.61 376.058 1017.81 370.005L1009.02 361.828C1003.69 356.857 996.816 353.86 989.545 353.338C988.146 353.265 986.743 353.303 985.348 353.453C985.392 352.07 985.321 350.686 985.14 349.314C984.941 347.731 984.609 346.167 984.145 344.64C982.425 339.24 979.317 334.388 975.134 330.565L966.35 322.463C959.79 316.127 950.726 313.078 941.669 314.158C941.579 314.168 941.486 314.185 941.398 314.207C929.717 315.799 918.664 320.451 909.364 327.694C904.063 317.101 896.059 308.095 886.162 301.585C878.444 296.741 868.967 295.59 860.312 298.445L848.811 301.992C841.811 304.063 835.744 308.49 831.637 314.522C830.865 315.74 830.197 317.021 829.639 318.351C828.431 317.565 827.157 316.883 825.831 316.312C819.04 313.642 811.533 313.402 804.583 315.633L793.084 319.179C784.321 321.7 777.138 327.994 773.488 336.347C768.974 347.299 767.436 359.25 769.031 370.987C757.184 370.32 745.369 372.731 734.732 377.987C726.64 382.196 720.87 389.82 719.023 398.749L716.331 410.343C714.976 415.893 715.139 421.705 716.803 427.17C717.254 428.687 717.836 430.162 718.54 431.58C719.18 432.8 719.911 433.969 720.728 435.079C719.496 435.74 718.317 436.498 717.204 437.345C711.489 441.884 707.502 448.242 705.902 455.362L703.218 467.013C701.019 475.863 702.895 485.231 708.329 492.553C715.598 501.884 725.196 509.138 736.154 513.588C729.602 523.448 725.763 534.859 725.021 546.673C724.649 555.764 728.377 564.543 735.176 570.593L743.982 578.729C749.283 583.741 756.162 586.758 763.442 587.263C764.849 587.339 766.259 587.298 767.657 587.144C767.604 588.544 767.658 589.945 767.824 591.337C768.041 592.883 768.389 594.408 768.865 595.896C770.552 601.334 773.671 606.218 777.896 610.036L786.682 618.144C793.238 624.477 802.296 627.529 811.349 626.453C815.122 625.899 818.847 625.058 822.492 623.936C830.159 621.591 837.332 617.866 843.659 612.939C848.955 623.525 856.953 632.525 866.846 639.029C874.566 643.866 884.042 645.013 892.694 642.156L904.195 638.609C911.195 636.538 917.263 632.112 921.37 626.08C922.141 624.862 922.81 623.58 923.368 622.252C924.575 623.036 925.849 623.718 927.175 624.289C933.966 626.96 941.473 627.2 948.423 624.968L959.922 621.422C968.685 618.901 975.866 612.608 979.518 604.255C984.024 593.315 985.565 581.38 983.982 569.653C991.957 570.195 999.964 569.251 1007.59 566.869C1011.17 565.763 1014.66 564.377 1018.02 562.728C1018.11 562.692 1018.21 562.654 1018.3 562.607C1026.39 558.4 1032.16 550.776 1034 541.848L1036.71 530.171C1038.01 524.663 1037.84 518.91 1036.22 513.487C1035.75 511.981 1035.15 510.516 1034.43 509.11C1033.8 507.853 1033.07 506.652 1032.24 505.516C1033.49 504.855 1034.67 504.095 1035.8 503.243C1041.53 498.725 1045.51 492.357 1047.07 485.228L1049.76 473.544C1051.97 464.713 1050.1 455.357 1044.67 448.051ZM913.452 338.925C921.767 331.473 932.157 326.732 943.236 325.336L943.555 325.278C949.157 324.821 954.685 326.812 958.707 330.739L967.489 338.836C970.216 341.316 972.249 344.464 973.383 347.971C973.664 348.907 973.862 349.866 973.979 350.835C974.406 353.684 973.831 356.593 972.354 359.065C971.844 359.487 971.357 359.94 970.901 360.421L968.637 362.829C967.613 363.917 967.064 365.368 967.109 366.863C967.156 368.356 967.793 369.771 968.883 370.794C968.898 370.843 968.987 370.845 969.028 370.885C969.072 370.925 969.122 371.05 969.197 371.121C970.287 372.145 971.737 372.694 973.231 372.649C974.725 372.602 976.139 371.964 977.163 370.875L979.519 368.38C980.023 367.813 980.493 367.22 980.928 366.601C983.313 365.083 986.124 364.377 988.94 364.59C993.595 364.99 997.982 366.94 1001.4 370.127L1010.14 378.265C1014.42 382.019 1016.85 387.458 1016.77 393.15C1016.16 403.156 1012.88 412.816 1007.27 421.128C1006.69 421.996 1005.92 422.867 1005.23 423.738C997.448 422.265 989.453 422.309 981.686 423.868C956.761 428.994 933.065 438.892 911.9 453.019C910.589 450.318 908.973 447.776 907.081 445.445L936.309 414.029C938.428 411.748 938.296 408.18 936.015 406.061C933.734 403.942 930.166 404.074 928.047 406.355L898.744 437.794C896.376 436.167 893.837 434.803 891.173 433.727C903.688 411.71 911.808 387.473 915.079 362.364C916.065 354.518 915.512 346.557 913.452 338.925ZM903.425 461.998C908.009 476.863 899.673 492.63 884.804 497.216C869.936 501.802 854.164 493.469 849.58 478.605C845.017 463.742 853.346 447.988 868.202 443.386C883.071 438.801 898.84 447.134 903.425 461.998ZM781.709 376.479C778.369 364.593 779.158 351.925 783.945 340.543C786.35 335.36 790.901 331.488 796.403 329.945L807.904 326.398C812.364 324.953 817.185 325.071 821.57 326.734C824.376 327.803 826.7 329.853 828.106 332.506C828.233 333.086 828.251 333.682 828.427 334.253L829.402 337.412C830.319 340.385 833.473 342.051 836.446 341.134C836.516 341.113 836.569 341.055 836.638 341.028C836.706 341.001 836.784 341.03 836.856 341.008C839.828 340.091 841.497 336.938 840.58 333.965L839.605 330.805C839.429 330.235 839.109 329.732 838.885 329.182C838.557 326.196 839.322 323.192 841.043 320.729C843.724 316.89 847.637 314.078 852.129 312.758L863.63 309.211C869.043 307.352 875.002 307.991 879.898 310.956C896.908 321.573 906.273 341.041 903.947 360.956C900.817 384.926 893.011 408.049 880.972 429.014C880.617 429.645 880.387 430.341 880.301 431.06C876.998 430.75 873.67 430.862 870.396 431.391L856.982 387.897C856.065 384.924 852.912 383.257 849.938 384.175C846.963 385.092 845.297 388.245 846.214 391.218L859.628 434.712C856.619 436.119 853.801 437.903 851.243 440.022C850.764 439.477 850.184 439.031 849.533 438.71C827.777 428.168 808.303 413.459 792.217 395.416C787.368 389.968 783.785 383.517 781.721 376.523L781.707 376.48L781.709 376.479ZM717.179 485.555C713.881 480.913 712.792 475.057 714.197 469.539L716.897 457.877C717.892 453.312 720.411 449.224 724.043 446.282C726.362 444.432 729.249 443.44 732.215 443.473C732.87 443.683 733.441 443.944 734.129 444.115L737.348 444.826C738.811 445.154 740.344 444.885 741.609 444.081C742.873 443.276 743.763 442.001 744.086 440.537C744.105 440.442 744.077 440.351 744.094 440.251C744.108 440.152 744.145 440.153 744.162 440.095C744.487 438.635 744.216 437.107 743.414 435.847C742.61 434.587 741.339 433.697 739.879 433.374L736.771 432.688C736.091 432.545 735.403 432.446 734.71 432.393C732.065 431.177 729.917 429.087 728.629 426.475C728.219 425.626 727.878 424.745 727.611 423.841C726.546 420.296 726.444 416.532 727.313 412.933L730.016 401.265C731.13 395.683 734.649 390.877 739.633 388.13C749.612 383.104 760.864 381.173 771.946 382.585C774.543 390.058 778.572 396.953 783.809 402.883C800.655 421.789 821.015 437.241 843.758 448.384C842.162 450.774 840.833 453.331 839.793 456.009L797.872 446.537C794.837 445.845 791.814 447.746 791.123 450.782C790.432 453.818 792.332 456.84 795.367 457.531L837.213 467.026C836.963 470.018 837.057 473.029 837.498 475.999C812.054 476.254 786.898 481.423 763.415 491.22C756.122 494.306 749.489 498.769 743.883 504.365C742.844 503.972 741.714 503.696 740.696 503.284C731.417 499.576 723.299 493.455 717.179 485.555ZM839.536 601.694C831.16 609.096 820.766 613.831 809.683 615.294C804.016 615.833 798.396 613.845 794.328 609.861L785.492 601.709C782.764 599.233 780.742 596.079 779.629 592.564C779.346 591.686 779.133 590.786 778.995 589.873C778.596 586.975 779.195 584.028 780.693 581.515C781.192 581.072 781.69 580.617 782.151 580.145L784.417 577.719C786.538 575.444 786.411 571.879 784.136 569.758C784.08 569.706 784.011 569.692 783.956 569.644C783.898 569.597 783.889 569.529 783.839 569.484C782.754 568.459 781.302 567.905 779.808 567.95C778.311 567.996 776.896 568.631 775.87 569.722L773.514 572.217C773.03 572.763 772.574 573.338 772.15 573.933C769.762 575.513 766.911 576.249 764.057 576.023C759.398 575.638 755.01 573.677 751.616 570.462L742.831 562.319C738.561 558.572 736.159 553.13 736.271 547.448C737.072 527.365 749.331 509.522 767.794 501.566C790.176 492.222 814.169 487.34 838.421 487.192C839.197 487.182 839.96 487.013 840.667 486.695C841.993 489.59 843.665 492.315 845.646 494.809L816.362 526.307C814.978 527.779 814.488 529.88 815.08 531.815C815.671 533.747 817.252 535.215 819.225 535.66C821.198 536.106 823.257 535.461 824.623 533.969L853.878 502.546C856.347 504.289 859.008 505.743 861.81 506.877C849.297 528.893 841.178 553.131 837.904 578.241C836.915 586.091 837.47 594.057 839.536 601.694ZM969.061 600.059C966.656 605.242 962.105 609.114 956.603 610.655L945.102 614.203C940.642 615.65 935.821 615.531 931.436 613.867C928.631 612.799 926.306 610.748 924.898 608.097C924.782 607.543 924.755 606.92 924.579 606.35L923.605 603.19C922.687 600.216 919.533 598.55 916.56 599.467C916.488 599.489 916.437 599.548 916.369 599.574C916.3 599.6 916.22 599.572 916.15 599.594C913.178 600.51 911.509 603.663 912.427 606.638L913.401 609.798C913.577 610.368 913.897 610.871 914.12 611.421C914.449 614.405 913.684 617.409 911.963 619.873C909.277 623.718 905.362 626.531 900.86 627.848L889.376 631.39C883.961 633.251 878.001 632.611 873.106 629.647C862.747 622.935 854.969 612.911 851.039 601.213L851.025 601.169C848.794 594.229 848.121 586.879 849.057 579.648C852.187 555.677 859.993 532.556 872.032 511.59C872.387 510.959 872.617 510.262 872.704 509.545C876.011 509.853 879.346 509.74 882.626 509.207L896.04 552.701C896.957 555.673 900.109 557.34 903.084 556.422C906.056 555.505 907.725 552.352 906.808 549.38L893.393 505.886C896.401 504.48 899.221 502.695 901.779 500.577C902.258 501.12 902.838 501.568 903.486 501.889C925.243 512.431 944.717 527.139 960.804 545.183C973.934 560.339 977.15 581.707 969.061 600.059ZM1038.79 471.059L1036.1 482.741C1035.11 487.3 1032.59 491.383 1028.96 494.32C1026.67 496.165 1023.81 497.158 1020.87 497.13C1020.22 496.878 1019.56 496.66 1018.9 496.476L1015.68 495.765C1014.22 495.441 1012.69 495.712 1011.43 496.515C1010.17 497.319 1009.28 498.59 1008.95 500.05C1008.97 500.098 1008.98 500.148 1008.95 500.211C1008.92 500.273 1008.86 500.36 1008.84 500.454C1008.16 503.488 1010.06 506.505 1013.1 507.189L1016.33 507.918C1017.02 508.073 1017.72 508.158 1018.41 508.243C1021.03 509.457 1023.13 511.549 1024.36 514.154C1024.8 515.011 1025.17 515.901 1025.46 516.817C1026.49 520.346 1026.59 524.083 1025.74 527.66L1023.03 539.329C1021.93 544.828 1018.49 549.579 1013.62 552.356L1013.3 552.496C1003.36 557.559 992.112 559.479 981.057 557.994C978.463 550.527 974.433 543.637 969.2 537.711C952.354 518.806 931.994 503.354 909.251 492.212C910.927 489.694 912.309 486.993 913.367 484.162L955.222 493.683C957.19 494.146 959.255 493.519 960.632 492.04C962.012 490.563 962.493 488.458 961.893 486.528C961.293 484.598 959.705 483.137 957.731 482.702L915.792 473.169C916.024 469.993 915.871 466.8 915.335 463.66C916.099 463.525 916.826 463.235 917.471 462.807C937.596 449.267 960.171 439.788 983.928 434.9C1003.67 431.075 1023.86 438.915 1035.84 455.063L1035.84 455.078C1039.13 459.712 1040.21 465.558 1038.79 471.059Z" fill="#E8F6E5"/>
<path d="M882.93 491.156C894.472 487.596 900.944 475.356 897.385 463.816C893.826 452.277 881.584 445.808 870.042 449.368C858.499 452.928 852.028 465.168 855.587 476.708C859.146 488.247 871.388 494.716 882.93 491.156Z" fill="#F4F7E6"/>
<path d="M379.67 189.051C372.409 179.718 362.815 172.462 351.857 168.014C358.414 158.154 362.258 146.744 363.009 134.928C363.346 125.831 359.605 117.058 352.806 111.005L344.017 102.828C338.686 97.8567 331.816 94.8602 324.545 94.338C323.146 94.2646 321.743 94.3028 320.348 94.4533C320.392 93.0704 320.321 91.6862 320.14 90.3145C319.941 88.731 319.609 87.1671 319.145 85.6398C317.425 80.2404 314.317 75.3877 310.134 71.565L301.35 63.4629C294.79 57.1272 285.726 54.0776 276.669 55.1583C276.579 55.1681 276.486 55.185 276.398 55.2069C264.717 56.7987 253.664 61.4514 244.364 68.6941C239.063 58.1009 231.059 49.095 221.162 42.5846C213.444 37.7407 203.967 36.59 195.312 39.4452L183.811 42.9923C176.811 45.0633 170.744 49.49 166.637 55.5221C165.865 56.7397 165.197 58.0208 164.639 59.3512C163.431 58.5653 162.157 57.8832 160.831 57.3124C154.04 54.6417 146.533 54.4016 139.583 56.6329L128.084 60.1793C119.321 62.7004 112.138 68.994 108.488 77.347C103.974 88.2993 102.436 100.25 104.031 111.987C92.1844 111.32 80.369 113.732 69.732 118.987C61.6399 123.196 55.8704 130.82 54.0235 139.749L51.3307 151.343C49.9759 156.893 50.1386 162.705 51.8026 168.17C52.2539 169.687 52.8355 171.162 53.5403 172.58C54.1796 173.8 54.9107 174.969 55.7284 176.079C54.496 176.74 53.3173 177.498 52.2043 178.345C46.4894 182.884 42.5016 189.242 40.9024 196.362L38.2175 208.013C36.0191 216.864 37.895 226.231 43.3294 233.553C50.5976 242.884 60.1958 250.138 71.1543 254.588C64.6021 264.448 60.7629 275.859 60.0211 287.673C59.6488 296.765 63.3766 305.543 70.1755 311.593L78.9825 319.73C84.2828 324.741 91.1618 327.758 98.4421 328.263C99.849 328.339 101.259 328.298 102.657 328.144C102.604 329.544 102.658 330.945 102.824 332.337C103.041 333.883 103.389 335.408 103.865 336.896C105.552 342.334 108.671 347.218 112.896 351.037L121.682 359.144C128.238 365.477 137.296 368.529 146.349 367.453C150.122 366.899 153.847 366.058 157.492 364.936C165.159 362.591 172.332 358.866 178.659 353.939C183.955 364.525 191.953 373.525 201.846 380.029C209.566 384.866 219.042 386.013 227.694 383.156L239.195 379.609C246.195 377.538 252.263 373.112 256.37 367.08C257.141 365.862 257.81 364.581 258.368 363.252C259.575 364.036 260.849 364.719 262.175 365.29C268.966 367.96 276.473 368.2 283.423 365.968L294.922 362.422C303.685 359.901 310.866 353.608 314.518 345.255C319.024 334.315 320.565 322.38 318.982 310.653C326.957 311.195 334.964 310.251 342.594 307.869C346.172 306.763 349.657 305.377 353.02 303.728C353.114 303.692 353.207 303.654 353.296 303.607C361.388 299.4 367.156 291.776 369.005 282.848L371.706 271.172C373.007 265.663 372.838 259.91 371.218 254.487C370.747 252.981 370.149 251.516 369.433 250.11C368.804 248.853 368.073 247.652 367.245 246.516C368.489 245.855 369.674 245.095 370.795 244.243C376.526 239.725 380.511 233.357 382.069 226.228L384.763 214.544C386.972 205.713 385.105 196.357 379.67 189.051ZM248.452 79.9249C256.767 72.4726 267.157 67.732 278.236 66.3356L278.555 66.2785C284.157 65.8206 289.685 67.8122 293.707 71.7391L302.489 79.8362C305.216 82.316 307.249 85.4644 308.383 88.9714C308.664 89.9071 308.862 90.8659 308.979 91.8353C309.406 94.6839 308.831 97.5934 307.354 100.065C306.844 100.487 306.357 100.94 305.901 101.421L303.637 103.829C302.613 104.918 302.064 106.368 302.109 107.863C302.156 109.356 302.793 110.771 303.883 111.794C303.898 111.843 303.987 111.845 304.028 111.885C304.072 111.925 304.122 112.05 304.197 112.121C305.287 113.145 306.737 113.694 308.231 113.649C309.725 113.602 311.139 112.965 312.163 111.875L314.519 109.38C315.023 108.813 315.493 108.22 315.928 107.601C318.313 106.083 321.124 105.377 323.94 105.59C328.595 105.99 332.982 107.94 336.398 111.127L345.141 119.265C349.422 123.019 351.846 128.458 351.773 134.151C351.162 144.156 347.882 153.816 342.274 162.128C341.693 162.997 340.917 163.867 340.233 164.738C332.448 163.266 324.453 163.309 316.686 164.868C291.761 169.994 268.065 179.892 246.9 194.019C245.589 191.318 243.973 188.776 242.081 186.445L271.309 155.029C273.428 152.748 273.296 149.18 271.015 147.061C268.734 144.942 265.166 145.074 263.047 147.355L233.744 178.794C231.376 177.167 228.837 175.803 226.173 174.727C238.688 152.71 246.808 128.474 250.079 103.364C251.065 95.5183 250.512 87.5573 248.452 79.9249ZM238.425 202.998C243.009 217.863 234.673 233.63 219.804 238.216C204.936 242.802 189.164 234.47 184.58 219.605C180.017 204.742 188.346 188.988 203.202 184.386C218.071 179.801 233.84 188.134 238.425 202.998ZM116.709 117.479C113.369 105.593 114.158 92.9247 118.945 81.5433C121.35 76.3604 125.901 72.4884 131.403 70.9456L142.904 67.3984C147.364 65.9529 152.185 66.0708 156.57 67.7346C159.376 68.803 161.7 70.8534 163.106 73.5063C163.233 74.0864 163.251 74.6817 163.427 75.2526L164.402 78.4122C165.319 81.3852 168.473 83.0512 171.446 82.1345C171.516 82.1129 171.569 82.055 171.638 82.0284C171.706 82.0012 171.784 82.0301 171.856 82.0079C174.828 81.0912 176.497 77.9377 175.58 74.9647L174.605 71.8051C174.429 71.2348 174.109 70.7317 173.885 70.182C173.557 67.1959 174.322 64.1924 176.043 61.7287C178.724 57.8899 182.637 55.0785 187.129 53.7585L198.63 50.2114C204.043 48.3524 210.002 48.9912 214.898 51.9557C231.908 62.5729 241.273 82.0415 238.947 101.956C235.817 125.926 228.011 149.049 215.972 170.014C215.617 170.645 215.387 171.341 215.301 172.06C211.998 171.75 208.67 171.862 205.396 172.391L191.982 128.897C191.065 125.924 187.912 124.257 184.938 125.175C181.963 126.092 180.297 129.245 181.214 132.218L194.628 175.712C191.619 177.119 188.801 178.903 186.243 181.022C185.764 180.477 185.184 180.031 184.533 179.71C162.777 169.168 143.303 154.459 127.217 136.416C122.368 130.968 118.785 124.517 116.721 117.523L116.707 117.48L116.709 117.479ZM52.1793 226.555C48.881 221.913 47.7917 216.057 49.1968 210.539L51.8974 198.877C52.8916 194.313 55.4115 190.224 59.0427 187.282C61.3617 185.432 64.2485 184.44 67.215 184.473C67.8702 184.683 68.4406 184.944 69.129 185.115L72.3476 185.826C73.811 186.154 75.3438 185.885 76.6086 185.081C77.8731 184.276 78.7633 183.001 79.0861 181.537C79.1048 181.443 79.0767 181.351 79.0936 181.251C79.1085 181.152 79.1446 181.153 79.1624 181.095C79.4866 179.635 79.2162 178.107 78.414 176.847C77.6095 175.587 76.3386 174.697 74.8792 174.375L71.7709 173.688C71.091 173.545 70.4031 173.446 69.7104 173.393C67.0649 172.177 64.9171 170.087 63.6288 167.475C63.2188 166.626 62.8779 165.746 62.611 164.841C61.5463 161.296 61.4441 157.532 62.313 153.933L65.0165 142.265C66.1296 136.684 69.6492 131.877 74.6335 129.13C84.6124 124.104 95.864 122.174 106.946 123.585C109.543 131.058 113.572 137.953 118.809 143.883C135.655 162.789 156.015 178.241 178.758 189.384C177.162 191.774 175.833 194.331 174.793 197.009L132.872 187.537C129.837 186.845 126.814 188.746 126.123 191.782C125.432 194.818 127.332 197.84 130.367 198.531L172.213 208.026C171.963 211.018 172.057 214.029 172.498 216.999C147.054 217.254 121.898 222.423 98.415 232.22C91.1215 235.306 84.4894 239.769 78.8829 245.365C77.8439 244.972 76.7143 244.696 75.696 244.284C66.4171 240.576 58.2985 234.455 52.1793 226.555ZM174.536 342.694C166.16 350.096 155.766 354.831 144.683 356.294C139.016 356.833 133.396 354.845 129.328 350.861L120.492 342.709C117.764 340.234 115.742 337.079 114.629 333.564C114.346 332.686 114.133 331.786 113.995 330.873C113.596 327.975 114.195 325.028 115.693 322.515C116.192 322.072 116.69 321.617 117.151 321.145L119.417 318.719C121.538 316.444 121.411 312.879 119.136 310.758C119.08 310.706 119.011 310.692 118.956 310.644C118.898 310.597 118.889 310.529 118.839 310.484C117.754 309.459 116.302 308.905 114.808 308.95C113.311 308.996 111.896 309.631 110.87 310.722L108.514 313.217C108.03 313.763 107.574 314.339 107.15 314.933C104.762 316.513 101.911 317.249 99.0572 317.023C94.3979 316.639 90.0097 314.677 86.6163 311.462L77.8312 303.319C73.5613 299.572 71.1588 294.13 71.2705 288.448C72.0718 268.365 84.3309 250.522 102.794 242.566C125.176 233.222 149.169 228.34 173.421 228.193C174.197 228.182 174.96 228.014 175.667 227.695C176.993 230.591 178.665 233.316 180.646 235.809L151.362 267.307C149.978 268.779 149.488 270.88 150.08 272.815C150.671 274.748 152.252 276.215 154.225 276.661C156.198 277.106 158.257 276.461 159.623 274.969L188.878 243.546C191.347 245.289 194.008 246.743 196.81 247.877C184.297 269.893 176.178 294.131 172.904 319.241C171.915 327.091 172.47 335.058 174.536 342.694ZM304.061 341.059C301.656 346.242 297.105 350.114 291.603 351.656L280.102 355.203C275.642 356.65 270.821 356.531 266.436 354.867C263.631 353.799 261.306 351.748 259.898 349.097C259.782 348.543 259.755 347.92 259.579 347.351L258.605 344.19C257.687 341.216 254.533 339.55 251.56 340.467C251.488 340.489 251.437 340.548 251.369 340.574C251.3 340.6 251.22 340.572 251.15 340.594C248.178 341.51 246.509 344.663 247.427 347.638L248.401 350.798C248.577 351.368 248.897 351.871 249.12 352.422C249.449 355.405 248.684 358.409 246.963 360.873C244.277 364.718 240.362 367.531 235.86 368.848L224.376 372.39C218.961 374.251 213.001 373.611 208.106 370.647C197.747 363.935 189.969 353.911 186.039 342.213L186.025 342.169C183.794 335.229 183.121 327.879 184.057 320.648C187.187 296.677 194.993 273.556 207.032 252.59C207.387 251.959 207.617 251.262 207.704 250.545C211.011 250.853 214.346 250.74 217.626 250.207L231.04 293.701C231.957 296.673 235.109 298.34 238.084 297.422C241.056 296.505 242.725 293.352 241.808 290.38L228.393 246.886C231.401 245.48 234.221 243.695 236.779 241.577C237.258 242.12 237.838 242.568 238.486 242.889C260.243 253.431 279.717 268.139 295.804 286.183C308.934 301.339 312.15 322.707 304.061 341.059ZM373.789 212.059L371.102 223.741C370.106 228.3 367.589 232.383 363.964 235.32C361.672 237.165 358.809 238.158 355.868 238.13C355.221 237.878 354.564 237.66 353.898 237.476L350.677 236.765C349.217 236.441 347.69 236.712 346.427 237.515C345.167 238.319 344.278 239.59 343.954 241.05C343.968 241.098 343.984 241.148 343.951 241.211C343.918 241.274 343.863 241.36 343.844 241.454C343.159 244.488 345.063 247.505 348.096 248.189L351.335 248.918C352.021 249.073 352.719 249.159 353.412 249.244C356.025 250.457 358.131 252.549 359.362 255.154C359.801 256.011 360.168 256.901 360.461 257.817C361.494 261.346 361.59 265.083 360.739 268.661L358.033 280.329C356.925 285.828 353.493 290.579 348.619 293.356L348.297 293.496C338.358 298.559 327.112 300.479 316.057 298.994C313.463 291.527 309.433 284.637 304.2 278.711C287.354 259.806 266.994 244.354 244.251 233.212C245.927 230.695 247.309 227.993 248.367 225.162L290.222 234.683C292.19 235.147 294.255 234.519 295.632 233.041C297.012 231.563 297.493 229.458 296.893 227.528C296.293 225.598 294.705 224.137 292.731 223.702L250.792 214.169C251.024 210.993 250.871 207.8 250.335 204.66C251.099 204.525 251.826 204.235 252.471 203.807C272.596 190.267 295.171 180.788 318.928 175.9C338.672 172.075 358.856 179.915 370.837 196.063L370.842 196.078C374.128 200.712 375.206 206.558 373.789 212.059Z" fill="#E8F6E5"/>
<path d="M217.93 232.156C229.472 228.596 235.944 216.356 232.385 204.816C228.826 193.277 216.584 186.808 205.042 190.368C193.499 193.928 187.028 206.168 190.587 217.708C194.146 229.247 206.388 235.716 217.93 232.156Z" fill="#F4F7E6"/>
</svg>
