<svg width="417" height="506" viewBox="0 0 417 506" fill="none" xmlns="http://www.w3.org/2000/svg">
<path d="M533.156 303.576C531.248 286.203 524.796 269.638 514.452 255.549C530.344 248.222 544.023 236.841 554.123 222.553C561.596 211.365 563.685 197.427 559.818 184.54L555.094 167.44C552.237 157.053 545.912 147.959 537.166 141.668C535.462 140.491 533.667 139.452 531.795 138.561C532.922 136.855 533.906 135.058 534.74 133.191C535.716 131.044 536.51 128.818 537.11 126.537C539.128 118.409 538.978 109.894 536.675 101.842L531.898 84.8394C528.552 71.7835 519.508 60.9227 507.273 55.2654C507.151 55.2079 507.022 55.1573 506.893 55.1161C490.959 48.0686 473.445 45.3604 456.129 47.2693C457.665 29.8305 454.57 12.2947 447.159 -3.56704C441.2 -15.6426 430.164 -24.4339 417.059 -27.547L399.837 -31.9941C389.424 -34.8111 378.358 -33.9413 368.515 -29.5324C366.601 -28.5979 364.767 -27.5035 363.034 -26.2613C362.123 -28.1862 361.048 -30.0317 359.822 -31.7771C353.345 -40.4003 344.084 -46.5188 333.608 -49.0958L316.389 -53.5422C303.407 -57.1592 289.49 -54.8049 278.425 -47.1205C264.259 -36.8343 253.063 -22.9871 245.977 -6.97924C231.584 -16.9982 214.846 -23.118 197.387 -24.7455C183.943 -25.7192 170.774 -20.5941 161.532 -10.7888L149.159 1.71677C143.155 7.65079 138.856 15.0913 136.716 23.2586C136.108 25.5177 135.697 27.8249 135.486 30.1544C135.345 32.1858 135.359 34.2238 135.528 36.2535C133.465 36.1306 131.394 36.1714 129.338 36.3748C118.628 37.659 108.684 42.5704 101.154 50.2922L88.7479 62.8748C79.1237 72.3096 74.226 85.5525 75.3921 98.9776C77.3093 116.352 83.7682 132.918 94.1115 147.009C78.2258 154.341 64.5527 165.727 54.4653 180.02C46.9526 191.173 44.8426 205.109 48.711 217.991L53.4901 235.055C56.2773 245.468 62.5971 254.595 71.3676 260.872C73.08 262.057 74.8852 263.098 76.7645 263.988C75.6125 265.709 74.5957 267.513 73.7265 269.394C72.8007 271.508 72.0577 273.697 71.5034 275.938C69.4127 284.089 69.5546 292.652 71.9128 300.731L76.6882 317.741C80.0322 330.791 89.0663 341.651 101.294 347.311C106.471 349.537 111.81 351.365 117.266 352.777C128.733 355.766 140.647 356.636 152.426 355.338C150.889 372.764 153.981 390.288 161.391 406.138C167.359 418.207 178.396 426.993 191.499 430.101L208.721 434.548C219.134 437.366 230.2 436.497 240.043 432.088C241.957 431.153 243.791 430.058 245.523 428.818C246.435 430.741 247.509 432.587 248.735 434.332C255.213 442.956 264.474 449.074 274.95 451.65L292.169 456.096C305.151 459.713 319.064 457.359 330.132 449.676C344.279 439.399 355.466 425.573 362.56 409.588C372.176 416.45 382.985 421.465 394.433 424.379C399.793 425.76 405.252 426.716 410.762 427.247C410.909 427.274 411.056 427.298 411.203 427.308C424.647 428.284 437.813 423.157 447.058 413.354L459.504 400.753C465.409 394.828 469.655 387.457 471.818 379.378C472.391 377.117 472.774 374.811 472.963 372.485C473.145 370.417 473.155 368.338 472.993 366.267C475.071 366.4 477.152 366.362 479.223 366.157C489.936 364.912 499.884 359.986 507.369 352.221L519.812 339.604C529.435 330.202 534.334 316.98 533.156 303.576ZM452.571 64.5703C468.81 61.6346 485.558 63.7186 500.583 70.5457L501.03 70.7213C508.434 74.4853 513.848 81.2749 515.867 89.333L520.646 106.328C522.156 111.562 522.274 117.099 520.985 122.391C520.614 123.787 520.12 125.147 519.516 126.458C517.846 130.373 514.868 133.589 511.095 135.555C510.125 135.691 509.162 135.884 508.215 136.136L503.5 137.412C501.368 137.989 499.553 139.389 498.452 141.304C497.354 143.22 497.06 145.494 497.638 147.627C497.62 147.699 497.73 147.771 497.751 147.853C497.774 147.937 497.741 148.135 497.779 148.282C498.358 150.414 499.758 152.23 501.673 153.33C503.589 154.429 505.863 154.722 507.996 154.144L512.895 152.83C513.968 152.506 515.018 152.124 516.046 151.683C520.224 151.62 524.308 152.909 527.687 155.36C533.235 159.47 537.246 165.322 539.075 171.981L543.772 188.997C546.252 197.038 545.087 205.76 540.585 212.868C532.063 224.987 520.451 234.602 506.953 240.718C505.55 241.361 503.899 241.855 502.362 242.421C493.706 234.536 483.611 228.397 472.628 224.34C437.288 211.478 399.798 205.575 362.216 206.955C362.659 202.54 362.595 198.089 362.02 193.688L423.145 176.798C427.579 175.569 430.177 170.978 428.948 166.543C427.719 162.109 423.127 159.51 418.692 160.739L357.456 177.6C355.736 173.718 353.599 170.035 351.079 166.616C383.889 148.605 412.886 124.395 436.458 95.3291C443.777 86.2191 449.25 75.7718 452.571 64.5703ZM344.593 211.688C338.845 233.947 316.136 247.331 293.871 241.582C271.607 235.833 258.214 213.126 263.962 190.867C269.736 168.627 292.424 155.255 314.686 160.974C336.951 166.723 350.34 189.429 344.593 211.688ZM257.677 9.75541C262.682 -7.79132 273.491 -23.1231 288.334 -33.737C295.376 -38.3965 304.104 -39.743 312.223 -37.422L329.445 -32.9749C336.179 -31.3379 342.155 -27.454 346.384 -21.9627C349.087 -18.4444 350.424 -14.0629 350.138 -9.63472C349.847 -8.80688 349.41 -8.04321 349.189 -7.18831L347.967 -2.45692C346.817 1.99506 349.497 6.53605 353.948 7.68539C354.052 7.7124 354.165 7.68117 354.271 7.70065C354.378 7.71916 354.454 7.81618 354.562 7.84402C359.013 8.99337 363.556 6.31733 364.706 1.86535L365.927 -2.86604C366.148 -3.71996 366.135 -4.60108 366.278 -5.46689C368.179 -9.4792 371.47 -12.6657 375.544 -14.433C381.892 -17.1871 388.995 -17.6935 395.671 -15.874L412.893 -11.4269C421.146 -9.5718 428.151 -4.15066 432.016 3.37354C445.195 29.9145 441.896 61.6717 423.54 84.932C401.028 112.672 373.289 135.725 341.893 152.78C340.957 153.3 340.129 153.998 339.463 154.835C335.546 151.886 331.271 149.448 326.741 147.578L343.56 82.4476C344.709 77.9956 342.033 73.4554 337.579 72.3052C333.125 71.1551 328.585 73.8319 327.435 78.2839L310.617 143.415C305.739 142.853 300.811 142.916 295.95 143.599C295.769 142.543 295.385 141.532 294.815 140.624C275.602 110.5 262.492 76.8994 256.229 41.7288C254.347 31.1163 254.835 20.2204 257.657 9.81992L257.674 9.75456L257.677 9.75541ZM91.9516 97.0279C91.3976 88.6302 94.5645 80.416 100.608 74.5604L113.043 61.9761C117.831 57.0025 124.17 53.8091 131.019 52.9207C135.371 52.3897 139.773 53.3775 143.48 55.7171C144.142 56.4896 144.658 57.2597 145.392 58.0083L148.891 61.3968C150.479 62.9435 152.616 63.7933 154.831 63.7608C157.046 63.7273 159.154 62.8125 160.695 61.2202C160.792 61.1162 160.827 60.9793 160.926 60.8668C161.021 60.7534 161.066 60.783 161.134 60.7231C162.672 59.1374 163.516 57.0053 163.483 54.7972C163.447 52.5883 162.537 50.4841 160.95 48.9471L157.57 45.6753C156.825 44.9681 156.037 44.3099 155.206 43.7064C152.819 40.1266 151.735 35.8324 152.137 31.5472C152.279 30.1613 152.532 28.7887 152.897 27.4439C154.304 22.1576 157.092 17.3409 160.974 13.4854L173.417 0.895237C179.142 -5.26607 187.296 -8.58844 195.697 -8.18334C212.15 -6.77662 227.806 -0.488045 240.659 9.87531C238.136 21.292 237.864 33.0912 239.86 44.6119C246.413 81.4573 260.063 116.679 280.051 148.324C276.191 150.095 272.537 152.283 269.153 154.847L223.736 110.446C220.451 107.223 215.174 107.273 211.952 110.559C208.73 113.844 208.78 119.119 212.064 122.341L257.371 166.714C254.737 170.285 252.523 174.148 250.776 178.227C218.558 158.833 182.894 145.846 145.75 139.981C134.18 138.214 122.375 138.692 110.984 141.39C109.981 140.09 108.773 138.868 107.811 137.561C99.006 125.705 93.532 111.711 91.9516 97.0279ZM155.95 337.992C139.673 340.817 122.924 338.723 107.843 331.977C100.293 328.264 94.7605 321.407 92.7279 313.242L87.9246 296.137C86.4096 290.907 86.309 285.37 87.6318 280.086C87.9564 278.761 88.3856 277.464 88.9192 276.207C90.6623 272.251 93.6999 269.006 97.5318 267.004C98.5032 266.833 99.482 266.647 100.429 266.41L105.16 265.112C109.591 263.892 112.194 259.308 110.975 254.876C110.944 254.767 110.868 254.695 110.835 254.593C110.799 254.489 110.841 254.395 110.813 254.301C110.241 252.17 108.843 250.348 106.928 249.247C105.009 248.145 102.736 247.848 100.6 248.425L95.7013 249.74C94.669 250.052 93.6494 250.423 92.6556 250.843C88.4263 250.981 84.2679 249.698 80.8514 247.202C75.2853 243.109 71.2825 237.24 69.5027 230.565L64.7563 213.51C62.2862 205.486 63.479 196.776 68.0221 189.712C84.5914 165.058 113.844 152.102 143.244 156.394C178.652 161.978 212.629 174.423 243.265 193.029C244.25 193.618 245.341 193.996 246.478 194.143C245.902 198.814 245.895 203.539 246.456 208.212L185.196 225.163C182.315 225.942 180.07 228.207 179.316 231.101C178.563 233.991 179.415 237.063 181.553 239.152C183.69 241.241 186.782 242.025 189.657 241.206L250.821 224.327C252.578 228.433 254.8 232.326 257.448 235.924C224.642 253.935 195.644 278.148 172.069 307.212C164.741 316.325 159.267 326.781 155.95 337.992ZM320.223 436.293C313.181 440.952 304.453 442.299 296.335 439.976L279.113 435.529C272.378 433.894 266.403 430.009 262.174 424.518C259.471 421 258.134 416.618 258.416 412.19C258.7 411.403 259.148 410.598 259.368 409.745L260.59 405.013C261.741 400.559 259.061 396.019 254.61 394.869C254.502 394.841 254.392 394.876 254.286 394.855C254.18 394.835 254.1 394.738 253.996 394.711C249.545 393.561 245.002 396.237 243.852 400.691L242.63 405.423C242.41 406.276 242.422 407.158 242.276 408.023C240.379 412.033 237.088 415.22 233.013 416.988C226.654 419.745 219.548 420.253 212.861 418.421L195.665 413.981C187.408 412.128 180.404 406.704 176.539 399.181C168.703 382.708 166.681 364.066 170.799 346.299L170.816 346.234C173.385 335.77 178.233 326 185.015 317.624C207.526 289.882 235.265 266.833 266.661 249.775C267.597 249.257 268.425 248.557 269.091 247.722C273.014 250.673 277.299 253.114 281.839 254.984L265.021 320.115C263.871 324.566 266.548 329.105 271.002 330.256C275.453 331.405 279.996 328.73 281.145 324.279L297.963 259.148C302.838 259.709 307.769 259.647 312.63 258.965C312.811 260.019 313.195 261.031 313.762 261.938C332.974 292.063 346.086 325.661 352.352 360.834C357.132 390.081 344.623 419.465 320.223 436.293ZM507.927 327.974L495.494 340.593C490.708 345.559 484.377 348.748 477.539 349.635C473.225 350.181 468.853 349.212 465.173 346.899C464.555 346.08 463.896 345.297 463.2 344.549L459.697 341.159C458.111 339.62 455.98 338.777 453.768 338.809C451.559 338.845 449.456 339.755 447.917 341.341C447.898 341.413 447.879 341.488 447.788 341.542C447.698 341.595 447.562 341.661 447.466 341.765C444.254 345.053 444.311 350.324 447.598 353.536L451.109 356.963C451.853 357.689 452.665 358.338 453.471 358.981C455.82 362.534 456.849 366.798 456.38 371.03C456.268 372.448 456.041 373.854 455.699 375.233C454.265 380.475 451.491 385.252 447.647 389.095L435.201 401.682C429.547 407.745 421.547 411.065 413.26 410.783L412.746 410.709C396.315 409.381 380.676 403.084 367.913 392.649C370.434 381.242 370.701 369.449 368.706 357.936C362.154 321.092 348.503 285.87 328.515 254.226C332.575 252.357 336.407 250.028 339.932 247.285L385.228 291.696C387.347 293.805 390.432 294.616 393.311 293.822C396.192 293.032 398.429 290.755 399.169 287.861C399.909 284.967 399.042 281.898 396.895 279.821L351.501 235.329C354.254 231.512 356.535 227.374 358.294 223.008C359.359 223.43 360.5 223.628 361.644 223.589C397.461 222.143 433.216 227.705 466.901 239.961C494.713 250.444 514.04 275.951 516.606 305.556L516.6 305.579C517.145 313.957 513.973 322.149 507.927 327.974Z" fill="#E8F6E5"/>
<path d="M296.208 232.503C313.492 236.966 331.121 226.576 335.583 209.296C340.045 192.016 329.65 174.39 312.366 169.927C295.082 165.464 277.453 175.854 272.991 193.134C268.529 210.413 278.924 228.04 296.208 232.503Z" fill="#F4F7E6"/>
</svg>
