<svg width="609" height="609" viewBox="0 0 609 609" fill="none" xmlns="http://www.w3.org/2000/svg">
<path d="M533.156 406.576C531.248 389.203 524.796 372.638 514.452 358.549C530.344 351.222 544.023 339.841 554.123 325.553C561.596 314.365 563.685 300.427 559.818 287.54L555.094 270.44C552.237 260.053 545.912 250.959 537.166 244.668C535.462 243.491 533.667 242.452 531.795 241.561C532.922 239.855 533.906 238.058 534.74 236.191C535.716 234.044 536.51 231.818 537.11 229.537C539.128 221.409 538.978 212.894 536.675 204.842L531.898 187.839C528.552 174.784 519.508 163.923 507.273 158.265C507.151 158.208 507.022 158.157 506.893 158.116C490.959 151.069 473.445 148.36 456.129 150.269C457.665 132.831 454.57 115.295 447.159 99.433C441.2 87.3574 430.164 78.5661 417.059 75.453L399.837 71.0059C389.424 68.1889 378.358 69.0587 368.515 73.4676C366.601 74.4021 364.767 75.4965 363.034 76.7387C362.123 74.8138 361.048 72.9683 359.822 71.2229C353.345 62.5997 344.084 56.4812 333.608 53.9042L316.389 49.4578C303.407 45.8408 289.49 48.1951 278.425 55.8795C264.259 66.1657 253.063 80.0129 245.977 96.0208C231.584 86.0018 214.846 79.882 197.387 78.2545C183.943 77.2808 170.774 82.4059 161.532 92.2112L149.159 104.717C143.155 110.651 138.856 118.091 136.716 126.259C136.108 128.518 135.697 130.825 135.486 133.154C135.345 135.186 135.359 137.224 135.528 139.253C133.465 139.131 131.394 139.171 129.338 139.375C118.628 140.659 108.684 145.57 101.154 153.292L88.7479 165.875C79.1237 175.31 74.226 188.553 75.3921 201.978C77.3093 219.352 83.7682 235.918 94.1115 250.009C78.2258 257.341 64.5527 268.727 54.4653 283.02C46.9526 294.173 44.8426 308.109 48.711 320.991L53.4901 338.055C56.2773 348.468 62.5971 357.595 71.3676 363.872C73.08 365.057 74.8852 366.098 76.7645 366.988C75.6125 368.709 74.5957 370.513 73.7265 372.394C72.8007 374.508 72.0577 376.697 71.5034 378.938C69.4127 387.089 69.5546 395.652 71.9128 403.731L76.6882 420.741C80.0322 433.791 89.0663 444.651 101.294 450.311C106.471 452.537 111.81 454.365 117.266 455.777C128.733 458.766 140.647 459.636 152.426 458.338C150.889 475.764 153.981 493.288 161.391 509.138C167.359 521.207 178.396 529.993 191.499 533.101L208.721 537.548C219.134 540.366 230.2 539.497 240.043 535.088C241.957 534.153 243.791 533.058 245.523 531.818C246.435 533.741 247.509 535.587 248.735 537.332C255.213 545.956 264.474 552.074 274.95 554.65L292.169 559.096C305.151 562.713 319.064 560.359 330.132 552.676C344.279 542.399 355.466 528.573 362.56 512.588C372.176 519.45 382.985 524.465 394.433 527.379C399.793 528.76 405.252 529.716 410.762 530.247C410.909 530.274 411.056 530.298 411.203 530.308C424.647 531.284 437.813 526.157 447.058 516.354L459.504 503.753C465.409 497.828 469.655 490.457 471.818 482.378C472.391 480.117 472.774 477.811 472.963 475.485C473.145 473.417 473.155 471.338 472.993 469.267C475.071 469.4 477.152 469.362 479.223 469.157C489.936 467.912 499.884 462.986 507.369 455.221L519.812 442.604C529.435 433.202 534.334 419.98 533.156 406.576ZM452.571 167.57C468.81 164.635 485.558 166.719 500.583 173.546L501.03 173.721C508.434 177.485 513.848 184.275 515.867 192.333L520.646 209.328C522.156 214.562 522.274 220.099 520.985 225.391C520.614 226.787 520.12 228.147 519.516 229.458C517.846 233.373 514.868 236.589 511.095 238.555C510.125 238.691 509.162 238.884 508.215 239.136L503.5 240.412C501.368 240.989 499.553 242.389 498.452 244.304C497.354 246.22 497.06 248.494 497.638 250.627C497.62 250.699 497.73 250.771 497.751 250.853C497.774 250.937 497.741 251.135 497.779 251.282C498.358 253.414 499.758 255.23 501.673 256.33C503.589 257.429 505.863 257.722 507.996 257.144L512.895 255.83C513.968 255.506 515.018 255.124 516.046 254.683C520.224 254.62 524.308 255.909 527.687 258.36C533.235 262.47 537.246 268.322 539.075 274.981L543.772 291.997C546.252 300.038 545.087 308.76 540.585 315.868C532.063 327.987 520.451 337.602 506.953 343.718C505.55 344.361 503.899 344.855 502.362 345.421C493.706 337.536 483.611 331.397 472.628 327.34C437.288 314.478 399.798 308.575 362.216 309.955C362.659 305.54 362.595 301.089 362.02 296.688L423.145 279.798C427.579 278.569 430.177 273.978 428.948 269.543C427.719 265.109 423.127 262.51 418.692 263.739L357.456 280.6C355.736 276.718 353.599 273.035 351.079 269.616C383.889 251.605 412.886 227.395 436.458 198.329C443.777 189.219 449.25 178.772 452.571 167.57ZM344.593 314.688C338.845 336.947 316.136 350.331 293.871 344.582C271.607 338.833 258.214 316.126 263.962 293.867C269.736 271.627 292.424 258.255 314.686 263.974C336.951 269.723 350.34 292.429 344.593 314.688ZM257.677 112.755C262.682 95.2087 273.491 79.8769 288.334 69.263C295.376 64.6035 304.104 63.257 312.223 65.578L329.445 70.0251C336.179 71.6621 342.155 75.546 346.384 81.0373C349.087 84.5556 350.424 88.9371 350.138 93.3653C349.847 94.1931 349.41 94.9568 349.189 95.8117L347.967 100.543C346.817 104.995 349.497 109.536 353.948 110.685C354.052 110.712 354.165 110.681 354.271 110.701C354.378 110.719 354.454 110.816 354.562 110.844C359.013 111.993 363.556 109.317 364.706 104.865L365.927 100.134C366.148 99.28 366.135 98.3989 366.278 97.5331C368.179 93.5208 371.47 90.3343 375.544 88.567C381.892 85.8129 388.995 85.3065 395.671 87.126L412.893 91.5731C421.146 93.4282 428.151 98.8493 432.016 106.374C445.195 132.914 441.896 164.672 423.54 187.932C401.028 215.672 373.289 238.725 341.893 255.78C340.957 256.3 340.129 256.998 339.463 257.835C335.546 254.886 331.271 252.448 326.741 250.578L343.56 185.448C344.709 180.996 342.033 176.455 337.579 175.305C333.125 174.155 328.585 176.832 327.435 181.284L310.617 246.415C305.739 245.853 300.811 245.916 295.95 246.599C295.769 245.543 295.385 244.532 294.815 243.624C275.602 213.5 262.492 179.899 256.229 144.729C254.347 134.116 254.835 123.22 257.657 112.82L257.674 112.755L257.677 112.755ZM91.9516 200.028C91.3976 191.63 94.5645 183.416 100.608 177.56L113.043 164.976C117.831 160.003 124.17 156.809 131.019 155.921C135.371 155.39 139.773 156.378 143.48 158.717C144.142 159.49 144.658 160.26 145.392 161.008L148.891 164.397C150.479 165.943 152.616 166.793 154.831 166.761C157.046 166.727 159.154 165.813 160.695 164.22C160.792 164.116 160.827 163.979 160.926 163.867C161.021 163.753 161.066 163.783 161.134 163.723C162.672 162.137 163.516 160.005 163.483 157.797C163.447 155.588 162.537 153.484 160.95 151.947L157.57 148.675C156.825 147.968 156.037 147.31 155.206 146.706C152.819 143.127 151.735 138.832 152.137 134.547C152.279 133.161 152.532 131.789 152.897 130.444C154.304 125.158 157.092 120.341 160.974 116.485L173.417 103.895C179.142 97.7339 187.296 94.4116 195.697 94.8167C212.15 96.2234 227.806 102.512 240.659 112.875C238.136 124.292 237.864 136.091 239.86 147.612C246.413 184.457 260.063 219.679 280.051 251.324C276.191 253.095 272.537 255.283 269.153 257.847L223.736 213.446C220.451 210.223 215.174 210.273 211.952 213.559C208.73 216.844 208.78 222.119 212.064 225.341L257.371 269.714C254.737 273.285 252.523 277.148 250.776 281.227C218.558 261.833 182.894 248.846 145.75 242.981C134.18 241.214 122.375 241.692 110.984 244.39C109.981 243.09 108.773 241.868 107.811 240.561C99.006 228.705 93.532 214.711 91.9516 200.028ZM155.95 440.992C139.673 443.817 122.924 441.723 107.843 434.977C100.293 431.264 94.7605 424.407 92.7279 416.242L87.9246 399.137C86.4096 393.907 86.309 388.37 87.6318 383.086C87.9564 381.761 88.3856 380.464 88.9192 379.207C90.6623 375.251 93.6999 372.006 97.5318 370.004C98.5032 369.833 99.482 369.647 100.429 369.41L105.16 368.112C109.591 366.892 112.194 362.308 110.975 357.876C110.944 357.767 110.868 357.695 110.835 357.593C110.799 357.489 110.841 357.395 110.813 357.301C110.241 355.17 108.843 353.348 106.928 352.247C105.009 351.145 102.736 350.848 100.6 351.425L95.7013 352.74C94.669 353.052 93.6494 353.423 92.6556 353.843C88.4263 353.981 84.2679 352.698 80.8514 350.202C75.2853 346.109 71.2825 340.24 69.5027 333.565L64.7563 316.51C62.2862 308.486 63.479 299.776 68.0221 292.712C84.5914 268.058 113.844 255.102 143.244 259.394C178.652 264.978 212.629 277.423 243.265 296.029C244.25 296.618 245.341 296.996 246.478 297.143C245.902 301.814 245.895 306.539 246.456 311.212L185.196 328.163C182.315 328.942 180.07 331.207 179.316 334.101C178.563 336.991 179.415 340.063 181.553 342.152C183.69 344.241 186.782 345.025 189.657 344.206L250.821 327.327C252.578 331.433 254.8 335.326 257.448 338.924C224.642 356.935 195.644 381.148 172.069 410.212C164.741 419.325 159.267 429.781 155.95 440.992ZM320.223 539.293C313.181 543.952 304.453 545.299 296.335 542.976L279.113 538.529C272.378 536.894 266.403 533.009 262.174 527.518C259.471 524 258.134 519.618 258.416 515.19C258.7 514.403 259.148 513.598 259.368 512.745L260.59 508.013C261.741 503.559 259.061 499.019 254.61 497.869C254.502 497.841 254.392 497.876 254.286 497.855C254.18 497.835 254.1 497.738 253.996 497.711C249.545 496.561 245.002 499.237 243.852 503.691L242.63 508.423C242.41 509.276 242.422 510.158 242.276 511.023C240.379 515.033 237.088 518.22 233.013 519.988C226.654 522.745 219.548 523.253 212.861 521.421L195.665 516.981C187.408 515.128 180.404 509.704 176.539 502.181C168.703 485.708 166.681 467.066 170.799 449.299L170.816 449.234C173.385 438.77 178.233 429 185.015 420.624C207.526 392.882 235.265 369.833 266.661 352.775C267.597 352.257 268.425 351.557 269.091 350.722C273.014 353.673 277.299 356.114 281.839 357.984L265.021 423.115C263.871 427.566 266.548 432.105 271.002 433.256C275.453 434.405 279.996 431.73 281.145 427.279L297.963 362.148C302.838 362.709 307.769 362.647 312.63 361.965C312.811 363.019 313.195 364.031 313.762 364.938C332.974 395.063 346.086 428.661 352.352 463.834C357.132 493.081 344.623 522.465 320.223 539.293ZM507.927 430.974L495.494 443.593C490.708 448.559 484.377 451.748 477.539 452.635C473.225 453.181 468.853 452.212 465.173 449.899C464.555 449.08 463.896 448.297 463.2 447.549L459.697 444.159C458.111 442.62 455.98 441.777 453.768 441.809C451.559 441.845 449.456 442.755 447.917 444.341C447.898 444.413 447.879 444.488 447.788 444.542C447.698 444.595 447.562 444.661 447.466 444.765C444.254 448.053 444.311 453.324 447.598 456.536L451.109 459.963C451.853 460.689 452.665 461.338 453.471 461.981C455.82 465.534 456.849 469.798 456.38 474.03C456.268 475.448 456.041 476.854 455.699 478.233C454.265 483.475 451.491 488.252 447.647 492.095L435.201 504.682C429.547 510.745 421.547 514.065 413.26 513.783L412.746 513.709C396.315 512.381 380.676 506.084 367.913 495.649C370.434 484.242 370.701 472.449 368.706 460.936C362.154 424.092 348.503 388.87 328.515 357.226C332.575 355.357 336.407 353.028 339.932 350.285L385.228 394.696C387.347 396.805 390.432 397.616 393.311 396.822C396.192 396.032 398.429 393.755 399.169 390.861C399.909 387.967 399.042 384.898 396.895 382.821L351.501 338.329C354.254 334.512 356.535 330.374 358.294 326.008C359.359 326.43 360.5 326.628 361.644 326.589C397.461 325.143 433.216 330.705 466.901 342.961C494.713 353.444 514.04 378.951 516.606 408.556L516.6 408.579C517.145 416.957 513.973 425.149 507.927 430.974Z" fill="#E8F6E5"/>
<path d="M296.208 335.503C313.492 339.966 331.121 329.576 335.583 312.296C340.045 295.016 329.65 277.39 312.366 272.927C295.082 268.464 277.453 278.854 272.991 296.134C268.529 313.413 278.924 331.04 296.208 335.503Z" fill="#F4F7E6"/>
</svg>
