<svg width="503" height="182" viewBox="0 0 503 182" fill="none" xmlns="http://www.w3.org/2000/svg">
<path d="M77.28 33.28C77.28 34.96 76.86 36.7333 76.02 38.6C75.2733 40.4667 74.34 42.2867 73.22 44.06C72.1 45.8333 70.84 47.4667 69.44 48.96C68.04 50.36 66.6867 51.5267 65.38 52.46C61.8333 55.0733 57.9133 57.5933 53.62 60.02C49.42 62.3533 45.3133 64.3133 41.3 65.9C41.1133 65.9933 40.6933 66.18 40.04 66.46C39.3867 66.6467 38.9667 66.6467 38.78 66.46C38.5933 66.2733 38.7333 65.9467 39.2 65.48C39.6667 64.92 40.04 64.5467 40.32 64.36C40.9733 63.7067 41.8133 62.9133 42.84 61.98C43.96 61.0467 45.08 60.16 46.2 59.32C47.4133 58.3867 48.58 57.5 49.7 56.66C50.9133 55.82 51.9867 55.1667 52.92 54.7C53.5733 54.3267 55.02 53.3 57.26 51.62C59.5933 49.8467 62.0667 47.84 64.68 45.6C67.2933 43.2667 69.72 40.9333 71.96 38.6C74.2933 36.2667 75.74 34.3533 76.3 32.86C76.6733 32.2067 76.9533 31.9733 77.14 32.16C77.2333 32.2533 77.28 32.44 77.28 32.72C77.28 33 77.28 33.1867 77.28 33.28ZM16.24 85.22C19.6933 85.6867 23.0533 86.3867 26.32 87.32C29.5867 88.16 32.62 89.7933 35.42 92.22C38.6867 95.02 42.0467 98.1467 45.5 101.6C48.9533 104.96 52.1267 108.273 55.02 111.54C55.2067 111.727 55.4867 112.1 55.86 112.66C56.2333 113.127 56.3267 113.5 56.14 113.78C56.0467 113.967 55.6733 113.967 55.02 113.78C54.46 113.5 54.0867 113.267 53.9 113.08C53.06 112.613 52.0333 112.007 50.82 111.26C49.7 110.42 48.5333 109.533 47.32 108.6C46.1067 107.667 44.94 106.78 43.82 105.94C42.7 105.007 41.7667 104.167 41.02 103.42C40.5533 102.953 39.2933 101.927 37.24 100.34C35.28 98.66 32.9467 96.9333 30.24 95.16C27.5333 93.2933 24.6867 91.5667 21.7 89.98C18.8067 88.3933 16.1933 87.32 13.86 86.76C13.1133 86.5733 12.74 86.1067 12.74 85.36C12.8333 84.6133 12.9267 83.96 13.02 83.4C13.2067 82.28 13.44 80.88 13.72 79.2C14.0933 77.52 14.42 75.7933 14.7 74.02C15.0733 72.2467 15.4467 70.52 15.82 68.84C16.1933 67.16 16.5667 65.7133 16.94 64.5C17.22 63.66 17.7333 61.56 18.48 58.2C19.2267 54.84 19.9733 51.1067 20.72 47C21.4667 42.8933 22.0267 38.9267 22.4 35.1C22.7733 31.2733 22.7267 28.4733 22.26 26.7C22.0733 25.86 22.12 25.44 22.4 25.44C22.5867 25.44 22.7267 25.58 22.82 25.86C22.9133 26.0467 23.0533 26.2333 23.24 26.42C24.2667 28.0067 25.06 29.92 25.62 32.16C26.18 34.4 26.5067 36.78 26.6 39.3C26.7867 41.7267 26.74 44.1533 26.46 46.58C26.2733 49.0067 25.9467 51.1067 25.48 52.88C24.4533 56.8 23.2867 60.72 21.98 64.64C20.6733 68.4667 19.2733 72.34 17.78 76.26C18.8067 74.7667 19.7867 73.3667 20.72 72.06C21.6533 70.66 22.4933 69.3533 23.24 68.14L23.38 67.44C24.3133 62.96 25.4333 58.4333 26.74 53.86C28.14 49.2867 28.9333 44.34 29.12 39.02C29.3067 38.5533 29.4467 38.32 29.54 38.32C29.6333 38.32 29.7267 38.4133 29.82 38.6C29.9133 38.7867 30.0067 38.9733 30.1 39.16C31.1267 41.68 31.5 44.9933 31.22 49.1C30.94 53.1133 30.38 57.3133 29.54 61.7C30.66 60.7667 31.7333 59.88 32.76 59.04C33.88 58.2 35.0933 57.36 36.4 56.52C39.9467 54.0933 43.5867 51.76 47.32 49.52C51.0533 47.28 54.6467 44.9933 58.1 42.66C61.6467 40.3267 64.9133 37.9467 67.9 35.52C70.8867 33.0933 73.4533 30.4333 75.6 27.54C75.88 27.26 76.0667 27.2133 76.16 27.4C76.2533 27.4 76.2533 27.54 76.16 27.82C76.16 28.0067 76.16 28.1467 76.16 28.24C74.76 32.0667 72.6133 35.4733 69.72 38.46C66.92 41.3533 63.7 44.06 60.06 46.58C56.5133 49.1 52.78 51.48 48.86 53.72C44.94 55.96 41.2067 58.34 37.66 60.86C33.2733 63.8467 29.1667 67.3933 25.34 71.5C21.5133 75.6067 18.48 80.18 16.24 85.22ZM22.96 84.38C22.4933 84.38 21.84 84.38 21 84.38C20.2533 84.2867 19.5533 84.2867 18.9 84.38C19.2733 83.6333 19.6933 82.8867 20.16 82.14C20.72 81.3933 21.2333 80.6467 21.7 79.9C22.26 79.1533 22.9133 78.36 23.66 77.52C24.5 76.5867 25.2933 75.7933 26.04 75.14C26.88 74.3933 27.58 73.88 28.14 73.6C28.7933 73.2267 29.2133 73.2267 29.4 73.6C29.4933 73.6933 29.4 73.9267 29.12 74.3C28.9333 74.6733 28.6533 75.14 28.28 75.7C27.9067 76.1667 27.5333 76.6333 27.16 77.1C26.88 77.4733 26.6933 77.7533 26.6 77.94C25.5733 79.2467 24.8267 80.4133 24.36 81.44C23.8933 82.3733 23.4267 83.3533 22.96 84.38ZM76.58 122.32C76.3933 122.507 76.1133 122.553 75.74 122.46C75.46 122.273 75.1333 122.087 74.76 121.9C72.0533 120.687 69.4867 119.193 67.06 117.42C64.7267 115.647 62.44 113.733 60.2 111.68C57.96 109.627 55.72 107.527 53.48 105.38C51.3333 103.14 49.14 100.947 46.9 98.8C45.3133 97.3067 43.6333 95.7667 41.86 94.18C40.0867 92.5933 38.2667 91.1467 36.4 89.84C34.5333 88.44 32.5733 87.2733 30.52 86.34C28.56 85.3133 26.5533 84.66 24.5 84.38C25.7133 82.6067 27.6733 80.6 30.38 78.36C33.0867 76.12 36.0267 73.9267 39.2 71.78C42.3733 69.6333 45.5 67.58 48.58 65.62C51.66 63.66 54.18 62.0733 56.14 60.86C59.4067 58.8067 62.6733 56.6133 65.94 54.28C69.3 51.9467 72.38 49.1 75.18 45.74C75.46 45.3667 75.74 45.2267 76.02 45.32C76.02 45.5067 75.9733 45.6933 75.88 45.88C75.7867 45.9733 75.74 46.1133 75.74 46.3C75.2733 48.6333 73.8733 51.1067 71.54 53.72C69.3 56.24 66.7333 58.6667 63.84 61C60.9467 63.3333 58.0067 65.5267 55.02 67.58C52.0333 69.54 49.6533 71.1267 47.88 72.34C46.2 73.46 44.4267 74.5333 42.56 75.56C40.7867 76.5867 38.9667 77.6133 37.1 78.64C35.2333 79.5733 33.4133 80.46 31.64 81.3C29.96 82.0467 28.3733 82.7467 26.88 83.4C29.3067 83.4 32.06 84.1467 35.14 85.64C38.3133 87.1333 41.44 88.9533 44.52 91.1C47.6 93.1533 50.4467 95.3467 53.06 97.68C55.6733 99.92 57.68 101.787 59.08 103.28C62.0667 106.547 65.0067 109.72 67.9 112.8C70.8867 115.88 73.5 118.54 75.74 120.78C76.4867 121.527 76.7667 122.04 76.58 122.32ZM19.18 22.92C20.4867 27.4 20.9067 32.0667 20.44 36.92C19.9733 41.68 19.04 46.58 17.64 51.62C16.3333 56.66 14.84 61.7933 13.16 67.02C11.48 72.2467 10.0333 77.4267 8.82 82.56C8.07333 85.8267 7.46667 89.2333 7 92.78C6.62667 96.3267 6.48667 99.92 6.58 103.56C6.76667 107.107 7.18667 110.607 7.84 114.06C8.58667 117.42 9.75333 120.547 11.34 123.44C11.7133 124.187 11.8533 124.56 11.76 124.56C11.5733 124.56 11.3867 124.467 11.2 124.28C11.0133 124.093 10.8733 124 10.78 124C8.16667 120.92 6.25333 117.607 5.04 114.06C3.82667 110.42 3.08 106.687 2.8 102.86C2.52 99.0333 2.61333 95.16 3.08 91.24C3.64 87.32 4.34 83.4933 5.18 79.76C6.39333 74.6267 7.79333 69.54 9.38 64.5C10.9667 59.3667 12.4133 54.42 13.72 49.66C15.12 44.8067 16.2867 40.14 17.22 35.66C18.1533 31.18 18.5733 26.8867 18.48 22.78C18.48 22.22 18.5267 21.94 18.62 21.94C18.7133 21.8467 18.8067 21.9867 18.9 22.36C19.0867 22.64 19.18 22.8267 19.18 22.92ZM85.4 126.8C85.4 126.987 85.3067 127.127 85.12 127.22C84.9333 127.313 84.7467 127.407 84.56 127.5C81.0133 128.807 77.56 129.367 74.2 129.18C70.9333 129.087 67.7133 128.527 64.54 127.5C61.46 126.567 58.4733 125.307 55.58 123.72C52.78 122.133 50.12 120.547 47.6 118.96C45.08 117.373 42.6533 115.553 40.32 113.5C37.9867 111.447 35.7 109.347 33.46 107.2C31.22 105.053 28.98 102.953 26.74 100.9C24.5933 98.8467 22.4467 97.0267 20.3 95.44L15.96 110C15.7733 110.467 15.5867 110.887 15.4 111.26C15.3067 111.633 15.1667 111.773 14.98 111.68C14.7933 111.587 14.6533 111.353 14.56 110.98C14.56 110.513 14.56 110.047 14.56 109.58C14.6533 106.873 14.8867 104.12 15.26 101.32C15.6333 98.52 16.1 95.72 16.66 92.92C16.1 92.5467 15.4 92.1267 14.56 91.66C13.72 91.1933 12.9267 90.7267 12.18 90.26C11.9933 90.1667 11.76 90.0267 11.48 89.84C11.2 89.56 11.1067 89.3267 11.2 89.14C11.2 89.0467 11.4333 89 11.9 89C15.26 89.28 18.5267 90.4 21.7 92.36C24.9667 94.2267 28.1867 96.5133 31.36 99.22C34.6267 101.833 37.8933 104.68 41.16 107.76C44.4267 110.84 47.8333 113.78 51.38 116.58C55.86 120.033 60.9933 122.74 66.78 124.7C72.5667 126.753 78.4467 127.407 84.42 126.66C85.0733 126.473 85.4 126.52 85.4 126.8ZM15.68 124.56C15.4933 124.56 15.2133 124.467 14.84 124.28C14.6533 124.187 14.5133 124.047 14.42 123.86C13.2067 122.46 12.2267 121.153 11.48 119.94C10.8267 118.727 10.2667 116.767 9.8 114.06C9.61333 113.033 9.47333 111.727 9.38 110.14C9.38 108.553 9.42667 107.013 9.52 105.52C9.61333 104.027 9.75333 102.767 9.94 101.74C10.22 100.713 10.5467 100.2 10.92 100.2C11.0133 100.2 11.1067 100.433 11.2 100.9C11.3867 101.367 11.5267 101.927 11.62 102.58C11.7133 103.14 11.76 103.747 11.76 104.4C11.8533 104.96 11.9 105.333 11.9 105.52C12.0867 107.573 12.2267 109.253 12.32 110.56C12.5067 111.867 12.6933 113.033 12.88 114.06C13.3467 117.047 14.28 120.173 15.68 123.44C15.7733 123.627 15.82 123.86 15.82 124.14C15.9133 124.42 15.8667 124.56 15.68 124.56ZM66.36 121.76C67.0133 121.853 67.8067 122.04 68.74 122.32C69.7667 122.507 70.56 122.693 71.12 122.88C73.5467 123.533 75.5533 124 77.14 124.28C78.82 124.653 80.78 124.887 83.02 124.98C83.2067 124.98 83.44 124.98 83.72 124.98C84.0933 124.98 84.28 125.073 84.28 125.26C84.28 125.633 83.8133 125.867 82.88 125.96C81.76 126.147 80.78 126.24 79.94 126.24C79.1 126.24 78.0267 126.193 76.72 126.1C75.9733 126.007 75.0867 125.867 74.06 125.68C73.0333 125.493 72.0067 125.213 70.98 124.84C69.9533 124.56 68.9733 124.28 68.04 124C67.2 123.627 66.5933 123.253 66.22 122.88C65.8467 122.507 65.7067 122.18 65.8 121.9C65.8 121.807 65.9867 121.76 66.36 121.76ZM122.4 79.9C120.814 83.1667 118.947 86.48 116.8 89.84C114.654 93.1067 112.414 96.0467 110.08 98.66C109.987 98.8467 109.754 99.1733 109.38 99.64C109.007 100.013 108.68 100.153 108.4 100.06C108.214 99.8733 108.167 99.5467 108.26 99.08C108.354 98.6133 108.447 98.24 108.54 97.96C109.007 96.4667 109.707 94.5067 110.64 92.08C111.574 89.6533 112.554 87.6933 113.58 86.2C113.86 85.7333 114.42 84.4267 115.26 82.28C116.194 80.1333 117.08 77.7533 117.92 75.14C118.76 72.4333 119.414 69.82 119.88 67.3C120.347 64.78 120.3 62.9133 119.74 61.7C119.74 61.7 119.74 61.56 119.74 61.28V61.14C120.114 61.14 120.394 61.3267 120.58 61.7C121.607 62.9133 122.354 64.3133 122.82 65.9C123.38 67.4867 123.707 69.12 123.8 70.8C123.894 72.48 123.8 74.16 123.52 75.84C123.334 77.4267 122.96 78.78 122.4 79.9ZM127.02 71.22C128.047 73.18 128.327 75.56 127.86 78.36C127.487 81.0667 126.74 83.8667 125.62 86.76C124.594 89.6533 123.38 92.4067 121.98 95.02C120.674 97.54 119.6 99.5933 118.76 101.18C117.36 103.887 115.634 106.64 113.58 109.44C111.62 112.147 109.8 114.573 108.12 116.72C107.654 117.373 107.234 117.7 106.86 117.7C106.674 117.513 106.58 117.28 106.58 117C106.674 116.72 106.767 116.44 106.86 116.16C108.354 111.307 110.22 106.827 112.46 102.72C114.7 98.52 117.034 94.18 119.46 89.7C121.047 86.9 122.447 84.0533 123.66 81.16C124.967 78.1733 125.854 74.9067 126.32 71.36C126.32 70.8933 126.367 70.66 126.46 70.66C126.74 70.66 126.927 70.8467 127.02 71.22ZM97.2005 75.84C97.2005 79.2933 96.9205 83.0267 96.3605 87.04C95.8938 91.0533 95.3805 94.5067 94.8205 97.4C94.8205 97.5867 94.7271 97.9133 94.5405 98.38C94.4471 98.8467 94.2138 99.1267 93.8405 99.22C93.6538 99.22 93.4671 98.9867 93.2805 98.52C93.1871 98.0533 93.0938 97.7267 93.0005 97.54C92.8138 96.7933 92.6271 95.9067 92.4405 94.88C92.3471 93.76 92.2538 92.64 92.1605 91.52C92.0671 90.4 91.9738 89.28 91.8805 88.16C91.8805 87.04 91.9271 86.06 92.0205 85.22C92.1138 84.66 92.0671 83.26 91.8805 81.02C91.6938 78.78 91.4138 76.3533 91.0405 73.74C90.6671 71.1267 90.1538 68.6533 89.5005 66.32C88.8471 63.8933 88.0538 62.2133 87.1205 61.28C86.9338 61.0933 86.7938 60.9067 86.7005 60.72C86.7005 60.44 86.7471 60.3 86.8405 60.3C87.0271 60.3 87.2138 60.3467 87.4005 60.44C87.6805 60.5333 87.9138 60.6267 88.1005 60.72C89.4071 61.28 90.6205 62.1667 91.7405 63.38C92.8605 64.5933 93.7938 65.9467 94.5405 67.44C95.3805 68.84 96.0338 70.2867 96.5005 71.78C96.9671 73.2733 97.2005 74.6267 97.2005 75.84ZM105.04 124C105.04 124.373 104.947 124.56 104.76 124.56C104.667 124.56 104.48 124.467 104.2 124.28C104.014 124.187 103.827 124.093 103.64 124C102.894 123.44 102.334 122.647 101.96 121.62C101.68 120.593 101.634 119.053 101.82 117C101.82 116.16 101.914 115.227 102.1 114.2C102.287 113.173 102.52 112.24 102.8 111.4C103.08 110.467 103.36 109.767 103.64 109.3C103.92 108.74 104.2 108.507 104.48 108.6C104.947 108.787 105.134 109.393 105.04 110.42C105.04 111.353 105.04 112.053 105.04 112.52C104.947 114.947 104.9 117.14 104.9 119.1C104.9 121.06 104.947 122.693 105.04 124ZM97.0605 116.86C96.5938 116.3 96.1738 115.553 95.8005 114.62C95.4271 113.687 95.1005 112.8 94.8205 111.96C94.5405 111.027 94.3538 110.233 94.2605 109.58C94.2605 108.927 94.4005 108.553 94.6805 108.46C95.1471 108.367 95.5671 108.647 95.9405 109.3C96.4071 109.86 96.7805 110.42 97.0605 110.98C96.9671 109.02 97.0605 107.06 97.3405 105.1C97.7138 103.047 97.9938 101.18 98.1805 99.5C98.4605 97.0733 98.6938 94.9267 98.8805 93.06C99.0671 91.1 99.2071 88.7667 99.3005 86.06C99.4871 83.1667 99.4871 79.9933 99.3005 76.54C99.1138 73.0867 98.3671 69.7267 97.0605 66.46C96.9671 66.18 97.0138 66.04 97.2005 66.04C97.3871 66.04 97.5271 66.0867 97.6205 66.18C97.7138 66.2733 97.8538 66.3667 98.0405 66.46C99.2538 67.3933 100.234 68.7 100.98 70.38C101.82 71.9667 102.427 73.7867 102.8 75.84C103.267 77.8 103.547 79.9 103.64 82.14C103.827 84.2867 103.92 86.34 103.92 88.3C105.32 85.78 106.767 83.3067 108.26 80.88C109.754 78.36 111.06 75.8867 112.18 73.46C113.3 70.94 114.187 68.5133 114.84 66.18C115.494 63.7533 115.774 61.3733 115.68 59.04C115.68 58.6667 115.727 58.4333 115.82 58.34C115.914 58.34 116.1 58.5733 116.38 59.04C117.687 62.12 118.107 65.2467 117.64 68.42C117.174 71.5 116.194 74.6267 114.7 77.8C113.3 80.88 111.62 84.0067 109.66 87.18C107.7 90.26 105.974 93.34 104.48 96.42C102.614 100.34 101.26 104.633 100.42 109.3C99.6738 113.967 99.9538 118.867 101.26 124V124.14C101.167 124.233 101.12 124.28 101.12 124.28C100.934 124.28 100.794 124.233 100.7 124.14C100.607 124.14 100.56 124.093 100.56 124C100.28 123.627 99.9538 123.253 99.5805 122.88C99.2071 122.507 98.6938 122.133 98.0405 121.76C95.3338 120.36 93.0938 118.727 91.3205 116.86C89.5471 114.993 88.1471 112.987 87.1205 110.84C86.1871 108.693 85.4871 106.453 85.0205 104.12C84.6471 101.787 84.4605 99.4533 84.4605 97.12C84.3671 93.76 84.4138 90.4 84.6005 87.04C84.8805 83.5867 85.0205 80.2733 85.0205 77.1C85.1138 73.9267 84.9738 70.8933 84.6005 68C84.2271 65.0133 83.4338 62.3067 82.2205 59.88C82.2205 59.6933 82.2205 59.6 82.2205 59.6C82.4071 59.4133 82.5938 59.3667 82.7805 59.46C82.9671 59.5533 83.1071 59.6467 83.2005 59.74C85.6271 61.98 87.2605 64.5933 88.1005 67.58C88.9405 70.5667 89.4071 73.74 89.5005 77.1C89.5938 80.46 89.4538 83.9133 89.0805 87.46C88.7071 91.0067 88.5671 94.5067 88.6605 97.96C88.7538 100.013 88.9871 102.113 89.3605 104.26C89.7338 106.407 90.3405 108.507 91.1805 110.56C92.0205 112.52 93.0938 114.433 94.4005 116.3C95.8005 118.167 97.4338 119.847 99.3005 121.34C98.9271 120.407 98.6471 119.753 98.4605 119.38C98.2738 118.913 97.8071 118.073 97.0605 116.86ZM150.112 77.8C149.085 81.2533 147.778 84.7533 146.192 88.3C144.698 91.8467 143.112 95.1133 141.432 98.1C141.245 98.2867 141.012 98.6133 140.732 99.08C140.452 99.5467 140.265 99.78 140.172 99.78C139.892 99.6867 139.752 99.36 139.752 98.8C139.752 98.24 139.798 97.8667 139.892 97.68C139.892 96.0933 140.125 94.04 140.592 91.52C141.152 89 141.758 86.9 142.412 85.22C142.505 84.7533 142.785 83.4467 143.252 81.3C143.812 79.06 144.325 76.5867 144.792 73.88C145.258 71.08 145.538 68.42 145.632 65.9C145.818 63.2867 145.632 61.3733 145.072 60.16C144.698 59.6 144.698 59.32 145.072 59.32C145.165 59.32 145.492 59.5067 146.052 59.88C147.172 61 148.058 62.3533 148.712 63.94C149.458 65.4333 149.972 67.02 150.252 68.7C150.532 70.38 150.625 72.0133 150.532 73.6C150.532 75.1867 150.392 76.5867 150.112 77.8ZM150.672 98.94C149.832 101.927 148.805 104.96 147.592 108.04C146.378 111.027 145.305 113.64 144.372 115.88C144.185 116.253 144.045 116.533 143.952 116.72C143.858 116.907 143.718 117 143.532 117C143.252 117 143.065 116.86 142.972 116.58C142.972 116.207 142.972 115.88 142.972 115.6C142.785 110.84 143.345 106.22 144.652 101.74C145.958 97.1667 147.405 92.5 148.992 87.74C149.925 84.8467 150.765 81.9067 151.512 78.92C152.352 75.84 152.772 72.5267 152.772 68.98C152.678 68.6067 152.725 68.42 152.912 68.42C153.098 68.42 153.378 68.6067 153.752 68.98C154.872 70.7533 155.432 73.04 155.432 75.84C155.432 78.5467 155.152 81.3467 154.592 84.24C154.032 87.04 153.332 89.7933 152.492 92.5C151.652 95.1133 151.045 97.26 150.672 98.94ZM140.732 124C141.105 124.373 141.152 124.513 140.872 124.42C140.592 124.42 140.358 124.327 140.172 124.14C137.372 122.18 135.225 120.033 133.732 117.7C132.238 115.367 131.212 112.94 130.652 110.42C130.092 107.807 129.905 105.193 130.092 102.58C130.372 99.9667 130.838 97.4 131.492 94.88C132.332 91.4267 133.358 88.0667 134.572 84.8C135.878 81.44 137.045 78.22 138.072 75.14C139.098 71.9667 139.938 68.8867 140.592 65.9C141.245 62.9133 141.432 60.02 141.152 57.22C141.058 57.1267 141.012 57.0333 141.012 56.94C141.012 56.7533 141.058 56.66 141.152 56.66C141.245 56.66 141.432 56.8933 141.712 57.36C143.205 60.44 143.858 63.6133 143.672 66.88C143.578 70.0533 143.065 73.32 142.132 76.68C141.198 79.9467 140.078 83.26 138.772 86.62C137.465 89.98 136.392 93.34 135.552 96.7C134.992 98.8467 134.618 101.133 134.432 103.56C134.245 105.987 134.338 108.413 134.712 110.84C135.085 113.173 135.738 115.507 136.672 117.84C137.605 120.08 138.958 122.133 140.732 124ZM141.852 118.68C142.225 119.8 142.645 120.78 143.112 121.62C143.672 122.46 144.278 123.253 144.932 124C145.025 124 145.072 124.047 145.072 124.14C145.165 124.327 145.165 124.42 145.072 124.42C144.792 124.42 144.372 124.28 143.812 124C142.505 123.533 141.432 122.927 140.592 122.18C139.845 121.433 139.192 120.127 138.632 118.26C138.352 117.513 138.118 116.627 137.932 115.6C137.838 114.48 137.792 113.453 137.792 112.52C137.792 111.493 137.838 110.653 137.932 110C138.118 109.347 138.398 109.02 138.772 109.02C138.958 109.02 139.192 109.533 139.472 110.56C139.752 111.587 139.985 112.287 140.172 112.66C140.358 113.687 140.592 114.76 140.872 115.88C141.245 117 141.572 117.933 141.852 118.68ZM152.772 46.3C155.945 46.3 158.232 45.3667 159.632 43.5C161.032 41.6333 161.732 39.2067 161.732 36.22C161.732 34.7267 161.218 33.1867 160.192 31.6C159.258 29.92 157.858 28.5667 155.992 27.54C155.898 27.4467 155.712 27.3533 155.432 27.26C155.245 27.0733 155.058 26.98 154.872 26.98C154.778 27.0733 154.872 27.3067 155.152 27.68C155.432 27.96 155.665 28.24 155.852 28.52C156.785 29.7333 157.252 31.5533 157.252 33.98C157.252 35.94 156.832 37.5733 155.992 38.88C155.152 40.0933 154.218 41.12 153.192 41.96C152.165 42.7067 151.232 43.3133 150.392 43.78C149.552 44.1533 149.132 44.48 149.132 44.76C149.132 45.5067 149.598 45.9733 150.532 46.16C151.558 46.2533 152.305 46.3 152.772 46.3ZM147.592 40.7C149.178 40.3267 150.672 39.58 152.072 38.46C153.565 37.2467 154.312 35.7533 154.312 33.98C154.312 32.86 153.892 31.5533 153.052 30.06C152.305 28.5667 151.138 27.4467 149.552 26.7C149.365 26.6067 148.945 26.4667 148.292 26.28C147.732 26 147.358 25.9067 147.172 26C146.985 26.0933 147.125 26.42 147.592 26.98C148.058 27.54 148.385 28.0533 148.572 28.52C149.318 30.1067 149.598 31.46 149.412 32.58C149.225 33.6067 148.852 34.54 148.292 35.38C147.825 36.22 147.312 37.0133 146.752 37.76C146.192 38.4133 145.912 39.1133 145.912 39.86C145.912 40.8867 146.472 41.1667 147.592 40.7ZM143.532 33.14C143.532 33.6067 143.672 34.12 143.952 34.68C144.232 35.24 144.698 35.52 145.352 35.52C145.818 35.52 146.192 35.24 146.472 34.68C146.752 34.0267 146.892 33.5133 146.892 33.14C146.892 32.6733 146.752 32.16 146.472 31.6C146.192 30.9467 145.818 30.62 145.352 30.62C144.698 30.62 144.232 30.9467 143.952 31.6C143.672 32.16 143.532 32.6733 143.532 33.14ZM197.856 61.84C197.949 61.9333 197.996 62.1667 197.996 62.54C197.996 62.82 197.949 63.0533 197.856 63.24C197.016 65.9467 195.569 67.86 193.516 68.98C191.463 70.1 189.643 70.66 188.056 70.66C186.096 70.66 184.089 70.52 182.036 70.24C179.983 69.8667 178.023 68.98 176.156 67.58C175.969 67.3933 175.736 67.2067 175.456 67.02C175.176 66.8333 175.036 66.6467 175.036 66.46C175.036 66.18 175.176 65.9933 175.456 65.9C175.736 65.7133 175.969 65.5733 176.156 65.48C176.996 65.2933 178.069 65.1533 179.376 65.06C180.776 64.8733 182.129 64.8733 183.436 65.06C184.369 65.2467 185.489 65.34 186.796 65.34C188.103 65.34 189.409 65.2467 190.716 65.06C192.116 64.8733 193.376 64.5933 194.496 64.22C195.616 63.7533 196.456 63.1 197.016 62.26C197.296 61.8867 197.576 61.7467 197.856 61.84ZM198.836 57.5L198.416 58.2C196.829 60.2533 195.149 61.6067 193.376 62.26C191.603 62.82 189.736 63.0533 187.776 62.96C185.816 62.8667 183.809 62.6333 181.756 62.26C179.796 61.7933 177.836 61.5133 175.876 61.42C173.263 61.3267 170.649 62.12 168.036 63.8C165.423 65.48 163.183 68.42 161.316 72.62C161.036 73.18 160.849 73.32 160.756 73.04C160.663 72.6667 160.663 72.34 160.756 72.06C161.503 69.26 162.389 66.9267 163.416 65.06C164.443 63.1933 165.516 61.7 166.636 60.58C167.849 59.3667 169.109 58.48 170.416 57.92C171.723 57.36 173.076 56.9867 174.476 56.8C176.063 51.48 177.276 46.3 178.116 41.26C179.049 36.1267 179.143 31.2733 178.396 26.7C178.396 26.3267 178.396 26.14 178.396 26.14C178.583 26.0467 178.769 26.0933 178.956 26.28C179.143 26.4667 179.236 26.6067 179.236 26.7C181.289 31.18 182.129 35.9867 181.756 41.12C181.383 46.16 180.449 51.48 178.956 57.08C179.423 57.1733 179.796 57.22 180.076 57.22C180.356 57.22 180.683 57.22 181.056 57.22C181.523 54.7933 181.943 52.2267 182.316 49.52C182.783 46.72 183.109 44.06 183.296 41.54C183.576 39.02 183.669 36.7333 183.576 34.68C183.483 32.6267 183.156 31.0867 182.596 30.06C182.316 29.22 182.316 28.8 182.596 28.8C182.783 28.8 182.923 28.8933 183.016 29.08C183.109 29.2667 183.249 29.4533 183.436 29.64C184.743 30.9467 185.769 32.72 186.516 34.96C187.263 37.2 187.776 39.58 188.056 42.1C188.336 44.62 188.429 47.14 188.336 49.66C188.243 52.0867 187.963 54.2333 187.496 56.1L186.936 58.34C187.216 58.5267 187.496 58.62 187.776 58.62C188.056 58.62 188.336 58.6667 188.616 58.76C189.176 55.96 189.643 53.16 190.016 50.36C190.483 47.56 190.669 44.62 190.576 41.54C190.576 40.8867 190.623 40.56 190.716 40.56C190.903 40.56 191.043 40.7 191.136 40.98C191.229 41.26 191.323 41.4933 191.416 41.68C192.536 43.7333 193.049 46.3 192.956 49.38C192.956 52.46 192.723 55.7267 192.256 59.18C194.309 59.18 196.269 58.62 198.136 57.5C198.603 57.22 198.836 57.22 198.836 57.5ZM169.856 67.02C169.856 67.4867 169.576 67.9533 169.016 68.42C168.549 68.8867 168.176 69.2133 167.896 69.4C167.429 69.7733 166.869 70.24 166.216 70.8C165.656 71.2667 165.143 71.78 164.676 72.34C164.209 73.0867 163.743 73.74 163.276 74.3C162.903 74.86 162.576 75.6533 162.296 76.68C162.203 76.8667 162.063 77.0533 161.876 77.24C161.783 77.3333 161.689 77.3333 161.596 77.24C161.316 76.96 161.316 76.3533 161.596 75.42C161.969 74.02 162.343 72.9 162.716 72.06C163.089 71.1267 163.789 70.1467 164.816 69.12C165.189 68.7467 165.656 68.3733 166.216 68C166.776 67.6267 167.336 67.3 167.896 67.02C168.456 66.74 168.923 66.6 169.296 66.6C169.669 66.6 169.856 66.74 169.856 67.02ZM180.776 123.3C181.243 123.113 181.429 123.16 181.336 123.44C181.243 123.72 181.103 123.907 180.916 124C179.236 124.56 177.463 124.467 175.596 123.72C173.729 122.973 172.003 121.807 170.416 120.22C168.829 118.633 167.476 116.813 166.356 114.76C165.236 112.613 164.536 110.513 164.256 108.46C163.789 104.073 163.743 99.8267 164.116 95.72C164.489 91.6133 165.189 87.5533 166.216 83.54L168.596 74.72C168.036 74.72 167.476 74.58 166.916 74.3C166.263 74.1133 165.936 73.88 165.936 73.6C165.936 73.4133 166.263 73.1333 166.916 72.76C169.529 71.4533 172.143 70.8933 174.756 71.08C177.463 71.2667 180.169 71.5933 182.876 72.06C184.556 72.34 186.236 72.5733 187.916 72.76C189.689 72.8533 191.603 72.48 193.656 71.64C193.843 71.4533 194.029 71.4067 194.216 71.5C194.403 71.6867 194.356 72.0133 194.076 72.48C193.516 73.6933 192.723 74.58 191.696 75.14C190.669 75.7 189.596 76.12 188.476 76.4C187.729 78.8267 187.076 81.02 186.516 82.98C185.956 84.8467 185.489 86.4333 185.116 87.74C184.089 92.22 182.876 96.7933 181.476 101.46C180.169 106.033 179.283 109.907 178.816 113.08C178.629 114.107 178.443 114.667 178.256 114.76C178.069 114.853 177.883 114.667 177.696 114.2C177.509 113.733 177.369 113.36 177.276 113.08C176.903 110.373 176.809 107.573 176.996 104.68C177.276 101.693 177.743 98.66 178.396 95.58C179.049 92.5 179.796 89.42 180.636 86.34C181.476 83.1667 182.363 79.9933 183.296 76.82C182.829 76.82 182.363 76.82 181.896 76.82C181.429 76.82 180.963 76.7733 180.496 76.68C179.749 78.64 178.956 80.6 178.116 82.56C177.369 84.4267 176.623 86.2 175.876 87.88C175.783 88.0667 175.549 88.5333 175.176 89.28C174.896 89.9333 174.663 90.26 174.476 90.26C174.103 90.1667 173.963 89.7467 174.056 89C174.149 88.16 174.196 87.6 174.196 87.32C174.383 85.92 174.663 84.2867 175.036 82.42C175.503 80.5533 175.923 78.5467 176.296 76.4C175.829 76.3067 175.316 76.26 174.756 76.26C174.196 76.1667 173.636 76.0267 173.076 75.84C172.516 77.7067 171.956 79.5267 171.396 81.3C170.929 83.0733 170.463 84.8467 169.996 86.62C169.249 89.8867 168.689 93.3867 168.316 97.12C167.943 100.76 167.943 104.54 168.316 108.46C168.503 110.233 168.969 112.053 169.716 113.92C170.556 115.787 171.536 117.467 172.656 118.96C173.776 120.453 175.036 121.62 176.436 122.46C177.929 123.3 179.376 123.58 180.776 123.3ZM182.036 120.22C182.503 119.847 182.783 119.847 182.876 120.22C182.969 120.5 182.783 120.78 182.316 121.06C181.943 121.34 181.429 121.573 180.776 121.76C180.216 121.853 179.563 121.853 178.816 121.76C178.069 121.667 177.276 121.387 176.436 120.92C175.596 120.453 174.803 119.707 174.056 118.68C173.403 117.84 172.843 116.627 172.376 115.04C172.003 113.453 171.723 111.913 171.536 110.42C171.349 108.833 171.303 107.48 171.396 106.36C171.489 105.24 171.723 104.68 172.096 104.68C172.563 104.68 172.889 105.333 173.076 106.64C173.356 107.947 173.589 109.02 173.776 109.86C174.149 111.353 174.663 112.893 175.316 114.48C175.969 116.067 176.669 117.327 177.416 118.26C178.349 119.473 179.189 120.22 179.936 120.5C180.683 120.687 181.383 120.593 182.036 120.22ZM245.873 58.62C246.246 60.1133 246.293 61.6067 246.013 63.1C245.826 64.5933 245.453 65.9933 244.893 67.3C244.426 68.6067 243.773 69.7733 242.933 70.8C242.186 71.7333 241.439 72.48 240.693 73.04C238.453 74.6267 235.933 76.12 233.133 77.52C230.333 78.8267 227.579 79.9933 224.873 81.02C224.686 81.1133 224.359 81.2533 223.893 81.44C223.426 81.5333 223.099 81.44 222.913 81.16C222.819 81.0667 222.866 80.8333 223.053 80.46C223.333 80.0867 223.519 79.8533 223.613 79.76C224.546 78.64 225.806 77.4267 227.393 76.12C228.979 74.8133 230.379 73.7867 231.593 73.04C231.966 72.76 232.853 72.06 234.253 70.94C235.746 69.82 237.239 68.5133 238.733 67.02C240.319 65.4333 241.766 63.8467 243.073 62.26C244.379 60.6733 245.079 59.32 245.173 58.2C245.173 58.0133 245.173 57.92 245.173 57.92C245.266 57.8267 245.313 57.7333 245.313 57.64C245.313 57.5467 245.359 57.5 245.453 57.5C245.639 57.5933 245.733 57.78 245.733 58.06C245.826 58.2467 245.873 58.4333 245.873 58.62ZM219.553 47.28C218.246 52.9733 216.519 58.76 214.373 64.64C212.226 70.4267 209.939 75.84 207.513 80.88C207.326 81.3467 207.046 82 206.673 82.84C206.393 83.5867 206.113 83.96 205.833 83.96C205.646 83.7733 205.553 83.3067 205.553 82.56C205.646 81.72 205.739 81.16 205.833 80.88C206.113 79.48 206.486 77.7067 206.953 75.56C207.419 73.4133 207.933 71.1267 208.493 68.7C209.146 66.2733 209.753 63.8933 210.313 61.56C210.966 59.2267 211.573 57.1733 212.133 55.4C213.999 49.1467 215.213 42.9867 215.773 36.92C216.333 30.76 216.099 24.88 215.073 19.28C214.979 18.9067 214.933 18.6267 214.933 18.44C215.026 18.2533 215.073 18.1133 215.073 18.02C215.539 17.8333 215.959 18.1133 216.333 18.86C217.453 20.3533 218.339 22.3133 218.993 24.74C219.646 27.0733 220.066 29.5933 220.253 32.3C220.533 34.9133 220.579 37.5733 220.393 40.28C220.299 42.8933 220.019 45.2267 219.553 47.28ZM211.433 15.78C213.299 20.3533 214.139 25.2533 213.953 30.48C213.766 35.6133 213.019 40.9333 211.713 46.44C210.406 51.9467 208.773 57.5467 206.813 63.24C204.946 68.84 203.219 74.3933 201.633 79.9C200.606 83.3533 199.766 87.04 199.113 90.96C198.553 94.7867 198.273 98.66 198.273 102.58C198.273 106.407 198.646 110.14 199.393 113.78C200.139 117.42 201.399 120.78 203.173 123.86C203.453 124.327 203.406 124.513 203.033 124.42C202.753 124.327 202.519 124.187 202.333 124C199.999 121.107 198.226 117.793 197.013 114.06C195.893 110.233 195.193 106.22 194.913 102.02C194.726 97.82 194.913 93.5267 195.473 89.14C196.033 84.7533 196.873 80.6 197.993 76.68C199.673 71.1733 201.353 65.7133 203.033 60.3C204.806 54.8867 206.346 49.6133 207.653 44.48C208.959 39.3467 209.893 34.4 210.453 29.64C211.106 24.7867 211.106 20.1667 210.453 15.78C210.453 15.5933 210.406 15.4067 210.313 15.22C210.313 14.94 210.406 14.8 210.593 14.8C210.779 14.8 210.919 14.94 211.013 15.22C211.199 15.4067 211.339 15.5933 211.433 15.78ZM248.533 120.5C249.279 120.687 249.559 120.92 249.373 121.2C249.186 121.48 248.953 121.667 248.673 121.76C245.779 122.507 242.979 122.647 240.273 122.18C237.566 121.713 235.326 120.827 233.553 119.52C231.219 117.84 229.166 115.647 227.393 112.94C225.713 110.233 224.079 107.667 222.493 105.24C222.399 105.053 222.259 104.82 222.073 104.54C221.886 104.167 221.839 103.887 221.933 103.7C222.119 103.42 222.353 103.373 222.633 103.56C223.006 103.653 223.239 103.747 223.333 103.84C224.546 104.4 225.993 105.287 227.673 106.5C229.446 107.713 230.753 108.833 231.593 109.86C232.339 110.7 233.366 111.727 234.673 112.94C235.979 114.06 237.379 115.133 238.873 116.16C240.459 117.187 242.093 118.12 243.773 118.96C245.453 119.8 247.039 120.313 248.533 120.5ZM253.013 117.42C253.479 117.513 253.573 117.653 253.293 117.84C253.106 118.027 252.826 118.12 252.453 118.12C249.466 118.68 246.806 118.4 244.473 117.28C242.139 116.067 239.946 114.527 237.893 112.66C235.933 110.7 233.973 108.6 232.013 106.36C230.146 104.12 228.139 102.113 225.993 100.34C223.286 98.1933 219.926 96.6533 215.913 95.72C211.993 94.7867 207.746 95.2067 203.173 96.98C202.706 97.1667 202.519 97.12 202.613 96.84C202.706 96.56 202.846 96.3267 203.033 96.14C203.873 95.58 204.759 95.0667 205.693 94.6C206.626 94.04 207.513 93.62 208.353 93.34C209.473 88.3933 210.826 83.4933 212.413 78.64C213.999 73.6933 215.586 68.6533 217.173 63.52C218.666 58.76 220.019 53.7667 221.233 48.54C222.446 43.3133 222.959 37.76 222.773 31.88C222.773 31.32 222.866 31.04 223.053 31.04C223.239 31.04 223.333 31.18 223.333 31.46C223.426 31.74 223.566 31.9733 223.753 32.16C224.686 34.12 225.153 36.7333 225.153 40C225.153 43.2667 224.873 46.8133 224.313 50.64C223.753 54.3733 223.006 58.2 222.073 62.12C221.139 66.04 220.206 69.5867 219.273 72.76C221.139 70.8 223.193 69.1667 225.433 67.86C227.766 66.46 230.053 65.1533 232.293 63.94C234.626 62.6333 236.773 61.1867 238.733 59.6C240.693 58.0133 242.279 56.0067 243.493 53.58C243.493 53.4867 243.493 53.3933 243.493 53.3C243.586 53.2067 243.679 53.2533 243.773 53.44C243.773 53.5333 243.773 53.6733 243.773 53.86C243.866 54.0467 243.913 54.2333 243.913 54.42C243.726 57.4067 242.839 59.9267 241.253 61.98C239.666 63.94 237.753 65.7133 235.513 67.3C233.273 68.8867 230.846 70.38 228.233 71.78C225.619 73.18 223.193 74.72 220.953 76.4C218.246 78.4533 216.426 80.9267 215.493 83.82C214.559 86.7133 213.766 89.56 213.113 92.36C213.579 91.7067 214.046 91.0067 214.513 90.26C215.073 89.42 215.586 88.6733 216.053 88.02C216.519 87.2733 216.939 86.7133 217.313 86.34C217.686 85.9667 217.966 85.8733 218.153 86.06C218.246 86.1533 218.199 86.48 218.013 87.04C217.919 87.5067 217.779 88.0667 217.593 88.72C217.406 89.3733 217.219 90.0267 217.033 90.68C216.846 91.3333 216.706 91.8467 216.613 92.22C217.079 92.3133 217.453 92.36 217.733 92.36C218.106 92.36 218.433 92.4067 218.713 92.5C220.859 89.42 223.379 86.8533 226.273 84.8C229.166 82.6533 232.199 80.6467 235.373 78.78C237.519 77.4733 239.573 76.0733 241.533 74.58C243.586 73.0867 245.406 71.1267 246.993 68.7C247.086 68.42 247.226 68.3733 247.413 68.56C247.506 68.6533 247.506 68.7933 247.413 68.98C247.413 69.0733 247.459 69.26 247.553 69.54C247.646 71.5 247.086 73.3667 245.873 75.14C244.659 76.9133 243.166 78.5467 241.393 80.04C239.619 81.5333 237.799 82.8867 235.933 84.1C234.066 85.3133 232.619 86.34 231.593 87.18C230.099 88.3 228.466 89.3733 226.693 90.4C224.919 91.3333 223.239 92.22 221.653 93.06C224.453 93.9933 227.066 95.4867 229.493 97.54C231.639 99.22 233.646 101.133 235.513 103.28C237.379 105.333 239.246 107.34 241.113 109.3C242.979 111.26 244.846 112.987 246.713 114.48C248.673 115.973 250.773 116.953 253.013 117.42ZM209.053 104.12C208.866 104.68 208.586 105.473 208.213 106.5C207.933 107.527 207.699 108.507 207.513 109.44C207.326 109.907 207.186 110.373 207.093 110.84C207.093 111.307 206.999 111.493 206.813 111.4C206.533 111.307 206.299 110.933 206.113 110.28C206.019 109.627 205.973 109.067 205.973 108.6C205.973 107.947 205.973 107.2 205.973 106.36C205.973 105.52 206.019 104.773 206.113 104.12C206.299 103.373 206.579 102.767 206.953 102.3C207.419 101.833 208.073 101.6 208.913 101.6C210.126 101.693 211.433 102.16 212.833 103C214.326 103.747 215.819 104.773 217.313 106.08C218.806 107.293 220.299 108.693 221.793 110.28C223.286 111.773 224.779 113.313 226.273 114.9C227.859 116.673 229.586 118.493 231.453 120.36C233.413 122.133 235.746 123.393 238.453 124.14C238.826 124.327 239.013 124.467 239.013 124.56C239.013 124.747 238.779 124.84 238.313 124.84C236.446 124.84 234.533 124.467 232.573 123.72C230.706 122.88 228.839 121.9 226.973 120.78C225.199 119.567 223.519 118.307 221.933 117C220.439 115.693 219.133 114.527 218.013 113.5C216.426 112.007 214.839 110.42 213.253 108.74C211.759 107.06 210.359 105.52 209.053 104.12ZM207.373 123.86C207.559 124.14 207.513 124.327 207.233 124.42C207.046 124.513 206.719 124.373 206.253 124C205.133 122.973 204.106 121.76 203.173 120.36C202.239 118.867 201.539 116.627 201.073 113.64C200.699 111.867 200.419 110 200.233 108.04C200.139 105.987 200.326 104.167 200.793 102.58C201.259 100.993 202.146 99.6867 203.453 98.66C204.759 97.54 206.673 96.98 209.193 96.98C209.846 96.98 210.593 97.0733 211.433 97.26C212.273 97.4467 213.019 97.68 213.673 97.96C214.419 98.1467 214.979 98.4267 215.353 98.8C215.819 99.08 215.913 99.36 215.633 99.64C215.539 99.92 215.026 100.013 214.093 99.92C213.253 99.8267 212.739 99.78 212.553 99.78C211.433 99.5933 210.313 99.5 209.193 99.5C208.166 99.4067 207.233 99.5 206.393 99.78C205.553 100.06 204.853 100.62 204.293 101.46C203.826 102.207 203.593 103.327 203.593 104.82C203.593 107.993 203.873 110.98 204.433 113.78C204.806 115.647 205.179 117.42 205.553 119.1C206.019 120.687 206.626 122.273 207.373 123.86Z" fill="#6CC25E"/>
<path d="M446.42 79.9C444.833 83.1667 442.967 86.48 440.82 89.84C438.673 93.1067 436.433 96.0467 434.1 98.66C434.007 98.8467 433.773 99.1733 433.4 99.64C433.027 100.013 432.7 100.153 432.42 100.06C432.233 99.8733 432.187 99.5467 432.28 99.08C432.373 98.6133 432.467 98.24 432.56 97.96C433.027 96.4667 433.727 94.5067 434.66 92.08C435.593 89.6533 436.573 87.6933 437.6 86.2C437.88 85.7333 438.44 84.4267 439.28 82.28C440.213 80.1333 441.1 77.7533 441.94 75.14C442.78 72.4333 443.433 69.82 443.9 67.3C444.367 64.78 444.32 62.9133 443.76 61.7C443.76 61.7 443.76 61.56 443.76 61.28V61.14C444.133 61.14 444.413 61.3267 444.6 61.7C445.627 62.9133 446.373 64.3133 446.84 65.9C447.4 67.4867 447.727 69.12 447.82 70.8C447.913 72.48 447.82 74.16 447.54 75.84C447.353 77.4267 446.98 78.78 446.42 79.9ZM451.04 71.22C452.067 73.18 452.347 75.56 451.88 78.36C451.507 81.0667 450.76 83.8667 449.64 86.76C448.613 89.6533 447.4 92.4067 446 95.02C444.693 97.54 443.62 99.5933 442.78 101.18C441.38 103.887 439.653 106.64 437.6 109.44C435.64 112.147 433.82 114.573 432.14 116.72C431.673 117.373 431.253 117.7 430.88 117.7C430.693 117.513 430.6 117.28 430.6 117C430.693 116.72 430.787 116.44 430.88 116.16C432.373 111.307 434.24 106.827 436.48 102.72C438.72 98.52 441.053 94.18 443.48 89.7C445.067 86.9 446.467 84.0533 447.68 81.16C448.987 78.1733 449.873 74.9067 450.34 71.36C450.34 70.8933 450.387 70.66 450.48 70.66C450.76 70.66 450.947 70.8467 451.04 71.22ZM421.22 75.84C421.22 79.2933 420.94 83.0267 420.38 87.04C419.913 91.0533 419.4 94.5067 418.84 97.4C418.84 97.5867 418.747 97.9133 418.56 98.38C418.467 98.8467 418.233 99.1267 417.86 99.22C417.673 99.22 417.487 98.9867 417.3 98.52C417.207 98.0533 417.113 97.7267 417.02 97.54C416.833 96.7933 416.647 95.9067 416.46 94.88C416.367 93.76 416.273 92.64 416.18 91.52C416.087 90.4 415.993 89.28 415.9 88.16C415.9 87.04 415.947 86.06 416.04 85.22C416.133 84.66 416.087 83.26 415.9 81.02C415.713 78.78 415.433 76.3533 415.06 73.74C414.687 71.1267 414.173 68.6533 413.52 66.32C412.867 63.8933 412.073 62.2133 411.14 61.28C410.953 61.0933 410.813 60.9067 410.72 60.72C410.72 60.44 410.767 60.3 410.86 60.3C411.047 60.3 411.233 60.3467 411.42 60.44C411.7 60.5333 411.933 60.6267 412.12 60.72C413.427 61.28 414.64 62.1667 415.76 63.38C416.88 64.5933 417.813 65.9467 418.56 67.44C419.4 68.84 420.053 70.2867 420.52 71.78C420.987 73.2733 421.22 74.6267 421.22 75.84ZM429.06 124C429.06 124.373 428.967 124.56 428.78 124.56C428.687 124.56 428.5 124.467 428.22 124.28C428.033 124.187 427.847 124.093 427.66 124C426.913 123.44 426.353 122.647 425.98 121.62C425.7 120.593 425.653 119.053 425.84 117C425.84 116.16 425.933 115.227 426.12 114.2C426.307 113.173 426.54 112.24 426.82 111.4C427.1 110.467 427.38 109.767 427.66 109.3C427.94 108.74 428.22 108.507 428.5 108.6C428.967 108.787 429.153 109.393 429.06 110.42C429.06 111.353 429.06 112.053 429.06 112.52C428.967 114.947 428.92 117.14 428.92 119.1C428.92 121.06 428.967 122.693 429.06 124ZM421.08 116.86C420.613 116.3 420.193 115.553 419.82 114.62C419.447 113.687 419.12 112.8 418.84 111.96C418.56 111.027 418.373 110.233 418.28 109.58C418.28 108.927 418.42 108.553 418.7 108.46C419.167 108.367 419.587 108.647 419.96 109.3C420.427 109.86 420.8 110.42 421.08 110.98C420.987 109.02 421.08 107.06 421.36 105.1C421.733 103.047 422.013 101.18 422.2 99.5C422.48 97.0733 422.713 94.9267 422.9 93.06C423.087 91.1 423.227 88.7667 423.32 86.06C423.507 83.1667 423.507 79.9933 423.32 76.54C423.133 73.0867 422.387 69.7267 421.08 66.46C420.987 66.18 421.033 66.04 421.22 66.04C421.407 66.04 421.547 66.0867 421.64 66.18C421.733 66.2733 421.873 66.3667 422.06 66.46C423.273 67.3933 424.253 68.7 425 70.38C425.84 71.9667 426.447 73.7867 426.82 75.84C427.287 77.8 427.567 79.9 427.66 82.14C427.847 84.2867 427.94 86.34 427.94 88.3C429.34 85.78 430.787 83.3067 432.28 80.88C433.773 78.36 435.08 75.8867 436.2 73.46C437.32 70.94 438.207 68.5133 438.86 66.18C439.513 63.7533 439.793 61.3733 439.7 59.04C439.7 58.6667 439.747 58.4333 439.84 58.34C439.933 58.34 440.12 58.5733 440.4 59.04C441.707 62.12 442.127 65.2467 441.66 68.42C441.193 71.5 440.213 74.6267 438.72 77.8C437.32 80.88 435.64 84.0067 433.68 87.18C431.72 90.26 429.993 93.34 428.5 96.42C426.633 100.34 425.28 104.633 424.44 109.3C423.693 113.967 423.973 118.867 425.28 124V124.14C425.187 124.233 425.14 124.28 425.14 124.28C424.953 124.28 424.813 124.233 424.72 124.14C424.627 124.14 424.58 124.093 424.58 124C424.3 123.627 423.973 123.253 423.6 122.88C423.227 122.507 422.713 122.133 422.06 121.76C419.353 120.36 417.113 118.727 415.34 116.86C413.567 114.993 412.167 112.987 411.14 110.84C410.207 108.693 409.507 106.453 409.04 104.12C408.667 101.787 408.48 99.4533 408.48 97.12C408.387 93.76 408.433 90.4 408.62 87.04C408.9 83.5867 409.04 80.2733 409.04 77.1C409.133 73.9267 408.993 70.8933 408.62 68C408.247 65.0133 407.453 62.3067 406.24 59.88C406.24 59.6933 406.24 59.6 406.24 59.6C406.427 59.4133 406.613 59.3667 406.8 59.46C406.987 59.5533 407.127 59.6467 407.22 59.74C409.647 61.98 411.28 64.5933 412.12 67.58C412.96 70.5667 413.427 73.74 413.52 77.1C413.613 80.46 413.473 83.9133 413.1 87.46C412.727 91.0067 412.587 94.5067 412.68 97.96C412.773 100.013 413.007 102.113 413.38 104.26C413.753 106.407 414.36 108.507 415.2 110.56C416.04 112.52 417.113 114.433 418.42 116.3C419.82 118.167 421.453 119.847 423.32 121.34C422.947 120.407 422.667 119.753 422.48 119.38C422.293 118.913 421.827 118.073 421.08 116.86ZM498.071 85.22C498.351 82.7 498.398 80.04 498.211 77.24C498.025 74.44 497.418 71.8733 496.391 69.54C495.458 67.1133 493.965 65.1067 491.911 63.52C489.951 61.9333 487.338 61.14 484.071 61.14C479.685 61.14 475.858 62.3533 472.591 64.78C469.325 67.1133 466.525 70.0533 464.191 73.6C461.858 77.0533 460.038 80.7867 458.731 84.8C457.425 88.72 456.585 92.3133 456.211 95.58C455.651 100.06 455.558 103.933 455.931 107.2C456.398 110.467 457.191 113.173 458.311 115.32C459.431 117.373 460.831 118.913 462.511 119.94C464.285 120.967 466.198 121.48 468.251 121.48C471.145 121.573 474.178 120.78 477.351 119.1C480.618 117.327 483.651 114.9 486.451 111.82C489.251 108.647 491.678 104.82 493.731 100.34C495.878 95.7667 497.325 90.7267 498.071 85.22ZM452.991 94.88C453.365 91.1467 454.298 87.04 455.791 82.56C457.285 78.08 459.338 73.9267 461.951 70.1C464.658 66.2733 467.878 63.1 471.611 60.58C475.345 57.9667 479.685 56.66 484.631 56.66C488.365 56.66 491.445 57.5467 493.871 59.32C496.298 61.0933 498.165 63.38 499.471 66.18C500.778 68.8867 501.618 71.8733 501.991 75.14C502.365 78.3133 502.365 81.3467 501.991 84.24C501.151 90.96 499.518 96.7933 497.091 101.74C494.665 106.687 491.818 110.84 488.551 114.2C485.285 117.467 481.831 119.94 478.191 121.62C474.551 123.207 471.051 124 467.691 124C465.171 124 462.885 123.44 460.831 122.32C458.871 121.2 457.191 119.473 455.791 117.14C454.485 114.713 453.551 111.68 452.991 108.04C452.525 104.307 452.525 99.92 452.991 94.88ZM468.671 114.62C468.205 114.62 467.738 114.48 467.271 114.2C466.805 113.827 466.431 113.407 466.151 112.94C465.871 112.473 465.685 112.007 465.591 111.54C465.498 111.073 465.685 110.747 466.151 110.56C466.431 110.467 466.805 110.793 467.271 111.54C467.738 112.287 468.251 112.66 468.811 112.66C469.745 112.66 470.818 112.053 472.031 110.84C473.338 109.627 474.551 108.227 475.671 106.64C476.885 104.96 477.911 103.327 478.751 101.74C479.685 100.153 480.338 98.9867 480.711 98.24C481.085 97.4933 481.458 96.56 481.831 95.44C482.205 94.2267 482.531 93.0133 482.811 91.8C483.185 90.5867 483.465 89.42 483.651 88.3C483.931 87.0867 484.118 86.06 484.211 85.22C484.678 81.02 484.585 77.8 483.931 75.56C483.278 73.2267 482.205 72.06 480.711 72.06C479.591 72.06 478.425 72.4333 477.211 73.18C475.998 73.8333 474.831 74.72 473.711 75.84C472.685 76.96 471.751 78.22 470.911 79.62C470.071 80.9267 469.465 82.28 469.091 83.68C468.625 85.2667 468.298 86.06 468.111 86.06C467.831 86.06 467.691 85.2667 467.691 83.68C467.971 81.9067 468.578 80.18 469.511 78.5C470.445 76.7267 471.611 75.1867 473.011 73.88C474.411 72.48 475.951 71.36 477.631 70.52C479.311 69.5867 481.038 69.12 482.811 69.12C484.585 69.12 485.891 69.7733 486.731 71.08C487.665 72.2933 488.318 73.8333 488.691 75.7C489.065 77.4733 489.205 79.34 489.111 81.3C489.111 83.1667 489.018 84.66 488.831 85.78C488.458 88.3 487.851 90.7733 487.011 93.2C486.265 95.5333 485.331 97.9133 484.211 100.34C483.651 101.46 482.811 102.86 481.691 104.54C480.571 106.127 479.265 107.667 477.771 109.16C476.371 110.653 474.831 111.96 473.151 113.08C471.565 114.107 470.071 114.62 468.671 114.62ZM473.151 117.28C473.245 117.84 472.778 118.307 471.751 118.68C470.818 119.053 469.838 119.24 468.811 119.24C465.918 119.147 463.678 118.213 462.091 116.44C460.598 114.667 459.525 112.567 458.871 110.14C458.311 107.713 458.031 105.193 458.031 102.58C458.125 99.9667 458.265 97.7733 458.451 96C458.825 92.92 459.571 89.4667 460.691 85.64C461.811 81.8133 463.398 78.22 465.451 74.86C467.505 71.5 470.025 68.7 473.011 66.46C475.998 64.1267 479.545 62.96 483.651 62.96C486.358 62.96 488.505 63.66 490.091 65.06C491.771 66.46 492.985 68.1867 493.731 70.24C494.571 72.2933 495.038 74.5333 495.131 76.96C495.318 79.2933 495.271 81.44 494.991 83.4C494.805 85.5467 494.478 87.5067 494.011 89.28C493.545 91.0533 492.891 93.0133 492.051 95.16C491.771 95.8133 491.398 96.56 490.931 97.4C490.465 98.24 489.951 98.6133 489.391 98.52C489.111 98.4267 489.018 98.0533 489.111 97.4C489.298 96.7467 489.485 95.9533 489.671 95.02C489.951 93.9933 490.231 92.9667 490.511 91.94C490.791 90.82 490.978 89.7933 491.071 88.86C491.258 87.2733 491.351 85.3133 491.351 82.98C491.445 80.5533 491.258 78.22 490.791 75.98C490.418 73.74 489.671 71.8267 488.551 70.24C487.431 68.6533 485.751 67.86 483.511 67.86C480.245 67.86 477.211 68.9333 474.411 71.08C471.705 73.1333 469.325 75.7 467.271 78.78C465.218 81.7667 463.538 84.94 462.231 88.3C461.018 91.5667 460.271 94.46 459.991 96.98C459.805 98.4733 459.758 100.34 459.851 102.58C459.945 104.82 460.271 107.06 460.831 109.3C461.485 111.447 462.511 113.313 463.911 114.9C465.311 116.487 467.225 117.327 469.651 117.42C470.398 117.513 471.098 117.467 471.751 117.28C472.498 117 472.965 117 473.151 117.28Z" fill="#6CC25E"/>
<path d="M400.237 103.392C398.403 98.5496 395.325 94.2754 391.314 91.0001C395.33 87.7208 398.411 83.4428 400.25 78.5957C401.565 74.8328 401.132 70.6794 399.068 67.2691L396.446 62.7134C394.857 59.9454 392.369 57.805 389.394 56.6482C388.818 56.4369 388.226 56.2718 387.623 56.1548C387.82 55.5819 387.969 54.9936 388.07 54.3962C388.191 53.7079 388.254 53.0107 388.257 52.3118C388.234 49.8306 387.56 47.3991 386.303 45.2598L383.673 40.7361C381.746 37.2386 378.347 34.7929 374.418 34.0763C374.379 34.0688 374.338 34.0639 374.298 34.0616C369.205 33.2202 363.98 33.7407 359.154 35.571C358.303 30.4545 356.116 25.6533 352.815 21.652C350.211 18.6293 346.394 16.9248 342.404 17.0025H337.134C333.938 16.9658 330.828 18.035 328.331 20.0289C327.851 20.4388 327.406 20.8886 327.001 21.3733C326.597 20.8886 326.152 20.4388 325.671 20.0289C323.174 18.035 320.064 16.9658 316.868 17.0025H311.599C307.607 16.9265 303.789 18.6328 301.184 21.6569C297.882 25.6571 295.696 30.4588 294.849 35.5759C289.978 33.7679 284.723 33.2522 279.594 34.0786C275.665 34.7952 272.267 37.2409 270.342 40.7384L267.719 45.2424C266.436 47.3895 265.754 49.8424 265.745 52.3439C265.738 53.037 265.791 53.7293 265.903 54.4132C266.013 55.0064 266.168 55.59 266.367 56.1597C265.766 56.2773 265.175 56.4424 264.6 56.6531C261.623 57.8148 259.134 59.9604 257.546 62.7333L254.919 67.2619C252.857 70.6814 252.433 74.8432 253.762 78.6081C255.599 83.4503 258.679 87.724 262.69 91.0001C258.676 94.2803 255.597 98.5594 253.762 103.407C252.433 107.163 252.86 111.317 254.924 114.726L257.559 119.267C259.13 122.048 261.619 124.198 264.6 125.349C265.179 125.562 265.774 125.727 266.379 125.843C266.176 126.422 266.018 127.015 265.908 127.619C265.799 128.294 265.748 128.977 265.755 129.661C265.759 132.154 266.434 134.6 267.709 136.743L270.339 141.269C272.265 144.765 275.661 147.211 279.588 147.929C281.238 148.184 282.905 148.313 284.575 148.314C288.086 148.322 291.568 147.689 294.851 146.444C295.701 151.557 297.886 156.355 301.186 160.353C303.792 163.373 307.609 165.076 311.598 164.997H316.868C320.064 165.034 323.174 163.965 325.671 161.971C326.151 161.561 326.596 161.111 327.001 160.627C327.405 161.111 327.85 161.561 328.331 161.971C330.828 163.965 333.938 165.034 337.134 164.997H342.403C346.395 165.073 350.212 163.367 352.818 160.343C356.115 156.347 358.3 151.552 359.151 146.441C362.418 147.697 365.89 148.335 369.39 148.323C371.03 148.322 372.667 148.192 374.287 147.936C374.331 147.933 374.375 147.929 374.418 147.921C378.347 147.205 381.744 144.759 383.67 141.262L386.307 136.725C387.562 134.588 388.234 132.159 388.256 129.681C388.253 128.99 388.192 128.3 388.074 127.619C387.973 127.012 387.822 126.415 387.622 125.833C388.228 125.717 388.822 125.552 389.401 125.34C392.382 124.189 394.871 122.039 396.443 119.257L399.078 114.716C401.142 111.306 401.568 107.15 400.237 103.392ZM359.415 40.7977C363.856 38.7526 368.815 38.1098 373.631 38.9553L373.772 38.9726C376.175 39.5039 378.231 41.0506 379.407 43.2127L382.037 47.7341C382.858 49.1236 383.302 50.7032 383.324 52.317C383.321 52.7448 383.28 53.1715 383.204 53.5923C383.015 54.8393 382.399 55.9825 381.462 56.826C381.194 56.9367 380.932 57.0636 380.679 57.2058L379.421 57.9212C378.852 58.2446 378.435 58.7808 378.261 59.4118C378.088 60.0428 378.172 60.7169 378.496 61.2858C378.496 61.308 378.533 61.3204 378.545 61.3424C378.558 61.3647 378.563 61.4239 378.585 61.4632C378.909 62.0321 379.445 62.4492 380.076 62.6229C380.707 62.7963 381.381 62.7119 381.95 62.3882L383.258 61.6482C383.542 61.4759 383.815 61.2884 384.077 61.0857C385.271 60.7582 386.538 60.8256 387.689 61.2782C389.585 62.0465 391.169 63.4282 392.187 65.2027L394.795 69.7362C396.102 71.8593 396.414 74.4478 395.649 76.8203C394.102 80.9281 391.483 84.5467 388.064 87.3008C387.709 87.5893 387.272 87.8532 386.873 88.1295C383.806 86.5088 380.455 85.4954 377.004 85.1451C365.913 84.0735 354.721 85.1572 344.042 88.3368C343.842 87.0375 343.494 85.7654 343.003 84.5456L359.287 75.1724C360.468 74.4914 360.873 72.9817 360.192 71.8006C359.511 70.6196 358.001 70.2143 356.82 70.8953L340.502 80.2684C339.721 79.2822 338.835 78.3838 337.859 77.5898C345.937 69.9926 352.462 60.8993 357.071 50.8151C358.496 47.6595 359.292 44.2571 359.415 40.7977ZM339.337 91.0001C339.337 97.8113 333.814 103.333 327.001 103.333C320.188 103.333 314.664 97.8113 314.664 91.0001C314.673 84.1923 320.191 78.6755 327.001 78.6671C333.814 78.6671 339.337 84.1889 339.337 91.0001ZM299.445 39.5099C299.581 34.1055 301.546 28.9066 305.018 24.7622C306.693 22.9039 309.097 21.8711 311.598 21.9355H316.868C318.921 21.9063 320.923 22.5778 322.543 23.8398C323.579 24.6489 324.287 25.8068 324.533 27.0983C324.511 27.3573 324.442 27.6088 324.442 27.8704V29.3182C324.442 30.6805 325.547 31.7847 326.909 31.7847C326.941 31.7847 326.971 31.7674 327.003 31.7651C327.035 31.7625 327.064 31.7847 327.097 31.7847C328.459 31.7847 329.564 30.6805 329.564 29.3182V27.8704C329.564 27.6091 329.495 27.3573 329.472 27.0983C329.72 25.8065 330.428 24.6486 331.466 23.8398C333.083 22.5795 335.083 21.9081 337.133 21.9355H342.403C344.908 21.8563 347.319 22.8926 348.985 24.7648C354.732 31.4023 356.138 40.7569 352.595 48.7894C348.192 58.4149 341.942 67.0827 334.199 74.3012C333.969 74.5195 333.783 74.7811 333.654 75.0707C332.312 74.5148 330.905 74.1321 329.467 73.9312V54.0013C329.467 52.639 328.363 51.5348 327 51.5348C325.637 51.5348 324.533 52.639 324.533 54.0013V73.9312C323.092 74.1316 321.683 74.5145 320.339 75.0707C320.209 74.7811 320.024 74.5195 319.793 74.3012C312.05 67.0827 305.8 58.4149 301.398 48.7894C300.072 45.8844 299.405 42.7225 299.444 39.5299V39.5099H299.445ZM258.368 76.8221C257.587 74.4541 257.887 71.8631 259.187 69.7356L261.822 65.2044C262.827 63.423 264.409 62.0373 266.308 61.2751C267.517 60.8004 268.853 60.7577 270.09 61.1542C270.337 61.3268 270.542 61.5095 270.808 61.6699L272.063 62.3827C272.633 62.7088 273.309 62.7943 273.942 62.6209C274.575 62.4472 275.112 62.0286 275.436 61.4577C275.456 61.4207 275.456 61.3788 275.476 61.3392C275.495 61.2996 275.51 61.3048 275.525 61.2826C275.849 60.7137 275.933 60.0396 275.76 59.4086C275.586 58.7776 275.169 58.2414 274.6 57.918L273.388 57.2298C273.122 57.0821 272.847 56.9517 272.564 56.8401C271.614 55.99 270.985 54.8384 270.783 53.5793C270.721 53.1712 270.692 52.7587 270.697 52.3459C270.709 50.7252 271.152 49.1369 271.98 47.7433L274.617 43.2098C275.803 41.0182 277.896 39.4611 280.336 38.955C285.16 38.1398 290.117 38.7841 294.572 40.8049C294.694 44.2669 295.49 47.6719 296.916 50.829C301.525 60.9135 308.05 70.0065 316.128 77.6037C315.152 78.3977 314.266 79.2961 313.485 80.2823L297.167 70.9092C295.986 70.2282 294.476 70.6334 293.795 71.8145C293.114 72.9956 293.519 74.5053 294.7 75.1863L310.984 84.5594C310.493 85.7789 310.144 87.0511 309.945 88.3506C299.266 85.1737 288.073 84.09 276.983 85.1589C273.533 85.509 270.182 86.5207 267.114 88.1385C266.73 87.8399 266.293 87.5786 265.92 87.2751C262.516 84.5262 259.909 80.9171 258.368 76.8221ZM294.577 141.207C290.117 143.223 285.157 143.863 280.331 143.045C277.89 142.539 275.795 140.982 274.607 138.79L271.962 134.239C271.14 132.851 270.701 131.27 270.689 129.656C270.684 129.252 270.711 128.848 270.771 128.448C270.978 127.184 271.609 126.028 272.56 125.17C272.826 125.049 273.093 124.923 273.347 124.785L274.608 124.062C275.789 123.384 276.196 121.876 275.518 120.695C275.501 120.666 275.474 120.651 275.457 120.624C275.439 120.597 275.444 120.567 275.429 120.542C275.107 119.973 274.571 119.554 273.94 119.38C273.308 119.206 272.634 119.289 272.064 119.613L270.756 120.353C270.483 120.519 270.218 120.701 269.964 120.895C268.761 121.248 267.473 121.188 266.308 120.725C264.408 119.963 262.825 118.576 261.82 116.793L259.195 112.252C257.892 110.133 257.589 107.546 258.369 105.183C261.296 96.8832 268.728 90.9995 277.48 90.0529C288.051 89.0319 298.72 90.0853 308.887 93.1533C309.213 93.2492 309.554 93.277 309.891 93.2348C310.072 94.6176 310.42 95.9736 310.927 97.2726L294.609 106.673C293.84 107.11 293.364 107.926 293.362 108.812C293.36 109.697 293.832 110.515 294.6 110.956C295.368 111.397 296.313 111.393 297.077 110.945L313.373 101.572C314.181 102.62 315.107 103.572 316.133 104.408C308.056 112.005 301.531 121.099 296.921 131.183C295.494 134.34 294.698 137.745 294.577 141.207ZM348.984 157.238C347.309 159.096 344.905 160.129 342.404 160.064H337.134C335.081 160.094 333.079 159.422 331.459 158.16C330.423 157.351 329.715 156.193 329.468 154.902C329.491 154.655 329.56 154.391 329.56 154.13V152.682C329.56 151.319 328.455 150.215 327.093 150.215C327.06 150.215 327.031 150.233 326.999 150.235C326.967 150.237 326.937 150.215 326.905 150.215C325.543 150.215 324.438 151.319 324.438 152.682V154.13C324.438 154.391 324.507 154.643 324.529 154.902C324.282 156.193 323.574 157.351 322.536 158.16C320.916 159.422 318.915 160.094 316.861 160.064H311.599C309.093 160.144 306.682 159.107 305.016 157.235C301.548 153.09 299.587 147.892 299.452 142.49V142.47C299.414 139.278 300.081 136.116 301.406 133.211C305.809 123.585 312.059 114.918 319.802 107.699C320.032 107.481 320.218 107.219 320.347 106.93C321.691 107.486 323.101 107.869 324.542 108.069V127.999C324.542 129.361 325.646 130.465 327.009 130.465C328.371 130.465 329.476 129.361 329.476 127.999V108.069C330.916 107.869 332.326 107.486 333.67 106.93C333.8 107.219 333.985 107.481 334.215 107.699C341.958 114.918 348.208 123.585 352.611 133.211C356.149 141.247 354.737 150.603 348.984 157.238ZM394.807 112.26L392.175 116.801C391.17 118.58 389.59 119.964 387.694 120.725C386.497 121.201 385.171 121.247 383.944 120.856C383.706 120.667 383.459 120.491 383.204 120.328L381.948 119.615C381.379 119.291 380.705 119.207 380.073 119.38C379.442 119.554 378.906 119.971 378.582 120.54C378.582 120.562 378.582 120.585 378.56 120.607C378.538 120.629 378.504 120.658 378.484 120.695C377.806 121.876 378.213 123.384 379.394 124.062L380.655 124.785C380.922 124.938 381.203 125.064 381.482 125.189C382.419 126.034 383.03 127.181 383.209 128.43C383.282 128.845 383.321 129.265 383.325 129.686C383.302 131.296 382.86 132.872 382.042 134.259L379.404 138.792C378.231 140.95 376.182 142.495 373.784 143.028L373.631 143.045C368.819 143.881 363.866 143.233 359.432 141.185C359.31 137.726 358.513 134.323 357.088 131.168C352.479 121.084 345.954 111.991 337.876 104.394C338.902 103.557 339.829 102.605 340.637 101.557L356.921 110.942C357.685 111.39 358.63 111.394 359.397 110.953C360.165 110.513 360.638 109.694 360.636 108.809C360.634 107.924 360.158 107.108 359.388 106.671L343.07 97.2702C343.577 95.9712 343.925 94.6153 344.106 93.2325C344.443 93.2747 344.785 93.2469 345.11 93.151C355.278 90.0829 365.947 89.0299 376.518 90.0506C385.273 90.9978 392.707 96.8832 395.636 105.186V105.193C396.413 107.556 396.11 110.141 394.807 112.26Z" fill="#6CC25E"/>
<ellipse cx="327" cy="90.9812" rx="9.57647" ry="9.57404" fill="#E1C429"/>
</svg>
