<svg width="254" height="207" viewBox="0 0 254 207" fill="none" xmlns="http://www.w3.org/2000/svg">
<path d="M2.94531 181.728H154.328V203.321H2.94531V181.728Z" fill="#EBF1D0"/>
<path d="M234.567 175.614L203.083 144.131C199.175 140.223 199.127 133.917 202.937 129.949C202.874 130.008 202.813 130.069 202.752 130.131L195.587 137.296C191.63 141.254 191.63 147.671 195.587 151.627L227.071 183.11C231.029 187.067 237.445 187.067 241.403 183.108L248.567 175.944C248.616 175.895 248.664 175.846 248.711 175.795C244.742 179.57 238.463 179.51 234.567 175.614Z" fill="#EBF1D0"/>
<path d="M154.326 156.622C152.699 156.622 151.381 157.94 151.381 159.566V200.377H5.88903V13.3971H81.728C83.3546 13.3971 84.6725 12.0791 84.6725 10.4526C84.6725 8.82602 83.3546 7.50806 81.728 7.50806H2.94452C1.31797 7.50806 0 8.82602 0 10.4526V203.322C0 204.949 1.31797 206.266 2.94452 206.266H154.326C155.952 206.266 157.27 204.949 157.27 203.322V159.566C157.27 157.94 155.952 156.622 154.326 156.622Z" fill="#DAF0D6"/>
<path d="M129.784 163.276C131.41 163.276 132.728 161.959 132.728 160.332C132.728 158.705 131.41 157.387 129.784 157.387H27.4875C25.8609 157.387 24.543 158.705 24.543 160.332C24.543 161.959 25.8609 163.276 27.4875 163.276H129.784Z" fill="#DAF0D6"/>
<path d="M250.647 159.53L219.165 128.047C216.694 125.577 213.41 124.217 209.916 124.217C206.422 124.217 203.138 125.577 200.668 128.048L193.504 135.213C188.405 140.312 188.405 148.609 193.504 153.708L224.988 185.191C227.538 187.741 230.886 189.015 234.236 189.015C237.584 189.015 240.935 187.739 243.484 185.19L250.649 178.025C255.747 172.925 255.746 164.629 250.647 159.53ZM246.485 173.861L239.32 181.026C236.516 183.829 231.957 183.829 229.152 181.026L197.668 149.544C194.866 146.741 194.866 142.181 197.668 139.378L204.833 132.213C206.191 130.855 207.997 130.107 209.916 130.107C211.836 130.107 213.642 130.855 215 132.213L246.483 163.696C249.287 166.497 249.287 171.058 246.485 173.861Z" fill="#DAF0D6"/>
<path d="M138.496 18.0508C108.175 18.0508 83.5098 42.7176 83.5098 73.0379C83.5098 103.358 108.177 128.025 138.496 128.025C168.815 128.025 193.483 103.358 193.483 73.0379C193.482 42.7176 168.815 18.0508 138.496 18.0508ZM138.496 122.135C111.424 122.135 89.3988 100.11 89.3988 73.0367C89.3988 45.9648 111.424 23.9386 138.496 23.9386C165.568 23.9386 187.594 45.9636 187.594 73.0367C187.593 100.11 165.568 122.135 138.496 122.135Z" fill="#DAF0D6"/>
<path d="M182.457 127.165C181.423 126.131 179.787 126.011 178.614 126.887C166.958 135.587 153.084 140.185 138.495 140.185C101.469 140.185 71.3455 110.063 71.3455 73.037C71.3455 36.0103 101.468 5.88786 138.495 5.88786C175.521 5.88786 205.644 36.0103 205.644 73.037C205.644 87.6253 201.046 101.498 192.345 113.157C191.471 114.329 191.589 115.965 192.623 117L197.204 121.581C198.354 122.732 200.218 122.731 201.367 121.583C202.518 120.433 202.518 118.569 201.367 117.418L198.557 114.607C207.055 102.367 211.533 88.0493 211.533 73.0382C211.533 32.7654 178.769 0 138.495 0C101.332 0 70.5858 27.9058 66.0536 63.8595H27.4875C25.8609 63.8595 24.543 65.1775 24.543 66.804C24.543 68.4306 25.8609 69.7485 27.4875 69.7485H65.5412C65.493 70.8404 65.4576 71.9345 65.4576 73.0382C65.4576 77.8978 65.9452 82.6455 66.8557 87.2425H27.4875C25.8609 87.2425 24.543 88.5605 24.543 90.187C24.543 91.8136 25.8609 93.1316 27.4875 93.1316H68.2902C70.0687 99.3362 72.634 105.211 75.8977 110.624H27.4875C25.8609 110.624 24.543 111.942 24.543 113.569C24.543 115.195 25.8609 116.513 27.4875 116.513H79.8469C84.9397 123.366 91.208 129.29 98.3444 134.006H27.4875C25.8609 134.006 24.543 135.324 24.543 136.951C24.543 138.577 25.8609 139.895 27.4875 139.895H106.485C107.077 139.895 107.624 139.717 108.085 139.418C117.351 143.681 127.646 146.076 138.496 146.076C153.508 146.076 167.824 141.598 180.064 133.102L182.876 135.912C184.026 137.063 185.89 137.063 187.039 135.912C188.19 134.762 188.19 132.898 187.039 131.748L182.457 127.165Z" fill="#DAF0D6"/>
<path d="M138.496 70.9598C134.445 70.9598 131.148 74.2565 131.148 78.3082C131.148 81.3128 132.962 83.8981 135.551 85.0346V91.9696C135.551 93.5961 136.869 94.9141 138.496 94.9141C140.122 94.9141 141.44 93.5961 141.44 91.9696V85.0346C144.029 83.8969 145.843 81.3116 145.843 78.3082C145.843 74.2565 142.546 70.9598 138.496 70.9598ZM138.496 76.8489C139.3 76.8489 139.954 77.5037 139.954 78.3082C139.954 79.1126 139.299 79.7663 138.496 79.7663C137.691 79.7663 137.037 79.1114 137.037 78.3082C137.036 77.5037 137.691 76.8489 138.496 76.8489Z" fill="#EBF1D0"/>
<path d="M156.078 60.8369H153.115V51.544C153.115 43.4831 146.556 36.925 138.496 36.925C130.435 36.925 123.877 43.4831 123.877 51.544V60.8369H120.913C119.287 60.8369 117.969 62.1548 117.969 63.7814V101.76C117.969 103.386 119.287 104.704 120.913 104.704H156.078C157.704 104.704 159.022 103.386 159.022 101.76V63.7814C159.022 62.1548 157.704 60.8369 156.078 60.8369ZM129.767 51.544C129.767 46.7303 133.683 42.8141 138.497 42.8141C143.31 42.8141 147.227 46.7303 147.227 51.544V60.8369H129.767V51.544ZM153.133 98.8153H123.858V66.7259H153.133V98.8153Z" fill="#EBF1D0"/>
</svg>
