<svg width="294" height="294" viewBox="0 0 294 294" fill="none" xmlns="http://www.w3.org/2000/svg">
<g clip-path="url(#clip0_8142_39977)">
<path d="M100.619 239.762L191.85 183.877L199.821 196.89L108.59 252.775L100.619 239.762Z" fill="#EBF1D0"/>
<path d="M237.948 150.57L207.352 143.22C203.554 142.307 201.197 138.525 202.028 134.727C202.013 134.785 201.998 134.845 201.984 134.904L200.312 141.868C199.388 145.714 201.756 149.581 205.602 150.504L236.198 157.854C240.044 158.778 243.911 156.41 244.835 152.563L246.507 145.6C246.519 145.553 246.53 145.506 246.539 145.458C245.541 149.198 241.735 151.48 237.948 150.57Z" fill="#EBF1D0"/>
<path d="M182.58 168.747C181.599 169.347 181.292 170.628 181.892 171.608L196.958 196.203L109.277 249.914L40.2504 137.23L85.955 109.232C86.9352 108.632 87.2429 107.351 86.6425 106.371C86.042 105.391 84.7612 105.083 83.7809 105.683L36.3019 134.767C35.3216 135.368 35.0139 136.649 35.6144 137.629L106.815 253.862C107.415 254.843 108.696 255.15 109.677 254.55L200.907 198.665C201.887 198.065 202.195 196.784 201.594 195.804L185.441 169.434C184.841 168.454 183.56 168.146 182.58 168.747Z" fill="#DAF0D6"/>
<path d="M170.246 181.817C171.226 181.217 171.534 179.936 170.933 178.956C170.333 177.975 169.052 177.668 168.072 178.268L106.423 216.032C105.443 216.633 105.135 217.913 105.735 218.894C106.336 219.874 107.617 220.182 108.597 219.581L170.246 181.817Z" fill="#DAF0D6"/>
<path d="M241.702 134.94L211.107 127.59C208.706 127.013 206.225 127.406 204.12 128.695C202.014 129.985 200.537 132.017 199.961 134.418L198.288 141.381C197.097 146.336 200.16 151.337 205.115 152.527L235.712 159.878C238.19 160.473 240.678 160.005 242.697 158.768C244.715 157.532 246.263 155.526 246.858 153.049L248.531 146.086C249.721 141.13 246.658 136.131 241.702 134.94ZM244.485 145.114L242.812 152.077C242.157 154.801 239.409 156.484 236.684 155.83L206.088 148.481C203.365 147.826 201.681 145.077 202.335 142.353L204.008 135.391C204.325 134.071 205.137 132.954 206.294 132.245C207.451 131.536 208.815 131.32 210.135 131.638L240.731 138.988C243.455 139.641 245.139 142.39 244.485 145.114Z" fill="#DAF0D6"/>
<path d="M121.885 91.08C103.613 102.273 97.8542 126.244 109.047 144.517C120.241 162.79 144.212 168.549 162.484 157.356C180.756 146.163 186.516 122.191 175.323 103.919C164.129 85.6467 140.157 79.8873 121.885 91.08ZM160.31 153.806C143.995 163.8 122.59 158.658 112.596 142.342C102.602 126.027 107.744 104.622 124.059 94.6284C140.374 84.6344 161.779 89.7765 171.773 106.092C181.767 122.408 176.625 143.812 160.31 153.806Z" fill="#DAF0D6"/>
<path d="M188.659 140.61C187.655 140.368 186.624 140.9 186.241 141.861C182.427 151.407 175.764 159.299 166.972 164.685C144.658 178.354 115.384 171.321 101.715 149.008C88.0463 126.693 95.0795 97.4199 117.394 83.7509C139.708 70.0819 168.981 77.1151 182.65 99.4294C188.036 108.221 190.386 118.279 189.447 128.517C189.353 129.546 190.028 130.488 191.033 130.73L195.485 131.801C196.603 132.069 197.726 131.381 197.994 130.264C198.264 129.147 197.575 128.023 196.457 127.754L193.726 127.098C194.328 116.584 191.741 106.303 186.2 97.2561C171.333 72.9856 139.491 65.3348 115.22 80.2026C92.8242 93.9215 84.5965 122.09 95.1381 145.43L71.8961 159.668C70.9159 160.268 70.6081 161.549 71.2086 162.529C71.8091 163.509 73.0899 163.817 74.0701 163.217L97.0033 149.169C97.3773 149.844 97.7599 150.517 98.1673 151.182C99.9613 154.111 102.008 156.792 104.254 159.226L80.5283 173.759C79.548 174.36 79.2403 175.641 79.8408 176.621C80.4413 177.601 81.7221 177.909 82.7023 177.308L107.292 162.246C110.655 165.328 114.369 167.922 118.335 169.979L89.16 187.851C88.1798 188.451 87.8721 189.732 88.4725 190.712C89.073 191.692 90.3538 192 91.3341 191.4L122.889 172.07C128.487 174.32 134.452 175.576 140.494 175.784L97.7918 201.942C96.8116 202.542 96.5038 203.823 97.1043 204.803C97.7048 205.783 98.9856 206.091 99.9658 205.491L147.574 176.327C147.93 176.109 148.195 175.8 148.362 175.45C155.52 174.598 162.608 172.241 169.147 168.235C178.194 162.693 185.169 154.71 189.409 145.071L192.14 145.726C193.259 145.995 194.382 145.307 194.649 144.189C194.919 143.072 194.23 141.948 193.112 141.68L188.659 140.61Z" fill="#DAF0D6"/>
<path d="M141.416 122.966C138.975 124.461 138.205 127.665 139.701 130.107C140.81 131.917 142.858 132.806 144.837 132.535L147.398 136.714C147.998 137.695 149.279 138.002 150.259 137.402C151.239 136.802 151.547 135.521 150.947 134.54L148.387 130.361C149.527 128.72 149.665 126.492 148.557 124.682C147.061 122.24 143.857 121.471 141.416 122.966ZM143.59 126.515C144.075 126.218 144.711 126.371 145.008 126.856C145.305 127.341 145.151 127.977 144.667 128.273C144.182 128.57 143.547 128.417 143.25 127.933C142.952 127.448 143.105 126.812 143.59 126.515Z" fill="#EBF1D0"/>
<path d="M148.274 110.375L146.489 111.469L143.058 105.868C140.082 101.01 133.709 99.4791 128.851 102.455C123.993 105.431 122.462 111.804 125.438 116.662L128.868 122.262L127.082 123.356C126.102 123.957 125.794 125.238 126.395 126.218L140.415 149.106C141.016 150.086 142.296 150.394 143.277 149.793L164.469 136.811C165.449 136.211 165.757 134.93 165.156 133.95L151.136 111.062C150.536 110.082 149.255 109.774 148.274 110.375ZM128.987 114.487C127.21 111.586 128.125 107.781 131.026 106.004C133.927 104.226 137.733 105.141 139.51 108.042L142.94 113.642L132.418 120.088L128.987 114.487ZM160.52 134.349L142.877 145.157L131.031 125.818L148.674 115.011L160.52 134.349Z" fill="#EBF1D0"/>
</g>
<defs>
<clipPath id="clip0_8142_39977">
<rect width="213.093" height="213.093" fill="white" transform="translate(0 111.31) rotate(-31.4903)"/>
</clipPath>
</defs>
</svg>
