<svg width="103" height="89" viewBox="0 0 103 89" fill="none" xmlns="http://www.w3.org/2000/svg">
<path d="M13.5977 43.535C13.5977 43.535 26.8813 57.0739 61.6559 63.8868L13.5977 43.535Z" fill="#DAF0D6"/>
<path d="M13.5977 43.535C13.5977 43.535 26.8813 57.0739 61.6559 63.8868" stroke="#DAF0D6" stroke-width="1.8347" stroke-miterlimit="10" stroke-linecap="round"/>
<path d="M39.9263 58.8459C39.9263 58.8459 39.5176 66.8977 48.0565 74.0924C56.4368 81.3293 72.9039 79.9947 86.0894 65.674C86.0894 65.674 77.753 52.8484 65.5309 47.1395C53.3508 41.5886 40.1015 51.1941 39.9263 58.8459Z" fill="#DAF0D6" stroke="#DAF0D6" stroke-width="1.1974" stroke-miterlimit="10" stroke-linecap="round"/>
<path d="M41.1113 58.1929C52.321 62.6497 64.1983 66.4221 82.7887 66.0443L41.1113 58.1929Z" fill="#DAF0D6"/>
<path d="M41.1113 58.1929C52.321 62.6497 64.1983 66.4221 82.7887 66.0443" stroke="white" stroke-width="1.1974" stroke-miterlimit="10" stroke-linecap="round"/>
<path d="M59.5837 49.0578L48.9101 60.6829L55.6449 75.7933" fill="#DAF0D6"/>
<path d="M59.5837 49.0578L48.9101 60.6829L55.6449 75.7933" stroke="white" stroke-width="1.1974" stroke-miterlimit="10" stroke-linecap="round"/>
<path d="M72.0903 55.1983L63.8119 64.3277L69.1622 74.229" fill="#DAF0D6"/>
<path d="M72.0903 55.1983L63.8119 64.3277L69.1622 74.229" stroke="white" stroke-width="1.1974" stroke-miterlimit="10" stroke-linecap="round"/>
<path d="M5.94531 54.4733C5.94531 54.4733 13.1267 36.9181 42.747 17.4676L5.94531 54.4733Z" fill="#DAF0D6"/>
<path d="M5.94531 54.4733C5.94531 54.4733 13.1267 36.9181 42.747 17.4676" stroke="#DAF0D6" stroke-width="1.8347" stroke-miterlimit="10" stroke-linecap="round"/>
<path d="M24.5352 30.3468C24.5352 30.3468 21.1136 23.0467 26.3 13.1583C31.3235 3.2909 47.0735 -1.6972 64.6935 6.57786C64.6935 6.57786 61.8228 21.6029 52.665 31.5076C43.4863 41.2503 27.5893 37.3647 24.5352 30.3468Z" fill="#DAF0D6" stroke="#DAF0D6" stroke-width="1.1974" stroke-miterlimit="10" stroke-linecap="round"/>
<path d="M25.8789 30.5038C34.5726 22.1408 44.1432 14.1593 61.4975 7.48292L25.8789 30.5038Z" fill="#DAF0D6"/>
<path d="M25.8789 30.5038C34.5726 22.1408 44.1432 14.1593 61.4975 7.48292" stroke="white" stroke-width="1.1974" stroke-miterlimit="10" stroke-linecap="round"/>
<path d="M46.4332 31.9791L32.1577 25.2504L32.682 8.71537" fill="#DAF0D6"/>
<path d="M46.4332 31.9791L32.1577 25.2504L32.682 8.71537" stroke="white" stroke-width="1.1974" stroke-miterlimit="10" stroke-linecap="round"/>
<path d="M55.6929 21.5675L44.5781 16.2441L45.7893 5.05509" fill="#DAF0D6"/>
<path d="M55.6929 21.5675L44.5781 16.2441L45.7893 5.05509" stroke="white" stroke-width="1.1974" stroke-miterlimit="10" stroke-linecap="round"/>
<path d="M85.1531 30.5141C85.1531 30.5141 99.873 31.5373 96.4678 40.5927C92.8103 49.6174 72.0921 45.305 58.2687 39.0162C58.2687 39.0162 64.2239 19.5216 70.25 12.0648C76.3068 4.35572 88.3445 4.28474 79.1961 20.5755C79.1961 20.5755 88.5382 15.3137 91.3565 19.4957C95.0303 25.0615 85.1531 30.5141 85.1531 30.5141Z" stroke="#DAF0D6" stroke-width="1.1893" stroke-miterlimit="10" stroke-linejoin="round"/>
<path d="M80.5078 45.5607C80.5078 45.5607 76.6912 34.8587 68.59 34.129C68.59 34.129 72.3462 26.3959 67.7422 15.8541C67.7422 15.8541 62.2273 25.4207 58.6139 38.2899C58.8661 38.3206 70.4196 44.3332 80.5078 45.5607Z" fill="#DAF0D6"/>
<path d="M97.8039 25.401C96.26 25.4691 94.8455 26.5767 94.9136 28.1206C94.9817 29.6645 96.0893 31.079 97.6332 31.0109C99.1771 30.9428 100.592 29.8352 100.523 28.2913C100.708 26.7781 99.3172 25.5851 97.8039 25.401Z" fill="#DAF0D6"/>
<path d="M98.2433 15.4714C96.6994 15.5395 95.2849 16.6471 95.353 18.191C95.4211 19.735 96.5287 21.1494 98.0726 21.0813C99.6165 21.0133 101.031 19.9056 100.963 18.3617C101.147 16.8485 99.7565 15.6555 98.2433 15.4714Z" fill="#DAF0D6"/>
<path d="M90.3761 8.62702C88.8322 8.6951 87.4177 9.80265 87.4858 11.3466C87.5539 12.8905 88.6615 14.3049 90.2054 14.2369C91.7494 14.1688 93.1638 13.0612 93.0957 11.5173C93.2798 10.0041 92.1722 8.58962 90.3761 8.62702Z" fill="#DAF0D6"/>
</svg>
