<svg width="442" height="317" viewBox="0 0 410 317" fill="none" xmlns="http://www.w3.org/2000/svg">
<path d="M423.115 117.665C232.571 107.36 94.2319 242.797 92.9267 244.058L96.0145 247.165C97.3197 245.904 234.354 111.728 422.956 121.734L423.115 117.665Z" fill="#518C47"/>
<path d="M210.821 164.638C158.779 167.317 141.946 158.174 141.634 158.302L139.533 162.071C140.411 162.44 157.372 171.895 210.917 169.33L210.821 164.638Z" fill="#518C47"/>
<path d="M284.414 138.97L282.262 135.481C224.509 171.427 210.801 206.501 210.247 207.819L214.2 209.481C214.385 209.041 228.093 173.967 284.414 138.97Z" fill="#518C47"/>
<path d="M383.703 119.189C339.174 122.441 309.027 151.123 307.722 152.383L310.81 155.49C311.122 155.363 349.31 122.308 397.226 120.22L383.703 119.189Z" fill="#518C47"/>
<path d="M305.558 129.249C284.166 130.337 272.139 119.596 272.139 119.596L269.344 122.557C269.911 123.054 282.32 134.73 305.838 133.502L305.558 129.249Z" fill="#518C47"/>
<path d="M74.2176 271.343C74.2176 271.343 74.6373 295.556 89.0135 293.328C103.517 291.412 105.568 244.718 102.455 237.982C102.455 237.982 86.678 236.778 63.0954 246.767C39.4555 257.508 40.8684 280.587 74.2176 271.343Z" fill="#6CC25E"/>
<path d="M100.943 146.89C100.943 146.89 74.5524 158.025 82.918 173.172C91.5956 188.191 144.032 170.429 150.119 163.941C150.119 163.941 144.549 145.834 123.061 124.397C101.319 102.336 76.2468 114.025 100.943 146.89Z" fill="#6CC25E"/>
<path d="M201.701 238.603C201.701 238.603 209.792 259.32 221.45 253.107C233.108 246.893 220.68 205.744 215.893 201.148C215.893 201.148 201.841 205.063 184.746 221.139C167.339 237.342 175.985 256.741 201.701 238.603Z" fill="#6CC25E"/>
<path d="M243.532 100.335C243.532 100.335 221.331 102.117 224.113 115.175C226.895 128.234 269.692 127.872 275.55 124.389C275.55 124.389 275.76 109.746 264.975 88.6715C254.63 67.782 233.435 70.2455 243.532 100.335Z" fill="#6CC25E"/>
<path d="M288.415 183.557C288.415 183.557 289.758 205.574 303.071 203.416C316.257 200.945 316.646 158.206 313.476 152.221C313.476 152.221 299.017 151.571 277.688 161.732C256.047 172.02 258.071 193.03 288.415 183.557Z" fill="#6CC25E"/>
<path d="M147.832 203.815C147.832 203.815 131.877 212.875 127.821 232.363C123.765 251.852 145.24 253.641 149.983 242.971C154.415 232.428 139.918 226.334 136.11 236.623" stroke="#6CC25E" stroke-width="1.3927" stroke-miterlimit="10" stroke-linecap="round"/>
<path d="M194.942 166.756C194.942 166.756 176.727 165.82 163.783 149.266C150.84 132.713 169.336 120.069 178.402 128.014C187.468 135.96 177.548 149.107 169.106 140.907" stroke="#6CC25E" stroke-width="1.4466" stroke-miterlimit="10" stroke-linecap="round"/>
<path d="M339.81 124.007C339.81 124.007 321.69 127.763 305.27 115.175C288.723 102.276 302.998 85.5316 314.05 91.2109C324.664 96.7056 318.513 111.954 308.212 106.332" stroke="#6CC25E" stroke-width="1.4466" stroke-miterlimit="10" stroke-linecap="round"/>
</svg>
