<svg width="150" height="150" viewBox="0 0 150 150" fill="none" xmlns="http://www.w3.org/2000/svg">
<mask id="mask0_7350_42164" style="mask-type:alpha" maskUnits="userSpaceOnUse" x="0" y="0" width="150" height="150">
<circle cx="75" cy="75" r="75" fill="#D9D9D9"/>
</mask>
<g mask="url(#mask0_7350_42164)">
<path d="M71.7419 69.4348C71.7419 69.4348 74.7462 53.4491 66.3074 34.3439C57.7952 15.4366 41.3915 12.9524 53.0655 39.1075C64.5927 65.6581 71.7419 69.4348 71.7419 69.4348Z" fill="#97CF8E"/>
<path d="M77.3398 81.6387C77.3398 81.6387 74.3356 97.6245 82.7745 116.73C91.2867 135.637 107.69 138.121 96.0164 111.966C84.4157 85.6132 77.3398 81.6387 77.3398 81.6387Z" fill="#97CF8E"/>
<path d="M80.6408 72.739C80.6408 72.739 96.6266 75.7433 115.732 67.3045C134.639 58.7923 137.123 42.3886 110.968 54.0626C84.5419 65.861 80.6408 72.739 80.6408 72.739Z" fill="#6CC25E"/>
<path d="M68.4389 78.3374C68.4389 78.3374 52.4531 75.3332 33.348 83.772C14.4407 92.2842 11.9565 108.688 38.1115 97.0139C64.4644 85.4133 68.4389 78.3374 68.4389 78.3374Z" fill="#6CC25E"/>
<path d="M69.1273 71.6207C69.1273 71.6207 64.3062 56.1075 47.9147 43.2778C31.4499 30.6458 15.9144 36.1336 38.4215 53.7067C61.1264 71.3532 69.1273 71.6207 69.1273 71.6207Z" fill="#6CC25E"/>
<path d="M79.8762 79.6532C79.8762 79.6532 84.6972 95.1665 101.089 107.996C117.553 120.628 133.089 115.14 110.582 97.5673C87.9503 79.723 79.8762 79.6532 79.8762 79.6532Z" fill="#6CC25E"/>
<path d="M78.4598 70.1308C78.4598 70.1308 93.9731 65.3098 106.803 48.9184C119.435 32.4536 113.947 16.918 96.3739 39.4251C78.7274 62.13 78.4598 70.1308 78.4598 70.1308Z" fill="#97CF8E"/>
<path d="M70.4216 80.8748C70.4216 80.8748 54.9083 85.6959 42.0786 102.087C29.4466 118.552 34.9344 134.088 52.5075 111.58C70.3518 88.9489 70.4216 80.8748 70.4216 80.8748Z" fill="#97CF8E"/>
<path d="M67.8815 74.9815C67.8815 74.9815 55.6947 64.1613 35.0195 61.6677C14.3442 59.1742 3.89735 72.1744 32.3533 75.5289C60.8092 78.8834 67.8815 74.9815 67.8815 74.9815Z" fill="#97CF8E"/>
<path d="M81.1267 76.2906C81.1267 76.2906 93.3134 87.1108 113.989 89.6044C134.664 92.098 145.111 79.0977 116.655 75.7432C88.0011 72.3154 81.1267 76.2906 81.1267 76.2906Z" fill="#97CF8E"/>
<path d="M75.0967 68.8822C75.0967 68.8822 85.9169 56.6954 88.4105 36.0202C90.9041 15.345 77.9039 4.89807 74.5494 33.354C71.1215 62.0077 75.0967 68.8822 75.0967 68.8822Z" fill="#6CC25E"/>
<path d="M73.7867 82.122C73.7867 82.122 62.9665 94.3088 60.4729 114.984C57.9794 135.659 70.9796 146.106 74.3341 117.65C77.8864 89.2676 73.7867 82.122 73.7867 82.122Z" fill="#6CC25E"/>
<path d="M73.2354 80.5681C76.3489 81.273 79.2806 79.4353 79.9854 76.3217C80.6903 73.2082 78.8526 70.2765 75.739 69.5717C72.6255 68.8668 69.6938 70.7045 68.989 73.8181C68.2841 76.9317 70.3196 79.9366 73.2354 80.5681Z" fill="#518C47"/>
</g>
</svg>
