<svg width="380" height="400" viewBox="0 0 360 400" fill="none" xmlns="http://www.w3.org/2000/svg">
<path d="M104.686 185.502C104.686 185.502 239.357 183.171 368.49 271.77" stroke="#518C47" stroke-width="2.2329" stroke-miterlimit="10"/>
<path d="M49.6617 163.626C49.6617 163.626 25.0565 149.428 20.0315 173.832C15.4672 196.269 44.9119 193.349 44.9119 193.349C44.9119 193.349 21.5793 218.58 48.5357 232.775C75.4921 246.971 81.3556 213.085 81.3556 213.085C81.3556 213.085 100.312 244.904 120.677 219.945C140.08 196.144 104.03 185.35 104.03 185.35C104.03 185.35 137.822 173.907 123.811 154.032C109.568 133.965 93.0093 149.168 87.1201 157.191C87.1201 157.191 87.2088 130.248 65.3951 132.467C42.1171 135.034 49.6617 163.626 49.6617 163.626Z" fill="#6CC25E"/>
<path d="M69.4576 185.962C69.3383 182.339 66.5219 179.605 62.8989 179.724C59.2759 179.843 56.5421 182.66 56.6613 186.283C56.7806 189.906 59.597 192.64 63.22 192.521C66.4191 192.44 69.3454 189.392 69.4576 185.962Z" fill="#518C47"/>
<path d="M88.2545 174.187C88.1352 170.564 85.3188 167.83 81.6958 167.949C78.0728 168.069 75.3389 170.885 75.4582 174.508C75.5774 178.131 78.3938 180.865 82.0169 180.746C85.4084 180.434 88.1423 177.617 88.2545 174.187Z" fill="#518C47"/>
<path d="M96.2419 184.356C96.2396 182.005 94.349 180.041 91.9978 180.043C89.6466 180.046 87.6828 181.936 87.6851 184.288C87.6875 186.639 89.5781 188.603 91.9293 188.6C94.5119 188.79 96.2443 186.707 96.2419 184.356Z" fill="#518C47"/>
<path d="M93.7522 196.767C93.7109 193.992 91.3574 191.643 88.3508 191.492C85.5756 191.534 83.2269 193.887 83.0757 196.894C83.117 199.669 85.4705 202.018 88.4771 202.169C91.6762 202.089 94.025 199.735 93.7522 196.767Z" fill="#518C47"/>
<path d="M82.4119 189.687C82.4095 187.336 80.5189 185.372 78.1677 185.374C75.8165 185.376 73.8527 187.267 73.8551 189.618C73.8574 191.969 75.748 193.933 78.0992 193.931C80.4504 193.929 82.4142 192.038 82.4119 189.687Z" fill="#518C47"/>
<path d="M72.3357 173.085C72.3333 170.733 70.4427 168.77 68.0915 168.772C65.7404 168.774 63.7765 170.665 63.7789 173.016C63.7812 175.367 65.6718 177.331 68.023 177.329C70.3742 177.326 72.338 175.436 72.3357 173.085Z" fill="#518C47"/>
<path d="M74.6755 200.872C74.6732 198.521 72.7826 196.557 70.4314 196.559C68.0802 196.561 66.1164 198.452 66.1187 200.803C66.1211 203.154 68.0117 205.118 70.3629 205.116C72.9065 204.882 74.6779 203.223 74.6755 200.872Z" fill="#518C47"/>
<path d="M181.208 194.713C181.208 194.713 135.978 177.066 141.56 130.808C146.415 90.6017 190.773 84.8144 209.141 105.571C229.399 128.292 206.889 167.128 180.937 154.55C154.56 142.011 170.028 114.938 183.212 116.505C183.212 116.505 170.035 121.992 172.244 134.401C174.685 147.002 188.797 151.69 197.115 144.513C205.434 137.335 212.395 122.373 198.432 112.327C184.662 102.05 152.408 109.29 152.553 138.776C152.505 168.493 168.473 179.424 188.725 195.091L181.208 194.713Z" fill="#6CC25E"/>
<path d="M303.201 235.873C303.201 235.873 259.933 213.984 269.639 168.416C278.195 128.938 322.943 127.39 339.308 149.614C357.37 174.033 331.467 210.829 306.36 195.822C281.253 180.815 299.228 155.435 312.297 158.082C312.297 158.082 298.579 162.335 299.748 175.054C300.917 187.772 314.722 193.771 323.542 187.403C332.362 181.034 340.674 166.803 327.866 155.368C315.058 143.933 282.531 148.206 279.669 177.541C277.039 207.068 291.852 219.387 310.564 236.906L303.201 235.873Z" fill="#6CC25E"/>
<path d="M242.506 208.103C242.506 208.103 196.47 193.31 171.416 232.38C149.558 266.667 180.541 299.09 207.941 294.862C238.078 290.168 245.318 245.681 216.905 238.887C188.491 232.093 183.395 262.702 194.734 269.783C194.734 269.783 188.015 257.147 197.527 249.005C207.463 240.823 221.19 245.975 223.051 256.919C224.912 267.864 220.804 283.633 203.844 282.84C186.883 282.047 166.545 256.128 185.177 233.252C203.81 210.377 223.199 212.015 248.909 212.645L242.506 208.103Z" fill="#6CC25E"/>
</svg>

