<svg width="54" height="55" viewBox="0 0 54 55" fill="none" xmlns="http://www.w3.org/2000/svg">
<path d="M20.3352 31.2778C20.3352 31.2778 0.264089 26.9587 1.53442 40.4242C2.80474 53.8896 32.2763 56.1762 52.6016 53.1274C52.6016 53.1274 52.3475 25.1802 47.2662 12.731C42.1849 0.281783 26.4328 -4.79951 32.0223 20.607C32.0223 20.607 21.6056 10.1904 16.5243 14.5095C9.41043 20.607 20.3352 31.2778 20.3352 31.2778Z" stroke="#97CF8E" stroke-width="1.1893" stroke-miterlimit="10" stroke-linejoin="round"/>
<path d="M20.8438 53.1269C20.8438 53.1269 31.2604 40.6777 41.9311 42.7102C41.9311 42.7102 38.8824 30.7692 48.7909 18.8281C48.7909 18.8281 52.6019 33.5639 52.0938 51.8566C52.0938 51.8566 34.5633 55.6676 20.8438 53.1269Z" fill="#97CF8E"/>
<path d="M8.39558 23.4018C8.14152 25.4344 6.36312 26.9587 4.3306 26.7047C2.29808 26.4506 0.773637 24.6722 1.0277 22.6397C1.28177 20.6072 3.06024 19.0827 5.09276 19.3368C7.12529 19.5908 8.64965 21.1153 8.39558 23.4018Z" fill="#6CC25E"/>
<path d="M13.2238 8.66601C12.9697 10.6985 11.1912 12.2229 9.15872 11.9688C7.1262 11.7148 5.60176 9.93629 5.85583 7.90376C6.10989 5.87124 7.88837 4.34688 9.92089 4.60095C11.9534 4.85501 13.4778 6.63348 13.2238 8.66601Z" fill="#6CC25E"/>
<path d="M25.6749 4.09276C25.4208 6.12529 23.6423 7.64972 21.6098 7.39566C19.5773 7.14159 18.0529 5.36312 18.307 3.3306C18.5611 1.29808 20.3395 -0.226363 22.372 0.0277022C24.4045 0.281768 25.9289 2.06024 25.6749 4.09276Z" fill="#6CC25E"/>
</svg>
