<svg width="42" height="43" viewBox="0 0 42 43" fill="none" xmlns="http://www.w3.org/2000/svg">
<path d="M1.34985 19.0634L1.45952 25.3459L6.49832 25.9911C6.83621 27.3468 7.48821 28.6971 8.24311 29.9408L5.27784 34.0774L9.75236 38.3984L13.783 35.2906C15.0523 36.0016 16.4226 36.5014 17.7912 36.8965L18.8231 42.0107L25.1056 41.9011L25.7508 36.8623C27.1065 36.5244 28.4568 35.8724 29.7005 35.1175L33.8371 38.0827L38.2628 33.6064L35.155 29.5758C35.866 28.3065 36.3658 26.9361 36.7609 25.5676L41.7741 24.7469L41.6644 18.4644L36.6256 17.8192C36.2878 16.4635 35.6357 15.1132 34.8809 13.8695L37.8425 9.52346L33.3679 5.20246L29.3373 8.31029C28.068 7.59926 26.6977 7.09948 25.3292 6.7044L24.5085 1.69119L18.226 1.80085L17.5807 6.83965C16.225 7.17754 14.8748 7.82955 13.631 8.58444L9.49441 5.61917L5.17342 10.0937L8.28124 14.1243C7.57022 15.3936 7.07044 16.764 6.67536 18.1325L1.34985 19.0634ZM21.4453 12.2187C26.7854 12.1255 31.1534 16.3436 31.2466 21.6837C31.3398 27.0239 27.1217 31.3918 21.7816 31.4851C16.4414 31.5783 12.0735 27.3602 11.9802 22.02C11.887 16.6799 16.1051 12.3119 21.4453 12.2187Z" fill="url(#paint0_linear_1_3)"/>
<path d="M0.160401 17.6288L0.270063 23.9113L5.30887 24.5565C5.64675 25.9123 6.29876 27.2625 7.05365 28.5062L4.08839 32.6428L8.5629 36.9638L12.5935 33.856C13.8628 34.567 15.2332 35.0668 16.6017 35.4619L17.6336 40.5762L23.9161 40.4665L24.5614 35.4277C25.9171 35.0898 27.2673 34.4378 28.511 33.6829L32.6477 36.6482L37.0734 32.1718L33.9656 28.1412C34.6766 26.8719 35.1764 25.5016 35.5714 24.133L40.5846 23.3123L40.475 17.0298L35.4362 16.3846C35.0983 15.0289 34.4463 13.6786 33.6914 12.4349L36.653 8.08888L32.1785 3.76789L28.1479 6.87572C26.8786 6.16469 25.5082 5.66491 24.1397 5.26983L23.319 0.256621L17.0365 0.366282L16.3913 5.40508C15.0355 5.74297 13.6853 6.39498 12.4416 7.14987L8.30496 4.1846L3.98397 8.65913L7.09179 12.6897C6.38077 13.959 5.88098 15.3294 5.48591 16.6979L0.160401 17.6288ZM20.2558 10.7841C25.596 10.6909 29.9639 14.909 30.0571 20.2492C30.1504 25.5893 25.9322 29.9573 20.5921 30.0505C15.252 30.1437 10.884 25.9256 10.7908 20.5855C10.6976 15.2453 14.9157 10.8773 20.2558 10.7841Z" fill="url(#paint0_linear_8252_40206)"/>
<defs>
<linearGradient id="paint0_linear_1_3" x1="41.7174" y1="21.5009" x2="1.40468" y2="22.2045" gradientUnits="userSpaceOnUse">
<stop stop-color="#52A845"/>
<stop offset="0.593" stop-color="#3F8F32"/>
<stop offset="1" stop-color="#28661E"/>
</linearGradient>
<linearGradient id="paint0_linear_8252_40206" x1="41.8387" y1="20.0435" x2="5.48288" y2="20.6781" gradientUnits="userSpaceOnUse">
<stop stop-color="#01D0FB"/>
<stop offset="0.6075" stop-color="#26A6FE"/>
<stop offset="1" stop-color="#0182FC"/>
</linearGradient>
</defs>
</svg>

