<svg width="24" height="24" viewBox="0 0 24 24" fill="none" xmlns="http://www.w3.org/2000/svg">
<g id="Icons" clip-path="url(#clip0_1576_16436)">
<path id="Vector" d="M23.5953 6.58228L21.6677 5.51067C22.1802 3.96178 21.5545 2.20959 20.0873 1.36252C18.4548 0.419953 16.3728 0.940219 15.368 2.51344C14.9354 1.06181 13.589 0 11.9987 0C10.4095 0 9.06386 1.06022 8.63027 2.5103C8.15688 1.76991 7.43486 1.24027 6.58047 1.01133C4.70373 0.508453 2.77764 1.62023 2.27472 3.49725C2.09449 4.17005 2.11699 4.86492 2.332 5.51086L0.404829 6.58228C-0.00781162 6.80489 -0.0881553 7.24538 0.0936728 7.56628C0.437501 8.17313 1.07458 7.81683 1.07927 7.81631C1.42384 7.63519 1.92578 7.76484 2.11122 8.08594L2.31419 8.4375H2.15495C1.71222 8.4375 1.37838 8.84292 1.46552 9.27853C2.3538 13.7203 5.6058 17.1466 9.57541 19.2566L7.19097 22.9128C6.88684 23.3791 7.22139 24 7.77991 24H16.2174C16.7742 24 17.1114 23.3805 16.8063 22.9128L14.422 19.2567C18.3693 17.1598 21.6373 13.751 22.5319 9.27853C22.6187 8.84428 22.2865 8.4375 21.8424 8.4375H21.6858L21.8888 8.08594C22.0744 7.76442 22.5766 7.63538 22.9208 7.81631C22.9255 7.81683 23.5627 8.1728 23.9064 7.56628C24.0862 7.24898 24.0119 6.80691 23.5953 6.58228ZM17.6237 2.8125H16.9493C17.61 2.2417 18.5864 2.11978 19.3841 2.58037C20.1994 3.05109 20.5816 3.9877 20.3892 4.86173C19.2706 4.44211 18.035 4.4453 16.9236 4.86094C16.9547 4.50173 17.2565 4.21875 17.6237 4.21875C18.012 4.21875 18.3268 3.90394 18.3268 3.51562C18.3268 3.12731 18.012 2.8125 17.6237 2.8125ZM14.8112 4.21875H15.6348C15.5568 4.43873 15.5143 4.67545 15.5143 4.92188V6.32812C15.5143 7.24477 14.9264 8.02631 14.108 8.31656V7.73438C14.108 6.58655 13.713 5.52923 13.0518 4.6912C13.5828 4.38403 14.1879 4.21875 14.8112 4.21875ZM11.9987 1.40625C12.94 1.40625 13.7391 2.02622 14.0097 2.8792C13.2867 2.99822 12.5999 3.27689 11.9977 3.69698C11.4086 3.28547 10.7257 2.99958 9.98795 2.87817C10.2588 2.0257 11.0577 1.40625 11.9987 1.40625ZM9.18616 4.21875C11.1247 4.21875 12.7018 5.79586 12.7018 7.73438V8.4375H10.5924C9.4293 8.4375 8.48303 7.49123 8.48303 6.32812V4.92188C8.48303 4.67541 8.44014 4.43883 8.36209 4.21875H9.18616ZM3.63306 3.86119C3.9348 2.73511 5.09031 2.06789 6.21653 2.36962C6.53027 2.45372 6.81405 2.60564 7.05236 2.81245H6.3737C5.98539 2.81245 5.67058 3.12727 5.67058 3.51558C5.67058 3.90389 5.98539 4.2187 6.3737 4.2187C6.7405 4.2187 7.04219 4.50117 7.07369 4.85995C5.9628 4.4453 4.72792 4.44263 3.61024 4.86197C3.53767 4.53525 3.54395 4.19377 3.63306 3.86119ZM2.85508 6.82903C3.28 6.69033 4.90938 5.18227 7.07884 6.4088C7.09609 7.1685 7.35456 7.86961 7.78183 8.4375H3.93799C3.39784 7.55794 3.31778 7.20713 2.85508 6.82903ZM14.9194 22.5938H12.7018V21.8906C12.7018 21.5023 12.387 21.1875 11.9987 21.1875C11.6103 21.1875 11.2955 21.5023 11.2955 21.8906V22.5938H9.07792L10.9733 19.6875H13.024L14.9194 22.5938ZM13.2417 18.2812H10.7555C8.79981 17.3183 4.42164 14.6737 3.04759 9.83906H20.9497C19.5754 14.6745 15.1949 17.3194 13.2417 18.2812ZM20.0621 8.4375H16.2155C16.6425 7.87003 16.9009 7.16948 16.9185 6.41039C19.0886 5.18077 20.7261 6.69239 21.145 6.82903C20.686 7.20398 20.6128 7.54073 20.0621 8.4375Z" fill="#6CC25E"/>
</g>
<defs>
<clipPath id="clip0_1576_16436">
<rect width="24" height="24" fill="white"/>
</clipPath>
</defs>
</svg>
