<svg width="271" height="270" viewBox="0 0 271 270" fill="none" xmlns="http://www.w3.org/2000/svg">
<g opacity="0.16">
<path d="M208.625 101.25H174.144L151.644 56.5312C150.911 55.3143 149.746 54.4194 148.381 54.0262C147.016 53.633 145.553 53.7707 144.286 54.4115C143.018 55.0524 142.04 56.149 141.548 57.4812C141.055 58.8134 141.085 60.2826 141.631 61.5937L161.544 101.25H109.456L129.256 61.875C129.655 61.2122 129.913 60.4743 130.014 59.7074C130.114 58.9404 130.056 58.161 129.842 57.4177C129.628 56.6744 129.262 55.9833 128.769 55.3875C128.276 54.7917 127.665 54.3041 126.975 53.955C126.284 53.606 125.529 53.4031 124.757 53.359C123.985 53.3149 123.212 53.4306 122.486 53.6987C121.761 53.9669 121.098 54.3818 120.54 54.9176C119.983 55.4533 119.541 56.0984 119.244 56.8125L96.7438 101.812H62.375C57.8995 101.812 53.6072 103.59 50.4426 106.755C47.2779 109.92 45.5 114.212 45.5 118.687V121.219C45.6454 124.925 47.2206 128.43 49.895 131C52.5694 133.569 56.135 135.003 59.8438 135L79.8687 198.056C81.3133 202.608 84.1685 206.582 88.0213 209.403C91.8741 212.225 96.5247 213.747 101.3 213.75H169.7C174.475 213.747 179.126 212.225 182.979 209.403C186.831 206.582 189.687 202.608 191.131 198.056L211.156 135C214.96 135 218.609 133.489 221.299 130.799C223.989 128.109 225.5 124.46 225.5 120.656V118.125C225.5 113.649 223.722 109.357 220.557 106.193C217.393 103.028 213.101 101.25 208.625 101.25ZM214.25 120.656C214.258 121.065 214.183 121.47 214.03 121.849C213.877 122.228 213.65 122.572 213.361 122.861C213.072 123.15 212.728 123.377 212.349 123.53C211.97 123.683 211.565 123.758 211.156 123.75C208.777 123.756 206.461 124.515 204.54 125.92C202.62 127.325 201.194 129.303 200.469 131.569L180.5 194.681C179.768 196.966 178.326 198.956 176.383 200.363C174.44 201.77 172.099 202.518 169.7 202.5H101.3C98.9014 202.518 96.5598 201.77 94.6169 200.363C92.674 198.956 91.2315 196.966 90.5 194.681L70.5312 131.569C69.8055 129.303 68.3801 127.325 66.4598 125.92C64.5394 124.515 62.2231 123.756 59.8438 123.75C59.4354 123.758 59.0297 123.683 58.6508 123.53C58.272 123.377 57.9279 123.15 57.6391 122.861C57.3503 122.572 57.1227 122.228 56.9699 121.849C56.8172 121.47 56.7424 121.065 56.75 120.656V118.125C56.75 116.633 57.3426 115.202 58.3975 114.148C59.4524 113.093 60.8832 112.5 62.375 112.5H91.2312L86.9562 121.05C85.7437 122.447 85.0312 124.209 84.9313 126.056C84.9528 126.149 84.9528 126.245 84.9313 126.337C84.9333 127.704 85.2671 129.049 85.9041 130.258C86.5411 131.467 87.4622 132.503 88.5882 133.278C89.7141 134.052 91.0113 134.541 92.3681 134.703C93.7249 134.865 95.1008 134.695 96.3775 134.208C97.6541 133.721 98.7933 132.931 99.6971 131.906C100.601 130.881 101.242 129.652 101.566 128.324C101.89 126.997 101.886 125.61 101.556 124.284C101.225 122.959 100.578 121.733 99.6687 120.712L103.831 112.5H167.169L171.387 120.994C170.479 122.014 169.831 123.24 169.5 124.566C169.17 125.892 169.167 127.278 169.49 128.605C169.814 129.933 170.455 131.162 171.359 132.187C172.263 133.212 173.402 134.002 174.679 134.489C175.955 134.976 177.331 135.146 178.688 134.984C180.045 134.822 181.342 134.333 182.468 133.559C183.594 132.785 184.515 131.749 185.152 130.54C185.789 129.331 186.123 127.985 186.125 126.619C186.103 126.526 186.103 126.43 186.125 126.337C186.025 124.49 185.313 122.729 184.1 121.331L179.769 112.5H208.625C210.117 112.5 211.548 113.093 212.602 114.148C213.657 115.202 214.25 116.633 214.25 118.125V120.656Z" fill="#6CC25E"/>
<path d="M135.5 140.625C134.008 140.625 132.577 141.218 131.523 142.273C130.468 143.327 129.875 144.758 129.875 146.25V180C129.875 181.492 130.468 182.923 131.523 183.977C132.577 185.032 134.008 185.625 135.5 185.625C136.992 185.625 138.423 185.032 139.477 183.977C140.532 182.923 141.125 181.492 141.125 180V146.25C141.125 144.758 140.532 143.327 139.477 142.273C138.423 141.218 136.992 140.625 135.5 140.625Z" fill="#6CC25E"/>
<path d="M107.375 144.45C106.898 143.033 105.877 141.863 104.537 141.199C103.197 140.534 101.648 140.429 100.231 140.906C98.814 141.384 97.6444 142.405 96.9798 143.744C96.3152 145.084 96.2101 146.633 96.6875 148.05L107.937 181.8C108.298 182.873 108.975 183.812 109.878 184.495C110.781 185.177 111.869 185.571 113 185.625C113.597 185.702 114.202 185.702 114.8 185.625C115.561 185.424 116.272 185.065 116.885 184.572C117.499 184.079 118.002 183.463 118.363 182.763C118.724 182.063 118.933 181.295 118.978 180.509C119.023 179.723 118.903 178.937 118.625 178.2L107.375 144.45Z" fill="#6CC25E"/>
<path d="M171.05 140.906C170.348 140.668 169.607 140.571 168.867 140.62C168.128 140.669 167.406 140.864 166.742 141.193C166.078 141.523 165.486 141.98 164.999 142.539C164.512 143.098 164.141 143.747 163.906 144.45L152.656 178.2C152.374 178.918 152.242 179.687 152.269 180.458C152.296 181.229 152.482 181.986 152.814 182.683C153.146 183.379 153.619 184 154.201 184.506C154.784 185.012 155.464 185.393 156.2 185.625C156.798 185.702 157.403 185.702 158 185.625C159.179 185.628 160.33 185.26 161.289 184.574C162.248 183.888 162.966 182.917 163.344 181.8L174.594 148.05C174.832 147.348 174.929 146.606 174.88 145.867C174.831 145.128 174.636 144.405 174.307 143.742C173.977 143.078 173.52 142.485 172.961 141.999C172.402 141.512 171.753 141.141 171.05 140.906Z" fill="#6CC25E"/>
</g>
</svg>
