<svg width="58" height="34" viewBox="0 0 58 34" fill="none" xmlns="http://www.w3.org/2000/svg">
<path d="M16.4709 25.5837H1.82552C0.817345 25.5837 0 26.401 0 27.4091V32.1459C0 33.1541 0.817345 33.9714 1.82552 33.9714H16.4709C17.479 33.9714 18.2964 33.1541 18.2964 32.1459V27.4091C18.2963 26.401 17.479 25.5837 16.4709 25.5837Z" fill="url(#paint0_linear_8983_10368)"/>
<path d="M13.3291 33.9713H4.96859C4.17911 33.9713 3.53906 33.3313 3.53906 32.5418V27.013C3.53906 26.2235 4.17911 25.5835 4.96859 25.5835H13.3291C14.1186 25.5835 14.7587 26.2235 14.7587 27.013V32.5419C14.7587 33.3314 14.1186 33.9713 13.3291 33.9713Z" fill="url(#paint1_linear_8983_10368)"/>
<path d="M10.3681 33.9712H7.9296C7.4474 33.9712 7.05664 33.5803 7.05664 33.0982V26.4565C7.05664 25.9743 7.44752 25.5835 7.9296 25.5835H10.3681C10.8503 25.5835 11.2411 25.9744 11.2411 26.4565V33.0982C11.2411 33.5803 10.8502 33.9712 10.3681 33.9712Z" fill="url(#paint2_linear_8983_10368)"/>
<path d="M16.4709 25.5837H12.072H1.82552C0.817345 25.5837 0 26.401 0 27.4091V30.2535C0 29.2454 0.817345 28.428 1.82552 28.428H13.8973V32.1459C13.8973 33.1541 13.0799 33.9714 12.0717 33.9714H16.4708C17.4789 33.9714 18.2963 33.1541 18.2963 32.1459V27.4091C18.2963 26.401 17.479 25.5837 16.4709 25.5837Z" fill="url(#paint3_linear_8983_10368)"/>
<path d="M16.4709 17.2097H1.82552C0.817345 17.2097 0 18.0269 0 19.0352V23.772C0 24.7802 0.817345 25.5975 1.82552 25.5975H16.4709C17.479 25.5975 18.2964 24.7802 18.2964 23.772V19.0352C18.2963 18.0269 17.479 17.2097 16.4709 17.2097Z" fill="url(#paint4_linear_8983_10368)"/>
<path d="M13.3291 25.5973H4.96859C4.17911 25.5973 3.53906 24.9572 3.53906 24.1678V18.639C3.53906 17.8495 4.17911 17.2095 4.96859 17.2095H13.3291C14.1186 17.2095 14.7587 17.8495 14.7587 18.639V24.1678C14.7587 24.9574 14.1186 25.5973 13.3291 25.5973Z" fill="url(#paint5_linear_8983_10368)"/>
<path d="M10.3681 25.5972H7.9296C7.4474 25.5972 7.05664 25.2063 7.05664 24.7242V18.0824C7.05664 17.6002 7.44752 17.2095 7.9296 17.2095H10.3681C10.8503 17.2095 11.2411 17.6004 11.2411 18.0824V24.7242C11.2411 25.2064 10.8502 25.5972 10.3681 25.5972Z" fill="url(#paint6_linear_8983_10368)"/>
<path d="M16.4713 17.2095H12.0723C13.0804 17.2095 13.8978 18.0268 13.8978 19.035V23.7718C13.8978 24.78 13.0804 25.5973 12.0723 25.5973H16.4713C17.4795 25.5973 18.2968 24.78 18.2968 23.7718V19.035C18.2967 18.0268 17.4795 17.2095 16.4713 17.2095Z" fill="url(#paint7_linear_8983_10368)"/>
<path d="M36.3224 25.5839H21.6771C20.6689 25.5839 19.8516 26.4012 19.8516 27.4094V32.1462C19.8516 33.1543 20.6689 33.9717 21.6771 33.9717H36.3224C37.3306 33.9717 38.1479 33.1543 38.1479 32.1462V27.4094C38.1479 26.4011 37.3306 25.5839 36.3224 25.5839Z" fill="url(#paint8_linear_8983_10368)"/>
<path d="M33.1807 33.9714H24.8202C24.0307 33.9714 23.3906 33.3314 23.3906 32.5419V27.0131C23.3906 26.2237 24.0307 25.5836 24.8202 25.5836H33.1807C33.9702 25.5836 34.6102 26.2237 34.6102 27.0131V32.542C34.6101 33.3315 33.9702 33.9714 33.1807 33.9714Z" fill="url(#paint9_linear_8983_10368)"/>
<path d="M30.2197 33.9713H27.7812C27.299 33.9713 26.9082 33.5805 26.9082 33.0984V26.4566C26.9082 25.9744 27.2991 25.5836 27.7812 25.5836H30.2197C30.7019 25.5836 31.0926 25.9745 31.0926 26.4566V33.0984C31.0927 33.5805 30.7019 33.9713 30.2197 33.9713Z" fill="url(#paint10_linear_8983_10368)"/>
<path d="M36.3224 25.5839H31.9235H21.6771C20.6689 25.5839 19.8516 26.4012 19.8516 27.4094V30.2538C19.8516 29.2456 20.6689 28.4283 21.6771 28.4283H33.7488V32.1462C33.7488 33.1543 32.9315 33.9717 31.9233 33.9717H36.3223C37.3305 33.9717 38.1478 33.1543 38.1478 32.1462V27.4094C38.1479 26.4011 37.3306 25.5839 36.3224 25.5839Z" fill="url(#paint11_linear_8983_10368)"/>
<path d="M36.3224 17.1959H21.6771C20.6689 17.1959 19.8516 18.0133 19.8516 19.0214V23.7582C19.8516 24.7664 20.6689 25.5837 21.6771 25.5837H36.3224C37.3306 25.5837 38.1479 24.7664 38.1479 23.7582V19.0214C38.1479 18.0133 37.3306 17.1959 36.3224 17.1959Z" fill="url(#paint12_linear_8983_10368)"/>
<path d="M33.1807 25.5837H24.8202C24.0307 25.5837 23.3906 24.9437 23.3906 24.1542V18.6255C23.3906 17.836 24.0307 17.1959 24.8202 17.1959H33.1807C33.9702 17.1959 34.6102 17.836 34.6102 18.6255V24.1542C34.6101 24.9437 33.9702 25.5837 33.1807 25.5837Z" fill="url(#paint13_linear_8983_10368)"/>
<path d="M30.2197 25.5836H27.7812C27.299 25.5836 26.9082 25.1928 26.9082 24.7107V18.0689C26.9082 17.5867 27.2991 17.1959 27.7812 17.1959H30.2197C30.7019 17.1959 31.0926 17.5868 31.0926 18.0689V24.7107C31.0927 25.1928 30.7019 25.5836 30.2197 25.5836Z" fill="url(#paint14_linear_8983_10368)"/>
<path d="M36.3224 17.1959H31.9235H21.6771C20.6689 17.1959 19.8516 18.0133 19.8516 19.0214V21.8658C19.8516 20.8577 20.6689 20.0403 21.6771 20.0403H33.7488V23.7582C33.7488 24.7664 32.9315 25.5837 31.9233 25.5837H36.3223C37.3305 25.5837 38.1478 24.7664 38.1478 23.7582V19.0214C38.1479 18.0133 37.3306 17.1959 36.3224 17.1959Z" fill="url(#paint15_linear_8983_10368)"/>
<path d="M36.3224 8.80823H21.6771C20.6689 8.80823 19.8516 9.62557 19.8516 10.6337V15.3705C19.8516 16.3787 20.6689 17.1961 21.6771 17.1961H36.3224C37.3306 17.1961 38.1479 16.3787 38.1479 15.3705V10.6337C38.1479 9.62546 37.3306 8.80823 36.3224 8.80823Z" fill="url(#paint16_linear_8983_10368)"/>
<path d="M33.1807 17.1958H24.8202C24.0307 17.1958 23.3906 16.5558 23.3906 15.7663V10.2375C23.3906 9.44803 24.0307 8.80798 24.8202 8.80798H33.1807C33.9702 8.80798 34.6102 9.44803 34.6102 10.2375V15.7663C34.6101 16.5559 33.9702 17.1958 33.1807 17.1958Z" fill="url(#paint17_linear_8983_10368)"/>
<path d="M30.2197 17.1957H27.7812C27.299 17.1957 26.9082 16.8048 26.9082 16.3227V9.68094C26.9082 9.19875 27.2991 8.80798 27.7812 8.80798H30.2197C30.7019 8.80798 31.0926 9.19886 31.0926 9.68094V16.3227C31.0927 16.8048 30.7019 17.1957 30.2197 17.1957Z" fill="url(#paint18_linear_8983_10368)"/>
<path d="M36.3228 8.80798H31.9238C32.932 8.80798 33.7494 9.62533 33.7494 10.6335V15.3703C33.7494 16.3785 32.932 17.1958 31.9238 17.1958H36.3228C37.331 17.1958 38.1484 16.3785 38.1484 15.3703V10.6335C38.1484 9.62533 37.331 8.80798 36.3228 8.80798Z" fill="url(#paint19_linear_8983_10368)"/>
<path d="M56.1741 17.1959H41.5286C40.5205 17.1959 39.7031 18.0133 39.7031 19.0214V23.7582C39.7031 24.7664 40.5205 25.5837 41.5286 25.5837H56.174C57.1822 25.5837 57.9995 24.7664 57.9995 23.7582V19.0214C57.9995 18.0133 57.1823 17.1959 56.1741 17.1959Z" fill="url(#paint20_linear_8983_10368)"/>
<path d="M53.0322 25.5837H44.6717C43.8822 25.5837 43.2422 24.9437 43.2422 24.1542V18.6255C43.2422 17.836 43.8822 17.1959 44.6717 17.1959H53.0322C53.8217 17.1959 54.4618 17.836 54.4618 18.6255V24.1542C54.4618 24.9437 53.8217 25.5837 53.0322 25.5837Z" fill="url(#paint21_linear_8983_10368)"/>
<path d="M50.0712 25.5836H47.6327C47.1505 25.5836 46.7598 25.1928 46.7598 24.7107V18.0689C46.7598 17.5867 47.1506 17.1959 47.6327 17.1959H50.0712C50.5534 17.1959 50.9442 17.5868 50.9442 18.0689V24.7107C50.9443 25.1928 50.5534 25.5836 50.0712 25.5836Z" fill="url(#paint22_linear_8983_10368)"/>
<path d="M56.1741 17.1959H51.7752H41.5286C40.5205 17.1959 39.7031 18.0133 39.7031 19.0214V21.8658C39.7031 20.8577 40.5205 20.0403 41.5286 20.0403H53.6004V23.7582C53.6004 24.7664 52.783 25.5837 51.7749 25.5837H56.1739C57.182 25.5837 57.9994 24.7664 57.9994 23.7582V19.0214C57.9995 18.0133 57.1823 17.1959 56.1741 17.1959Z" fill="url(#paint23_linear_8983_10368)"/>
<path d="M56.1741 25.5839H41.5286C40.5205 25.5839 39.7031 26.4012 39.7031 27.4094V32.1462C39.7031 33.1543 40.5205 33.9717 41.5286 33.9717H56.174C57.1822 33.9717 57.9995 33.1543 57.9995 32.1462V27.4094C57.9995 26.4011 57.1823 25.5839 56.1741 25.5839Z" fill="url(#paint24_linear_8983_10368)"/>
<path d="M53.0322 33.9714H44.6717C43.8822 33.9714 43.2422 33.3314 43.2422 32.5419V27.0131C43.2422 26.2237 43.8822 25.5836 44.6717 25.5836H53.0322C53.8217 25.5836 54.4618 26.2237 54.4618 27.0131V32.542C54.4618 33.3315 53.8217 33.9714 53.0322 33.9714Z" fill="url(#paint25_linear_8983_10368)"/>
<path d="M50.0712 33.9713H47.6327C47.1505 33.9713 46.7598 33.5805 46.7598 33.0984V26.4566C46.7598 25.9744 47.1506 25.5836 47.6327 25.5836H50.0712C50.5534 25.5836 50.9442 25.9745 50.9442 26.4566V33.0984C50.9443 33.5805 50.5534 33.9713 50.0712 33.9713Z" fill="url(#paint26_linear_8983_10368)"/>
<path d="M56.1741 25.5839H51.7752H41.5286C40.5205 25.5839 39.7031 26.4012 39.7031 27.4094V30.2538C39.7031 29.2456 40.5205 28.4283 41.5286 28.4283H53.6004V32.1462C53.6004 33.1543 52.783 33.9717 51.7749 33.9717H56.1739C57.182 33.9717 57.9994 33.1543 57.9994 32.1462V27.4094C57.9995 26.4011 57.1823 25.5839 56.1741 25.5839Z" fill="url(#paint27_linear_8983_10368)"/>
<path d="M56.1741 8.80823H41.5286C40.5205 8.80823 39.7031 9.62557 39.7031 10.6337V15.3705C39.7031 16.3787 40.5205 17.1961 41.5286 17.1961H56.174C57.1822 17.1961 57.9995 16.3787 57.9995 15.3705V10.6337C57.9995 9.62546 57.1823 8.80823 56.1741 8.80823Z" fill="url(#paint28_linear_8983_10368)"/>
<path d="M53.0322 17.1958H44.6717C43.8822 17.1958 43.2422 16.5558 43.2422 15.7663V10.2375C43.2422 9.44803 43.8822 8.80798 44.6717 8.80798H53.0322C53.8217 8.80798 54.4618 9.44803 54.4618 10.2375V15.7663C54.4618 16.5559 53.8217 17.1958 53.0322 17.1958Z" fill="url(#paint29_linear_8983_10368)"/>
<path d="M50.0712 17.1957H47.6327C47.1505 17.1957 46.7598 16.8048 46.7598 16.3227V9.68094C46.7598 9.19875 47.1506 8.80798 47.6327 8.80798H50.0712C50.5534 8.80798 50.9442 9.19886 50.9442 9.68094V16.3227C50.9443 16.8049 50.5534 17.1957 50.0712 17.1957Z" fill="url(#paint30_linear_8983_10368)"/>
<path d="M56.1741 8.80823H51.7752H41.5286C40.5205 8.80823 39.7031 9.62557 39.7031 10.6337V13.4781C39.7031 12.47 40.5205 11.6526 41.5286 11.6526H53.6004V15.3705C53.6004 16.3787 52.783 17.1961 51.7749 17.1961H56.1739C57.182 17.1961 57.9994 16.3787 57.9994 15.3705V10.6337C57.9995 9.62546 57.1823 8.80823 56.1741 8.80823Z" fill="url(#paint31_linear_8983_10368)"/>
<path d="M56.1741 0.420288H41.5286C40.5205 0.420288 39.7031 1.23763 39.7031 2.24581V6.98259C39.7031 7.99077 40.5205 8.80811 41.5286 8.80811H56.174C57.1822 8.80811 57.9995 7.99077 57.9995 6.98259V2.24581C57.9995 1.23763 57.1823 0.420288 56.1741 0.420288Z" fill="url(#paint32_linear_8983_10368)"/>
<path d="M53.0322 8.80811H44.6717C43.8822 8.80811 43.2422 8.16806 43.2422 7.37858V1.84982C43.2422 1.06034 43.8822 0.420288 44.6717 0.420288H53.0322C53.8217 0.420288 54.4618 1.06034 54.4618 1.84982V7.37858C54.4618 8.16806 53.8217 8.80811 53.0322 8.80811Z" fill="url(#paint33_linear_8983_10368)"/>
<path d="M50.0712 8.808H47.6327C47.1505 8.808 46.7598 8.41712 46.7598 7.93504V1.29324C46.7598 0.811048 47.1506 0.420288 47.6327 0.420288H50.0712C50.5534 0.420288 50.9442 0.811162 50.9442 1.29324V7.93504C50.9443 8.41712 50.5534 8.808 50.0712 8.808Z" fill="url(#paint34_linear_8983_10368)"/>
<path d="M56.1744 0.420288H51.7754C52.7836 0.420288 53.6009 1.23763 53.6009 2.24581V6.98259C53.6009 7.99077 52.7836 8.80811 51.7754 8.80811H56.1744C57.1826 8.80811 57.9999 7.99077 57.9999 6.98259V2.24581C57.9998 1.23763 57.1826 0.420288 56.1744 0.420288Z" fill="url(#paint35_linear_8983_10368)"/>
<defs>
<linearGradient id="paint0_linear_8983_10368" x1="-0.960867" y1="29.7776" x2="9.46037" y2="29.7776" gradientUnits="userSpaceOnUse">
<stop stop-color="#FFF9DF"/>
<stop offset="0.593" stop-color="#FFE177"/>
<stop offset="1" stop-color="#FEB137"/>
</linearGradient>
<linearGradient id="paint1_linear_8983_10368" x1="3.8948" y1="29.7775" x2="16.7556" y2="29.7775" gradientUnits="userSpaceOnUse">
<stop stop-color="#FFE177"/>
<stop offset="1" stop-color="#FEB137"/>
</linearGradient>
<linearGradient id="paint2_linear_8983_10368" x1="7.79688" y1="29.7774" x2="12.1388" y2="29.7774" gradientUnits="userSpaceOnUse">
<stop stop-color="#FFE177"/>
<stop offset="1" stop-color="#FEB137"/>
</linearGradient>
<linearGradient id="paint3_linear_8983_10368" x1="0.303306" y1="29.7776" x2="15.7256" y2="29.7776" gradientUnits="userSpaceOnUse">
<stop stop-color="#FFE177"/>
<stop offset="1" stop-color="#FEB137"/>
</linearGradient>
<linearGradient id="paint4_linear_8983_10368" x1="-0.960867" y1="21.4036" x2="9.46037" y2="21.4036" gradientUnits="userSpaceOnUse">
<stop stop-color="#FFF9DF"/>
<stop offset="0.593" stop-color="#FFE177"/>
<stop offset="1" stop-color="#FEB137"/>
</linearGradient>
<linearGradient id="paint5_linear_8983_10368" x1="3.8948" y1="21.4034" x2="16.7556" y2="21.4034" gradientUnits="userSpaceOnUse">
<stop stop-color="#FFE177"/>
<stop offset="1" stop-color="#FEB137"/>
</linearGradient>
<linearGradient id="paint6_linear_8983_10368" x1="7.79688" y1="21.4033" x2="12.1388" y2="21.4033" gradientUnits="userSpaceOnUse">
<stop stop-color="#FFE177"/>
<stop offset="1" stop-color="#FEB137"/>
</linearGradient>
<linearGradient id="paint7_linear_8983_10368" x1="13.4026" y1="21.4033" x2="19.7781" y2="21.4033" gradientUnits="userSpaceOnUse">
<stop stop-color="#FEB137"/>
<stop offset="1" stop-color="#ECA026"/>
</linearGradient>
<linearGradient id="paint8_linear_8983_10368" x1="18.8908" y1="29.7777" x2="29.3119" y2="29.7777" gradientUnits="userSpaceOnUse">
<stop stop-color="#FFF9DF"/>
<stop offset="0.593" stop-color="#FFE177"/>
<stop offset="1" stop-color="#FEB137"/>
</linearGradient>
<linearGradient id="paint9_linear_8983_10368" x1="23.7462" y1="29.7776" x2="36.607" y2="29.7776" gradientUnits="userSpaceOnUse">
<stop stop-color="#FFE177"/>
<stop offset="1" stop-color="#FEB137"/>
</linearGradient>
<linearGradient id="paint10_linear_8983_10368" x1="27.6484" y1="29.7775" x2="31.9904" y2="29.7775" gradientUnits="userSpaceOnUse">
<stop stop-color="#FFE177"/>
<stop offset="1" stop-color="#FEB137"/>
</linearGradient>
<linearGradient id="paint11_linear_8983_10368" x1="20.1549" y1="29.7777" x2="35.5773" y2="29.7777" gradientUnits="userSpaceOnUse">
<stop stop-color="#FFE177"/>
<stop offset="1" stop-color="#FEB137"/>
</linearGradient>
<linearGradient id="paint12_linear_8983_10368" x1="18.8908" y1="21.3899" x2="29.3119" y2="21.3899" gradientUnits="userSpaceOnUse">
<stop stop-color="#FFF9DF"/>
<stop offset="0.593" stop-color="#FFE177"/>
<stop offset="1" stop-color="#FEB137"/>
</linearGradient>
<linearGradient id="paint13_linear_8983_10368" x1="23.7462" y1="21.3899" x2="36.607" y2="21.3899" gradientUnits="userSpaceOnUse">
<stop stop-color="#FFE177"/>
<stop offset="1" stop-color="#FEB137"/>
</linearGradient>
<linearGradient id="paint14_linear_8983_10368" x1="27.6484" y1="21.3898" x2="31.9904" y2="21.3898" gradientUnits="userSpaceOnUse">
<stop stop-color="#FFE177"/>
<stop offset="1" stop-color="#FEB137"/>
</linearGradient>
<linearGradient id="paint15_linear_8983_10368" x1="20.1549" y1="21.3899" x2="35.5773" y2="21.3899" gradientUnits="userSpaceOnUse">
<stop stop-color="#FFE177"/>
<stop offset="1" stop-color="#FEB137"/>
</linearGradient>
<linearGradient id="paint16_linear_8983_10368" x1="18.8908" y1="13.0021" x2="29.3119" y2="13.0021" gradientUnits="userSpaceOnUse">
<stop stop-color="#FFF9DF"/>
<stop offset="0.593" stop-color="#FFE177"/>
<stop offset="1" stop-color="#FEB137"/>
</linearGradient>
<linearGradient id="paint17_linear_8983_10368" x1="23.7462" y1="13.002" x2="36.607" y2="13.002" gradientUnits="userSpaceOnUse">
<stop stop-color="#FFE177"/>
<stop offset="1" stop-color="#FEB137"/>
</linearGradient>
<linearGradient id="paint18_linear_8983_10368" x1="27.6484" y1="13.0018" x2="31.9904" y2="13.0018" gradientUnits="userSpaceOnUse">
<stop stop-color="#FFE177"/>
<stop offset="1" stop-color="#FEB137"/>
</linearGradient>
<linearGradient id="paint19_linear_8983_10368" x1="33.2542" y1="13.0018" x2="39.6296" y2="13.0018" gradientUnits="userSpaceOnUse">
<stop stop-color="#FEB137"/>
<stop offset="1" stop-color="#ECA026"/>
</linearGradient>
<linearGradient id="paint20_linear_8983_10368" x1="38.7424" y1="21.3899" x2="49.1635" y2="21.3899" gradientUnits="userSpaceOnUse">
<stop stop-color="#FFF9DF"/>
<stop offset="0.593" stop-color="#FFE177"/>
<stop offset="1" stop-color="#FEB137"/>
</linearGradient>
<linearGradient id="paint21_linear_8983_10368" x1="43.5978" y1="21.3899" x2="56.4587" y2="21.3899" gradientUnits="userSpaceOnUse">
<stop stop-color="#FFE177"/>
<stop offset="1" stop-color="#FEB137"/>
</linearGradient>
<linearGradient id="paint22_linear_8983_10368" x1="47.5001" y1="21.3898" x2="51.8419" y2="21.3898" gradientUnits="userSpaceOnUse">
<stop stop-color="#FFE177"/>
<stop offset="1" stop-color="#FEB137"/>
</linearGradient>
<linearGradient id="paint23_linear_8983_10368" x1="40.0064" y1="21.3899" x2="55.4289" y2="21.3899" gradientUnits="userSpaceOnUse">
<stop stop-color="#FFE177"/>
<stop offset="1" stop-color="#FEB137"/>
</linearGradient>
<linearGradient id="paint24_linear_8983_10368" x1="38.7424" y1="29.7777" x2="49.1635" y2="29.7777" gradientUnits="userSpaceOnUse">
<stop stop-color="#FFF9DF"/>
<stop offset="0.593" stop-color="#FFE177"/>
<stop offset="1" stop-color="#FEB137"/>
</linearGradient>
<linearGradient id="paint25_linear_8983_10368" x1="43.5978" y1="29.7776" x2="56.4587" y2="29.7776" gradientUnits="userSpaceOnUse">
<stop stop-color="#FFE177"/>
<stop offset="1" stop-color="#FEB137"/>
</linearGradient>
<linearGradient id="paint26_linear_8983_10368" x1="47.5001" y1="29.7775" x2="51.8419" y2="29.7775" gradientUnits="userSpaceOnUse">
<stop stop-color="#FFE177"/>
<stop offset="1" stop-color="#FEB137"/>
</linearGradient>
<linearGradient id="paint27_linear_8983_10368" x1="40.0064" y1="29.7777" x2="55.4289" y2="29.7777" gradientUnits="userSpaceOnUse">
<stop stop-color="#FFE177"/>
<stop offset="1" stop-color="#FEB137"/>
</linearGradient>
<linearGradient id="paint28_linear_8983_10368" x1="38.7424" y1="13.0021" x2="49.1635" y2="13.0021" gradientUnits="userSpaceOnUse">
<stop stop-color="#FFF9DF"/>
<stop offset="0.593" stop-color="#FFE177"/>
<stop offset="1" stop-color="#FEB137"/>
</linearGradient>
<linearGradient id="paint29_linear_8983_10368" x1="43.5978" y1="13.002" x2="56.4587" y2="13.002" gradientUnits="userSpaceOnUse">
<stop stop-color="#FFE177"/>
<stop offset="1" stop-color="#FEB137"/>
</linearGradient>
<linearGradient id="paint30_linear_8983_10368" x1="47.5001" y1="13.0018" x2="51.8419" y2="13.0018" gradientUnits="userSpaceOnUse">
<stop stop-color="#FFE177"/>
<stop offset="1" stop-color="#FEB137"/>
</linearGradient>
<linearGradient id="paint31_linear_8983_10368" x1="40.0064" y1="13.0021" x2="55.4289" y2="13.0021" gradientUnits="userSpaceOnUse">
<stop stop-color="#FFE177"/>
<stop offset="1" stop-color="#FEB137"/>
</linearGradient>
<linearGradient id="paint32_linear_8983_10368" x1="38.7424" y1="4.61426" x2="49.1635" y2="4.61426" gradientUnits="userSpaceOnUse">
<stop stop-color="#FFF9DF"/>
<stop offset="0.593" stop-color="#FFE177"/>
<stop offset="1" stop-color="#FEB137"/>
</linearGradient>
<linearGradient id="paint33_linear_8983_10368" x1="43.5978" y1="4.61426" x2="56.4587" y2="4.61426" gradientUnits="userSpaceOnUse">
<stop stop-color="#FFE177"/>
<stop offset="1" stop-color="#FEB137"/>
</linearGradient>
<linearGradient id="paint34_linear_8983_10368" x1="47.5001" y1="4.61414" x2="51.8419" y2="4.61414" gradientUnits="userSpaceOnUse">
<stop stop-color="#FFE177"/>
<stop offset="1" stop-color="#FEB137"/>
</linearGradient>
<linearGradient id="paint35_linear_8983_10368" x1="53.1058" y1="4.61426" x2="59.4812" y2="4.61426" gradientUnits="userSpaceOnUse">
<stop stop-color="#FEB137"/>
<stop offset="1" stop-color="#ECA026"/>
</linearGradient>
</defs>
</svg>
