<svg width="11" height="20" viewBox="0 0 11 20" fill="none" xmlns="http://www.w3.org/2000/svg">
<path d="M5.84969 17.4526V19.7566H4.27882V17.5574C2.81268 17.5574 1.45126 17.2432 0.299293 16.6149V13.6826C0.718191 13.9967 1.34654 14.3109 2.18433 14.6251C3.02213 14.9393 3.7552 15.044 4.38355 15.1487V11.1692C2.70796 10.5408 1.55599 9.91249 1.03237 9.17942C0.404019 8.44635 0.0898438 7.60855 0.0898438 6.56131C0.0898438 5.40934 0.508744 4.46682 1.24181 3.73375C2.07961 3.00068 3.02213 2.47705 4.38355 2.37233V0.382568H5.95441V2.26761C7.42056 2.37233 8.57253 2.58178 9.3056 3.00068V5.82824C8.36308 5.19989 7.21111 4.88572 5.95441 4.67627V8.76052C7.52528 9.28414 8.57253 9.91249 9.3056 10.6456C9.93394 11.3786 10.3528 12.2164 10.3528 13.2637C10.3528 14.4156 9.93394 15.3582 9.20087 16.0912C8.36307 16.929 7.31583 17.3479 5.84969 17.4526ZM4.27882 8.13217V4.78099C3.3363 4.99044 2.81268 5.51407 2.81268 6.35186C2.81268 7.08493 3.3363 7.71327 4.27882 8.13217ZM5.84969 11.7975V15.044C6.89693 14.9393 7.42055 14.4156 7.42055 13.4731C7.42055 12.74 6.89693 12.2164 5.84969 11.7975Z" fill="#324A5E"/>
</svg>
