<svg width="32" height="32" viewBox="0 0 32 32" fill="none" xmlns="http://www.w3.org/2000/svg">
<g clip-path="url(#clip0_7544_39339)">
<path d="M31.0139 22.1068C30.6768 22.7138 30.1396 23.185 29.4939 23.4402L29.1073 23.5468C29.1524 23.6719 29.1837 23.8016 29.2006 23.9335C29.2138 24.0799 29.2138 24.2271 29.2006 24.3735C29.1994 24.9078 29.0568 25.4322 28.7873 25.8935L28.2139 26.8802C28.0086 27.2538 27.7226 27.5769 27.3766 27.826C27.0306 28.0752 26.6334 28.244 26.2139 28.3202C25.8609 28.3738 25.5043 28.4005 25.1473 28.4002C24.3909 28.4072 23.64 28.2715 22.9339 28.0002C22.7652 29.1012 22.3049 30.1371 21.6006 31.0002C21.3213 31.3228 20.975 31.5806 20.5858 31.7556C20.1967 31.9307 19.774 32.0187 19.3473 32.0135H18.2006C17.7877 32.0361 17.3752 31.9623 16.9957 31.798C16.6161 31.6337 16.2801 31.3834 16.0139 31.0668C15.7478 31.3834 15.4117 31.6337 15.0322 31.798C14.6527 31.9623 14.2402 32.0361 13.8273 32.0135H12.6806C12.2555 32.0168 11.8345 31.9293 11.446 31.7568C11.0574 31.5844 10.7101 31.3309 10.4273 31.0135C9.72474 30.1443 9.26473 29.1047 9.09394 28.0002C8.38151 28.2652 7.62742 28.4007 6.86728 28.4002C6.5058 28.4 6.14482 28.3733 5.78728 28.3202C5.36781 28.244 4.97062 28.0752 4.62463 27.826C4.27865 27.5769 3.99259 27.2538 3.78728 26.8802L3.22727 25.9068C2.94898 25.4437 2.80152 24.9138 2.80061 24.3735C2.80061 24.2268 2.80061 24.0802 2.80061 23.9335C2.82821 23.8025 2.86383 23.6734 2.90728 23.5468L2.52061 23.4402C1.87492 23.185 1.33773 22.7138 1.00061 22.1068L0.427276 21.1335C0.209468 20.7675 0.0739803 20.3584 0.0302318 19.9347C-0.0135166 19.5111 0.0355259 19.083 0.173944 18.6802C0.573598 17.6372 1.24031 16.7176 2.10728 16.0135C1.24302 15.3068 0.576878 14.388 0.173944 13.3468C0.0294642 12.9412 -0.0239318 12.5087 0.0175467 12.0801C0.0590251 11.6515 0.194361 11.2372 0.413945 10.8668L1.00061 9.89349C1.33773 9.28655 1.87492 8.81533 2.52061 8.56016C2.64523 8.51062 2.77489 8.47485 2.90728 8.45349C2.90728 8.33349 2.82727 8.20016 2.80061 8.08016C2.78774 7.92932 2.78774 7.77766 2.80061 7.62682C2.80017 7.08634 2.94773 6.55606 3.22727 6.09349L3.78728 5.12016C3.99183 4.74592 4.27768 4.4223 4.62379 4.1731C4.96991 3.92389 5.36748 3.75545 5.78728 3.68016C6.86937 3.51879 7.97468 3.63345 9.00061 4.01349C9.17139 2.909 9.63141 1.86936 10.3339 1.00016C10.6145 0.679945 10.9613 0.424631 11.3505 0.251946C11.7396 0.0792608 12.1616 -0.00665781 12.5873 0.000156293H13.7339C14.4356 -0.0192993 15.1212 0.212382 15.6673 0.653489C15.7716 0.744474 15.8696 0.84248 15.9606 0.946823C16.0516 0.84248 16.1496 0.744474 16.2539 0.653489C16.7905 0.223305 17.4596 -0.00757944 18.1473 0.000156293H19.2939C19.7197 -0.00756101 20.1421 0.0779505 20.5313 0.250696C20.9206 0.423442 21.2673 0.67924 21.5473 1.00016C22.2498 1.86936 22.7098 2.909 22.8806 4.01349C23.9257 3.61546 25.0583 3.50496 26.1606 3.69349C26.5811 3.76694 26.9794 3.93466 27.3258 4.18405C27.6722 4.43344 27.9576 4.75804 28.1606 5.13349L28.7339 6.10682C29.004 6.57278 29.1465 7.10162 29.1473 7.64016C29.1605 7.78653 29.1605 7.93379 29.1473 8.08016C29.1303 8.21206 29.099 8.34172 29.0539 8.46682C29.186 8.48992 29.3154 8.52564 29.4406 8.57349C30.0846 8.83149 30.6209 9.30197 30.9606 9.90682L31.5339 10.8935C31.7518 11.2595 31.8872 11.6686 31.931 12.0922C31.9747 12.5159 31.9257 12.944 31.7873 13.3468C31.3843 14.388 30.7182 15.3068 29.8539 16.0135C30.7209 16.7176 31.3876 17.6372 31.7873 18.6802C31.9255 19.0807 31.9744 19.5067 31.9306 19.9282C31.8869 20.3497 31.7515 20.7565 31.5339 21.1202L31.0139 22.1068Z" fill="white"/>
<path d="M16.0015 13.2139C15.4518 13.2113 14.9138 13.372 14.4557 13.6757C13.9976 13.9795 13.6401 14.4124 13.4285 14.9198C13.2169 15.4271 13.1609 15.9858 13.2675 16.525C13.3741 17.0642 13.6385 17.5596 14.0271 17.9482C14.4158 18.3369 14.9112 18.6013 15.4504 18.7079C15.9896 18.8145 16.5483 18.7584 17.0556 18.5469C17.5629 18.3353 17.9959 17.9778 18.2996 17.5197C18.6034 17.0616 18.7641 16.5235 18.7615 15.9739C18.7615 15.2419 18.4707 14.5399 17.9531 14.0223C17.4355 13.5047 16.7335 13.2139 16.0015 13.2139Z" fill="#E1C429"/>
<path d="M31.8396 18.6798C31.4399 17.6369 30.7732 16.7173 29.9062 16.0131C30.7705 15.3064 31.4366 14.3876 31.8396 13.3465C31.9821 12.9399 32.0332 12.5068 31.9895 12.0782C31.9457 11.6496 31.808 11.2359 31.5862 10.8665L31.0129 9.8798C30.6732 9.27495 30.1369 8.80447 29.4929 8.54647C29.3677 8.49862 29.2382 8.4629 29.1062 8.4398C29.1513 8.3147 29.1826 8.18504 29.1996 8.05314C29.2127 7.90676 29.2127 7.75951 29.1996 7.61314C29.1988 7.0746 29.0562 6.54575 28.7862 6.0798L28.2129 5.10647C28.0099 4.73102 27.7245 4.40642 27.3781 4.15703C27.0317 3.90764 26.6334 3.73992 26.2129 3.66647C25.1106 3.47794 23.9779 3.58844 22.9329 3.98647C22.7621 2.88197 22.3021 1.84234 21.5996 0.973136C21.3196 0.652219 20.9729 0.396421 20.5836 0.223676C20.1944 0.05093 19.772 -0.0345815 19.3462 -0.0268642H18.1996C17.5119 -0.0345999 16.8428 0.196285 16.3062 0.626469C16.2019 0.717453 16.1039 0.81546 16.0129 0.919803C15.9039 0.822706 15.788 0.733586 15.6662 0.653135C15.1308 0.220972 14.4609 -0.0101663 13.7729 -0.000197567H12.6262C12.2006 -0.00701167 11.7785 0.0789069 11.3894 0.251592C11.0003 0.424277 10.6534 0.679591 10.3729 0.999802C9.65597 1.86467 9.18199 2.90467 8.99956 4.01314C7.94374 3.62154 6.80422 3.51127 5.6929 3.69314C5.2731 3.76843 4.87553 3.93687 4.52942 4.18607C4.1833 4.43528 3.89745 4.7589 3.6929 5.13314L3.1329 6.10647C2.85335 6.56904 2.7058 7.09932 2.70623 7.6398C2.69336 7.79064 2.69336 7.9423 2.70623 8.09314C2.70623 8.21314 2.70623 8.34647 2.8129 8.46647C2.68051 8.48783 2.55085 8.5236 2.42623 8.57314C1.81737 8.84262 1.31546 9.30701 0.999564 9.89314L0.42623 10.8665C0.208423 11.2325 0.072935 11.6415 0.0291866 12.0652C-0.0145619 12.4889 0.0344807 12.917 0.172899 13.3198C0.575832 14.361 1.24198 15.2798 2.10623 15.9865C1.23926 16.6906 0.572552 17.6102 0.172899 18.6531C0.0344807 19.0559 -0.0145619 19.4841 0.0291866 19.9077C0.072935 20.3314 0.208423 20.7405 0.42623 21.1065L0.999564 22.0798C1.33668 22.6867 1.87388 23.158 2.51956 23.4131L2.90623 23.5198C2.86279 23.6464 2.82716 23.7755 2.79956 23.9065C2.79956 24.0531 2.79956 24.1998 2.79956 24.3465C2.80047 24.8868 2.94793 25.4167 3.22623 25.8798L3.78623 26.8531C3.99154 27.2268 4.2776 27.5499 4.62359 27.799C4.96957 28.0481 5.36676 28.2169 5.78623 28.2931C6.14378 28.3463 6.50476 28.373 6.86623 28.3731C7.62637 28.3737 8.38047 28.2382 9.0929 27.9731C9.26368 29.0776 9.72369 30.1173 10.4262 30.9865C10.709 31.3039 11.0563 31.5574 11.4449 31.7298C11.8335 31.9023 12.2544 31.9898 12.6796 31.9865H13.8262C14.2392 32.009 14.6517 31.9353 15.0312 31.771C15.4107 31.6067 15.7468 31.3563 16.0129 31.0398C16.279 31.3563 16.6151 31.6067 16.9946 31.771C17.3741 31.9353 17.7866 32.009 18.1996 31.9865H19.3462C19.7729 31.9916 20.1956 31.9036 20.5848 31.7286C20.974 31.5536 21.3203 31.2958 21.5996 30.9731C22.3038 30.1101 22.7642 29.0742 22.9329 27.9731C23.6389 28.2445 24.3899 28.3802 25.1462 28.3731C25.5033 28.3735 25.8599 28.3468 26.2129 28.2931C26.6324 28.2169 27.0296 28.0481 27.3755 27.799C27.7215 27.5499 28.0076 27.2268 28.2129 26.8531L28.7862 25.8665C29.0557 25.4052 29.1984 24.8807 29.1996 24.3465C29.2127 24.2001 29.2127 24.0528 29.1996 23.9065C29.1826 23.7746 29.1513 23.6449 29.1062 23.5198L29.4929 23.4131C30.1386 23.158 30.6758 22.6867 31.0129 22.0798L31.5862 21.0931C31.7998 20.7329 31.9331 20.3307 31.9768 19.9142C32.0205 19.4976 31.9737 19.0766 31.8396 18.6798ZM23.0129 5.21314C23.9702 4.7694 25.0405 4.62979 26.0796 4.81314C26.3372 4.87168 26.5796 4.98387 26.791 5.14239C27.0023 5.30091 27.1779 5.5022 27.3062 5.73314L27.8662 6.70647C28.0509 7.00719 28.1479 7.35355 28.1462 7.70647C28.1594 7.79487 28.1594 7.88473 28.1462 7.97314C28.1042 8.24376 27.9727 8.49253 27.7729 8.6798L27.6662 8.69314L27.3996 8.8398C27.277 8.91597 27.1868 9.03465 27.1462 9.17314C27.1198 9.23651 27.1062 9.30448 27.1062 9.37314C27.1062 9.44179 27.1198 9.50976 27.1462 9.57314C27.1797 9.63476 27.2253 9.68897 27.2803 9.73251C27.3353 9.77605 27.3986 9.80801 27.4662 9.82647C27.5296 9.85287 27.5976 9.86647 27.6662 9.86647C27.7349 9.86647 27.8029 9.85287 27.8662 9.82647L28.1462 9.66647L28.3329 9.54647C28.5834 9.46012 28.8557 9.46012 29.1062 9.54647C29.5203 9.70871 29.8646 10.0106 30.0796 10.3998L30.6396 11.3731C30.7843 11.5981 30.8763 11.8529 30.9086 12.1184C30.941 12.3839 30.9128 12.6534 30.8262 12.9065C30.4951 13.7967 29.9282 14.5802 29.1862 15.1731L28.9996 15.3731C28.3347 15.0282 27.6111 14.8111 26.8662 14.7331C24.444 14.4926 21.9981 14.7281 19.6662 15.4265C19.6297 15.1271 19.5627 14.8322 19.4662 14.5465L22.9862 12.5198C23.0874 12.4519 23.1615 12.3506 23.1956 12.2337C23.2297 12.1167 23.2217 11.9914 23.1729 11.8798C23.1396 11.8186 23.0943 11.7646 23.0397 11.7213C22.9852 11.6779 22.9224 11.6459 22.8553 11.6272C22.7881 11.6086 22.7179 11.6036 22.6487 11.6127C22.5796 11.6217 22.513 11.6445 22.4529 11.6798L18.9196 13.6798C18.7449 13.4644 18.5483 13.2678 18.3329 13.0931C20.0821 11.4527 21.4951 9.48717 22.4929 7.30647C22.7965 6.64766 22.9729 5.93743 23.0129 5.21314ZM18.7596 15.9865C18.7569 16.5318 18.5928 17.0641 18.288 17.5162C17.9831 17.9683 17.5511 18.32 17.0466 18.5269C16.542 18.7337 15.9875 18.7865 15.453 18.6785C14.9185 18.5705 14.4279 18.3066 14.0433 17.92C13.6586 17.5335 13.3971 17.0417 13.2917 16.5067C13.1862 15.9717 13.2417 15.4174 13.451 14.9139C13.6602 14.4103 14.014 13.9801 14.4676 13.6774C14.9212 13.3747 15.4543 13.2131 15.9996 13.2131C16.7328 13.2167 17.4348 13.5104 17.952 14.0301C18.4692 14.5498 18.7596 15.2532 18.7596 15.9865ZM10.0396 4.86647C10.0648 3.69618 10.4934 2.57051 11.2529 1.6798C11.4307 1.48219 11.649 1.32514 11.8928 1.21931C12.1367 1.11349 12.4004 1.06136 12.6662 1.06647H13.8129C14.2576 1.05585 14.6919 1.20219 15.0396 1.4798C15.2636 1.65507 15.4155 1.90657 15.4662 2.18647C15.4662 2.18647 15.4662 2.29314 15.4662 2.34647V2.66647C15.4644 2.73701 15.4769 2.80718 15.5031 2.87272C15.5292 2.93825 15.5685 2.99778 15.6184 3.04767C15.6683 3.09757 15.7278 3.13679 15.7933 3.16294C15.8589 3.18909 15.929 3.20164 15.9996 3.1998C16.0696 3.1998 16.139 3.18601 16.2037 3.1592C16.2684 3.1324 16.3272 3.09312 16.3767 3.04359C16.4262 2.99407 16.4655 2.93527 16.4923 2.87057C16.5191 2.80586 16.5329 2.73651 16.5329 2.66647V2.34647C16.5329 2.34647 16.5329 2.2398 16.5329 2.18647C16.5985 1.90251 16.7642 1.65167 16.9996 1.4798C17.3472 1.20219 17.7815 1.05585 18.2262 1.06647H19.3729C19.6409 1.05943 19.9073 1.11062 20.1536 1.2165C20.3999 1.32239 20.6203 1.48046 20.7996 1.6798C21.4087 2.38108 21.8051 3.24167 21.9421 4.16043C22.0791 5.0792 21.951 6.01798 21.5729 6.86647C20.6135 8.95044 19.2545 10.8259 17.5729 12.3865C17.5212 12.4352 17.4803 12.4942 17.4529 12.5598C17.1628 12.4369 16.8581 12.3517 16.5462 12.3065V7.9998C16.5462 7.92976 16.5324 7.86041 16.5056 7.7957C16.4788 7.731 16.4395 7.6722 16.39 7.62268C16.3405 7.57315 16.2817 7.53387 16.217 7.50707C16.1523 7.48026 16.0829 7.46647 16.0129 7.46647C15.9429 7.46647 15.8735 7.48026 15.8088 7.50707C15.7441 7.53387 15.6853 7.57315 15.6358 7.62268C15.5863 7.6722 15.547 7.731 15.5202 7.7957C15.4934 7.86041 15.4796 7.92976 15.4796 7.9998V12.3065C15.1677 12.3517 14.863 12.4369 14.5729 12.5598C14.5455 12.4942 14.5046 12.4352 14.4529 12.3865C12.7713 10.8259 11.4122 8.95044 10.4529 6.86647C10.1654 6.23927 10.0197 5.55639 10.0262 4.86647H10.0396ZM1.15956 12.9331C1.07482 12.6804 1.04643 12.4122 1.07637 12.1473C1.10632 11.8824 1.19387 11.6273 1.3329 11.3998L1.90623 10.4265C2.12124 10.0372 2.46554 9.73538 2.87956 9.57314C3.14134 9.4725 3.43113 9.4725 3.6929 9.57314C3.7408 9.61624 3.79469 9.65217 3.8529 9.6798L4.11956 9.8398C4.25338 9.88655 4.39909 9.88655 4.5329 9.8398C4.66827 9.79984 4.78294 9.70906 4.8529 9.58647C4.88255 9.52396 4.89793 9.45565 4.89793 9.38647C4.89793 9.31729 4.88255 9.24897 4.8529 9.18647C4.81232 9.04798 4.72213 8.92931 4.59957 8.85314L4.34623 8.70647L4.15956 8.62647C3.97783 8.41692 3.86597 8.15592 3.83957 7.8798C3.83292 7.79104 3.83292 7.7019 3.83957 7.61314C3.83927 7.26041 3.93615 6.91442 4.11956 6.61314L4.6929 5.6398C4.81701 5.4056 4.99132 5.20169 5.20337 5.04265C5.41542 4.88362 5.65997 4.77338 5.91956 4.7198C6.97245 4.57364 8.045 4.74543 8.99956 5.21314C9.02688 5.95917 9.19896 6.69277 9.50623 7.37314C10.5069 9.55605 11.9194 11.5254 13.6662 13.1731C13.4556 13.3437 13.2635 13.5359 13.0929 13.7465L9.54624 11.6531C9.4252 11.5951 9.28671 11.5848 9.15843 11.6244C9.03015 11.6639 8.9215 11.7504 8.85417 11.8665C8.78685 11.9827 8.7658 12.1199 8.79522 12.2509C8.82464 12.3819 8.90237 12.4969 9.0129 12.5731L12.5329 14.5465C12.431 14.8141 12.3551 15.091 12.3062 15.3731C9.99979 14.6852 7.58207 14.4497 5.18623 14.6798C4.44135 14.7578 3.71772 14.9749 3.0529 15.3198L2.79956 15.1331C2.06578 14.5599 1.49939 13.8001 1.15956 12.9331ZM8.99956 26.8531C8.03532 27.2891 6.96318 27.4283 5.91956 27.2531C5.65984 27.1955 5.41517 27.0838 5.20152 26.9253C4.98786 26.7668 4.81001 26.565 4.67956 26.3331L4.10623 25.3465C3.93165 25.047 3.83963 24.7065 3.83957 24.3598C3.83292 24.271 3.83292 24.1819 3.83957 24.0931C3.89251 23.8233 4.02756 23.5765 4.22623 23.3865L4.39956 23.3065L4.66623 23.1465C4.72792 23.1119 4.78211 23.0653 4.82564 23.0096C4.86918 22.9538 4.90118 22.8899 4.91979 22.8217C4.9384 22.7534 4.94325 22.6822 4.93406 22.612C4.92486 22.5419 4.90181 22.4743 4.86623 22.4131C4.79245 22.2939 4.67922 22.2043 4.54623 22.1598C4.41376 22.1057 4.26536 22.1057 4.1329 22.1598L3.8529 22.3198L3.66623 22.4665C3.40998 22.5456 3.13582 22.5456 2.87956 22.4665C2.46554 22.3042 2.12124 22.0024 1.90623 21.6131L1.3329 20.6398C1.19387 20.4124 1.10632 20.1572 1.07637 19.8923C1.04643 19.6274 1.07482 19.3592 1.15956 19.1065C1.46939 18.227 2.02211 17.4534 2.75366 16.8752C3.48522 16.297 4.36565 15.938 5.2929 15.8398C7.57695 15.6136 9.88318 15.8402 12.0796 16.5065C12.1545 16.5197 12.2313 16.5197 12.3062 16.5065C12.3362 16.8083 12.4079 17.1045 12.5196 17.3865L8.99956 19.3865C8.91582 19.4314 8.84641 19.499 8.79925 19.5815C8.7521 19.664 8.7291 19.7582 8.7329 19.8531C8.73438 19.946 8.7601 20.0369 8.80752 20.1168C8.85493 20.1967 8.9224 20.2628 9.00323 20.3086C9.08406 20.3544 9.17545 20.3783 9.26835 20.378C9.36126 20.3776 9.45245 20.3529 9.5329 20.3065L12.9996 18.2798C13.1717 18.5097 13.3735 18.716 13.5996 18.8931C11.8561 20.5387 10.444 22.503 9.43957 24.6798C9.15639 25.3698 9.00707 26.1073 8.99956 26.8531ZM20.7729 30.3198C20.592 30.5171 20.3713 30.6737 20.1253 30.7795C19.8794 30.8852 19.6139 30.9376 19.3462 30.9331H18.1996C17.7689 30.9333 17.3491 30.798 16.9996 30.5465C16.7791 30.368 16.6282 30.118 16.5729 29.8398C16.5729 29.8398 16.5729 29.7331 16.5729 29.6798V29.3598C16.5729 29.2184 16.5167 29.0827 16.4167 28.9827C16.3167 28.8827 16.181 28.8265 16.0396 28.8265C15.8981 28.8265 15.7625 28.8827 15.6624 28.9827C15.5624 29.0827 15.5062 29.2184 15.5062 29.3598V29.6798C15.5062 29.6798 15.5062 29.7865 15.5062 29.8398C15.451 30.118 15.3 30.368 15.0796 30.5465C14.7259 30.8129 14.2957 30.9579 13.8529 30.9598H12.7062C12.4404 30.9649 12.1767 30.9128 11.9328 30.807C11.689 30.7011 11.4707 30.5441 11.2929 30.3465C10.5362 29.4541 10.108 28.3295 10.0796 27.1598C10.0741 26.4657 10.2197 25.7787 10.5062 25.1465C11.4656 23.0664 12.8247 21.1953 14.5062 19.6398C14.5579 19.5911 14.5988 19.532 14.6262 19.4665C14.9185 19.5833 15.2224 19.6682 15.5329 19.7198V24.0265C15.5329 24.1679 15.5891 24.3036 15.6891 24.4036C15.7891 24.5036 15.9248 24.5598 16.0662 24.5598C16.2077 24.5598 16.3433 24.5036 16.4434 24.4036C16.5434 24.3036 16.5996 24.1679 16.5996 24.0265V19.6931C16.9104 19.6434 17.2146 19.5584 17.5062 19.4398C17.5336 19.5054 17.5745 19.5644 17.6262 19.6131C19.3104 21.1663 20.6699 23.0379 21.6262 25.1198C21.9916 25.9792 22.1041 26.925 21.9506 27.8461C21.797 28.7672 21.3839 29.6254 20.7596 30.3198H20.7729ZM30.6796 20.5998L30.1062 21.5731C29.8912 21.9624 29.5469 22.2642 29.1329 22.4265C28.8699 22.52 28.5826 22.52 28.3196 22.4265L28.1596 22.3065L27.8929 22.1598C27.8295 22.1334 27.7615 22.1198 27.6929 22.1198C27.6242 22.1198 27.5563 22.1334 27.4929 22.1598C27.3544 22.2004 27.2357 22.2906 27.1596 22.4131C27.124 22.4743 27.1009 22.5419 27.0917 22.612C27.0825 22.6822 27.0874 22.7534 27.106 22.8217C27.1246 22.8899 27.1566 22.9538 27.2002 23.0096C27.2437 23.0653 27.2979 23.1119 27.3596 23.1465L27.6262 23.3065L27.7996 23.3865C28.0087 23.5665 28.1421 23.8189 28.1729 24.0931C28.186 24.1815 28.186 24.2714 28.1729 24.3598C28.1728 24.7065 28.0808 25.047 27.9062 25.3465L27.3329 26.3331C27.2073 26.5637 27.0342 26.7649 26.8251 26.9235C26.6159 27.0821 26.3754 27.1945 26.1196 27.2531C25.0803 27.4256 24.0132 27.2864 23.0529 26.8531C23.0256 26.1028 22.8536 25.3648 22.5462 24.6798C21.5282 22.4972 20.0975 20.5322 18.3329 18.8931C18.559 18.716 18.7607 18.5097 18.9329 18.2798L22.4662 20.3065C22.5452 20.3592 22.638 20.3874 22.7329 20.3874C22.8278 20.3874 22.9206 20.3592 22.9996 20.3065C23.0773 20.2647 23.1428 20.2034 23.1896 20.1286C23.2364 20.0537 23.2628 19.968 23.2662 19.8798C23.27 19.7848 23.247 19.6907 23.1999 19.6082C23.1527 19.5257 23.0833 19.4581 22.9996 19.4131L19.4796 17.3598C19.5747 17.0744 19.6373 16.7792 19.6662 16.4798C19.7412 16.493 19.8179 16.493 19.8929 16.4798C22.0897 15.8158 24.3947 15.5848 26.6796 15.7998C27.6079 15.9007 28.4887 16.2622 29.2201 16.8427C29.9515 17.4231 30.5038 18.1987 30.8129 19.0798C30.8996 19.3287 30.9313 19.5935 30.906 19.8559C30.8807 20.1182 30.7989 20.372 30.6662 20.5998H30.6796Z" fill="#6CC25E"/>
</g>
<defs>
<clipPath id="clip0_7544_39339">
<rect width="32" height="32" fill="white"/>
</clipPath>
</defs>
</svg>
