<svg width="57" height="59" viewBox="0 0 57 59" fill="none" xmlns="http://www.w3.org/2000/svg">
<path d="M56.9073 34.8894V26.302L49.9955 25.2548C49.4719 23.3698 48.7388 21.4847 47.6916 19.8091L51.8805 14.154L45.8065 8.07999L40.1514 12.269C38.4758 11.2217 36.5908 10.4887 34.7057 9.96503L33.6585 3.05322H25.0711L24.0238 9.96503C22.1388 10.4887 20.2538 11.2217 18.5782 12.269L12.9231 8.07999L6.84904 14.154L11.038 19.8091C9.99077 21.4847 9.2577 23.3698 8.73408 25.2548L1.82227 26.302V34.8894L8.73408 35.9367C9.2577 37.8217 9.99077 39.7068 11.038 41.3824L6.84904 47.0375L12.9231 53.1115L18.5782 48.9225C20.2538 49.9698 22.1388 50.7028 24.0238 51.2264L25.0711 58.1383H33.6585L34.7057 51.2264C36.5908 50.7028 38.4758 49.9698 40.1514 48.9225L45.8065 53.1115L51.8805 47.0375L47.6916 41.3824C48.7388 39.7068 49.4719 37.8217 49.9955 35.9367L56.9073 34.8894ZM29.2601 43.791C22.0341 43.791 16.0648 37.9264 16.0648 30.5957C16.0648 23.3698 21.9294 17.4005 29.2601 17.4005C36.5908 17.4005 42.4553 23.3698 42.4553 30.5957C42.4553 37.9264 36.486 43.791 29.2601 43.791Z" fill="url(#paint0_linear_1_3)"/>
<path d="M55.7628 32.3111V23.7237L48.851 22.6764C48.3273 20.7914 47.5943 18.9063 46.547 17.2308L50.736 11.5756L44.662 5.50163L39.0069 9.6906C37.3313 8.64336 35.4462 7.91029 33.5612 7.38666L32.514 0.474854H23.9266L22.8793 7.38666C20.9943 7.91029 19.1092 8.64336 17.4336 9.6906L11.7785 5.50163L5.7045 11.5756L9.89348 17.2308C8.84624 18.9063 8.11317 20.7914 7.58954 22.6764L0.677734 23.7237V32.3111L7.58954 33.3583C8.11317 35.2434 8.84624 37.1284 9.89348 38.804L5.7045 44.4591L11.7785 50.5331L17.4336 46.3441C19.1092 47.3914 20.9943 48.1245 22.8793 48.6481L23.9266 55.5599H32.514L33.5612 48.6481C35.4462 48.1245 37.3313 47.3914 39.0069 46.3441L44.662 50.5331L50.736 44.4591L46.547 38.804C47.5943 37.1284 48.3273 35.2434 48.851 33.3583L55.7628 32.3111ZM28.1155 41.2126C20.8895 41.2126 14.9203 35.3481 14.9203 28.0174C14.9203 20.7914 20.7848 14.8221 28.1155 14.8221C35.4462 14.8221 41.3108 20.7914 41.3108 28.0174C41.3108 35.3481 35.3415 41.2126 28.1155 41.2126Z" fill="url(#paint1_linear_1_3)"/>
<defs>
<linearGradient id="paint0_linear_1_3" x1="1.82227" y1="30.5959" x2="56.9073" y2="30.5959" gradientUnits="userSpaceOnUse">
<stop stop-color="#85D678"/>
<stop offset="0.593" stop-color="#5BB44C"/>
<stop offset="1" stop-color="#518C47"/>
</linearGradient>
<linearGradient id="paint1_linear_1_3" x1="1.01189" y1="28.0174" x2="60.8053" y2="28.0174" gradientUnits="userSpaceOnUse">
<stop stop-color="#FFF9DF"/>
<stop offset="0.593" stop-color="#FFE177"/>
<stop offset="1" stop-color="#FEB137"/>
</linearGradient>
</defs>
</svg>
