<svg width="24" height="24" viewBox="0 0 24 24" fill="none" xmlns="http://www.w3.org/2000/svg">
<g id="Icons" clip-path="url(#clip0_1725_2297)">
<path id="Vector" d="M23.5954 6.58228L21.6678 5.51067C22.1803 3.96178 21.5546 2.20959 20.0874 1.36252C18.4549 0.419953 16.373 0.940219 15.3681 2.51344C14.9355 1.06181 13.5892 0 11.9988 0C10.4096 0 9.06398 1.06022 8.63039 2.5103C8.157 1.76991 7.43498 1.24027 6.58059 1.01133C4.70386 0.508453 2.77776 1.62023 2.27484 3.49725C2.09461 4.17005 2.11711 4.86492 2.33212 5.51086L0.404951 6.58228C-0.00768955 6.80489 -0.0880333 7.24538 0.0937949 7.56628C0.437623 8.17313 1.0747 7.81683 1.07939 7.81631C1.42397 7.63519 1.9259 7.76484 2.11134 8.08594L2.31431 8.4375H2.15508C1.71234 8.4375 1.3785 8.84292 1.46564 9.27853C2.35392 13.7203 5.60592 17.1466 9.57553 19.2566L7.19109 22.9128C6.88697 23.3791 7.22151 24 7.78003 24H16.2175C16.7744 24 17.1115 23.3805 16.8065 22.9128L14.4221 19.2567C18.3695 17.1598 21.6375 13.751 22.532 9.27853C22.6188 8.84428 22.2867 8.4375 21.8425 8.4375H21.686L21.8889 8.08594C22.0746 7.76442 22.5767 7.63538 22.9209 7.81631C22.9256 7.81683 23.5628 8.1728 23.9065 7.56628C24.0863 7.24898 24.012 6.80691 23.5954 6.58228ZM17.6238 2.8125H16.9494C17.6101 2.2417 18.5865 2.11978 19.3843 2.58037C20.1996 3.05109 20.5817 3.9877 20.3894 4.86173C19.2707 4.44211 18.0351 4.4453 16.9237 4.86094C16.9548 4.50173 17.2566 4.21875 17.6238 4.21875C18.0121 4.21875 18.3269 3.90394 18.3269 3.51562C18.3269 3.12731 18.0121 2.8125 17.6238 2.8125ZM14.8113 4.21875H15.6349C15.5569 4.43873 15.5144 4.67545 15.5144 4.92188V6.32812C15.5144 7.24477 14.9265 8.02631 14.1082 8.31656V7.73438C14.1082 6.58655 13.7131 5.52923 13.052 4.6912C13.5829 4.38403 14.188 4.21875 14.8113 4.21875ZM11.9988 1.40625C12.9402 1.40625 13.7392 2.02622 14.0098 2.8792C13.2869 2.99822 12.6 3.27689 11.9978 3.69698C11.4087 3.28547 10.7258 2.99958 9.98808 2.87817C10.259 2.0257 11.0578 1.40625 11.9988 1.40625ZM9.18628 4.21875C11.1248 4.21875 12.7019 5.79586 12.7019 7.73438V8.4375H10.5925C9.42942 8.4375 8.48315 7.49123 8.48315 6.32812V4.92188C8.48315 4.67541 8.44026 4.43883 8.36222 4.21875H9.18628ZM3.63319 3.86119C3.93492 2.73511 5.09044 2.06789 6.21665 2.36962C6.53039 2.45372 6.81417 2.60564 7.05248 2.81245H6.37383C5.98551 2.81245 5.6707 3.12727 5.6707 3.51558C5.6707 3.90389 5.98551 4.2187 6.37383 4.2187C6.74062 4.2187 7.04231 4.50117 7.07381 4.85995C5.96292 4.4453 4.72804 4.44263 3.61036 4.86197C3.53779 4.53525 3.54408 4.19377 3.63319 3.86119ZM2.8552 6.82903C3.28012 6.69033 4.9095 5.18227 7.07897 6.4088C7.09622 7.1685 7.35469 7.86961 7.78195 8.4375H3.93811C3.39797 7.55794 3.3179 7.20713 2.8552 6.82903ZM14.9196 22.5938H12.7019V21.8906C12.7019 21.5023 12.3871 21.1875 11.9988 21.1875C11.6105 21.1875 11.2957 21.5023 11.2957 21.8906V22.5938H9.07804L10.9734 19.6875H13.0241L14.9196 22.5938ZM13.2419 18.2812H10.7557C8.79994 17.3183 4.42176 14.6737 3.04772 9.83906H20.9498C19.5756 14.6745 15.195 17.3194 13.2419 18.2812ZM20.0622 8.4375H16.2157C16.6426 7.87003 16.901 7.16948 16.9186 6.41039C19.0887 5.18077 20.7262 6.69239 21.1451 6.82903C20.6862 7.20398 20.6129 7.54073 20.0622 8.4375Z" fill="#6CC25E"/>
</g>
<defs>
<clipPath id="clip0_1725_2297">
<rect width="24" height="24" fill="white"/>
</clipPath>
</defs>
</svg>
