<svg xmlns="http://www.w3.org/2000/svg" width="24" height="25" viewBox="0 0 24 25" fill="none">
  <path d="M3 6.94805C3 5.04374 4.54374 3.5 6.44805 3.5H17.552C19.4562 3.5 21 5.04374 21 6.94805V18.052C21 19.9562 19.4562 21.5 17.552 21.5H6.44805C4.54374 21.5 3 19.9562 3 18.052V6.94805ZM16.9546 9.74028C17.2056 9.48923 17.2056 9.0822 16.9546 8.83115C16.7035 8.58009 16.2965 8.58009 16.0454 8.83115L10.0714 14.8052L7.95456 12.6882C7.70352 12.4372 7.29648 12.4372 7.04544 12.6882C6.79437 12.9393 6.79437 13.3464 7.04544 13.5975L9.61686 16.1689C9.86791 16.4199 10.2749 16.4199 10.526 16.1689L16.9546 9.74028Z" fill="#6CC25E"/>
</svg>