<svg xmlns="http://www.w3.org/2000/svg" width="24" height="25" viewBox="0 0 24 25" fill="none">
  <path d="M18.25 3.5C19.7688 3.5 21 4.73122 21 6.25V18.75C21 20.2688 19.7688 21.5 18.25 21.5H5.75C4.23122 21.5 3 20.2688 3 18.75V6.25C3 4.73122 4.23122 3.5 5.75 3.5H18.25ZM18.25 5H5.75C5.05964 5 4.5 5.55964 4.5 6.25V18.75C4.5 19.4404 5.05964 20 5.75 20H18.25C18.9404 20 19.5 19.4404 19.5 18.75V6.25C19.5 5.55964 18.9404 5 18.25 5ZM10 14.9393L16.4697 8.46967C16.7626 8.17678 17.2374 8.17678 17.5303 8.46967C17.7966 8.73594 17.8208 9.1526 17.6029 9.44621L17.5303 9.53033L10.5303 16.5303C10.2641 16.7966 9.8474 16.8208 9.55379 16.6029L9.46967 16.5303L6.46967 13.5303C6.17678 13.2374 6.17678 12.7626 6.46967 12.4697C6.73594 12.2034 7.1526 12.1792 7.44621 12.3971L7.53033 12.4697L10 14.9393Z" fill="#242424"/>
</svg>