<svg width="24" height="24" viewBox="0 0 24 24" fill="none" xmlns="http://www.w3.org/2000/svg">
<g clip-path="url(#clip0_254_4111)">
<path d="M18.3268 3.51562C18.3268 3.90375 18.0118 4.21875 17.6236 4.21875C17.236 4.21875 16.9205 4.53422 16.9205 4.92188V6.32812C16.9205 7.11891 16.658 7.84969 16.2155 8.4375H15.5143V7.73438C15.5143 5.86266 14.6972 4.17797 13.4016 3.01828C13.8549 2.88281 14.3293 2.8125 14.8111 2.8125H17.6236C18.0118 2.8125 18.3268 3.1275 18.3268 3.51562Z" fill="#6CC25E"/>
<path d="M14.108 7.73438V8.4375H7.78178C7.33928 7.84969 7.07678 7.11891 7.07678 6.32812V4.92188C7.07678 4.53422 6.76131 4.21875 6.37366 4.21875C5.98553 4.21875 5.67053 3.90375 5.67053 3.51562C5.67053 3.1275 5.98553 2.8125 6.37366 2.8125H9.18616C11.9002 2.8125 14.108 5.02031 14.108 7.73438Z" fill="#6CC25E"/>
<path d="M14.8094 1.40625C13.8245 1.40672 12.864 1.635 11.9973 2.06578C11.1503 1.64391 10.1964 1.40625 9.18811 1.40625C9.82983 0.552656 10.8512 0 11.9987 0C13.1467 0 14.1676 0.552656 14.8094 1.40625Z" fill="#6CC25E"/>
<path d="M23.9064 7.5661C23.7161 7.90219 23.2904 8.02172 22.9529 7.83422L22.9206 7.81641C22.5773 7.6358 22.0747 7.76396 21.8889 8.08594L21.6859 8.43751H17.8511C18.1562 7.79813 18.3269 7.08282 18.3269 6.32813V5.50454C18.7886 5.34094 19.1772 5.02079 19.4275 4.60782C20.0115 4.69969 20.5829 4.89704 21.1117 5.20172L23.5951 6.58219C24.0053 6.80396 24.0896 7.24294 23.9064 7.5661Z" fill="#6CC25E"/>
<path d="M21.818 3.98531L21.8035 3.97734C21.1562 3.60609 20.4474 3.35391 19.7138 3.23016C19.5737 2.20172 18.6896 1.40625 17.6237 1.40625H16.4987C17.5613 0.760312 18.9362 0.697968 20.0874 1.36266C21.0812 1.93641 21.6887 2.925 21.818 3.98531Z" fill="#6CC25E"/>
<path d="M6.14676 8.4375H2.31427L2.1113 8.08594C1.92577 7.76442 1.42383 7.63561 1.07911 7.81641L1.04723 7.83422C0.709734 8.02172 0.284109 7.90219 0.0937963 7.56609C-0.0828756 7.25456 -0.0189381 6.81759 0.404578 6.58219L2.88848 5.20172C3.4163 4.89797 3.98677 4.70062 4.56989 4.60875C4.82114 5.02125 5.20927 5.34094 5.67052 5.50453V6.32812C5.67052 7.08281 5.84114 7.79812 6.14676 8.4375Z" fill="#6CC25E"/>
<path d="M7.50432 1.40625H6.3737C5.30729 1.40625 4.42276 2.20219 4.28354 3.23109C3.55088 3.35437 2.8426 3.60656 2.19666 3.97734L2.17932 3.98672C2.30729 2.92641 2.9162 1.93781 3.91276 1.36266C5.06776 0.695625 6.44167 0.7575 7.50432 1.40625Z" fill="#6CC25E"/>
<path d="M2.52906 9.84375C2.30293 9.84375 2.09063 9.9525 1.95849 10.136C1.82635 10.3194 1.79035 10.5554 1.86202 10.7698C2.91259 13.9145 5.16263 16.4329 7.93885 18.2812H16.0609C18.8677 16.4136 21.0938 13.8913 22.1356 10.7696C22.2072 10.5552 22.1712 10.3194 22.0391 10.136C21.9069 9.95255 21.6946 9.84375 21.4685 9.84375H2.52906Z" fill="#6CC25E"/>
<path d="M16.2174 24H12.7018V21.8906C12.7018 21.5025 12.3868 21.1875 11.9987 21.1875C11.6106 21.1875 11.2956 21.5025 11.2956 21.8906V24H7.77994C7.22166 24 6.88697 23.3789 7.19119 22.913L9.29494 19.6875H14.7024L16.8062 22.913C17.1113 23.3803 16.7743 24 16.2174 24Z" fill="#6CC25E"/>
</g>
<defs>
<clipPath id="clip0_254_4111">
<rect width="24" height="24" fill="white"/>
</clipPath>
</defs>
</svg>
