<svg width="36" height="36" viewBox="0 0 36 36" fill="none" xmlns="http://www.w3.org/2000/svg">
<g clip-path="url(#clip0_1430_20339)">
<path d="M35.9668 0.00830078H-0.0332031V36.0083H35.9668V0.00830078Z" fill="url(#paint0_linear_1430_20339)"/>
<path d="M18.2118 7.96404C21.6166 7.96404 22.0235 7.98065 23.3689 8.03878C24.6145 8.09691 25.2872 8.30452 25.7356 8.47892C26.3336 8.71144 26.7571 8.98549 27.2055 9.43393C27.654 9.88238 27.928 10.3059 28.1605 10.9038C28.3349 11.3523 28.5426 12.0249 28.6007 13.2706C28.6588 14.6159 28.6754 15.0229 28.6754 18.4277C28.6754 21.8326 28.6588 22.2395 28.6007 23.5848C28.5426 24.8305 28.3349 25.5031 28.1605 25.9516C27.928 26.5495 27.654 26.973 27.2055 27.4215C26.7571 27.8699 26.3336 28.144 25.7356 28.3765C25.2872 28.5509 24.6145 28.7585 23.3689 28.8166C22.0235 28.8748 21.6166 28.8914 18.2118 28.8914C14.8069 28.8914 14.4 28.8748 13.0547 28.8166C11.809 28.7585 11.1363 28.5509 10.6879 28.3765C10.09 28.144 9.66643 27.8699 9.21798 27.4215C8.76954 26.973 8.49549 26.5495 8.26297 25.9516C8.08857 25.5031 7.88096 24.8305 7.82283 23.5848C7.7647 22.2395 7.74809 21.8326 7.74809 18.4277C7.74809 15.0229 7.7647 14.6159 7.82283 13.2706C7.88096 12.0249 8.08857 11.3523 8.26297 10.9038C8.49549 10.3059 8.76954 9.88238 9.21798 9.43393C9.66643 8.98549 10.09 8.71144 10.6879 8.47892C11.1363 8.30452 11.809 8.09691 13.0547 8.03878C14.4 7.98065 14.8069 7.96404 18.2118 7.96404ZM30.9675 18.735V18.1038C30.9675 14.9315 30.9509 14.4748 30.8927 13.1627C30.8346 11.809 30.6187 10.8789 30.3031 10.0651C29.9792 9.22632 29.5391 8.51214 28.8332 7.80625C28.1273 7.10037 27.4131 6.66023 26.5744 6.33636C25.7605 6.02079 24.8387 5.80487 23.4768 5.74674C22.1564 5.68861 21.708 5.672 18.5356 5.672H17.9045C14.7322 5.672 14.2754 5.68861 12.9633 5.74674C11.6097 5.80487 10.6796 6.02079 9.86574 6.33636C9.02698 6.66023 8.31279 7.10037 7.60691 7.80625C6.90103 8.51214 6.46089 9.22632 6.13702 10.0651C5.82145 10.8789 5.60553 11.8007 5.5474 13.1627C5.48927 14.5246 5.47266 14.9564 5.47266 18.4194C5.47266 21.8824 5.48927 22.3142 5.5474 23.6761C5.60553 25.0298 5.82145 25.9599 6.13702 26.7737C6.46089 27.6125 6.90103 28.3267 7.60691 29.0326C8.31279 29.7384 9.02698 30.1786 9.86574 30.5024C10.6796 30.818 11.6014 31.0339 12.9633 31.0921C14.3253 31.1502 14.7571 31.1668 18.2201 31.1668C21.683 31.1668 22.1149 31.1502 23.4768 31.0921C24.8304 31.0339 25.7605 30.818 26.5744 30.5024C27.4131 30.1786 28.1273 29.7384 28.8332 29.0326C29.5391 28.3267 29.9792 27.6125 30.3031 26.7737C30.6187 25.9599 30.8346 25.0381 30.8927 23.6761C30.9509 22.3557 30.9675 21.9073 30.9675 18.735ZM18.2118 11.8672C14.591 11.8672 11.6595 14.7986 11.6595 18.4194C11.6595 22.0402 14.591 24.9717 18.2118 24.9717C21.8325 24.9717 24.764 22.0402 24.764 18.4194C24.764 14.7986 21.8325 11.8672 18.2118 11.8672ZM18.2118 22.6713C15.8616 22.6713 13.9599 20.7696 13.9599 18.4194C13.9599 16.0692 15.8616 14.1675 18.2118 14.1675C20.5619 14.1675 22.4637 16.0692 22.4637 18.4194C22.4637 20.7696 20.5619 22.6713 18.2118 22.6713ZM26.5495 11.6097C26.5495 12.4568 25.8602 13.1377 25.0214 13.1377C24.1744 13.1377 23.4934 12.4485 23.4934 11.6097C23.4934 10.7627 24.1827 10.0817 25.0214 10.0817C25.8685 10.0817 26.5495 10.771 26.5495 11.6097Z" fill="#BCBCBC"/>
<path d="M18.1204 7.41594C21.5253 7.41594 21.9322 7.43255 23.2775 7.49068C24.5232 7.54881 25.1959 7.75643 25.6443 7.93082C26.2422 8.16335 26.6658 8.4374 27.1142 8.88584C27.5627 9.33428 27.8367 9.75781 28.0692 10.3557C28.2436 10.8042 28.4512 11.4768 28.5094 12.7225C28.5675 14.0678 28.5841 14.4748 28.5841 17.8796C28.5841 21.2845 28.5675 21.6914 28.5094 23.0367C28.4512 24.2824 28.2436 24.955 28.0692 25.4035C27.8367 26.0014 27.5627 26.4249 27.1142 26.8734C26.6658 27.3218 26.2422 27.5959 25.6443 27.8284C25.1959 28.0028 24.5232 28.2104 23.2775 28.2685C21.9322 28.3267 21.5253 28.3433 18.1204 28.3433C14.7156 28.3433 14.3087 28.3267 12.9634 28.2685C11.7177 28.2104 11.045 28.0028 10.5966 27.8284C9.99865 27.5959 9.57512 27.3218 9.12668 26.8734C8.67823 26.4249 8.40419 26.0014 8.17166 25.4035C7.99726 24.955 7.78965 24.2824 7.73152 23.0367C7.67339 21.6914 7.65678 21.2845 7.65678 17.8796C7.65678 14.4748 7.67339 14.0678 7.73152 12.7225C7.78965 11.4768 7.99726 10.8042 8.17166 10.3557C8.40419 9.75781 8.67823 9.33428 9.12668 8.88584C9.57512 8.4374 9.99865 8.16335 10.5966 7.93082C11.045 7.75643 11.7177 7.54881 12.9634 7.49068C14.3087 7.43255 14.7156 7.41594 18.1204 7.41594ZM30.8762 18.1869V17.5557C30.8762 14.3834 30.8595 13.9267 30.8014 12.6146C30.7433 11.2609 30.5274 10.3308 30.2118 9.51698C29.8879 8.67823 29.4478 7.96404 28.7419 7.25816C28.036 6.55228 27.3218 6.11214 26.4831 5.78826C25.6692 5.47269 24.7474 5.25677 23.3855 5.19864C22.0651 5.14051 21.6166 5.1239 18.4443 5.1239H17.8132C14.6409 5.1239 14.1841 5.14051 12.872 5.19864C11.5184 5.25677 10.5883 5.47269 9.77443 5.78826C8.93567 6.11214 8.22149 6.55228 7.5156 7.25816C6.80972 7.96404 6.36958 8.67823 6.04571 9.51698C5.73014 10.3308 5.51422 11.2526 5.45609 12.6146C5.39796 13.9765 5.38135 14.4083 5.38135 17.8713C5.38135 21.3343 5.39796 21.7661 5.45609 23.1281C5.51422 24.4817 5.73014 25.4118 6.04571 26.2256C6.36958 27.0644 6.80972 27.7786 7.5156 28.4845C8.22149 29.1903 8.93567 29.6305 9.77443 29.9544C10.5883 30.2699 11.5101 30.4858 12.872 30.544C14.2339 30.6021 14.6658 30.6187 18.1288 30.6187C21.5917 30.6187 22.0236 30.6021 23.3855 30.544C24.7391 30.4858 25.6692 30.2699 26.4831 29.9544C27.3218 29.6305 28.036 29.1903 28.7419 28.4845C29.4478 27.7786 29.8879 27.0644 30.2118 26.2256C30.5274 25.4118 30.7433 24.49 30.8014 23.1281C30.8595 21.8076 30.8762 21.3592 30.8762 18.1869ZM18.1204 11.3191C14.4997 11.3191 11.5682 14.2505 11.5682 17.8713C11.5682 21.4921 14.4997 24.4236 18.1204 24.4236C21.7412 24.4236 24.6727 21.4921 24.6727 17.8713C24.6727 14.2505 21.7412 11.3191 18.1204 11.3191ZM18.1204 22.1232C15.7703 22.1232 13.8685 20.2215 13.8685 17.8713C13.8685 15.5211 15.7703 13.6194 18.1204 13.6194C20.4706 13.6194 22.3724 15.5211 22.3724 17.8713C22.3724 20.2215 20.4706 22.1232 18.1204 22.1232ZM26.4582 11.0616C26.4582 11.9087 25.7689 12.5896 24.9301 12.5896C24.0831 12.5896 23.4021 11.9004 23.4021 11.0616C23.4021 10.2146 24.0914 9.53359 24.9301 9.53359C25.7772 9.53359 26.4582 10.2229 26.4582 11.0616Z" fill="url(#paint1_linear_1430_20339)"/>
</g>
<defs>
<linearGradient id="paint0_linear_1430_20339" x1="17.9671" y1="0.00531116" x2="17.9671" y2="36.0046" gradientUnits="userSpaceOnUse">
<stop stop-color="#FCCE15"/>
<stop offset="0.121569" stop-color="#FFD800"/>
<stop offset="0.290196" stop-color="#FF7E00"/>
<stop offset="0.458824" stop-color="#FF4211"/>
<stop offset="0.670588" stop-color="#EB368F"/>
<stop offset="0.909804" stop-color="#2E40F0"/>
<stop offset="1" stop-color="#2E40F0"/>
</linearGradient>
<linearGradient id="paint1_linear_1430_20339" x1="18.1228" y1="5.12149" x2="18.1228" y2="30.6318" gradientUnits="userSpaceOnUse">
<stop stop-color="white"/>
<stop offset="0.988235" stop-color="#F2F2F2"/>
<stop offset="1" stop-color="#E5E5E5"/>
</linearGradient>
<clipPath id="clip0_1430_20339">
<rect width="36" height="36" rx="18" fill="white"/>
</clipPath>
</defs>
</svg>
