<svg width="357" height="301" viewBox="0 0 357 301" fill="none" xmlns="http://www.w3.org/2000/svg">
<path d="M241.707 55.8576C241.271 55.914 239.721 56.6919 238.29 57.5572C235.091 59.4982 232.189 60.9705 230.334 61.6262C229.061 62.076 228.884 62.0927 228.362 61.6551C227.185 60.7372 226.263 60.8581 223.634 62.3201C219.772 64.49 213.286 69.2521 210.787 71.7616C210.342 72.2319 209.53 72.9279 208.987 73.3179C208.408 73.7454 208.044 74.1926 208.061 74.4436C208.092 75.1894 208.85 74.9668 209.681 73.9826C211.293 72.0959 214.836 69.0873 218.992 66.1533C221.881 64.1123 223.716 63.0579 225.188 62.5986C227 62.0764 227.721 62.5043 228.796 64.8122C230.634 68.7887 231.434 73.7074 231.498 81.6039C231.554 87.3876 231.726 89.602 232.169 89.5971C232.317 89.5955 232.628 88.9346 232.891 88.0379C234.19 83.8423 232.974 71.9692 230.518 64.9485C230.258 64.1535 235.62 60.6744 240.047 58.8086C242.327 57.8232 243 57.9414 244.227 59.3907C245.732 61.1989 246.998 64.8197 247.97 69.9655C248.676 73.6515 249.754 74.9546 250.418 72.8863C250.782 71.752 250.502 70.4105 248.987 65.6548C247.794 61.9594 246.235 58.5635 245.164 57.2381C244.236 56.1549 243.027 55.6436 241.707 55.8576Z" fill="#6CC25E"/>
<path d="M201.478 45.9779C200.237 45.9472 198.137 47.1374 196.757 48.6817C196.071 49.4428 193.856 52.2152 191.802 54.8676C189.748 57.52 188.036 59.7181 187.977 59.7483C187.911 59.8007 187.24 58.6039 186.448 57.0982C185.482 55.2175 184.475 53.692 183.196 52.1768C179.649 48.0196 178.524 47.1676 177.623 47.9088C177.016 48.4252 177.362 49.0271 179.334 50.9854C182.261 53.864 183.283 55.4189 185.276 60.0586L186.17 62.0877L183.647 65.0556C182.291 66.6809 180.255 68.9712 179.167 70.1429C177.758 71.7023 177.168 72.4697 177.121 72.9208C177.054 73.5126 176.907 73.588 175.705 73.8155C173.965 74.1152 171.575 75.1387 170.47 76.0595C168.764 77.4744 165.953 81.7973 164.665 84.9659C164.291 85.9008 163.908 86.6363 163.841 86.6149C163.774 86.5935 163.577 86.1376 163.431 85.5999C162.971 84.0536 161.127 81.008 159.955 79.8462C159.118 79.0132 158.59 78.6718 157.731 78.4448C156.723 78.1456 156.494 78.1703 155.489 78.7797C153.977 79.6679 153.559 80.6624 152.246 86.2765C151.139 91.024 147.371 103.21 147.166 102.703C146.712 101.674 145.52 87.968 145.851 87.7797C145.932 87.7567 146.036 88.5017 146.127 89.4389C146.275 91.4245 146.367 91.7485 146.756 91.53C146.925 91.4617 146.886 89.9034 146.629 87.3427C146.23 83.3136 146.245 83.2691 147.058 77.2985C148.323 68.0134 148.85 65.5328 150.548 61.392C151.951 57.9415 152.819 56.2328 153.413 55.8348C154.857 54.8512 160.301 60.8197 163.395 66.7697C164.542 69.0029 165.271 70.7827 166.919 75.5813C167.652 77.7304 167.975 78.2513 168.288 77.8121C168.536 77.4991 165.558 69.3538 164.275 66.8561C163.565 65.475 161.956 62.8479 160.702 61.0222C158.773 58.2435 158.464 57.678 158.794 57.4897C159.029 57.369 159.634 56.631 160.151 55.8644C160.733 55.0454 162.069 53.6345 163.394 52.4897C164.652 51.3974 165.911 50.305 166.218 50.0357C166.833 49.4971 166.746 49.0031 166.1 49.3352C165.865 49.456 164.422 50.5873 162.899 51.8894C161.362 53.1621 159.428 54.6017 158.568 55.0617L157.019 55.9135L155.856 54.9511C154.521 53.8354 153.877 53.7021 152.738 54.2686C151.203 55.0759 150.41 56.8576 148.876 63.1611C147.696 68.0572 146.776 73.135 146.194 78.0024C146.067 79.2375 145.909 80.2661 145.85 80.2962C145.821 80.3113 145.599 79.6267 145.353 78.7873C143.57 72.424 139.494 63.1162 135.936 57.3117C134.747 55.3596 133.575 53.5108 133.372 53.2249C132.99 52.7342 132.989 52.6603 133.458 52.271C133.721 52.0613 134.424 50.7903 135.008 49.5059C137.748 43.3443 139.299 41.9532 142.089 43.1194C143.819 43.8466 145.82 46.4768 147.862 50.813C148.769 52.7238 149.629 54.3249 149.807 54.382C150.808 54.7035 149.8 51.73 147.7 48.1849C145.133 43.8027 142.982 41.6395 140.446 40.8251C139.157 40.4108 139.031 40.4196 137.988 40.9924C136.652 41.7163 135.939 42.7879 133.687 47.5849C132.821 49.4412 132.025 51.0013 131.967 51.0315C131.901 51.0839 131.512 50.6892 131.093 50.1619C130.501 49.4075 130.114 49.1606 128.98 48.7962C127.823 48.4248 127.432 48.4217 126.489 48.6832C125.267 49.0511 124.894 49.4468 122.939 52.3271L121.674 54.2026L120.83 58.1272C120.359 60.2821 119.98 62.1479 119.975 62.3179C119.977 62.4656 119.743 64.1082 119.416 65.966C118.619 70.7397 118.41 73.9112 118.565 79.3097C118.645 81.8871 118.717 85.7869 118.711 87.9441C118.733 92.6127 119.065 95.9334 119.93 100.726C120.534 103.962 122.218 115.446 122.107 115.41C122.063 115.396 120.893 114.53 119.486 113.489C117.088 111.713 113.808 109.015 111.166 106.621C110.331 105.862 109.81 105.572 109.219 105.505C107.428 105.273 106.637 106.515 107.077 108.889C107.218 109.671 107.53 112.519 107.766 115.22C108.348 121.811 108.623 123.322 109.977 128.198C112.675 137.824 114.858 143.555 118.541 150.725C121.779 156.991 124.426 160.589 129.669 165.806C132.238 168.349 134.259 170.077 140.451 174.937C143.514 177.319 143.544 177.378 142.649 177.262C141.354 177.092 131.652 174.834 126.118 173.424C119.954 171.837 106.099 167.387 102.099 165.709C89.3039 160.323 79.6044 154.926 69.8338 147.764C61.1134 141.381 52.9454 132.819 45.4489 122.167C41.7499 116.956 41.2811 115.971 41.5404 114.018C41.6697 113.004 41.5371 113.035 44.8746 113.567C48.5822 114.169 51.6871 115.044 55.6713 116.618C67.8766 121.471 73.0707 124.244 84.9787 132.313C87.859 134.269 92.0627 136.993 94.3385 138.387C96.592 139.773 98.9726 141.298 99.6057 141.772C100.254 142.274 100.857 142.689 100.946 142.717C101.235 142.81 101.339 142.181 101.093 141.955C100.958 141.838 99.4149 140.533 97.6696 139.015C93.7248 135.638 93.3673 135.376 86.7051 130.758C75.2792 122.868 74.164 122.215 65.6918 118.267C56.4476 113.972 53.3974 112.698 46.9827 110.442C40.0191 107.984 39.4345 107.894 38.0646 108.951C35.8593 110.622 35.2526 115.261 36.7648 119.108C38.6799 123.992 52.7644 137.889 65.2327 147.194C83.8977 161.114 96.799 167.466 125.9 177.158C136.191 180.561 138.963 181.403 142.77 182.306C145.281 182.892 147.665 183.413 148.043 183.46C148.442 183.515 147.594 183.635 146.169 183.717C138.137 184.204 126.721 186.671 123.654 188.581C117.468 192.409 113.662 197.614 105.094 213.976C99.7103 224.244 98.2756 226.801 94.9328 231.861C92.7675 235.165 91.1429 237.244 89.3602 239.051C88.7757 239.648 87.6084 240.991 86.7707 242.071C85.933 243.152 84.7212 244.48 84.1066 245.019C82.7677 246.208 82.4112 246.707 82.054 247.819C81.7333 248.893 81.9177 249.541 82.7852 250.507C84.0857 251.882 84.8474 251.955 89.2703 251.094C92.0938 250.553 95.8677 249.115 99.7536 247.1C102.068 245.93 107.104 243.769 108.996 243.15C109.762 242.905 112.207 242.243 114.483 241.65C116.752 241.078 119.367 240.348 120.287 240.005C122.619 239.159 129.107 235.919 133.159 233.54C141.651 228.564 146.221 224.953 153.498 217.501C157.91 213.005 159.671 210.504 161.224 206.66C161.936 204.902 161.936 204.828 161.752 201.505C161.566 198.035 161.471 197.49 161.004 197.34C160.693 197.24 159.926 198.024 159.726 198.646C159.411 199.625 158.343 201.196 157.559 201.802C157.105 202.147 156.061 203.333 155.246 204.421C152.399 208.242 146.886 214.788 144.438 217.29C141.129 220.643 139.614 221.923 136.174 224.229C130.124 228.247 126.17 230.167 120.265 231.975C106.526 236.174 103.193 237.385 97.5062 240.195L93.7958 242.046L94.6978 240.766C99.5128 233.872 99.4477 233.998 107.979 216.988C113.531 205.89 116.587 200.959 120.282 197.091C124.022 193.165 128.984 190.931 135.801 190.103C137.77 189.852 144.998 190.113 149.073 190.563C151.041 190.778 151.952 190.997 153.473 191.608C155.706 192.522 156.334 192.478 157.473 191.225C159.144 189.382 159.366 186.018 157.888 184.66C157.291 184.076 157.147 183.759 157.152 182.829L157.169 181.705L157.862 182.296C158.228 182.61 158.855 183.179 159.228 183.545C160.065 184.378 160.131 184.399 160.26 183.999C160.317 183.821 160.105 183.336 159.812 182.947C159.505 182.529 158.671 181.231 157.993 180.056C154.027 173.385 152.867 170.657 151.502 164.747C148.795 152.934 149.341 140.769 153.037 131.553C154.584 127.731 155.788 125.738 157.964 123.395C160.009 121.23 161.058 120.561 161.925 120.84C162.281 120.954 162.542 121.136 162.506 121.247C162.463 121.381 162.964 121.959 163.621 122.587C166.913 125.705 172.54 133.622 176.316 140.429C177.529 142.61 179.385 147.45 179.912 149.779C180.613 153.022 181.334 158.872 181.36 161.923C181.413 166.037 180.938 167.897 179.079 170.857C177.286 173.765 175.593 175.601 173.013 177.447C170.594 179.172 169.815 180.296 170.403 181.295C170.825 182.043 171.937 182.401 172.849 182.08C173.924 181.714 178.206 178.771 180.093 177.096C183.085 174.426 185.108 170.954 185.699 167.512C186.108 165.092 186.074 163.363 185.622 159.121C184.512 148.827 182.263 142.462 175.643 130.914L172.487 125.386L173.416 124.482C174.651 123.308 177.353 121.772 178.731 121.454C181.347 120.871 184.977 121.791 187.665 123.734C188.953 124.688 190.474 126.6 191.388 128.488L191.933 129.62L188.379 132.281C182.371 136.78 182.495 136.697 182.152 137.691C181.865 138.506 181.889 138.661 182.381 139.04C182.716 139.295 183.161 139.438 183.582 139.426C184.172 139.419 184.384 139.218 185.147 137.99C186.338 136.116 188.31 134.099 191.824 131.18C195.558 128.11 196.768 127.247 200.087 125.467C202.966 123.914 204.424 123.499 206.678 123.585C208.311 123.619 209.403 124.191 211.128 125.849C212.995 127.675 215.623 132.249 216.219 134.747C216.319 135.122 216.439 135.21 216.674 135.089C216.902 134.99 216.804 134.149 216.308 132.027C215.479 128.571 215.198 127.843 213.982 126.054C212.48 123.854 210.869 122.453 209.157 121.903C207.934 121.51 207.379 121.48 205.683 121.72C203.175 122.043 200.603 123.327 196.609 126.215C195.07 127.34 193.677 128.315 193.552 128.398C193.405 128.473 193.098 128.13 192.804 127.594C191.786 125.647 189.572 123.145 187.994 122.098C186.35 121.03 182.456 119.632 181.305 119.704C180.958 119.715 180.661 119.645 180.623 119.534C180.592 119.402 181.323 117.355 182.22 114.944C183.348 111.969 183.862 110.368 183.835 109.918C183.76 108.47 181.652 108.235 181.202 109.636C180.866 110.681 180.061 116.09 180.039 117.457C180 119.26 179.834 119.624 178.955 119.686C177.494 119.805 173.773 122.069 172.299 123.755L171.84 124.27L170.211 121.931C168.305 119.233 166.663 117.7 165.084 117.193C164.061 116.864 163.855 116.896 162.164 117.653C159.789 118.706 159.474 118.924 157.751 120.775C154.071 124.745 151.913 128.714 150.154 134.724C149.129 138.222 148.94 139.192 148.462 143.504C147.79 149.569 147.825 154.807 148.561 160.613C149.577 168.447 150.875 172.274 154.507 178.078L156.146 180.69L155.221 180.589C153.158 180.368 143.108 175.373 138.546 172.313C133.381 168.839 126.817 162.387 123.222 157.233C119.71 152.204 116.195 144.892 113.343 136.738C110.414 128.289 109.192 119.947 110.056 113.821C110.214 112.719 110.354 111.365 110.378 110.833C110.394 110.323 110.493 109.864 110.551 109.834C110.617 109.781 110.93 109.955 111.243 110.203C111.533 110.444 113.653 111.787 115.922 113.203C123.099 117.594 126.702 120.812 132.61 128.009C133.935 129.612 137.838 135.258 139.822 138.398C140.845 140.027 142.22 142.162 142.844 143.123C143.497 144.068 144.596 145.992 145.35 147.387C146.271 149.106 146.766 149.854 147.001 149.733C147.442 149.507 144.187 141.616 142.616 139.173C139.519 134.301 138.477 132.887 134.891 128.546C130.93 123.765 129.211 121.863 126.665 119.401C125.328 118.138 124.357 117.114 124.513 117.164C125.002 117.322 125.955 116.646 126.169 115.979C126.291 115.601 126.274 113.437 126.117 111.178C125.737 105.486 125.972 102.004 127.347 93.294C127.871 89.9048 129.216 83.8841 129.481 83.7482C129.767 83.6195 131.458 86.2235 132.419 88.2741C134.295 92.361 136.958 100.798 138.227 106.701C139.318 111.861 139.592 114.672 139.539 120.568C139.5 127.18 139.604 129.912 139.961 130.174C140.282 130.4 140.467 129.748 140.823 127.188C141.458 122.46 141.081 113.703 139.992 108.691C139.346 105.662 136.547 95.5868 135.579 92.8714C134.45 89.6628 131.81 83.2942 130.936 81.7377C130.175 80.3645 129.958 80.1231 129.404 80.0923C128.539 80.0352 127.583 80.489 127.221 81.1578C126.859 81.8266 125.601 90.4025 124.608 98.9163C123.523 108.406 123.256 110.382 123.114 110.213C122.792 109.84 121.228 102.566 120.591 98.3619C119.575 91.9017 119.58 82.261 120.608 72.9489C121.098 68.3707 121.69 65.8377 123.619 59.8327C125.083 55.1995 125.242 54.858 126.218 53.5766C126.778 52.8244 127.362 52.1531 127.509 52.0776C128.243 51.7002 131.547 54.5525 133.759 57.5202C135.55 59.8867 142.026 72.4188 143.041 75.4439C143.447 76.7027 144.154 79.2363 144.566 81.086C145.172 83.7832 145.302 84.9046 145.187 86.5607C145.111 87.714 145.089 91.0681 145.151 94.0077C145.212 96.9472 145.204 100.257 145.127 101.336C144.925 104.412 145.448 105.684 146.653 105.065C146.866 104.937 147.368 104.902 147.774 104.935L148.507 105.023L147.659 106.517C146.521 108.531 144.921 113.513 144.309 117.021C143.83 119.812 143.253 125.122 142.715 131.991C142.559 134.002 142.329 135.94 142.208 136.318C141.886 137.319 142.056 137.938 142.755 138.359C143.543 138.808 144.856 138.616 145.262 137.962C145.473 137.612 145.402 136.534 145.036 134.16C144.32 129.513 144.235 126.493 144.671 121.775C145.428 113.308 147.389 107.51 151.246 102.222C154.565 97.6943 156.177 98.4819 160.01 106.485C160.751 107.999 161.753 110.529 162.258 112.089C163.137 114.776 163.568 115.651 163.76 115.05C163.868 114.717 162.824 111.167 161.989 109.108C161.624 108.181 160.466 105.601 159.415 103.374C156.874 97.994 155.896 97.0665 153.547 97.8089C152.45 98.1681 151.583 99.1897 150.28 101.642C148.608 104.785 148.578 104.8 148.902 102.034C149.056 100.562 149.76 98.0646 152.129 90.3852L155.14 80.6303L156.197 80.0869C157.167 79.5887 157.344 79.572 158.124 79.9697C159.981 80.9097 161.757 83.173 162.732 85.8661C163.135 86.9034 163.419 87.8532 163.39 87.9422C163.361 88.0312 163.509 88.7166 163.71 89.4679C164.492 92.1484 165.957 103.169 166.139 107.644C166.193 109.158 166.33 109.496 166.754 109.166C167.237 108.733 166.072 97.4648 164.938 91.6781L164.491 89.3264L165.131 89.0903C165.794 88.8615 165.815 88.7947 166.043 87.3222C166.468 84.3182 169.016 79.5918 171.269 77.543C173.157 75.8675 177.924 74.6998 180.103 75.3999C182.743 76.2723 185.02 79.8007 185.8 84.2468C186.138 86.1712 186.515 86.8319 186.696 85.8105C186.905 84.7001 186.143 80.505 185.47 79.0866C184.539 77.0947 182.957 74.918 181.997 74.2415C181.208 73.7182 181.2 73.6666 181.554 72.9461C181.763 72.5228 182.168 71.6466 182.471 71.008C183.834 67.9864 185.443 65.8042 191.162 59.152C195.575 54.0432 199.214 50.3539 200.572 49.6372L201.549 49.1168L202.184 49.7378C204.044 51.5864 207.354 57.7039 208.246 60.9594C208.586 62.2707 209.089 65.0576 209.334 67.1973C209.564 69.3076 209.879 71.151 209.999 71.2383C211.175 72.0824 209.044 58.9339 207.107 53.3554C206.313 51.0149 204.764 47.8922 204.07 47.2275C203.271 46.4311 202.379 45.9976 201.478 45.9779ZM151.811 183.567C151.598 183.621 151.147 183.648 150.815 183.615C150.231 183.599 150.238 183.577 150.738 183.394C151.047 183.272 151.498 183.245 151.742 183.324C152.113 183.467 152.128 183.497 151.811 183.567Z" fill="#6CC25E"/>
<path d="M256.856 69.1883C255.258 69.6565 253.485 70.9761 247.001 76.6468C244.411 78.9062 241.322 81.4961 240.157 82.3732C238.04 83.9995 237.684 84.5722 238.574 84.8579C238.952 84.9794 239.355 84.7164 240.465 83.5518C242.591 81.364 251.877 73.306 253.894 71.9172C256.005 70.4609 257.759 70.0428 258.705 70.7638C259.956 71.6809 261.281 75.9585 261.261 78.8472C261.212 83.1989 260.176 89.0242 258.426 94.5471L257.113 98.7871L256.084 99.2416C254.901 99.7938 254.676 100.188 255.207 100.751C255.707 101.255 255.979 101.171 256.921 100.148C257.856 99.1483 262.88 96.4929 264.45 96.1876L265.504 95.9618L265.251 96.4448C265.091 96.7125 264.836 98.3479 264.64 100.101C264.325 102.993 264.134 103.741 262.812 107.856C261.14 113.06 259.001 118.04 257.129 121.119C255.619 123.603 252.133 128.421 249.931 131.075C247.671 133.833 246.465 135.605 246.079 136.806C245.893 137.384 245.402 138.379 245.002 139.011C244.116 140.395 244.052 140.595 244.341 140.688C244.452 140.724 244.979 140.305 245.52 139.767C246.032 139.244 247.042 138.391 247.716 137.896C249.043 136.973 250.21 135.63 254.267 130.333C260.087 122.756 263.051 117.575 265.943 109.794C267.156 106.552 268.581 101.048 268.65 99.3034C268.752 97.0787 268.417 95.5236 267.677 94.6969C266.271 93.1905 265.137 93.5132 260.533 96.6959L258.355 98.2046L259.485 94.1513C260.104 91.9209 260.846 88.847 261.117 87.3148C261.799 83.5102 262.223 76.9972 261.963 74.8281C261.584 71.8847 260.242 69.4911 258.708 68.9981C258.397 68.8981 257.555 68.996 256.856 69.1883Z" fill="#6CC25E"/>
<path d="M299.907 107.479C297.624 107.482 296.544 108.018 292.331 111.204C291.005 112.201 289.078 113.618 288.059 114.346C283.814 117.325 282.614 118.388 283.304 118.609C283.393 118.638 284.338 117.984 285.422 117.13C289.26 114.119 293.334 112.36 296.995 112.113C298.951 111.981 298.929 111.974 299.41 112.692C300.648 114.489 298.203 121.187 293.357 129.321C287.93 138.349 282.683 145.595 278.161 150.202C273.689 154.728 261.646 164.035 252.331 170.121C250.556 171.293 247.198 173.65 244.912 175.344C240.412 178.659 239.349 179.372 235.509 181.549C232.697 183.124 231.542 184.274 231.672 185.322C231.794 186.318 232.808 186.521 234.3 185.847C234.933 185.559 237.161 183.969 239.204 182.343C241.255 180.696 244.215 178.506 245.777 177.462C250.633 174.262 259.722 167.735 263.53 164.739C268.042 161.158 269.315 160.021 276.055 153.55C285.938 144.015 287.382 142.271 295.185 130.277C302.849 118.484 304.334 115.771 304.44 113.302C304.476 111.891 303.713 109.683 302.885 108.902C302.078 108.127 300.719 107.47 299.907 107.479Z" fill="#6CC25E"/>
<path d="M233.692 89.7428C231.358 90.4407 225.4 93.4831 220.182 96.5913C215.624 99.3228 209.427 103.491 207.781 104.949C207.467 105.241 207.159 105.436 207.07 105.408C207.003 105.386 207.004 104.773 207.069 104.034C207.359 100.839 206.22 90.5609 205.142 86.5835C204.364 83.6592 202.864 80.9201 201.456 79.8052C199.816 78.4935 198.119 77.9728 196.638 78.3067C194.073 78.8814 191.648 80.7031 189.259 83.8616C187.49 86.2376 184.083 92.111 182.349 95.7498C180.523 99.6778 180.403 100.13 181.357 100.289C181.824 100.365 181.896 100.217 182.748 97.7179C184.214 93.3063 186.132 89.7024 189.11 85.7766C192.839 80.8895 196.761 78.7633 199.187 80.3768C200.586 81.2923 202.287 84.1695 203.108 86.9604C204.42 91.4302 206.08 105.433 205.501 107.161C205.272 107.873 205.29 108.198 205.697 108.917L206.202 109.791L207.173 109.44C207.916 109.188 208.765 108.455 210.693 106.424C215.513 101.348 223.232 96.4914 230.686 93.8315C235.233 92.2008 235.285 92.1928 235.413 93.0927C235.714 94.9067 235.266 97.9035 234.011 102.653C232.648 107.735 232.523 108.431 232.812 108.524C233.19 108.645 233.412 108.03 234.687 103.066C236.517 96.0725 237.163 91.6182 236.572 90.3244C236.194 89.516 235.135 89.2986 233.692 89.7428Z" fill="#6CC25E"/>
<path d="M242.116 105.378C239.778 106.394 236.481 110.929 235.202 114.91C234.473 117.179 234.465 117.74 235.13 117.807C235.478 117.87 235.856 117.304 237.175 114.955C239.225 111.246 240.054 110.04 241.342 108.933C242.323 108.095 242.8 107.831 243.119 107.909C243.208 107.937 243.546 108.488 243.9 109.141C244.647 110.559 245.018 112.69 245.115 116.131C245.163 118.576 245.463 119.629 245.799 118.584C245.942 118.139 245.544 108.761 245.336 107.345C245.02 105.428 243.748 104.651 242.116 105.378Z" fill="#6CC25E"/>
<path d="M229.374 110.29C229.192 110.477 228.893 110.872 228.726 111.162C228.378 111.712 224.559 120.545 224.273 121.435L224.102 121.969L223.59 121.117C223.297 120.655 222.781 120.048 222.438 119.741C221.625 119.063 218.429 118.012 218.419 118.426C218.436 118.603 218.712 118.888 219.04 119.091C220.355 119.808 221.486 121.177 221.974 122.635C222.234 123.43 222.596 124.135 222.774 124.192C223.019 124.271 222.951 124.789 222.388 126.693C221.961 128.175 221.772 129.145 221.914 129.24C222.07 129.364 222.603 128.087 223.642 125.158C226.057 118.327 228.199 114.256 230.125 112.764C230.58 112.42 231.003 111.942 231.081 111.698C231.389 110.741 230.025 109.641 229.374 110.29Z" fill="#6CC25E"/>
<path d="M232.077 112.263C231.635 112.415 231.607 112.504 231.76 113.633C231.834 114.319 232.031 114.849 232.15 114.862C232.298 114.861 232.572 114.311 232.787 113.644C233.201 112.354 232.99 111.942 232.077 112.263Z" fill="#6CC25E"/>
<path d="M267.836 124.068C267.159 124.267 266.118 125.062 264.422 126.676C260.949 129.928 255.209 134.659 246.595 141.388C242.471 144.602 238.633 147.614 238.033 148.108C236.964 148.991 236.964 148.991 237.347 148.256C239.947 143.448 242.578 135.485 243.254 130.402C244.188 123.293 243.88 120.74 241.755 118.34C240.85 117.338 239.657 117.004 238.162 117.382C236.99 117.668 232.888 120.129 230.881 121.717C229.358 122.945 219.239 133.214 215.414 137.407C206.947 146.735 195.597 162.742 191.014 171.893C188.91 176.076 186.395 183.83 187.133 183.822C187.325 183.835 187.707 182.952 188.337 181.068C189.703 176.968 193.222 169.756 196.638 164.009C203.087 153.174 210.918 143.079 220.874 132.782C226.09 127.391 229.062 124.936 232.713 123.041C235.306 121.691 237.751 121.029 237.928 121.625C237.959 121.758 238.18 122.442 238.395 123.149C239.406 126.418 238.661 133.932 236.71 140.004C234.967 145.43 230.414 154.641 228.724 156.159C227.729 157.041 227.548 157.376 227.993 157.519C228.238 157.597 228.21 157.76 227.875 158.266C220.652 169.22 217.608 173.198 212.712 178.053C209.248 181.504 207.497 182.831 204.11 184.589C200.46 186.484 199.472 186.657 194.828 186.22C193.541 186.101 192.313 187.326 192.379 188.648C192.424 189.349 192.298 189.358 188.837 188.982C186.226 188.708 183.516 188.745 180.868 189.121C178.397 189.481 176.038 189.263 170.796 188.242C168.168 187.716 167.407 187.717 167.264 188.162C167.014 188.941 167.527 189.179 171.198 189.818C173.145 190.174 175.55 190.554 176.519 190.669C177.488 190.784 179.509 191.212 180.991 191.639C183.585 192.349 186.226 192.756 187.747 192.681C188.146 192.661 190.83 192.861 193.743 193.11C196.634 193.352 201.957 193.737 205.543 193.956C209.121 194.197 212.655 194.498 213.373 194.631C214.624 194.861 214.661 194.898 214.49 195.431C214.397 195.72 213.543 196.624 212.598 197.424C209.305 200.268 202.974 202.258 195.835 202.713C188.298 203.187 179.444 200.122 168.376 193.181C165.028 191.075 163.53 190.545 162.524 191.081C161.356 191.662 161.301 192.749 162.352 194.215C163.139 195.277 163.422 195.466 168.855 198.487C173.143 200.871 176.002 202.206 182.836 204.99L184.766 205.782L186.188 208.152C186.978 209.436 188.24 212.075 188.993 214.009C191.014 219.173 194.675 228.323 195.919 231.324C197.019 233.934 199.285 237.802 201.106 240.154C204.897 245.003 210.235 248.091 218.457 250.144C231.539 253.413 244.39 254.499 262.394 253.903C270.599 253.643 276.729 253.576 282.375 253.721C285.131 253.772 287.893 253.727 288.542 253.616C290.82 253.17 291.194 252.922 292.333 251.056C292.907 250.111 293.311 249.235 293.25 249.118C292.956 248.581 290.55 246.754 289.876 246.562L289.12 246.319L289.713 245.847C290.138 245.517 290.435 244.974 290.748 243.922C291.869 240.356 290.563 237.778 284.573 231.83C280.742 228.023 279.167 226.585 270.553 219.107C265.355 214.591 256.675 207.853 252.887 205.361C251.771 204.634 249.437 203.345 247.67 202.507L244.491 200.946L245.606 200.912C246.227 200.89 248.56 200.806 250.827 200.699C253.086 200.616 258.27 200.441 262.332 200.322C270.559 200.07 276.553 199.664 283.415 198.924C285.931 198.653 289.525 198.31 291.4 198.127C303.37 197.065 313.929 194.593 320.343 191.354C322.451 190.289 323.155 189.779 324.58 188.323C325.858 187.016 326.346 186.338 326.603 185.538C327.374 183.136 326.307 181.493 323.155 180.308C320.336 179.231 296.241 174.73 282.582 172.722C279.134 172.228 276.278 171.802 276.211 171.78C276.144 171.759 276.013 171.938 275.935 172.182C275.842 172.471 275.947 172.677 276.214 172.763C276.437 172.834 280.152 173.414 284.436 174.054C297.281 175.997 304.122 177.311 311.664 179.341C316.947 180.768 322.368 183.368 322.247 184.433C322.099 185.735 314.871 189.522 308.725 191.547C303.52 193.237 294.919 195.725 291.419 196.539C281.73 198.824 255.992 200.126 245.65 198.865C241.73 198.391 238.317 197.712 235.382 196.842C228.994 194.962 226.453 194.392 225.792 194.694C224.902 195.096 224.397 196.822 224.879 197.689C225.203 198.284 225.396 198.37 227.419 198.873C229.574 199.418 229.612 199.454 230.13 200.283C230.604 201.024 230.79 201.133 231.64 201.235C233.467 201.429 241.32 204.098 243.363 205.221C247.533 207.517 254.456 212.317 257.916 215.293C265.426 221.778 269.143 225.254 272.544 228.948C274.57 231.119 278.421 236.699 280.163 239.908C280.977 241.421 281.608 242.36 281.62 242.094C281.67 240.638 281.827 240.149 282.224 239.982C282.879 239.701 283.023 240.091 282.978 241.99C282.882 244.732 282.844 244.622 284.348 245.669L285.717 246.6L280.416 247.522C262.042 250.723 249.362 251.164 236.78 249.012C230.149 247.888 220.606 245.289 216.404 243.473C208.878 240.172 203.704 235.198 199.702 227.337C198.713 225.376 196.886 221.746 195.669 219.27C194.218 216.301 192.818 213.864 191.663 212.266C189.96 209.928 188.379 207.212 188.493 206.856C188.529 206.745 188.995 206.821 189.529 206.993C191.041 207.479 194.349 207.265 200.241 206.336C205.949 205.446 212.071 203.88 214.105 202.816C217.829 200.847 219.719 198.706 220.534 195.557C221.264 192.675 220.401 190.779 218.127 190.22C217.193 189.994 217.074 189.907 217.389 189.689C217.602 189.561 219.943 188.154 222.608 186.581C228.267 183.246 230.233 181.939 235.515 177.944C242.842 172.397 246.541 168.825 250.332 163.59C253.236 159.591 253.715 158.788 253.22 158.801C253.05 158.796 252.356 159.505 251.708 160.376C249.873 162.805 247.329 165.3 241.636 170.268C233.887 177.053 230.296 179.678 224.122 183.166C218.887 186.097 215.783 187.357 210.73 188.654C210.273 188.777 209.693 189.131 209.46 189.473C209.213 189.786 208.891 190.1 208.722 190.168C208.479 190.237 204.66 190.287 202.665 190.234C202.177 190.225 202.382 190.046 203.755 189.284C208.543 186.676 215.937 179.163 222.978 169.77C225.599 166.27 231.831 157.255 234.199 153.55C236.124 150.537 236.044 150.634 242.32 145.682C251.037 138.864 258.499 132.895 261.39 130.462C264.355 127.955 267.642 125.895 267.883 126.365C267.974 126.541 267.686 127.896 267.274 129.408C266.699 131.578 266.304 132.58 265.435 134.141C264.472 135.917 264.364 136.177 264.504 136.811C264.683 137.703 265.284 137.895 266.068 137.362C266.706 136.905 267.738 134.685 269.648 129.655C270.71 126.807 270.846 125.697 270.163 124.692C269.599 123.849 268.985 123.701 267.836 124.068Z" fill="#6CC25E"/>
<path d="M190.921 103.287C189.534 103.406 188.988 104.187 188.499 106.705C188.268 107.882 187.893 109.43 187.658 110.164C187.258 111.409 186.67 115.759 186.72 116.978C186.738 117.303 186.859 117.538 186.992 117.507C187.316 117.415 189.688 114.153 190.711 112.42C191.146 111.677 191.977 110.006 192.54 108.714C193.83 105.841 193.886 104.828 192.767 103.88C191.962 103.18 191.94 103.173 190.921 103.287Z" fill="#6CC25E"/>
<path d="M201.349 110.538L200.555 110.872L199.816 113.554C199.418 115.022 198.498 118.038 197.761 120.255C196.747 123.413 196.499 124.34 196.721 124.411C196.877 124.461 197.198 124.147 197.437 123.709C197.647 123.285 198.615 121.952 199.533 120.775C201.835 117.81 204.169 114.438 204.492 113.585C204.902 112.538 204.835 111.83 204.238 111.245C203.423 110.42 202.283 110.151 201.349 110.538Z" fill="#6CC25E"/>
<path d="M213.772 118.307C211.113 119.71 209.861 120.706 210.022 121.273C210.069 121.509 210.383 121.831 210.68 121.975C211.148 122.199 211.294 122.124 211.592 121.655C212.223 120.607 213.38 119.604 214.848 118.775C215.649 118.345 216.345 117.858 216.381 117.746C216.574 117.146 215.571 117.364 213.772 118.307Z" fill="#6CC25E"/>
<path d="M194.802 113.122C194.303 113.452 191.6 121.564 191.913 121.812C192.173 121.993 193.706 119.59 195.391 116.329C196.354 114.479 196.526 114.019 196.374 113.651C196.139 113.085 195.301 112.791 194.802 113.122Z" fill="#6CC25E"/>
<path d="M174.737 108.835C174.325 109.047 173.828 109.525 173.626 109.926C172.981 111.093 172.579 114.865 172.867 116.871C172.996 117.845 173.088 118.856 173.061 119.093C172.972 119.751 173.423 119.724 173.711 119.056C173.84 118.73 174.34 117.86 174.775 117.116C176.205 114.803 176.824 109.898 175.83 108.868C175.494 108.539 175.324 108.533 174.737 108.835Z" fill="#6CC25E"/>
</svg>
