<svg width="191" height="191" viewBox="0 0 191 191" fill="none" xmlns="http://www.w3.org/2000/svg">
<g opacity="0.16" clip-path="url(#clip0_3412_23196)">
<path d="M157.148 33.0765C156.59 32.3959 155.746 32.0188 154.865 32.0597C154.582 32.073 150.51 32.2983 144.616 34.2996L139.578 20.1954C139.265 19.3189 138.535 18.6569 137.632 18.4312C136.731 18.206 135.774 18.4461 135.085 19.0721L124.004 29.1458C122.172 27.1961 120.475 25.685 119.106 24.5795V12.2073C119.106 11.3274 118.69 10.4995 117.984 9.97439C117.278 9.4493 116.366 9.28824 115.523 9.54133C115.167 9.64783 111.291 10.8561 106.113 14.1856L97.8154 1.73945C97.2996 0.96498 96.4305 0.5 95.4998 0.5C94.5691 0.5 93.7 0.96498 93.1841 1.73945L84.8768 14.2008C79.6444 10.8298 75.7487 9.62334 75.4767 9.5417C74.6339 9.28861 73.7214 9.4493 73.0156 9.97477C72.3097 10.4999 71.8937 11.3278 71.8937 12.2076V24.581C70.5574 25.6613 68.8589 27.1735 67.0031 29.1529L55.9145 19.0721C55.2261 18.4461 54.2698 18.2053 53.3673 18.4312C52.4644 18.6569 51.7341 19.3189 51.4213 20.1954L46.384 34.2996C40.4899 32.2983 36.4183 32.073 36.1344 32.0597C35.2531 32.0174 34.4092 32.3959 33.8518 33.0765C33.2944 33.7571 33.0918 34.6614 33.3052 35.5149L41.8329 69.6262C43.0115 74.3406 45.9554 78.3135 50.122 80.814C52.9869 82.5329 56.1931 83.4138 59.4499 83.4138C60.9302 83.4138 62.4212 83.2316 63.8948 82.8635C64.7546 82.6487 65.5889 82.3722 66.3971 82.043L80.9124 140.51C72.8174 140.917 66.9723 141.811 63.5323 143.174C60.6251 144.327 58.3407 146.542 57.1001 149.413C55.8595 152.283 55.8106 155.465 56.9632 158.372C58.7826 162.962 63.199 165.765 67.8607 165.765C69.2935 165.765 70.7497 165.501 72.1606 164.941C75.2644 163.711 79.5331 160.86 84.8728 156.46L92.7993 188.387L92.8019 188.387C93.1021 189.599 94.1946 190.5 95.5005 190.5C96.8064 190.5 97.8989 189.6 98.1991 188.387L98.2017 188.387L108.789 145.742C117.56 145.368 123.847 144.453 127.468 143.017C130.376 141.865 132.66 139.65 133.901 136.779C135.141 133.909 135.19 130.726 134.037 127.82C132.885 124.913 130.67 122.628 127.799 121.388C124.929 120.147 121.746 120.098 118.84 121.251C115.105 122.731 109.689 126.55 102.744 132.602C101.113 134.022 99.597 135.393 98.2833 136.605V65.3653C99.1469 65.49 100.025 65.5609 100.914 65.5609C101.633 65.5609 102.342 65.5141 103.04 65.4325C104.153 72.5564 109.409 78.4386 116.601 80.2369C117.466 80.4533 118.337 80.5969 119.207 80.6852L110.866 114.376C110.497 115.869 111.407 117.377 112.899 117.747C113.123 117.803 113.348 117.829 113.57 117.829C114.819 117.829 115.956 116.981 116.269 115.714L124.605 82.0434C125.413 82.3722 126.246 82.6483 127.106 82.8631C128.579 83.2316 130.07 83.4135 131.55 83.4135C134.807 83.4135 138.014 82.5321 140.878 80.8136C145.045 78.3135 147.989 74.3402 149.167 69.6259L157.695 35.5146C157.908 34.6614 157.705 33.7571 157.148 33.0765ZM135.74 25.9993L139.441 36.3592C137.137 37.4134 134.683 38.7264 132.156 40.3584C130.695 37.7296 129.146 35.4144 127.604 33.3963L135.74 25.9993ZM95.4998 8.30076L101.591 17.4367C99.6078 19.0198 97.543 20.8909 95.4864 23.0918C93.4331 20.8998 91.3739 19.0335 89.3975 17.4542L95.4998 8.30076ZM77.4598 16.3925C80.9373 18.111 86.4614 21.4694 91.8567 27.362C89.1737 30.8362 86.6032 34.9401 84.3632 39.7754C81.7578 45.4012 82.202 51.8909 85.5526 57.1348C86.153 58.0745 86.8314 58.9432 87.5717 59.7421C81.8101 58.5732 77.4598 53.4696 77.4598 47.368V16.3925ZM71.8934 32.0879V47.3684C71.8934 57.3998 80.0545 65.5609 90.0859 65.5609C90.9735 65.5609 91.8512 65.4952 92.7166 65.3716V140.27C91.1405 140.259 89.0168 140.261 86.598 140.311L71.795 80.6852C72.6645 80.5969 73.5344 80.4533 74.3986 80.2369C77.9099 79.3593 81.0457 77.4815 83.4659 74.8078C84.4976 73.6682 84.4096 71.9081 83.27 70.8764C82.1304 69.8448 80.3703 69.9328 79.339 71.0724C77.6613 72.9256 75.4863 74.2274 73.049 74.8368C68.8397 75.8892 64.4392 74.7325 61.2771 71.7433C58.1425 68.7801 56.7516 64.4947 57.5565 60.2802C60.2481 46.1902 66.9085 37.1329 71.8934 32.0879ZM92.7166 149.587V164.956L89.6012 152.407C90.7227 151.412 91.7718 150.458 92.7166 149.587ZM55.2591 25.9993L63.4061 33.4056C61.8683 35.4203 60.3182 37.7359 58.8546 40.3655C56.3238 38.7304 53.866 37.4149 51.5589 36.3592L55.2591 25.9993ZM52.9862 76.0406C50.0942 74.3054 48.0513 71.5478 47.2331 68.2758L39.717 38.2117C43.4936 39.0258 49.6537 40.9377 56.3624 45.3838C54.5934 49.4072 53.0875 54.0091 52.0888 59.2356C50.9255 65.3256 52.9309 71.5132 57.453 75.7882C58.2638 76.5549 59.1333 77.2344 60.0462 77.8304C57.5862 77.9458 55.1459 77.3364 52.9862 76.0406ZM70.1088 159.767C66.9612 161.014 63.3846 159.469 62.137 156.321C61.5324 154.796 61.558 153.127 62.2089 151.621C62.8595 150.115 64.0577 148.953 65.5829 148.349C70.2561 146.496 80.8397 145.941 88.5677 145.844C82.8733 151.067 74.7849 157.913 70.1088 159.767ZM120.891 126.425C121.624 126.135 122.39 125.989 123.155 125.989C123.982 125.989 124.808 126.159 125.591 126.497C127.096 127.148 128.258 128.346 128.863 129.871C129.467 131.396 129.441 133.065 128.791 134.57C128.14 136.076 126.942 137.238 125.417 137.843C120.744 139.695 110.16 140.25 102.432 140.347C108.126 135.125 116.215 128.279 120.891 126.425ZM99.8568 145.927C100.8 145.927 101.866 145.92 103.013 145.904L98.283 164.956V145.921C98.7606 145.925 99.2853 145.927 99.8568 145.927ZM90.2432 54.1386C87.9209 50.5034 87.6107 46.0087 89.4142 42.1156C94.6403 30.8321 101.881 24.0337 107.035 20.3175C109.529 18.5192 111.792 17.246 113.539 16.3858V47.3688C113.539 54.3309 107.875 59.9949 100.913 59.9949C96.5748 59.9949 92.5863 57.8054 90.2432 54.1386ZM108.454 63.9181C114.732 61.0462 119.106 54.7105 119.106 47.3684V32.0764C124.149 37.1607 130.751 46.1905 133.443 60.2802C134.248 64.4947 132.857 68.7801 129.723 71.7433C126.561 74.7325 122.16 75.8888 117.951 74.8368C112.742 73.5346 108.998 69.1483 108.454 63.9181ZM143.766 68.2762C142.948 71.5481 140.905 74.3057 138.013 76.0406C135.853 77.3364 133.413 77.9458 130.953 77.8307C131.866 77.2348 132.735 76.5549 133.547 75.7886C138.069 71.5136 140.074 65.3256 138.911 59.236C137.911 54.0058 136.412 49.4016 134.648 45.3782C141.314 40.967 147.49 39.0488 151.279 38.225L143.766 68.2762Z" fill="#6CC25E"/>
<g clip-path="url(#clip1_3412_23196)">
<path d="M149.458 163.226L146.168 162.67C145.831 161.557 145.379 160.473 144.821 159.437L146.754 156.732C147.524 155.658 147.399 154.21 146.466 153.279L143.628 150.45C143.118 149.941 142.445 149.663 141.723 149.663C141.165 149.663 140.627 149.836 140.165 150.162L137.442 152.09C136.375 151.524 135.259 151.064 134.095 150.718L133.546 147.476C133.344 146.172 132.228 145.232 130.911 145.232H126.889C125.571 145.232 124.456 146.172 124.234 147.467L123.667 150.776C122.551 151.121 121.464 151.572 120.434 152.138L117.751 150.229C117.289 149.903 116.75 149.73 116.192 149.73C115.471 149.73 114.797 150.008 114.287 150.517L111.449 153.346C110.516 154.277 110.391 155.725 111.161 156.799L113.114 159.543C112.565 160.579 112.123 161.662 111.796 162.785L108.544 163.331C107.236 163.533 106.293 164.646 106.293 165.96V169.969C106.293 171.283 107.236 172.396 108.535 172.616L111.854 173.182C112.2 174.295 112.652 175.379 113.22 176.405L111.305 179.081C110.536 180.156 110.661 181.604 111.594 182.534L114.432 185.364C114.941 185.872 115.615 186.15 116.336 186.15C116.894 186.15 117.433 185.978 117.895 185.652L120.646 183.705C121.647 184.232 122.705 184.664 123.782 184.99L124.331 188.261C124.552 189.556 125.668 190.496 126.986 190.496H131.007C132.325 190.496 133.441 189.556 133.662 188.261L134.22 184.98C135.336 184.645 136.423 184.194 137.462 183.637L140.174 185.565C140.636 185.891 141.175 186.064 141.733 186.064C142.454 186.064 143.128 185.786 143.638 185.278L146.476 182.448C147.409 181.518 147.534 180.069 146.764 178.995L144.831 176.28C145.388 175.245 145.831 174.17 146.177 173.048L149.458 172.501C150.756 172.281 151.699 171.168 151.699 169.854V165.845C151.699 164.559 150.756 163.447 149.458 163.226ZM149.39 169.873C149.39 170.055 149.256 170.218 149.073 170.247L145.071 170.919C144.619 170.995 144.253 171.321 144.147 171.763C143.782 173.173 143.224 174.525 142.474 175.782C142.243 176.175 142.262 176.664 142.522 177.038L144.879 180.347C144.984 180.501 144.965 180.702 144.84 180.837L142.002 183.666C141.906 183.762 141.791 183.781 141.733 183.781C141.675 183.781 141.598 183.772 141.512 183.714L138.202 181.364C137.827 181.096 137.337 181.076 136.942 181.307C135.682 182.055 134.326 182.611 132.911 182.976C132.469 183.091 132.142 183.446 132.065 183.896L131.382 187.896C131.353 188.078 131.189 188.213 131.007 188.213H126.986C126.803 188.213 126.639 188.078 126.61 187.896L125.937 183.906C125.86 183.455 125.533 183.091 125.09 182.985C123.715 182.63 122.387 182.083 121.146 181.374C120.964 181.268 120.762 181.22 120.569 181.22C120.338 181.22 120.098 181.287 119.905 181.431L116.567 183.791C116.481 183.848 116.404 183.858 116.346 183.858C116.288 183.858 116.173 183.839 116.077 183.743L113.22 180.904C113.085 180.769 113.066 180.568 113.181 180.415L115.528 177.134C115.798 176.76 115.817 176.271 115.576 175.878C114.826 174.631 114.249 173.278 113.883 171.868C113.768 171.437 113.402 171.101 112.96 171.024L108.919 170.343C108.737 170.314 108.602 170.151 108.602 169.969V165.96C108.602 165.777 108.737 165.614 108.919 165.586L112.902 164.924C113.354 164.847 113.72 164.511 113.835 164.07C114.191 162.66 114.739 161.308 115.48 160.041C115.711 159.648 115.682 159.169 115.422 158.795L113.056 155.466C112.95 155.313 112.969 155.111 113.094 154.977L115.923 152.138C116.019 152.042 116.134 152.023 116.192 152.023C116.25 152.023 116.327 152.032 116.413 152.09L119.703 154.43C120.079 154.699 120.569 154.718 120.964 154.478C122.214 153.73 123.571 153.155 124.985 152.79C125.418 152.675 125.754 152.31 125.831 151.869L126.514 147.841C126.543 147.658 126.707 147.524 126.889 147.524H130.911C131.093 147.524 131.257 147.658 131.286 147.841L131.949 151.812C132.026 152.262 132.363 152.627 132.806 152.742C134.258 153.107 135.644 153.672 136.933 154.43C137.327 154.66 137.818 154.641 138.193 154.382L141.512 152.032C141.598 151.975 141.675 151.965 141.733 151.965C141.791 151.965 141.906 151.984 142.002 152.08L144.84 154.91C144.975 155.044 144.994 155.246 144.879 155.399L142.522 158.699C142.252 159.073 142.233 159.562 142.464 159.955C143.214 161.212 143.772 162.564 144.138 163.974C144.253 164.415 144.609 164.741 145.061 164.818L149.073 165.499C149.256 165.528 149.39 165.691 149.39 165.873V169.873Z" fill="#6CC25E"/>
<circle cx="129.332" cy="168.387" r="6.5" transform="rotate(180 129.332 168.387)" stroke="#6CC25E" stroke-width="3"/>
</g>
</g>
<defs>
<clipPath id="clip0_3412_23196">
<rect width="190.556" height="190" fill="white" transform="translate(0.222046 0.5)"/>
</clipPath>
<clipPath id="clip1_3412_23196">
<rect width="45.4059" height="45.2734" fill="white" transform="translate(106.293 145.227)"/>
</clipPath>
</defs>
</svg>
