<svg width="117" height="117" viewBox="0 0 117 117" fill="none" xmlns="http://www.w3.org/2000/svg">
<path d="M7.86649 98.8287C21.1321 113.973 44.1614 115.635 59.4683 102.489L101.882 66.0636C117.189 52.9177 119.005 29.918 106.013 14.5378C105.995 14.516 105.98 14.4928 105.962 14.471L105.797 14.2801L103.402 11.4955C98.9061 6.26868 91.0211 5.67338 85.7902 10.1658L80.9327 14.3376C75.7017 18.8301 75.106 26.7088 79.602 31.9356L82.1617 34.9114C82.2864 35.0564 82.4181 35.1922 82.5557 35.3183C86.0477 38.5186 87.4582 43.4418 85.7166 47.8452C84.4183 51.1279 82.3251 54.1522 79.4599 56.6129L53.486 78.92C50.6208 81.3807 47.3139 82.994 43.8709 83.7833C39.2526 84.8422 34.5934 82.7091 31.9514 78.7785C31.8473 78.6237 31.733 78.4731 31.6081 78.3282L29.0484 75.3523C24.5523 70.1255 16.6674 69.5302 11.4364 74.0227L6.57893 78.1944C1.34799 82.6869 0.752221 90.5657 5.24822 95.7925L7.64348 98.5771L7.80771 98.768C7.82699 98.7891 7.84774 98.8074 7.86649 98.8287Z" fill="url(#paint0_linear_8181_40361)"/>
<path d="M106.014 14.5341C105.996 14.5121 105.981 14.4891 105.962 14.4673L105.798 14.2764L103.403 11.4916C99.9364 7.46117 94.455 6.18804 89.7288 7.87535C91.0402 8.58082 92.2476 9.53148 93.2763 10.7276L95.6714 13.5124L95.8356 13.7033C95.8541 13.7248 95.8692 13.7481 95.8873 13.77C108.877 29.1501 107.06 52.1507 91.753 65.2978L49.3403 101.728C43.0313 107.146 35.4108 110.047 27.7028 110.528C38.5732 112.883 50.3804 110.296 59.4668 102.492L101.88 66.0621C117.186 52.9147 119.003 29.9142 106.014 14.5341Z" fill="url(#paint1_linear_8181_40361)"/>
<path d="M24.0443 80.9809C30.4088 88.0785 41.2875 88.781 48.5205 82.5679L49.4293 81.7873L49.2943 81.769C47.5582 82.6835 45.7346 83.355 43.8701 83.7825C41.05 84.4291 38.2151 83.8856 35.8333 82.4691C35.8202 82.4612 35.804 82.4526 35.7884 82.4443C35.7897 82.4439 35.791 82.4435 35.7923 82.4431C34.2908 81.5419 32.9704 80.2944 31.9514 78.7778C31.8473 78.6229 31.733 78.4727 31.6081 78.3274L29.0486 75.3514C25.582 71.3207 20.1003 70.0475 15.3739 71.7349C15.9464 72.0431 19.8391 76.2914 24.0443 80.9809Z" fill="url(#paint2_linear_8181_40361)"/>
<defs>
<linearGradient id="paint0_linear_8181_40361" x1="10.4884" y1="55.1955" x2="123.191" y2="63.7177" gradientUnits="userSpaceOnUse">
<stop stop-color="#BAEEB2"/>
<stop offset="1" stop-color="#518C47"/>
</linearGradient>
<linearGradient id="paint1_linear_8181_40361" x1="36.1201" y1="57.1337" x2="120.615" y2="63.5271" gradientUnits="userSpaceOnUse">
<stop stop-color="#BAEEB2"/>
<stop offset="1" stop-color="#6CC25E"/>
</linearGradient>
<linearGradient id="paint2_linear_8181_40361" x1="19.8768" y1="78.2747" x2="74.4184" y2="82.4016" gradientUnits="userSpaceOnUse">
<stop stop-color="#518C47"/>
<stop offset="1" stop-color="#518C47"/>
</linearGradient>
</defs>
</svg>
