<svg width="24" height="24" viewBox="0 0 24 24" fill="none" xmlns="http://www.w3.org/2000/svg">
<g id="Icons">
<path id="Vector" d="M20.4507 2H3.54926C2.14354 2 1 3.03959 1 4.31751V16.6096C1 17.8875 2.14354 18.9271 3.54926 18.9271H8.2639L11.3924 21.7713C11.7278 22.0762 12.2721 22.0762 12.6076 21.7713L15.7361 18.9271H20.4507C21.8565 18.9271 23 17.8875 23 16.6096V4.31751C23 3.03959 21.8565 2 20.4507 2ZM21.2812 16.6096C21.2812 17.0258 20.9086 17.3646 20.4507 17.3646H15.3803C15.1523 17.3646 14.9336 17.447 14.7725 17.5935L12 20.1139L9.22751 17.5935C9.06638 17.447 8.84767 17.3647 8.6199 17.3647H3.54926C3.09137 17.3647 2.71875 17.0258 2.71875 16.6096V4.31751C2.71875 3.90125 3.09137 3.56251 3.54926 3.56251H20.4507C20.9086 3.56251 21.2812 3.90125 21.2812 4.31751V16.6096ZM15.3908 8.01412C15.4513 9.20935 14.7705 10.3052 13.6138 10.8742C13.1486 11.1033 12.8594 11.5307 12.8594 11.9898V12C12.8594 12.4316 12.4747 12.7813 12 12.7813C11.5253 12.7813 11.1406 12.4316 11.1406 12C11.1418 11.9961 11.0612 10.3536 12.7958 9.50018C13.3673 9.21896 13.7038 8.67712 13.6739 8.08599C13.6347 7.30932 12.9346 6.67287 12.0802 6.63716C11.1149 6.59688 10.3242 7.2939 10.3242 8.15893C10.3242 8.59045 9.93951 8.94018 9.46484 8.94018C8.99017 8.94018 8.60547 8.59045 8.60547 8.15893C8.60547 6.39394 10.2245 4.99348 12.1591 5.07634C13.903 5.14912 15.3108 6.43117 15.3908 8.01412ZM12.8594 14.2918V15.073C12.8594 15.5045 12.4747 15.8543 12 15.8543C11.5253 15.8543 11.1406 15.5045 11.1406 15.073V14.2918C11.1406 13.8602 11.5253 13.5105 12 13.5105C12.4747 13.5105 12.8594 13.8602 12.8594 14.2918Z" fill="white"/>
</g>
</svg>
