<svg width="133" height="133" viewBox="0 0 133 133" fill="none" xmlns="http://www.w3.org/2000/svg">
<path d="M110.733 21.182H82.3437C77.2245 18.9471 71.5707 17.7058 65.6249 17.7058C59.6816 17.7058 54.0304 18.9445 48.9112 21.182C37.8827 25.9935 29.3316 35.4287 25.7067 47.0387H28.6796C32.0881 47.0387 34.0205 50.9401 31.9603 53.6522L19.2445 70.3711C17.5963 72.5382 14.3365 72.5382 12.6884 70.3711L-0.0274527 53.6522C-0.611608 52.8829 -0.875 52.0197 -0.875 51.1748C-0.875 49.0416 0.809663 47.0387 3.2506 47.0387H7.74912C9.83539 37.3193 14.3052 28.4866 20.5197 21.182C30.3147 9.66583 44.4414 1.94663 60.3805 0.548826H60.3831C60.4196 0.546218 60.4561 0.541002 60.4926 0.541002C60.8864 0.504492 61.2828 0.475806 61.6818 0.449728C62.9857 0.363669 64.3001 0.319336 65.6249 0.319336C83.6972 0.319336 99.8762 8.41693 110.733 21.182Z" fill="url(#paint0_linear_8252_40294)"/>
<path d="M60.4034 18.0284C58.695 17.8159 56.9548 17.7051 55.1887 17.7051C37.5157 17.7051 22.4038 28.6705 16.2842 44.1686C15.7402 45.5461 16.7635 47.0388 18.2445 47.0388C21.6514 47.0388 23.5857 50.9394 21.5231 53.6513L10.748 67.8199L12.6878 70.3704C14.3362 72.538 17.5968 72.538 19.2452 70.3704L31.9597 53.651C34.022 50.9391 32.088 47.0386 28.6811 47.0386H25.7074C30.5149 31.6455 43.9805 20.0748 60.4034 18.0284Z" fill="url(#paint1_linear_8252_40294)"/>
<path d="M133.872 81.8253C133.872 83.9585 132.187 85.9613 129.746 85.9613H125.248C123.162 95.6807 118.692 104.513 112.477 111.818C101.621 124.583 85.4418 132.681 67.3721 132.681C49.2998 132.681 33.1208 124.583 22.2617 111.818H50.6559C55.775 114.053 61.4288 115.294 67.3721 115.294C73.3154 115.294 78.9665 114.056 84.0857 111.818C95.1143 107.007 103.663 97.5714 107.29 85.9613H104.317C100.909 85.9613 98.9765 82.06 101.037 79.3478L108.938 68.9556L113.753 62.629C115.401 60.4619 118.66 60.4619 120.309 62.629L126.507 70.7785L133.024 79.3478C133.609 80.1172 133.872 80.9803 133.872 81.8253Z" fill="url(#paint2_linear_8252_40294)"/>
<path d="M133.024 79.3478L126.507 70.7785L120.309 62.629C118.66 60.4619 115.401 60.4619 113.752 62.629L111.812 65.1792L116.071 70.7785L122.588 79.3478C124.651 82.06 122.716 85.9613 119.31 85.9613H119.209C116.679 85.9613 114.479 87.6496 113.771 90.0786C107.067 113.08 86.7822 130.292 62.1777 132.452C63.8898 132.6 65.6214 132.681 67.372 132.681C95.7844 132.681 119.518 112.663 125.248 85.9613H129.746C133.152 85.9613 135.087 82.0603 133.024 79.3478Z" fill="url(#paint3_linear_8252_40294)"/>
<defs>
<linearGradient id="paint0_linear_8252_40294" x1="10.2393" y1="36.1581" x2="89.4832" y2="36.1581" gradientUnits="userSpaceOnUse">
<stop stop-color="#01D0FB"/>
<stop offset="0.6075" stop-color="#26A6FE"/>
<stop offset="1" stop-color="#0182FC"/>
</linearGradient>
<linearGradient id="paint1_linear_8252_40294" x1="15.6933" y1="44.8506" x2="50.9492" y2="44.8506" gradientUnits="userSpaceOnUse">
<stop stop-color="#01BFFA"/>
<stop offset="1" stop-color="#5B5CFF"/>
</linearGradient>
<linearGradient id="paint2_linear_8252_40294" x1="18.6329" y1="96.8423" x2="119.288" y2="96.8423" gradientUnits="userSpaceOnUse">
<stop stop-color="#01D0FB"/>
<stop offset="0.6075" stop-color="#26A6FE"/>
<stop offset="1" stop-color="#0182FC"/>
</linearGradient>
<linearGradient id="paint3_linear_8252_40294" x1="21.9091" y1="96.8423" x2="123.78" y2="96.8423" gradientUnits="userSpaceOnUse">
<stop stop-color="#01BFFA"/>
<stop offset="1" stop-color="#5B5CFF"/>
</linearGradient>
</defs>
</svg>
