<svg xmlns="http://www.w3.org/2000/svg" width="25" height="24" viewBox="0 0 25 24" fill="none">
<path d="M8.0249 21.0999C8.33025 21.0999 8.61252 20.9591 8.79101 20.7389L12.6148 16.9094C12.9949 16.5287 12.9949 15.9113 12.6148 15.5306C12.2346 15.1498 11.6181 15.1498 11.2379 15.5306L8.9999 17.7636V3.8749C8.9999 3.33643 8.56258 2.8999 8.0249 2.8999C7.48722 2.8999 7.0499 3.33643 7.0499 3.8749V17.7772L4.81186 15.5247C4.43166 15.144 3.81524 15.144 3.43505 15.5247C3.05486 15.9055 3.05485 16.5227 3.43505 16.9035L7.34006 20.8143C7.5314 21.0059 7.77412 21.1012 8.0249 21.0999ZM11.9249 4.1999C11.3864 4.1999 10.9499 4.63643 10.9499 5.1749C10.9499 5.71338 11.3864 6.1499 11.9249 6.1499H20.3749C20.9134 6.1499 21.3499 5.71338 21.3499 5.1749C21.3499 4.63643 20.9134 4.1999 20.3749 4.1999H11.9249ZM11.9249 8.0999C11.3864 8.0999 10.9499 8.53643 10.9499 9.0749C10.9499 9.61338 11.3864 10.0499 11.9249 10.0499H17.7749C18.3134 10.0499 18.7499 9.61338 18.7499 9.0749C18.7499 8.53643 18.3134 8.0999 17.7749 8.0999H11.9249ZM11.9249 11.9999C11.3864 11.9999 10.9499 12.4364 10.9499 12.9749C10.9499 13.5134 11.3864 13.9499 11.9249 13.9499H13.8749C14.4134 13.9499 14.8499 13.5134 14.8499 12.9749C14.8499 12.4364 14.4134 11.9999 13.8749 11.9999H11.9249Z" fill="#6CC25E"/>
</svg>