<svg width="36" height="36" viewBox="0 0 36 36" fill="none" xmlns="http://www.w3.org/2000/svg">
<g clip-path="url(#clip0_1430_20344)">
<path d="M36.0249 0.0332031H0.0249023V36.0332H36.0249V0.0332031Z" fill="url(#paint0_linear_1430_20344)"/>
<path d="M14.1591 22.1896H13.0131V21.5252C12.5813 22.0235 12.2076 22.2726 11.8089 22.2726C11.4518 22.2726 11.211 22.1065 11.0865 21.8076C11.0117 21.6249 10.9619 21.3425 10.9619 20.919V16.0858H12.1079V20.62C12.1079 20.8775 12.1079 20.9854 12.1079 21.0436C12.1328 21.2097 12.2076 21.2761 12.3487 21.2761C12.5647 21.2761 12.764 21.0851 13.0131 20.7446V16.0941H14.1591V22.1979V22.1896ZM8.9605 20.3792C9.01863 20.9854 8.83593 21.2844 8.47884 21.2844C8.12175 21.2844 7.93905 20.9854 7.99718 20.3792V17.9626C7.93905 17.3564 8.12175 17.074 8.47884 17.074C8.83593 17.074 9.02694 17.3564 8.9605 17.9626V20.3792ZM10.1065 18.0789C10.1065 17.4228 9.97365 16.9328 9.74112 16.6256C9.43386 16.2103 8.95219 16.0359 8.47053 16.0359C7.92244 16.0359 7.50721 16.2103 7.19995 16.6256C6.96742 16.9328 6.83455 17.4311 6.83455 18.0789V20.2463C6.83455 20.8941 6.95081 21.3425 7.18334 21.6498C7.4906 22.065 7.98057 22.2892 8.47053 22.2892C8.95219 22.2892 9.45877 22.065 9.76604 21.6498C9.99856 21.3425 10.1065 20.8941 10.1065 20.2463V18.0705V18.0789ZM5.57226 18.8678V22.1896H4.35981V18.8678C4.35981 18.8678 3.10583 14.7903 2.84839 14.0346H4.11898L4.96604 17.2152L5.81309 14.0346H7.08368L5.57226 18.8678ZM25.9681 17.0574C25.7854 17.0574 25.5778 17.1488 25.3951 17.3314V20.9937C25.5778 21.1764 25.7854 21.2678 25.9681 21.2678C26.2837 21.2678 26.4249 21.0353 26.4249 20.429V17.8297C26.4249 17.2235 26.2837 17.0491 25.9681 17.0491V17.0574ZM30.4775 17.7799C30.4775 17.2235 30.3363 17.0574 29.9709 17.0574C29.6055 17.0574 29.4477 17.2152 29.4477 17.7799V18.4526H30.4775V17.7965V17.7799ZM29.9792 21.2678C30.2449 21.2678 30.4027 21.1183 30.4691 20.8276C30.4775 20.7695 30.4775 20.5038 30.4775 20.0719H31.6235V20.2463C31.6235 20.5951 31.5903 20.8526 31.582 20.9605C31.5487 21.2013 31.4574 21.4256 31.3245 21.6166C31.0256 22.0567 30.5688 22.2726 30.0041 22.2726C29.4311 22.2726 28.9993 22.065 28.6754 21.6498C28.4429 21.3508 28.2934 20.8941 28.2934 20.2546V18.137C28.2934 17.4892 28.4262 16.991 28.6588 16.6837C28.9743 16.2685 29.4145 16.0526 29.9709 16.0526C30.519 16.0526 30.9591 16.2685 31.2664 16.6837C31.4989 16.991 31.6235 17.4643 31.6235 18.1038V19.3411H29.4477V20.429C29.4477 20.9854 29.6055 21.2678 29.9792 21.2678ZM33.1349 19.0256V17.5141C33.1266 16.0858 32.9522 14.6823 32.9522 14.6823C32.9522 14.6823 32.7778 13.4449 32.238 12.8968C31.5487 12.1827 30.7847 12.1744 30.4276 12.1328C27.9031 11.9501 24.1162 11.9501 24.1162 11.9501H24.1079C24.1079 11.9501 20.3211 11.9501 17.7965 12.1328C17.4477 12.1744 16.6754 12.1744 15.9861 12.8968C15.4463 13.4449 15.2719 14.6823 15.2719 14.6823C15.2719 14.6823 15.0892 16.1356 15.0892 17.5889V18.9508C15.0892 20.4041 15.2719 21.8574 15.2719 21.8574C15.2719 21.8574 15.4463 23.0948 15.9861 23.6429C16.6754 24.3571 17.5723 24.3321 17.9792 24.4069C19.4242 24.5481 24.1162 24.5896 24.1162 24.5896C24.2325 24.5896 27.9446 24.5813 30.4276 24.3986C30.7764 24.3571 31.5487 24.3571 32.238 23.6346C32.7778 23.0865 32.9522 21.8491 32.9522 21.8491C32.9522 21.8491 33.1266 20.4456 33.1349 19.0173V19.0256ZM27.5709 20.3709C27.5709 20.9273 27.5211 21.3259 27.4463 21.5834C27.2968 22.0318 26.9813 22.2643 26.5494 22.2643C26.1591 22.2643 25.7605 22.0318 25.3951 21.575V22.1813H24.3072V14.0844H25.3951V16.7252C25.7522 16.2934 26.1508 16.0443 26.5494 16.0443C26.9813 16.0443 27.2802 16.2934 27.4214 16.7501C27.4961 16.991 27.5709 17.3813 27.5709 17.9543V20.3709ZM23.402 22.1813H22.256V21.5169C21.8242 22.0152 21.4505 22.2643 21.0518 22.2643C20.6948 22.2643 20.4539 22.0982 20.3294 21.7993C20.2546 21.6166 20.2048 21.3342 20.2048 20.9107V16.1356H21.3508V20.6117C21.3508 20.8692 21.3508 20.9771 21.3508 21.0353C21.3757 21.2013 21.4505 21.2678 21.5916 21.2678C21.8076 21.2678 22.0069 21.0768 22.256 20.7363V16.1439H23.402V22.1896V22.1813ZM19.0505 22.1813H17.838V15.2304H16.5674V14.0844H20.3792V15.2304H19.0505V22.1813Z" fill="#BCBCBC"/>
<path d="M14.1923 21.9405H13.0463V21.2761C12.6145 21.7744 12.2408 22.0235 11.8421 22.0235C11.4851 22.0235 11.2442 21.8575 11.1197 21.5585C11.0449 21.3758 10.9951 21.0934 10.9951 20.6699V15.8367H12.1411V20.3709C12.1411 20.6284 12.1411 20.7363 12.1411 20.7945C12.166 20.9606 12.2408 21.027 12.3819 21.027C12.5979 21.027 12.7972 20.836 13.0463 20.4955V15.845H14.1923V21.9488V21.9405ZM8.9937 20.1301C9.05183 20.7363 8.86913 21.0353 8.51204 21.0353C8.15495 21.0353 7.97225 20.7363 8.03038 20.1301V17.7135C7.97225 17.1073 8.15495 16.8249 8.51204 16.8249C8.86913 16.8249 9.06014 17.1073 8.9937 17.7135V20.1301ZM10.1397 17.8298C10.1397 17.1737 10.0069 16.6837 9.77433 16.3765C9.46706 15.9613 8.9854 15.7869 8.50374 15.7869C7.95564 15.7869 7.54042 15.9613 7.23315 16.3765C7.00062 16.6837 6.86775 17.182 6.86775 17.8298V19.9972C6.86775 20.645 6.98401 21.0934 7.21654 21.4007C7.52381 21.8159 8.01377 22.0402 8.50374 22.0402C8.9854 22.0402 9.49197 21.8159 9.79924 21.4007C10.0318 21.0934 10.1397 20.645 10.1397 19.9972V17.8215V17.8298ZM5.60547 18.6187V21.9405H4.39301V18.6187C4.39301 18.6187 3.13903 14.5412 2.88159 13.7855H4.15218L4.99924 16.9661L5.8463 13.7855H7.11689L5.60547 18.6187ZM26.0013 16.8083C25.8186 16.8083 25.611 16.8997 25.4283 17.0824V20.7446C25.611 20.9273 25.8186 21.0187 26.0013 21.0187C26.3169 21.0187 26.4581 20.7862 26.4581 20.1799V17.5806C26.4581 16.9744 26.3169 16.8 26.0013 16.8V16.8083ZM30.5107 17.5308C30.5107 16.9744 30.3695 16.8083 30.0041 16.8083C29.6387 16.8083 29.4809 16.9661 29.4809 17.5308V18.2035H30.5107V17.5474V17.5308ZM30.0124 21.0187C30.2781 21.0187 30.4359 20.8692 30.5024 20.5786C30.5107 20.5204 30.5107 20.2547 30.5107 19.8229H31.6567V19.9972C31.6567 20.346 31.6235 20.6035 31.6152 20.7114C31.5819 20.9523 31.4906 21.1765 31.3577 21.3675C31.0588 21.8076 30.602 22.0235 30.0373 22.0235C29.4643 22.0235 29.0325 21.8159 28.7086 21.4007C28.4761 21.1017 28.3266 20.645 28.3266 20.0055V17.8879C28.3266 17.2402 28.4594 16.7419 28.692 16.4346C29.0075 16.0194 29.4477 15.8035 30.0041 15.8035C30.5522 15.8035 30.9923 16.0194 31.2996 16.4346C31.5321 16.7419 31.6567 17.2152 31.6567 17.8547V19.0921H29.4809V20.1799C29.4809 20.7363 29.6387 21.0187 30.0124 21.0187ZM33.1681 18.7765V17.2651C33.1598 15.8367 32.9854 14.4332 32.9854 14.4332C32.9854 14.4332 32.811 13.1959 32.2712 12.6478C31.5819 11.9336 30.8179 11.9253 30.4608 11.8837C27.9363 11.701 24.1494 11.701 24.1494 11.701H24.1411C24.1411 11.701 20.3543 11.701 17.8297 11.8837C17.4809 11.9253 16.7086 11.9253 16.0193 12.6478C15.4795 13.1959 15.3051 14.4332 15.3051 14.4332C15.3051 14.4332 15.1224 15.8865 15.1224 17.3398V18.7017C15.1224 20.155 15.3051 21.6083 15.3051 21.6083C15.3051 21.6083 15.4795 22.8457 16.0193 23.3938C16.7086 24.108 17.6055 24.0831 18.0124 24.1578C19.4574 24.299 24.1494 24.3405 24.1494 24.3405C24.2657 24.3405 27.9778 24.3322 30.4608 24.1495C30.8096 24.108 31.5819 24.108 32.2712 23.3855C32.811 22.8374 32.9854 21.6 32.9854 21.6C32.9854 21.6 33.1598 20.1966 33.1681 18.7682V18.7765ZM27.6041 20.1218C27.6041 20.6782 27.5543 21.0768 27.4795 21.3343C27.33 21.7827 27.0145 22.0152 26.5826 22.0152C26.1923 22.0152 25.7937 21.7827 25.4283 21.326V21.9322H24.3404V13.8353H25.4283V16.4761C25.7854 16.0443 26.184 15.7952 26.5826 15.7952C27.0145 15.7952 27.3134 16.0443 27.4546 16.5011C27.5293 16.7419 27.6041 17.1322 27.6041 17.7052V20.1218ZM23.4352 21.9322H22.2892V21.2678C21.8574 21.7661 21.4837 22.0152 21.0851 22.0152C20.728 22.0152 20.4871 21.8491 20.3626 21.5502C20.2878 21.3675 20.238 21.0851 20.238 20.6616V15.8865H21.384V20.3626C21.384 20.6201 21.384 20.728 21.384 20.7862C21.4089 20.9523 21.4837 21.0187 21.6248 21.0187C21.8408 21.0187 22.0401 20.8277 22.2892 20.4872V15.8948H23.4352V21.9405V21.9322ZM19.0837 21.9322H17.8712V14.9813H16.6006V13.8353H20.4124V14.9813H19.0837V21.9322Z" fill="url(#paint1_linear_1430_20344)"/>
</g>
<defs>
<linearGradient id="paint0_linear_1430_20344" x1="18.0282" y1="0.0354453" x2="18.0282" y2="36.0348" gradientUnits="userSpaceOnUse">
<stop stop-color="#DE1A00"/>
<stop offset="1" stop-color="#BE0519"/>
</linearGradient>
<linearGradient id="paint1_linear_1430_20344" x1="18.0282" y1="24.3539" x2="18.0282" y2="11.7163" gradientUnits="userSpaceOnUse">
<stop stop-color="#F8F7F8"/>
<stop offset="0.270588" stop-color="#FBFAFB"/>
<stop offset="1" stop-color="#FEFEFE"/>
</linearGradient>
<clipPath id="clip0_1430_20344">
<rect width="36" height="36" rx="18" fill="white"/>
</clipPath>
</defs>
</svg>
