<svg width="565" height="578" viewBox="0 0 565 578" fill="none" xmlns="http://www.w3.org/2000/svg">
  
  <defs>
    <pattern id="imagePattern2" x="0" y="0" width="100%" height="100%">
      <image href="/images/about-us/service2.jpg" x="0" y="0" width="565" height="578" />
    </pattern>
  </defs>

  <path fill-rule="evenodd" clip-rule="evenodd" d="M265.849 2.1143C325.799 5.23241 383.345 20.8103 433.918 53.0663C487.225 87.0655 541.297 128.491 558.91 188.961C567.613 218.839 565.3 249.258 557.819 279.442C550.719 308.089 538.974 336.489 527.599 363.994C526.985 365.478 526.373 366.958 525.762 368.437C503.647 421.976 472.8 470.377 427.647 506.617C380.587 544.388 326.034 573.951 265.848 577.088C203.587 580.333 138.709 564.588 91.3437 524.187C68.5382 504.735 53.8189 479.467 42.8838 451.773C33.6047 428.273 27.0611 403.058 20.6069 378.186C19.4526 373.738 18.3012 369.301 17.1375 364.887C2.69603 310.106 -5.52586 255.043 5.81981 199.625C18.3653 138.346 34.988 72.556 84.6322 34.8463C134.648 -3.14544 202.857 -1.16201 265.849 2.1143Z" fill="url(#imagePattern2)" />
</svg>
