<svg width="570" height="577" viewBox="0 0 570 577" fill="none" xmlns="http://www.w3.org/2000/svg">

  <defs>
    <pattern id="imagePattern" x="0" y="0" width="100%" height="100%">
      <image href="/images/about-us/service1.jpg" x="0" y="0" width="570" height="577" />
    </pattern>
  </defs>


  <path fill="url(#imagePattern)" fill-rule="evenodd" clip-rule="evenodd" d="M287.771 5.92C342.285 2.06235 400.337 -7.69489 447.843 19.3071C496.138 46.758 522.563 100.075 543.738 151.412C564.327 201.327 575.735 255.085 567.08 308.377C558.516 361.108 527.733 405.526 495.542 448.173C461.28 493.565 427.793 543.554 374.515 563.496C319.744 583.996 257.834 577.3 202.706 557.78C149.305 538.871 106.378 500.194 70.9515 456.009C36.5309 413.079 10.5382 363.653 3.32983 309.114C-3.82862 254.953 5.57542 199.432 30.6218 150.873C54.9797 103.648 95.329 67.0766 141.632 40.9758C186.169 15.871 236.767 9.52927 287.771 5.92Z" stroke="#6CC25E" stroke-linecap="round" stroke-dasharray="36 36"/>
</svg>